G04 #@! TF.GenerationSoftware,KiCad,Pcbnew,6.0.0-unknown-r16460-346495ae*
G04 #@! TF.CreationDate,2019-10-08T21:17:01+03:00*
G04 #@! TF.ProjectId,vfd-ps,7666642d-7073-42e6-9b69-6361645f7063,A*
G04 #@! TF.SameCoordinates,Original*
G04 #@! TF.FileFunction,Copper,L2,Bot*
G04 #@! TF.FilePolarity,Positive*
%FSLAX46Y46*%
G04 Gerber Fmt 4.6, Leading zero omitted, Abs format (unit mm)*
G04 Created by KiCad (PCBNEW 6.0.0-unknown-r16460-346495ae) date 2019-10-08 21:17:01*
%MOMM*%
%LPD*%
G04 APERTURE LIST*
%ADD10R,4.500000X2.950000*%
%ADD11C,0.600000*%
%ADD12R,3.100000X2.600000*%
%ADD13C,1.500000*%
%ADD14C,1.440000*%
%ADD15C,0.500000*%
%ADD16C,0.100000*%
%ADD17O,1.700000X1.700000*%
%ADD18R,1.700000X1.700000*%
%ADD19C,6.400000*%
%ADD20C,0.800000*%
%ADD21C,0.300000*%
%ADD22C,0.500000*%
%ADD23C,1.000000*%
%ADD24C,0.254000*%
G04 APERTURE END LIST*
D10*
X132207000Y-101981000D03*
D11*
X134007000Y-101381000D03*
X132807000Y-101381000D03*
X132807000Y-102581000D03*
X134007000Y-102581000D03*
X130407000Y-101381000D03*
X131507000Y-101381000D03*
X131507000Y-102581000D03*
X130407000Y-102581000D03*
D10*
X132207000Y-101981000D03*
D12*
X132207000Y-101981000D03*
D13*
X128397000Y-84963000D03*
X165481000Y-96901000D03*
X157353000Y-96901000D03*
X168021000Y-107061000D03*
X154813000Y-107061000D03*
X146431000Y-111125000D03*
D14*
X165481000Y-104521000D03*
X168021000Y-101981000D03*
X165481000Y-99441000D03*
X157353000Y-99441000D03*
X154813000Y-101981000D03*
X157353000Y-104521000D03*
X125095000Y-99441000D03*
X122555000Y-101981000D03*
X125095000Y-104521000D03*
D15*
X161417000Y-85105000D03*
D16*
G36*
X162150835Y-85250158D02*
G01*
X162090647Y-85380120D01*
X161996402Y-85487965D01*
X161875676Y-85565024D01*
X161738175Y-85605102D01*
X161667000Y-85604170D01*
X161667000Y-85605000D01*
X161238525Y-85605000D01*
X161238175Y-85605102D01*
X161230385Y-85605000D01*
X161167000Y-85605000D01*
X161167000Y-85604170D01*
X161082758Y-85603067D01*
X160946354Y-85559404D01*
X160827686Y-85479211D01*
X160736296Y-85368935D01*
X160679531Y-85237443D01*
X160661952Y-85095303D01*
X160667000Y-85064307D01*
X160667000Y-84605000D01*
X161098583Y-84605000D01*
X161101940Y-84604066D01*
X161173278Y-84605000D01*
X161598583Y-84605000D01*
X161601940Y-84604066D01*
X161673278Y-84605000D01*
X162167000Y-84605000D01*
X162167000Y-85070840D01*
X162172129Y-85108527D01*
X162150835Y-85250158D01*
X162150835Y-85250158D01*
G37*
D15*
X161417000Y-83805000D03*
D16*
G36*
X162167000Y-83842641D02*
G01*
X162167000Y-84305000D01*
X162017000Y-84305000D01*
X162017000Y-84705000D01*
X161617000Y-84705000D01*
X161617000Y-84305000D01*
X161238525Y-84305000D01*
X161238175Y-84305102D01*
X161230385Y-84305000D01*
X161217000Y-84305000D01*
X161217000Y-84705000D01*
X160817000Y-84705000D01*
X160817000Y-84305000D01*
X160667000Y-84305000D01*
X160667000Y-83836120D01*
X160661952Y-83795303D01*
X160684974Y-83653942D01*
X160746746Y-83524725D01*
X160842302Y-83418040D01*
X160963960Y-83342461D01*
X161101940Y-83304066D01*
X161173278Y-83305000D01*
X161598583Y-83305000D01*
X161601940Y-83304066D01*
X161745151Y-83305941D01*
X161882079Y-83347935D01*
X162001717Y-83426672D01*
X162094447Y-83535822D01*
X162152815Y-83666612D01*
X162172129Y-83808527D01*
X162167000Y-83842641D01*
X162167000Y-83842641D01*
G37*
D17*
X157607000Y-81153000D03*
X160147000Y-81153000D03*
X162687000Y-81153000D03*
D18*
X165227000Y-81153000D03*
D17*
X142621000Y-81153000D03*
X145161000Y-81153000D03*
X147701000Y-81153000D03*
D18*
X150241000Y-81153000D03*
D17*
X136017000Y-81153000D03*
X133477000Y-81153000D03*
X130937000Y-81153000D03*
D18*
X128397000Y-81153000D03*
D19*
X122000000Y-116000000D03*
D20*
X122000000Y-118400000D03*
X120302944Y-117697056D03*
X119600000Y-116000000D03*
X120302944Y-114302944D03*
X122000000Y-113600000D03*
X123697056Y-114302944D03*
X124400000Y-116000000D03*
X123697056Y-117697056D03*
D19*
X122000000Y-79000000D03*
D20*
X122000000Y-81400000D03*
X120302944Y-80697056D03*
X119600000Y-79000000D03*
X120302944Y-77302944D03*
X122000000Y-76600000D03*
X123697056Y-77302944D03*
X124400000Y-79000000D03*
X123697056Y-80697056D03*
D19*
X172000000Y-116000000D03*
D20*
X172000000Y-118400000D03*
X170302944Y-117697056D03*
X169600000Y-116000000D03*
X170302944Y-114302944D03*
X172000000Y-113600000D03*
X173697056Y-114302944D03*
X174400000Y-116000000D03*
X173697056Y-117697056D03*
D19*
X172000000Y-79000000D03*
D20*
X172000000Y-81400000D03*
X170302944Y-80697056D03*
X169600000Y-79000000D03*
X170302944Y-77302944D03*
X172000000Y-76600000D03*
X173697056Y-77302944D03*
X174400000Y-79000000D03*
X173697056Y-80697056D03*
X157988000Y-113792008D03*
X163830000Y-113792000D03*
X161417000Y-88265000D03*
X135636000Y-105283000D03*
X135636000Y-97917000D03*
X139445998Y-111760000D03*
X167132000Y-116458996D03*
X167132000Y-115570000D03*
X167132000Y-114554000D03*
X166243000Y-109093000D03*
X168021000Y-109093000D03*
X167132002Y-109093000D03*
X154559000Y-117983000D03*
X157353000Y-110363000D03*
X161417000Y-117983000D03*
X128905000Y-91440000D03*
X128905000Y-90170000D03*
X128905000Y-88900000D03*
X128905000Y-87630000D03*
D21*
X163830000Y-113792000D02*
X157988008Y-113792000D01*
X157988008Y-113792000D02*
X157988000Y-113792008D01*
D22*
X161417000Y-87699315D02*
X161417000Y-88265000D01*
X161417000Y-85155010D02*
X161417000Y-87699315D01*
D21*
X135636000Y-97917000D02*
X135636000Y-105283000D01*
X145161000Y-82550000D02*
X146416000Y-83805000D01*
X146416000Y-83805000D02*
X160569408Y-83805000D01*
X145161000Y-81153000D02*
X145161000Y-82550000D01*
X160569408Y-83805000D02*
X161417000Y-83805000D01*
D22*
X142621000Y-81280000D02*
X139445998Y-84455002D01*
X139445998Y-111194315D02*
X139445998Y-111760000D01*
X139445998Y-84455002D02*
X139445998Y-111194315D01*
D23*
X170518001Y-98255001D02*
X170518001Y-109643999D01*
X167386000Y-95123000D02*
X170518001Y-98255001D01*
X163869002Y-76835000D02*
X167386000Y-80351998D01*
X167386000Y-80351998D02*
X167386000Y-95123000D01*
X136017000Y-81153000D02*
X140335000Y-76835000D01*
X140335000Y-76835000D02*
X163869002Y-76835000D01*
X170518001Y-109643999D02*
X167132000Y-113030000D01*
X167132000Y-113030000D02*
X167132000Y-114554000D01*
X167132000Y-114554000D02*
X167132000Y-114554000D01*
D24*
G36*
X118380000Y-104517141D02*
G01*
X123989335Y-104517141D01*
X124011142Y-104739544D01*
X124077225Y-104953021D01*
X124184882Y-105148848D01*
X124329717Y-105319030D01*
X124505814Y-105456612D01*
X124705979Y-105555974D01*
X124922035Y-105613059D01*
X125145156Y-105625533D01*
X125366230Y-105592888D01*
X125576222Y-105516457D01*
X125766558Y-105399361D01*
X125929461Y-105246386D01*
X126058276Y-105063778D01*
X126147743Y-104858999D01*
X126194251Y-104640194D01*
X126195056Y-104409483D01*
X126150076Y-104190359D01*
X126062042Y-103984960D01*
X125934504Y-103801457D01*
X125772674Y-103647348D01*
X125583160Y-103528927D01*
X125373706Y-103451031D01*
X125152866Y-103416844D01*
X124929663Y-103427761D01*
X124713213Y-103483335D01*
X124512360Y-103581299D01*
X124335308Y-103717647D01*
X124189287Y-103886812D01*
X124080265Y-104081885D01*
X124012694Y-104294895D01*
X123989335Y-104517141D01*
X118380000Y-104517141D01*
X118380000Y-101977141D01*
X121449335Y-101977141D01*
X121471142Y-102199544D01*
X121537225Y-102413021D01*
X121644882Y-102608848D01*
X121789717Y-102779030D01*
X121965814Y-102916612D01*
X122165979Y-103015974D01*
X122382035Y-103073059D01*
X122605156Y-103085533D01*
X122826230Y-103052888D01*
X123036222Y-102976457D01*
X123226558Y-102859361D01*
X123389461Y-102706386D01*
X123518276Y-102523778D01*
X123607743Y-102318999D01*
X123654251Y-102100194D01*
X123655056Y-101869483D01*
X123610076Y-101650359D01*
X123522042Y-101444960D01*
X123394504Y-101261457D01*
X123232674Y-101107348D01*
X123043160Y-100988927D01*
X122833706Y-100911031D01*
X122612866Y-100876844D01*
X122389663Y-100887761D01*
X122173213Y-100943335D01*
X121972360Y-101041299D01*
X121795308Y-101177647D01*
X121649287Y-101346812D01*
X121540265Y-101541885D01*
X121472694Y-101754895D01*
X121449335Y-101977141D01*
X118380000Y-101977141D01*
X118380000Y-100348115D01*
X124716801Y-100348115D01*
X124754778Y-100488867D01*
X124922035Y-100533059D01*
X125145156Y-100545533D01*
X125366230Y-100512888D01*
X125565458Y-100440374D01*
X125095000Y-99969916D01*
X124716801Y-100348115D01*
X118380000Y-100348115D01*
X118380000Y-99437141D01*
X123989335Y-99437141D01*
X124011142Y-99659545D01*
X124090662Y-99916422D01*
X124566084Y-99441000D01*
X125623916Y-99441000D01*
X126004081Y-99821165D01*
X126147831Y-99778584D01*
X126194251Y-99560194D01*
X126195056Y-99329483D01*
X126148697Y-99103644D01*
X126004525Y-99060391D01*
X125623916Y-99441000D01*
X124566084Y-99441000D01*
X124091512Y-98966428D01*
X124012694Y-99214895D01*
X123989335Y-99437141D01*
X118380000Y-99437141D01*
X118380000Y-98533724D01*
X124716640Y-98533724D01*
X125095000Y-98912084D01*
X125479972Y-98527111D01*
X125431901Y-98380039D01*
X125152866Y-98336844D01*
X124929663Y-98347761D01*
X124755264Y-98392538D01*
X124716640Y-98533724D01*
X118380000Y-98533724D01*
X118380000Y-93078590D01*
X126874000Y-93078590D01*
X126874000Y-111010410D01*
X126900646Y-111144365D01*
X126983554Y-111268446D01*
X127107635Y-111351354D01*
X127241590Y-111378000D01*
X135267410Y-111378000D01*
X135401365Y-111351354D01*
X135525446Y-111268446D01*
X135608354Y-111144365D01*
X135635000Y-111010410D01*
X135635000Y-106064598D01*
X135801348Y-106054278D01*
X136020825Y-105971563D01*
X136206279Y-105827971D01*
X136341312Y-105636193D01*
X136414141Y-105412708D01*
X136416287Y-105166892D01*
X136347368Y-104942169D01*
X136215703Y-104748065D01*
X136166000Y-104708175D01*
X136166000Y-98493157D01*
X136206278Y-98461971D01*
X136341312Y-98270193D01*
X136414141Y-98046708D01*
X136416287Y-97800892D01*
X136347368Y-97576169D01*
X136215703Y-97382066D01*
X136032784Y-97235258D01*
X135814783Y-97148725D01*
X135635000Y-97134417D01*
X135635000Y-93078590D01*
X135608354Y-92944635D01*
X135525446Y-92820554D01*
X135401365Y-92737646D01*
X135267410Y-92711000D01*
X127241590Y-92711000D01*
X127107635Y-92737646D01*
X126983554Y-92820554D01*
X126900646Y-92944635D01*
X126874000Y-93078590D01*
X118380000Y-93078590D01*
X118380000Y-85894660D01*
X127994257Y-85894660D01*
X128032234Y-86035412D01*
X128219318Y-86084841D01*
X128448524Y-86097656D01*
X128675627Y-86064121D01*
X128890863Y-85985779D01*
X128397000Y-85491916D01*
X127994257Y-85894660D01*
X118380000Y-85894660D01*
X118380000Y-84959035D01*
X127261181Y-84959035D01*
X127283583Y-85187504D01*
X127368679Y-85462405D01*
X127868084Y-84963000D01*
X128925916Y-84963000D01*
X129331374Y-85368458D01*
X129475124Y-85325877D01*
X129526228Y-85085451D01*
X129527056Y-84848435D01*
X129476107Y-84600234D01*
X129331936Y-84556981D01*
X128925916Y-84963000D01*
X127868084Y-84963000D01*
X127369619Y-84464535D01*
X127285178Y-84730728D01*
X127261181Y-84959035D01*
X118380000Y-84959035D01*
X118380000Y-84031079D01*
X127993995Y-84031079D01*
X128397000Y-84434084D01*
X128890272Y-83940812D01*
X128683305Y-83863851D01*
X128456444Y-83828731D01*
X128227154Y-83839946D01*
X128032619Y-83889893D01*
X127993995Y-84031079D01*
X118380000Y-84031079D01*
X118380000Y-79181389D01*
X118419334Y-79181389D01*
X118459868Y-79567037D01*
X118541813Y-79946053D01*
X118664214Y-80314001D01*
X118825636Y-80666579D01*
X119024192Y-80999660D01*
X119257560Y-81309349D01*
X119523008Y-81592023D01*
X119817434Y-81844376D01*
X120137390Y-82063455D01*
X120479136Y-82246698D01*
X120838673Y-82391959D01*
X121211795Y-82497542D01*
X121594137Y-82562212D01*
X121981227Y-82585209D01*
X122368538Y-82566266D01*
X122751537Y-82505605D01*
X123125744Y-82403935D01*
X123486782Y-82262445D01*
X123830428Y-82082792D01*
X124152661Y-81867076D01*
X124449713Y-81617820D01*
X124536806Y-81527000D01*
X127162024Y-81527000D01*
X127162024Y-82015410D01*
X127189047Y-82151269D01*
X127273035Y-82276965D01*
X127398731Y-82360953D01*
X127534590Y-82387976D01*
X128023000Y-82387976D01*
X128023000Y-81527000D01*
X128771000Y-81527000D01*
X128771000Y-82387976D01*
X129259410Y-82387976D01*
X129395269Y-82360953D01*
X129520965Y-82276965D01*
X129604953Y-82151269D01*
X129631976Y-82015410D01*
X129631976Y-81527000D01*
X129755869Y-81527000D01*
X129865868Y-81768928D01*
X130001663Y-81960362D01*
X130171205Y-82122664D01*
X130368379Y-82249978D01*
X130563000Y-82328419D01*
X130563000Y-81527000D01*
X131311000Y-81527000D01*
X131311000Y-82343935D01*
X131604517Y-82192765D01*
X131789090Y-82047782D01*
X131942915Y-81870513D01*
X132068695Y-81653095D01*
X131995967Y-81527000D01*
X131311000Y-81527000D01*
X130563000Y-81527000D01*
X129755869Y-81527000D01*
X129631976Y-81527000D01*
X128771000Y-81527000D01*
X128023000Y-81527000D01*
X127162024Y-81527000D01*
X124536806Y-81527000D01*
X124718107Y-81337941D01*
X124907013Y-81092642D01*
X132242882Y-81092642D01*
X132253734Y-81327096D01*
X132308724Y-81555270D01*
X132405868Y-81768928D01*
X132541663Y-81960362D01*
X132711205Y-82122664D01*
X132908380Y-82249979D01*
X133128961Y-82338875D01*
X133433284Y-82383000D01*
X133535624Y-82383000D01*
X133710645Y-82366302D01*
X133935860Y-82300230D01*
X134144517Y-82192765D01*
X134329090Y-82047782D01*
X134482915Y-81870513D01*
X134600446Y-81667353D01*
X134677439Y-81445635D01*
X134711118Y-81213358D01*
X134705531Y-81092642D01*
X134782882Y-81092642D01*
X134793734Y-81327096D01*
X134848724Y-81555270D01*
X134945868Y-81768928D01*
X135081663Y-81960362D01*
X135251205Y-82122664D01*
X135448380Y-82249979D01*
X135668961Y-82338875D01*
X135973284Y-82383000D01*
X136075624Y-82383000D01*
X136250645Y-82366302D01*
X136475860Y-82300230D01*
X136684517Y-82192765D01*
X136869090Y-82047782D01*
X137022915Y-81870513D01*
X137140446Y-81667353D01*
X137217439Y-81445635D01*
X137251118Y-81213358D01*
X137248907Y-81165599D01*
X140699507Y-77715000D01*
X163504496Y-77715000D01*
X165707519Y-79918024D01*
X164364590Y-79918024D01*
X164228731Y-79945047D01*
X164103035Y-80029035D01*
X164019047Y-80154731D01*
X163992024Y-80290590D01*
X163992024Y-82015410D01*
X164019047Y-82151269D01*
X164103035Y-82276965D01*
X164228731Y-82360953D01*
X164364590Y-82387976D01*
X166089410Y-82387976D01*
X166225269Y-82360953D01*
X166350965Y-82276965D01*
X166434953Y-82151269D01*
X166461976Y-82015410D01*
X166461976Y-80672481D01*
X166506000Y-80716505D01*
X166506001Y-95024408D01*
X166499825Y-95051700D01*
X166506001Y-95151243D01*
X166506001Y-95186114D01*
X166509818Y-95212768D01*
X166515433Y-95303286D01*
X166527612Y-95337020D01*
X166532696Y-95372523D01*
X166570230Y-95455073D01*
X166601160Y-95540748D01*
X166621972Y-95568874D01*
X166637028Y-95601987D01*
X166703918Y-95679617D01*
X166720442Y-95701949D01*
X166740084Y-95721590D01*
X166801569Y-95792947D01*
X166829627Y-95811133D01*
X169638001Y-98619508D01*
X169638002Y-109279491D01*
X166579463Y-112338031D01*
X166555797Y-112352963D01*
X166489773Y-112427721D01*
X166465117Y-112452376D01*
X166448968Y-112473925D01*
X166388935Y-112541898D01*
X166373692Y-112574364D01*
X166352183Y-112603063D01*
X166320348Y-112687984D01*
X166281641Y-112770427D01*
X166276470Y-112805031D01*
X166263701Y-112839092D01*
X166256106Y-112941284D01*
X166252000Y-112968760D01*
X166252000Y-112996537D01*
X166245020Y-113090468D01*
X166252000Y-113123166D01*
X166252001Y-114541345D01*
X166251187Y-114674657D01*
X166269336Y-114738157D01*
X166278697Y-114803525D01*
X166303791Y-114858716D01*
X166320455Y-114917022D01*
X166355696Y-114972873D01*
X166383028Y-115032987D01*
X166422607Y-115078922D01*
X166454963Y-115130203D01*
X166471694Y-115144979D01*
X166380120Y-115331489D01*
X166343227Y-115563116D01*
X166376072Y-115795352D01*
X166475752Y-116007663D01*
X166481504Y-116013995D01*
X166380120Y-116220485D01*
X166343227Y-116452112D01*
X166376072Y-116684348D01*
X166475752Y-116896659D01*
X166633453Y-117070274D01*
X166835233Y-117189845D01*
X167063251Y-117244797D01*
X167297348Y-117230274D01*
X167516825Y-117147559D01*
X167702279Y-117003967D01*
X167837312Y-116812189D01*
X167910141Y-116588704D01*
X167912287Y-116342888D01*
X167862758Y-116181389D01*
X168419334Y-116181389D01*
X168459868Y-116567037D01*
X168541813Y-116946053D01*
X168664214Y-117314001D01*
X168825636Y-117666579D01*
X169024192Y-117999660D01*
X169257560Y-118309349D01*
X169523008Y-118592023D01*
X169817434Y-118844376D01*
X170137390Y-119063455D01*
X170479136Y-119246698D01*
X170838673Y-119391959D01*
X171211795Y-119497542D01*
X171594137Y-119562212D01*
X171981227Y-119585209D01*
X172368538Y-119566266D01*
X172751537Y-119505605D01*
X173125744Y-119403935D01*
X173486782Y-119262445D01*
X173830428Y-119082792D01*
X174152661Y-118867076D01*
X174449713Y-118617820D01*
X174718107Y-118337941D01*
X174954705Y-118030713D01*
X175156738Y-117699729D01*
X175321844Y-117348861D01*
X175448090Y-116982214D01*
X175534001Y-116604078D01*
X175578596Y-116218655D01*
X175580035Y-115806332D01*
X175538132Y-115420609D01*
X175454863Y-115041882D01*
X175331179Y-114674363D01*
X175168528Y-114322351D01*
X174968809Y-113989965D01*
X174734362Y-113681092D01*
X174467929Y-113399346D01*
X174172624Y-113148022D01*
X173851905Y-112930062D01*
X173509522Y-112748014D01*
X173149480Y-112604008D01*
X172775991Y-112499727D01*
X172393426Y-112436393D01*
X172006257Y-112414748D01*
X171619016Y-112435042D01*
X171236231Y-112497040D01*
X170862381Y-112600015D01*
X170501839Y-112742764D01*
X170158822Y-112923616D01*
X169837344Y-113140456D01*
X169541164Y-113390747D01*
X169273748Y-113671562D01*
X169038225Y-113979614D01*
X168837348Y-114311302D01*
X168673468Y-114662743D01*
X168548502Y-115029827D01*
X168463912Y-115408262D01*
X168420688Y-115793618D01*
X168419334Y-116181389D01*
X167862758Y-116181389D01*
X167843368Y-116118165D01*
X167773036Y-116014480D01*
X167837312Y-115923194D01*
X167910141Y-115699708D01*
X167912287Y-115453892D01*
X167843368Y-115229169D01*
X167789244Y-115149378D01*
X167801947Y-115138432D01*
X167834927Y-115087552D01*
X167875066Y-115042102D01*
X167903132Y-114982322D01*
X167939049Y-114926909D01*
X167956421Y-114868819D01*
X167982359Y-114813574D01*
X167991765Y-114750641D01*
X168011274Y-114685407D01*
X168011689Y-114617331D01*
X168012000Y-114615254D01*
X168012000Y-114566497D01*
X168012813Y-114433345D01*
X168012000Y-114430500D01*
X168012000Y-113394506D01*
X171070541Y-110335966D01*
X171094204Y-110321036D01*
X171160224Y-110246283D01*
X171184885Y-110221623D01*
X171201033Y-110200075D01*
X171261066Y-110132102D01*
X171276309Y-110099636D01*
X171297818Y-110070937D01*
X171329653Y-109986016D01*
X171368360Y-109903573D01*
X171373531Y-109868969D01*
X171386300Y-109834908D01*
X171393895Y-109732715D01*
X171398001Y-109705240D01*
X171398001Y-109677462D01*
X171404981Y-109583532D01*
X171398001Y-109550833D01*
X171398001Y-98353582D01*
X171404174Y-98326300D01*
X171398001Y-98226785D01*
X171398001Y-98191888D01*
X171394182Y-98165219D01*
X171388568Y-98074715D01*
X171376390Y-98040980D01*
X171371305Y-98005476D01*
X171333763Y-97922907D01*
X171302841Y-97837252D01*
X171282031Y-97809130D01*
X171266974Y-97776013D01*
X171200081Y-97698381D01*
X171183558Y-97676050D01*
X171163914Y-97656407D01*
X171102432Y-97585054D01*
X171074377Y-97566870D01*
X168266000Y-94758494D01*
X168266000Y-80450579D01*
X168272173Y-80423297D01*
X168266000Y-80323782D01*
X168266000Y-80288885D01*
X168262181Y-80262216D01*
X168256567Y-80171712D01*
X168244389Y-80137977D01*
X168239304Y-80102473D01*
X168201762Y-80019904D01*
X168170840Y-79934249D01*
X168150030Y-79906127D01*
X168134973Y-79873010D01*
X168068080Y-79795378D01*
X168051557Y-79773047D01*
X168031913Y-79753404D01*
X167970431Y-79682051D01*
X167942376Y-79663867D01*
X167459898Y-79181389D01*
X168419334Y-79181389D01*
X168459868Y-79567037D01*
X168541813Y-79946053D01*
X168664214Y-80314001D01*
X168825636Y-80666579D01*
X169024192Y-80999660D01*
X169257560Y-81309349D01*
X169523008Y-81592023D01*
X169817434Y-81844376D01*
X170137390Y-82063455D01*
X170479136Y-82246698D01*
X170838673Y-82391959D01*
X171211795Y-82497542D01*
X171594137Y-82562212D01*
X171981227Y-82585209D01*
X172368538Y-82566266D01*
X172751537Y-82505605D01*
X173125744Y-82403935D01*
X173486782Y-82262445D01*
X173830428Y-82082792D01*
X174152661Y-81867076D01*
X174449713Y-81617820D01*
X174718107Y-81337941D01*
X174954705Y-81030713D01*
X175156738Y-80699729D01*
X175321844Y-80348861D01*
X175448090Y-79982214D01*
X175534001Y-79604078D01*
X175578596Y-79218655D01*
X175580035Y-78806332D01*
X175538132Y-78420609D01*
X175454863Y-78041882D01*
X175331179Y-77674363D01*
X175168528Y-77322351D01*
X174968809Y-76989965D01*
X174734362Y-76681092D01*
X174467929Y-76399346D01*
X174172624Y-76148022D01*
X173851905Y-75930062D01*
X173509522Y-75748014D01*
X173149480Y-75604008D01*
X172775991Y-75499727D01*
X172393426Y-75436393D01*
X172006257Y-75414748D01*
X171619016Y-75435042D01*
X171236231Y-75497040D01*
X170862381Y-75600015D01*
X170501839Y-75742764D01*
X170158822Y-75923616D01*
X169837344Y-76140456D01*
X169541164Y-76390747D01*
X169273748Y-76671562D01*
X169038225Y-76979614D01*
X168837348Y-77311302D01*
X168673468Y-77662743D01*
X168548502Y-78029827D01*
X168463912Y-78408262D01*
X168420688Y-78793618D01*
X168419334Y-79181389D01*
X167459898Y-79181389D01*
X164560971Y-76282463D01*
X164546039Y-76258797D01*
X164471277Y-76192769D01*
X164446627Y-76168119D01*
X164425083Y-76151971D01*
X164357104Y-76091934D01*
X164324637Y-76076691D01*
X164295939Y-76055183D01*
X164211027Y-76023352D01*
X164128576Y-75984641D01*
X164093971Y-75979470D01*
X164059910Y-75966701D01*
X163957718Y-75959106D01*
X163930243Y-75955000D01*
X163902465Y-75955000D01*
X163808534Y-75948020D01*
X163775836Y-75955000D01*
X140433581Y-75955000D01*
X140406299Y-75948827D01*
X140306784Y-75955000D01*
X140271885Y-75955000D01*
X140245218Y-75958820D01*
X140154715Y-75964433D01*
X140120979Y-75976611D01*
X140085476Y-75981696D01*
X140002910Y-76019236D01*
X139917252Y-76050160D01*
X139889129Y-76070970D01*
X139856012Y-76086027D01*
X139778382Y-76152918D01*
X139756048Y-76169444D01*
X139736410Y-76189083D01*
X139665053Y-76250568D01*
X139646867Y-76278626D01*
X136002494Y-79923000D01*
X135958376Y-79923000D01*
X135783355Y-79939698D01*
X135558140Y-80005770D01*
X135349483Y-80113235D01*
X135164910Y-80258218D01*
X135011085Y-80435487D01*
X134893554Y-80638647D01*
X134816561Y-80860365D01*
X134782882Y-81092642D01*
X134705531Y-81092642D01*
X134700266Y-80978904D01*
X134645276Y-80750730D01*
X134548132Y-80537072D01*
X134412337Y-80345638D01*
X134242795Y-80183336D01*
X134045620Y-80056021D01*
X133825039Y-79967125D01*
X133520716Y-79923000D01*
X133418376Y-79923000D01*
X133243355Y-79939698D01*
X133018140Y-80005770D01*
X132809483Y-80113235D01*
X132624910Y-80258218D01*
X132471085Y-80435487D01*
X132353554Y-80638647D01*
X132276561Y-80860365D01*
X132242882Y-81092642D01*
X124907013Y-81092642D01*
X124954705Y-81030713D01*
X125156738Y-80699729D01*
X125321844Y-80348861D01*
X125341908Y-80290590D01*
X127162024Y-80290590D01*
X127162024Y-80779000D01*
X128023000Y-80779000D01*
X128023000Y-79918024D01*
X128771000Y-79918024D01*
X128771000Y-80779000D01*
X129631976Y-80779000D01*
X129631976Y-80652905D01*
X129805305Y-80652905D01*
X129878033Y-80779000D01*
X130563000Y-80779000D01*
X131311000Y-80779000D01*
X132118131Y-80779000D01*
X132008132Y-80537072D01*
X131872337Y-80345638D01*
X131702795Y-80183336D01*
X131505621Y-80056022D01*
X131311000Y-79977581D01*
X131311000Y-80779000D01*
X130563000Y-80779000D01*
X130563000Y-79962065D01*
X130269483Y-80113235D01*
X130084910Y-80258218D01*
X129931085Y-80435487D01*
X129805305Y-80652905D01*
X129631976Y-80652905D01*
X129631976Y-80290590D01*
X129604953Y-80154731D01*
X129520965Y-80029035D01*
X129395269Y-79945047D01*
X129259410Y-79918024D01*
X128771000Y-79918024D01*
X128023000Y-79918024D01*
X127534590Y-79918024D01*
X127398731Y-79945047D01*
X127273035Y-80029035D01*
X127189047Y-80154731D01*
X127162024Y-80290590D01*
X125341908Y-80290590D01*
X125448090Y-79982214D01*
X125534001Y-79604078D01*
X125578596Y-79218655D01*
X125580035Y-78806332D01*
X125538132Y-78420609D01*
X125454863Y-78041882D01*
X125331179Y-77674363D01*
X125168528Y-77322351D01*
X124968809Y-76989965D01*
X124734362Y-76681092D01*
X124467929Y-76399346D01*
X124172624Y-76148022D01*
X123851905Y-75930062D01*
X123509522Y-75748014D01*
X123149480Y-75604008D01*
X122775991Y-75499727D01*
X122393426Y-75436393D01*
X122006257Y-75414748D01*
X121619016Y-75435042D01*
X121236231Y-75497040D01*
X120862381Y-75600015D01*
X120501839Y-75742764D01*
X120158822Y-75923616D01*
X119837344Y-76140456D01*
X119541164Y-76390747D01*
X119273748Y-76671562D01*
X119038225Y-76979614D01*
X118837348Y-77311302D01*
X118673468Y-77662743D01*
X118548502Y-78029827D01*
X118463912Y-78408262D01*
X118420688Y-78793618D01*
X118419334Y-79181389D01*
X118380000Y-79181389D01*
X118380000Y-75380000D01*
X175620001Y-75380000D01*
X175620000Y-119620000D01*
X118380000Y-119620000D01*
X118380000Y-116181389D01*
X118419334Y-116181389D01*
X118459868Y-116567037D01*
X118541813Y-116946053D01*
X118664214Y-117314001D01*
X118825636Y-117666579D01*
X119024192Y-117999660D01*
X119257560Y-118309349D01*
X119523008Y-118592023D01*
X119817434Y-118844376D01*
X120137390Y-119063455D01*
X120479136Y-119246698D01*
X120838673Y-119391959D01*
X121211795Y-119497542D01*
X121594137Y-119562212D01*
X121981227Y-119585209D01*
X122368538Y-119566266D01*
X122751537Y-119505605D01*
X123125744Y-119403935D01*
X123486782Y-119262445D01*
X123830428Y-119082792D01*
X124152661Y-118867076D01*
X124449713Y-118617820D01*
X124718107Y-118337941D01*
X124954705Y-118030713D01*
X125156738Y-117699729D01*
X125321844Y-117348861D01*
X125448090Y-116982214D01*
X125534001Y-116604078D01*
X125578596Y-116218655D01*
X125580035Y-115806332D01*
X125538132Y-115420609D01*
X125454863Y-115041882D01*
X125331179Y-114674363D01*
X125168528Y-114322351D01*
X124968809Y-113989965D01*
X124813327Y-113785124D01*
X157199227Y-113785124D01*
X157232072Y-114017360D01*
X157331752Y-114229671D01*
X157489453Y-114403286D01*
X157691233Y-114522857D01*
X157919251Y-114577809D01*
X158153348Y-114563286D01*
X158372825Y-114480571D01*
X158558279Y-114336979D01*
X158568826Y-114322000D01*
X163257626Y-114322000D01*
X163331453Y-114403278D01*
X163533233Y-114522849D01*
X163761251Y-114577801D01*
X163995348Y-114563278D01*
X164214825Y-114480563D01*
X164400279Y-114336971D01*
X164535312Y-114145193D01*
X164608141Y-113921708D01*
X164610287Y-113675892D01*
X164541368Y-113451169D01*
X164409703Y-113257066D01*
X164226784Y-113110258D01*
X164008783Y-113023725D01*
X163774976Y-113005118D01*
X163546034Y-113056084D01*
X163342198Y-113172113D01*
X163257641Y-113262000D01*
X158571045Y-113262000D01*
X158567703Y-113257073D01*
X158384784Y-113110266D01*
X158166783Y-113023733D01*
X157932976Y-113005126D01*
X157704034Y-113056092D01*
X157500198Y-113172121D01*
X157339491Y-113342959D01*
X157236120Y-113553497D01*
X157199227Y-113785124D01*
X124813327Y-113785124D01*
X124734362Y-113681092D01*
X124467929Y-113399346D01*
X124172624Y-113148022D01*
X123851905Y-112930062D01*
X123509522Y-112748014D01*
X123149480Y-112604008D01*
X122775991Y-112499727D01*
X122393426Y-112436393D01*
X122006257Y-112414748D01*
X121619016Y-112435042D01*
X121236231Y-112497040D01*
X120862381Y-112600015D01*
X120501839Y-112742764D01*
X120158822Y-112923616D01*
X119837344Y-113140456D01*
X119541164Y-113390747D01*
X119273748Y-113671562D01*
X119038225Y-113979614D01*
X118837348Y-114311302D01*
X118673468Y-114662743D01*
X118548502Y-115029827D01*
X118463912Y-115408262D01*
X118420688Y-115793618D01*
X118419334Y-116181389D01*
X118380000Y-116181389D01*
X118380000Y-111753116D01*
X138657225Y-111753116D01*
X138690070Y-111985352D01*
X138789750Y-112197663D01*
X138947451Y-112371278D01*
X139149231Y-112490849D01*
X139377249Y-112545801D01*
X139611346Y-112531278D01*
X139830823Y-112448563D01*
X140016277Y-112304971D01*
X140151310Y-112113193D01*
X140224139Y-111889708D01*
X140226285Y-111643892D01*
X140157366Y-111419169D01*
X140075998Y-111299215D01*
X140075998Y-111121035D01*
X145295181Y-111121035D01*
X145317583Y-111349504D01*
X145385468Y-111568802D01*
X145496061Y-111769971D01*
X145644846Y-111944794D01*
X145825746Y-112086128D01*
X146031370Y-112188200D01*
X146253318Y-112246841D01*
X146482524Y-112259656D01*
X146709627Y-112226121D01*
X146925346Y-112147605D01*
X147120873Y-112027316D01*
X147288219Y-111870169D01*
X147420547Y-111682581D01*
X147512453Y-111472217D01*
X147560228Y-111247451D01*
X147561056Y-111010435D01*
X147514850Y-110785342D01*
X147424415Y-110574341D01*
X147293399Y-110385835D01*
X147127156Y-110227522D01*
X146932474Y-110105871D01*
X146717307Y-110025851D01*
X146490444Y-109990731D01*
X146261154Y-110001946D01*
X146038802Y-110059035D01*
X145832470Y-110159671D01*
X145650588Y-110299739D01*
X145500587Y-110473517D01*
X145388591Y-110673909D01*
X145319178Y-110892728D01*
X145295181Y-111121035D01*
X140075998Y-111121035D01*
X140075998Y-107057035D01*
X153677181Y-107057035D01*
X153699583Y-107285504D01*
X153767468Y-107504802D01*
X153878061Y-107705971D01*
X154026846Y-107880794D01*
X154207746Y-108022128D01*
X154413370Y-108124200D01*
X154635318Y-108182841D01*
X154864524Y-108195656D01*
X155091627Y-108162121D01*
X155307346Y-108083605D01*
X155502873Y-107963316D01*
X155670219Y-107806169D01*
X155802547Y-107618581D01*
X155894453Y-107408217D01*
X155942228Y-107183451D01*
X155942669Y-107057035D01*
X166885181Y-107057035D01*
X166907583Y-107285504D01*
X166975468Y-107504802D01*
X167086061Y-107705971D01*
X167234846Y-107880794D01*
X167415746Y-108022128D01*
X167621370Y-108124200D01*
X167843318Y-108182841D01*
X168072524Y-108195656D01*
X168299627Y-108162121D01*
X168515346Y-108083605D01*
X168710873Y-107963316D01*
X168878219Y-107806169D01*
X169010547Y-107618581D01*
X169102453Y-107408217D01*
X169150228Y-107183451D01*
X169151056Y-106946435D01*
X169104850Y-106721342D01*
X169014415Y-106510341D01*
X168883399Y-106321835D01*
X168717156Y-106163522D01*
X168522474Y-106041871D01*
X168307307Y-105961851D01*
X168080444Y-105926731D01*
X167851154Y-105937946D01*
X167628802Y-105995035D01*
X167422470Y-106095671D01*
X167240588Y-106235739D01*
X167090587Y-106409517D01*
X166978591Y-106609909D01*
X166909178Y-106828728D01*
X166885181Y-107057035D01*
X155942669Y-107057035D01*
X155943056Y-106946435D01*
X155896850Y-106721342D01*
X155806415Y-106510341D01*
X155675399Y-106321835D01*
X155509156Y-106163522D01*
X155314474Y-106041871D01*
X155099307Y-105961851D01*
X154872444Y-105926731D01*
X154643154Y-105937946D01*
X154420802Y-105995035D01*
X154214470Y-106095671D01*
X154032588Y-106235739D01*
X153882587Y-106409517D01*
X153770591Y-106609909D01*
X153701178Y-106828728D01*
X153677181Y-107057035D01*
X140075998Y-107057035D01*
X140075998Y-104517141D01*
X156247335Y-104517141D01*
X156269142Y-104739544D01*
X156335225Y-104953021D01*
X156442882Y-105148848D01*
X156587717Y-105319030D01*
X156763814Y-105456612D01*
X156963979Y-105555974D01*
X157180035Y-105613059D01*
X157403156Y-105625533D01*
X157624230Y-105592888D01*
X157834222Y-105516457D01*
X158024558Y-105399361D01*
X158187461Y-105246386D01*
X158316276Y-105063778D01*
X158405743Y-104858999D01*
X158452251Y-104640194D01*
X158452680Y-104517141D01*
X164375335Y-104517141D01*
X164397142Y-104739544D01*
X164463225Y-104953021D01*
X164570882Y-105148848D01*
X164715717Y-105319030D01*
X164891814Y-105456612D01*
X165091979Y-105555974D01*
X165308035Y-105613059D01*
X165531156Y-105625533D01*
X165752230Y-105592888D01*
X165962222Y-105516457D01*
X166152558Y-105399361D01*
X166315461Y-105246386D01*
X166444276Y-105063778D01*
X166533743Y-104858999D01*
X166580251Y-104640194D01*
X166581056Y-104409483D01*
X166536076Y-104190359D01*
X166448042Y-103984960D01*
X166320504Y-103801457D01*
X166158674Y-103647348D01*
X165969160Y-103528927D01*
X165759706Y-103451031D01*
X165538866Y-103416844D01*
X165315663Y-103427761D01*
X165099213Y-103483335D01*
X164898360Y-103581299D01*
X164721308Y-103717647D01*
X164575287Y-103886812D01*
X164466265Y-104081885D01*
X164398694Y-104294895D01*
X164375335Y-104517141D01*
X158452680Y-104517141D01*
X158453056Y-104409483D01*
X158408076Y-104190359D01*
X158320042Y-103984960D01*
X158192504Y-103801457D01*
X158030674Y-103647348D01*
X157841160Y-103528927D01*
X157631706Y-103451031D01*
X157410866Y-103416844D01*
X157187663Y-103427761D01*
X156971213Y-103483335D01*
X156770360Y-103581299D01*
X156593308Y-103717647D01*
X156447287Y-103886812D01*
X156338265Y-104081885D01*
X156270694Y-104294895D01*
X156247335Y-104517141D01*
X140075998Y-104517141D01*
X140075998Y-101977141D01*
X153707335Y-101977141D01*
X153729142Y-102199544D01*
X153795225Y-102413021D01*
X153902882Y-102608848D01*
X154047717Y-102779030D01*
X154223814Y-102916612D01*
X154423979Y-103015974D01*
X154640035Y-103073059D01*
X154863156Y-103085533D01*
X155084230Y-103052888D01*
X155294222Y-102976457D01*
X155484558Y-102859361D01*
X155647461Y-102706386D01*
X155776276Y-102523778D01*
X155865743Y-102318999D01*
X155912251Y-102100194D01*
X155912680Y-101977141D01*
X166915335Y-101977141D01*
X166937142Y-102199544D01*
X167003225Y-102413021D01*
X167110882Y-102608848D01*
X167255717Y-102779030D01*
X167431814Y-102916612D01*
X167631979Y-103015974D01*
X167848035Y-103073059D01*
X168071156Y-103085533D01*
X168292230Y-103052888D01*
X168502222Y-102976457D01*
X168692558Y-102859361D01*
X168855461Y-102706386D01*
X168984276Y-102523778D01*
X169073743Y-102318999D01*
X169120251Y-102100194D01*
X169121056Y-101869483D01*
X169076076Y-101650359D01*
X168988042Y-101444960D01*
X168860504Y-101261457D01*
X168698674Y-101107348D01*
X168509160Y-100988927D01*
X168299706Y-100911031D01*
X168078866Y-100876844D01*
X167855663Y-100887761D01*
X167639213Y-100943335D01*
X167438360Y-101041299D01*
X167261308Y-101177647D01*
X167115287Y-101346812D01*
X167006265Y-101541885D01*
X166938694Y-101754895D01*
X166915335Y-101977141D01*
X155912680Y-101977141D01*
X155913056Y-101869483D01*
X155868076Y-101650359D01*
X155780042Y-101444960D01*
X155652504Y-101261457D01*
X155490674Y-101107348D01*
X155301160Y-100988927D01*
X155091706Y-100911031D01*
X154870866Y-100876844D01*
X154647663Y-100887761D01*
X154431213Y-100943335D01*
X154230360Y-101041299D01*
X154053308Y-101177647D01*
X153907287Y-101346812D01*
X153798265Y-101541885D01*
X153730694Y-101754895D01*
X153707335Y-101977141D01*
X140075998Y-101977141D01*
X140075998Y-99437141D01*
X156247335Y-99437141D01*
X156269142Y-99659544D01*
X156335225Y-99873021D01*
X156442882Y-100068848D01*
X156587717Y-100239030D01*
X156763814Y-100376612D01*
X156963979Y-100475974D01*
X157180035Y-100533059D01*
X157403156Y-100545533D01*
X157624230Y-100512888D01*
X157834222Y-100436457D01*
X158024558Y-100319361D01*
X158187461Y-100166386D01*
X158316276Y-99983778D01*
X158405743Y-99778999D01*
X158452251Y-99560194D01*
X158452680Y-99437141D01*
X164375335Y-99437141D01*
X164397142Y-99659544D01*
X164463225Y-99873021D01*
X164570882Y-100068848D01*
X164715717Y-100239030D01*
X164891814Y-100376612D01*
X165091979Y-100475974D01*
X165308035Y-100533059D01*
X165531156Y-100545533D01*
X165752230Y-100512888D01*
X165962222Y-100436457D01*
X166152558Y-100319361D01*
X166315461Y-100166386D01*
X166444276Y-99983778D01*
X166533743Y-99778999D01*
X166580251Y-99560194D01*
X166581056Y-99329483D01*
X166536076Y-99110359D01*
X166448042Y-98904960D01*
X166320504Y-98721457D01*
X166158674Y-98567348D01*
X165969160Y-98448927D01*
X165759706Y-98371031D01*
X165538866Y-98336844D01*
X165315663Y-98347761D01*
X165099213Y-98403335D01*
X164898360Y-98501299D01*
X164721308Y-98637647D01*
X164575287Y-98806812D01*
X164466265Y-99001885D01*
X164398694Y-99214895D01*
X164375335Y-99437141D01*
X158452680Y-99437141D01*
X158453056Y-99329483D01*
X158408076Y-99110359D01*
X158320042Y-98904960D01*
X158192504Y-98721457D01*
X158030674Y-98567348D01*
X157841160Y-98448927D01*
X157631706Y-98371031D01*
X157410866Y-98336844D01*
X157187663Y-98347761D01*
X156971213Y-98403335D01*
X156770360Y-98501299D01*
X156593308Y-98637647D01*
X156447287Y-98806812D01*
X156338265Y-99001885D01*
X156270694Y-99214895D01*
X156247335Y-99437141D01*
X140075998Y-99437141D01*
X140075998Y-96897035D01*
X156217181Y-96897035D01*
X156239583Y-97125504D01*
X156307468Y-97344802D01*
X156418061Y-97545971D01*
X156566846Y-97720794D01*
X156747746Y-97862128D01*
X156953370Y-97964200D01*
X157175318Y-98022841D01*
X157404524Y-98035656D01*
X157631627Y-98002121D01*
X157847346Y-97923605D01*
X158042873Y-97803316D01*
X158210219Y-97646169D01*
X158342547Y-97458581D01*
X158434453Y-97248217D01*
X158482228Y-97023451D01*
X158482669Y-96897035D01*
X164345181Y-96897035D01*
X164367583Y-97125504D01*
X164435468Y-97344802D01*
X164546061Y-97545971D01*
X164694846Y-97720794D01*
X164875746Y-97862128D01*
X165081370Y-97964200D01*
X165303318Y-98022841D01*
X165532524Y-98035656D01*
X165759627Y-98002121D01*
X165975346Y-97923605D01*
X166170873Y-97803316D01*
X166338219Y-97646169D01*
X166470547Y-97458581D01*
X166562453Y-97248217D01*
X166610228Y-97023451D01*
X166611056Y-96786435D01*
X166564850Y-96561342D01*
X166474415Y-96350341D01*
X166343399Y-96161835D01*
X166177156Y-96003522D01*
X165982474Y-95881871D01*
X165767307Y-95801851D01*
X165540444Y-95766731D01*
X165311154Y-95777946D01*
X165088802Y-95835035D01*
X164882470Y-95935671D01*
X164700588Y-96075739D01*
X164550587Y-96249517D01*
X164438591Y-96449909D01*
X164369178Y-96668728D01*
X164345181Y-96897035D01*
X158482669Y-96897035D01*
X158483056Y-96786435D01*
X158436850Y-96561342D01*
X158346415Y-96350341D01*
X158215399Y-96161835D01*
X158049156Y-96003522D01*
X157854474Y-95881871D01*
X157639307Y-95801851D01*
X157412444Y-95766731D01*
X157183154Y-95777946D01*
X156960802Y-95835035D01*
X156754470Y-95935671D01*
X156572588Y-96075739D01*
X156422587Y-96249517D01*
X156310591Y-96449909D01*
X156241178Y-96668728D01*
X156217181Y-96897035D01*
X140075998Y-96897035D01*
X140075998Y-84715954D01*
X142430269Y-82361684D01*
X142577284Y-82383000D01*
X142679624Y-82383000D01*
X142854645Y-82366302D01*
X143079860Y-82300230D01*
X143288517Y-82192765D01*
X143473090Y-82047782D01*
X143626915Y-81870513D01*
X143744446Y-81667353D01*
X143821439Y-81445635D01*
X143855118Y-81213358D01*
X143849531Y-81092642D01*
X143926882Y-81092642D01*
X143937734Y-81327096D01*
X143992724Y-81555270D01*
X144089868Y-81768928D01*
X144225663Y-81960362D01*
X144395205Y-82122664D01*
X144592380Y-82249979D01*
X144631001Y-82265543D01*
X144631001Y-82497804D01*
X144620619Y-82550000D01*
X144664318Y-82769700D01*
X144682571Y-82787952D01*
X144778893Y-82932108D01*
X144823145Y-82961676D01*
X146004321Y-84142853D01*
X146033892Y-84187108D01*
X146209204Y-84304248D01*
X146363803Y-84335000D01*
X146363808Y-84335000D01*
X146415999Y-84345381D01*
X146468190Y-84335000D01*
X160285523Y-84335000D01*
X160309047Y-84453268D01*
X160310204Y-84455000D01*
X160309047Y-84456732D01*
X160282024Y-84592590D01*
X160282024Y-85033166D01*
X160280540Y-85042281D01*
X160278785Y-85133645D01*
X160298567Y-85293603D01*
X160322527Y-85381785D01*
X160386407Y-85529759D01*
X160434152Y-85607674D01*
X160536998Y-85731774D01*
X160604695Y-85793157D01*
X160738238Y-85883402D01*
X160787000Y-85907079D01*
X160787001Y-87642741D01*
X160787000Y-87642746D01*
X160787000Y-87796275D01*
X160768491Y-87815951D01*
X160665120Y-88026489D01*
X160628227Y-88258116D01*
X160661072Y-88490352D01*
X160760752Y-88702663D01*
X160918453Y-88876278D01*
X161120233Y-88995849D01*
X161348251Y-89050801D01*
X161582348Y-89036278D01*
X161801825Y-88953563D01*
X161987279Y-88809971D01*
X162122312Y-88618193D01*
X162195141Y-88394708D01*
X162197287Y-88148892D01*
X162128368Y-87924169D01*
X162047000Y-87804215D01*
X162047000Y-85907169D01*
X162075240Y-85894359D01*
X162211099Y-85807641D01*
X162280378Y-85748051D01*
X162386437Y-85626688D01*
X162436207Y-85550048D01*
X162503939Y-85403796D01*
X162530198Y-85316272D01*
X162554161Y-85156887D01*
X162554799Y-85065507D01*
X162551976Y-85044767D01*
X162551976Y-84592590D01*
X162524953Y-84456732D01*
X162523796Y-84455000D01*
X162524953Y-84453268D01*
X162551976Y-84317410D01*
X162551976Y-83871423D01*
X162554161Y-83856887D01*
X162554799Y-83765506D01*
X162533064Y-83605803D01*
X162508030Y-83517920D01*
X162442346Y-83370734D01*
X162393650Y-83293407D01*
X162289296Y-83170576D01*
X162220857Y-83110026D01*
X162086223Y-83021419D01*
X162003539Y-82982511D01*
X161849447Y-82935253D01*
X161759166Y-82921115D01*
X161598005Y-82919005D01*
X161590159Y-82920024D01*
X161175798Y-82920024D01*
X161098004Y-82919005D01*
X161007384Y-82930775D01*
X160852108Y-82973983D01*
X160768433Y-83010714D01*
X160631525Y-83095767D01*
X160561526Y-83154503D01*
X160453992Y-83274561D01*
X160453699Y-83275000D01*
X146635532Y-83275000D01*
X145691000Y-82330469D01*
X145691000Y-82263591D01*
X145828517Y-82192765D01*
X146013090Y-82047782D01*
X146166915Y-81870513D01*
X146284446Y-81667353D01*
X146333184Y-81527000D01*
X146519869Y-81527000D01*
X146629868Y-81768928D01*
X146765663Y-81960362D01*
X146935205Y-82122664D01*
X147132379Y-82249978D01*
X147327000Y-82328419D01*
X147327000Y-81527000D01*
X148075000Y-81527000D01*
X148075000Y-82343935D01*
X148368517Y-82192765D01*
X148553090Y-82047782D01*
X148706915Y-81870513D01*
X148832695Y-81653095D01*
X148759967Y-81527000D01*
X149006024Y-81527000D01*
X149006024Y-82015410D01*
X149033047Y-82151269D01*
X149117035Y-82276965D01*
X149242731Y-82360953D01*
X149378590Y-82387976D01*
X149867000Y-82387976D01*
X149867000Y-81527000D01*
X150615000Y-81527000D01*
X150615000Y-82387976D01*
X151103410Y-82387976D01*
X151239269Y-82360953D01*
X151364965Y-82276965D01*
X151448953Y-82151269D01*
X151475976Y-82015410D01*
X151475976Y-81527000D01*
X150615000Y-81527000D01*
X149867000Y-81527000D01*
X149006024Y-81527000D01*
X148759967Y-81527000D01*
X148075000Y-81527000D01*
X147327000Y-81527000D01*
X146519869Y-81527000D01*
X146333184Y-81527000D01*
X146361439Y-81445635D01*
X146395118Y-81213358D01*
X146389531Y-81092642D01*
X156372882Y-81092642D01*
X156383734Y-81327096D01*
X156438724Y-81555270D01*
X156535868Y-81768928D01*
X156671663Y-81960362D01*
X156841205Y-82122664D01*
X157038380Y-82249979D01*
X157258961Y-82338875D01*
X157563284Y-82383000D01*
X157665624Y-82383000D01*
X157840645Y-82366302D01*
X158065860Y-82300230D01*
X158274517Y-82192765D01*
X158459090Y-82047782D01*
X158612915Y-81870513D01*
X158730446Y-81667353D01*
X158807439Y-81445635D01*
X158841118Y-81213358D01*
X158835531Y-81092642D01*
X158912882Y-81092642D01*
X158923734Y-81327096D01*
X158978724Y-81555270D01*
X159075868Y-81768928D01*
X159211663Y-81960362D01*
X159381205Y-82122664D01*
X159578380Y-82249979D01*
X159798961Y-82338875D01*
X160103284Y-82383000D01*
X160205624Y-82383000D01*
X160380645Y-82366302D01*
X160605860Y-82300230D01*
X160814517Y-82192765D01*
X160999090Y-82047782D01*
X161152915Y-81870513D01*
X161270446Y-81667353D01*
X161347439Y-81445635D01*
X161381118Y-81213358D01*
X161375531Y-81092642D01*
X161452882Y-81092642D01*
X161463734Y-81327096D01*
X161518724Y-81555270D01*
X161615868Y-81768928D01*
X161751663Y-81960362D01*
X161921205Y-82122664D01*
X162118380Y-82249979D01*
X162338961Y-82338875D01*
X162643284Y-82383000D01*
X162745624Y-82383000D01*
X162920645Y-82366302D01*
X163145860Y-82300230D01*
X163354517Y-82192765D01*
X163539090Y-82047782D01*
X163692915Y-81870513D01*
X163810446Y-81667353D01*
X163887439Y-81445635D01*
X163921118Y-81213358D01*
X163910266Y-80978904D01*
X163855276Y-80750730D01*
X163758132Y-80537072D01*
X163622337Y-80345638D01*
X163452795Y-80183336D01*
X163255620Y-80056021D01*
X163035039Y-79967125D01*
X162730716Y-79923000D01*
X162628376Y-79923000D01*
X162453355Y-79939698D01*
X162228140Y-80005770D01*
X162019483Y-80113235D01*
X161834910Y-80258218D01*
X161681085Y-80435487D01*
X161563554Y-80638647D01*
X161486561Y-80860365D01*
X161452882Y-81092642D01*
X161375531Y-81092642D01*
X161370266Y-80978904D01*
X161315276Y-80750730D01*
X161218132Y-80537072D01*
X161082337Y-80345638D01*
X160912795Y-80183336D01*
X160715620Y-80056021D01*
X160495039Y-79967125D01*
X160190716Y-79923000D01*
X160088376Y-79923000D01*
X159913355Y-79939698D01*
X159688140Y-80005770D01*
X159479483Y-80113235D01*
X159294910Y-80258218D01*
X159141085Y-80435487D01*
X159023554Y-80638647D01*
X158946561Y-80860365D01*
X158912882Y-81092642D01*
X158835531Y-81092642D01*
X158830266Y-80978904D01*
X158775276Y-80750730D01*
X158678132Y-80537072D01*
X158542337Y-80345638D01*
X158372795Y-80183336D01*
X158175620Y-80056021D01*
X157955039Y-79967125D01*
X157650716Y-79923000D01*
X157548376Y-79923000D01*
X157373355Y-79939698D01*
X157148140Y-80005770D01*
X156939483Y-80113235D01*
X156754910Y-80258218D01*
X156601085Y-80435487D01*
X156483554Y-80638647D01*
X156406561Y-80860365D01*
X156372882Y-81092642D01*
X146389531Y-81092642D01*
X146384266Y-80978904D01*
X146329276Y-80750730D01*
X146284798Y-80652905D01*
X146569305Y-80652905D01*
X146642033Y-80779000D01*
X147327000Y-80779000D01*
X147327000Y-79977581D01*
X148075000Y-79977581D01*
X148075000Y-80779000D01*
X148882131Y-80779000D01*
X148772132Y-80537072D01*
X148636337Y-80345638D01*
X148578834Y-80290590D01*
X149006024Y-80290590D01*
X149006024Y-80779000D01*
X149867000Y-80779000D01*
X149867000Y-79918024D01*
X150615000Y-79918024D01*
X150615000Y-80779000D01*
X151475976Y-80779000D01*
X151475976Y-80290590D01*
X151448953Y-80154731D01*
X151364965Y-80029035D01*
X151239269Y-79945047D01*
X151103410Y-79918024D01*
X150615000Y-79918024D01*
X149867000Y-79918024D01*
X149378590Y-79918024D01*
X149242731Y-79945047D01*
X149117035Y-80029035D01*
X149033047Y-80154731D01*
X149006024Y-80290590D01*
X148578834Y-80290590D01*
X148466795Y-80183336D01*
X148269621Y-80056022D01*
X148075000Y-79977581D01*
X147327000Y-79977581D01*
X147327000Y-79962065D01*
X147033483Y-80113235D01*
X146848910Y-80258218D01*
X146695085Y-80435487D01*
X146569305Y-80652905D01*
X146284798Y-80652905D01*
X146232132Y-80537072D01*
X146096337Y-80345638D01*
X145926795Y-80183336D01*
X145729620Y-80056021D01*
X145509039Y-79967125D01*
X145204716Y-79923000D01*
X145102376Y-79923000D01*
X144927355Y-79939698D01*
X144702140Y-80005770D01*
X144493483Y-80113235D01*
X144308910Y-80258218D01*
X144155085Y-80435487D01*
X144037554Y-80638647D01*
X143960561Y-80860365D01*
X143926882Y-81092642D01*
X143849531Y-81092642D01*
X143844266Y-80978904D01*
X143789276Y-80750730D01*
X143692132Y-80537072D01*
X143556337Y-80345638D01*
X143386795Y-80183336D01*
X143189620Y-80056021D01*
X142969039Y-79967125D01*
X142664716Y-79923000D01*
X142562376Y-79923000D01*
X142387355Y-79939698D01*
X142162140Y-80005770D01*
X141953483Y-80113235D01*
X141768910Y-80258218D01*
X141615085Y-80435487D01*
X141497554Y-80638647D01*
X141420561Y-80860365D01*
X141386882Y-81092642D01*
X141397734Y-81327096D01*
X141452724Y-81555270D01*
X141453366Y-81556681D01*
X139019987Y-83990061D01*
X138955945Y-84043798D01*
X138914151Y-84116188D01*
X138866216Y-84184647D01*
X138858932Y-84211832D01*
X138844860Y-84236205D01*
X138830343Y-84318525D01*
X138808714Y-84399249D01*
X138815998Y-84482507D01*
X138815999Y-111139788D01*
X138815998Y-111139794D01*
X138815998Y-111291275D01*
X138797489Y-111310951D01*
X138694118Y-111521489D01*
X138657225Y-111753116D01*
X118380000Y-111753116D01*
X118380000Y-104517141D01*
X118380000Y-104517141D01*
G37*
X118380000Y-104517141D02*
X123989335Y-104517141D01*
X124011142Y-104739544D01*
X124077225Y-104953021D01*
X124184882Y-105148848D01*
X124329717Y-105319030D01*
X124505814Y-105456612D01*
X124705979Y-105555974D01*
X124922035Y-105613059D01*
X125145156Y-105625533D01*
X125366230Y-105592888D01*
X125576222Y-105516457D01*
X125766558Y-105399361D01*
X125929461Y-105246386D01*
X126058276Y-105063778D01*
X126147743Y-104858999D01*
X126194251Y-104640194D01*
X126195056Y-104409483D01*
X126150076Y-104190359D01*
X126062042Y-103984960D01*
X125934504Y-103801457D01*
X125772674Y-103647348D01*
X125583160Y-103528927D01*
X125373706Y-103451031D01*
X125152866Y-103416844D01*
X124929663Y-103427761D01*
X124713213Y-103483335D01*
X124512360Y-103581299D01*
X124335308Y-103717647D01*
X124189287Y-103886812D01*
X124080265Y-104081885D01*
X124012694Y-104294895D01*
X123989335Y-104517141D01*
X118380000Y-104517141D01*
X118380000Y-101977141D01*
X121449335Y-101977141D01*
X121471142Y-102199544D01*
X121537225Y-102413021D01*
X121644882Y-102608848D01*
X121789717Y-102779030D01*
X121965814Y-102916612D01*
X122165979Y-103015974D01*
X122382035Y-103073059D01*
X122605156Y-103085533D01*
X122826230Y-103052888D01*
X123036222Y-102976457D01*
X123226558Y-102859361D01*
X123389461Y-102706386D01*
X123518276Y-102523778D01*
X123607743Y-102318999D01*
X123654251Y-102100194D01*
X123655056Y-101869483D01*
X123610076Y-101650359D01*
X123522042Y-101444960D01*
X123394504Y-101261457D01*
X123232674Y-101107348D01*
X123043160Y-100988927D01*
X122833706Y-100911031D01*
X122612866Y-100876844D01*
X122389663Y-100887761D01*
X122173213Y-100943335D01*
X121972360Y-101041299D01*
X121795308Y-101177647D01*
X121649287Y-101346812D01*
X121540265Y-101541885D01*
X121472694Y-101754895D01*
X121449335Y-101977141D01*
X118380000Y-101977141D01*
X118380000Y-100348115D01*
X124716801Y-100348115D01*
X124754778Y-100488867D01*
X124922035Y-100533059D01*
X125145156Y-100545533D01*
X125366230Y-100512888D01*
X125565458Y-100440374D01*
X125095000Y-99969916D01*
X124716801Y-100348115D01*
X118380000Y-100348115D01*
X118380000Y-99437141D01*
X123989335Y-99437141D01*
X124011142Y-99659545D01*
X124090662Y-99916422D01*
X124566084Y-99441000D01*
X125623916Y-99441000D01*
X126004081Y-99821165D01*
X126147831Y-99778584D01*
X126194251Y-99560194D01*
X126195056Y-99329483D01*
X126148697Y-99103644D01*
X126004525Y-99060391D01*
X125623916Y-99441000D01*
X124566084Y-99441000D01*
X124091512Y-98966428D01*
X124012694Y-99214895D01*
X123989335Y-99437141D01*
X118380000Y-99437141D01*
X118380000Y-98533724D01*
X124716640Y-98533724D01*
X125095000Y-98912084D01*
X125479972Y-98527111D01*
X125431901Y-98380039D01*
X125152866Y-98336844D01*
X124929663Y-98347761D01*
X124755264Y-98392538D01*
X124716640Y-98533724D01*
X118380000Y-98533724D01*
X118380000Y-93078590D01*
X126874000Y-93078590D01*
X126874000Y-111010410D01*
X126900646Y-111144365D01*
X126983554Y-111268446D01*
X127107635Y-111351354D01*
X127241590Y-111378000D01*
X135267410Y-111378000D01*
X135401365Y-111351354D01*
X135525446Y-111268446D01*
X135608354Y-111144365D01*
X135635000Y-111010410D01*
X135635000Y-106064598D01*
X135801348Y-106054278D01*
X136020825Y-105971563D01*
X136206279Y-105827971D01*
X136341312Y-105636193D01*
X136414141Y-105412708D01*
X136416287Y-105166892D01*
X136347368Y-104942169D01*
X136215703Y-104748065D01*
X136166000Y-104708175D01*
X136166000Y-98493157D01*
X136206278Y-98461971D01*
X136341312Y-98270193D01*
X136414141Y-98046708D01*
X136416287Y-97800892D01*
X136347368Y-97576169D01*
X136215703Y-97382066D01*
X136032784Y-97235258D01*
X135814783Y-97148725D01*
X135635000Y-97134417D01*
X135635000Y-93078590D01*
X135608354Y-92944635D01*
X135525446Y-92820554D01*
X135401365Y-92737646D01*
X135267410Y-92711000D01*
X127241590Y-92711000D01*
X127107635Y-92737646D01*
X126983554Y-92820554D01*
X126900646Y-92944635D01*
X126874000Y-93078590D01*
X118380000Y-93078590D01*
X118380000Y-85894660D01*
X127994257Y-85894660D01*
X128032234Y-86035412D01*
X128219318Y-86084841D01*
X128448524Y-86097656D01*
X128675627Y-86064121D01*
X128890863Y-85985779D01*
X128397000Y-85491916D01*
X127994257Y-85894660D01*
X118380000Y-85894660D01*
X118380000Y-84959035D01*
X127261181Y-84959035D01*
X127283583Y-85187504D01*
X127368679Y-85462405D01*
X127868084Y-84963000D01*
X128925916Y-84963000D01*
X129331374Y-85368458D01*
X129475124Y-85325877D01*
X129526228Y-85085451D01*
X129527056Y-84848435D01*
X129476107Y-84600234D01*
X129331936Y-84556981D01*
X128925916Y-84963000D01*
X127868084Y-84963000D01*
X127369619Y-84464535D01*
X127285178Y-84730728D01*
X127261181Y-84959035D01*
X118380000Y-84959035D01*
X118380000Y-84031079D01*
X127993995Y-84031079D01*
X128397000Y-84434084D01*
X128890272Y-83940812D01*
X128683305Y-83863851D01*
X128456444Y-83828731D01*
X128227154Y-83839946D01*
X128032619Y-83889893D01*
X127993995Y-84031079D01*
X118380000Y-84031079D01*
X118380000Y-79181389D01*
X118419334Y-79181389D01*
X118459868Y-79567037D01*
X118541813Y-79946053D01*
X118664214Y-80314001D01*
X118825636Y-80666579D01*
X119024192Y-80999660D01*
X119257560Y-81309349D01*
X119523008Y-81592023D01*
X119817434Y-81844376D01*
X120137390Y-82063455D01*
X120479136Y-82246698D01*
X120838673Y-82391959D01*
X121211795Y-82497542D01*
X121594137Y-82562212D01*
X121981227Y-82585209D01*
X122368538Y-82566266D01*
X122751537Y-82505605D01*
X123125744Y-82403935D01*
X123486782Y-82262445D01*
X123830428Y-82082792D01*
X124152661Y-81867076D01*
X124449713Y-81617820D01*
X124536806Y-81527000D01*
X127162024Y-81527000D01*
X127162024Y-82015410D01*
X127189047Y-82151269D01*
X127273035Y-82276965D01*
X127398731Y-82360953D01*
X127534590Y-82387976D01*
X128023000Y-82387976D01*
X128023000Y-81527000D01*
X128771000Y-81527000D01*
X128771000Y-82387976D01*
X129259410Y-82387976D01*
X129395269Y-82360953D01*
X129520965Y-82276965D01*
X129604953Y-82151269D01*
X129631976Y-82015410D01*
X129631976Y-81527000D01*
X129755869Y-81527000D01*
X129865868Y-81768928D01*
X130001663Y-81960362D01*
X130171205Y-82122664D01*
X130368379Y-82249978D01*
X130563000Y-82328419D01*
X130563000Y-81527000D01*
X131311000Y-81527000D01*
X131311000Y-82343935D01*
X131604517Y-82192765D01*
X131789090Y-82047782D01*
X131942915Y-81870513D01*
X132068695Y-81653095D01*
X131995967Y-81527000D01*
X131311000Y-81527000D01*
X130563000Y-81527000D01*
X129755869Y-81527000D01*
X129631976Y-81527000D01*
X128771000Y-81527000D01*
X128023000Y-81527000D01*
X127162024Y-81527000D01*
X124536806Y-81527000D01*
X124718107Y-81337941D01*
X124907013Y-81092642D01*
X132242882Y-81092642D01*
X132253734Y-81327096D01*
X132308724Y-81555270D01*
X132405868Y-81768928D01*
X132541663Y-81960362D01*
X132711205Y-82122664D01*
X132908380Y-82249979D01*
X133128961Y-82338875D01*
X133433284Y-82383000D01*
X133535624Y-82383000D01*
X133710645Y-82366302D01*
X133935860Y-82300230D01*
X134144517Y-82192765D01*
X134329090Y-82047782D01*
X134482915Y-81870513D01*
X134600446Y-81667353D01*
X134677439Y-81445635D01*
X134711118Y-81213358D01*
X134705531Y-81092642D01*
X134782882Y-81092642D01*
X134793734Y-81327096D01*
X134848724Y-81555270D01*
X134945868Y-81768928D01*
X135081663Y-81960362D01*
X135251205Y-82122664D01*
X135448380Y-82249979D01*
X135668961Y-82338875D01*
X135973284Y-82383000D01*
X136075624Y-82383000D01*
X136250645Y-82366302D01*
X136475860Y-82300230D01*
X136684517Y-82192765D01*
X136869090Y-82047782D01*
X137022915Y-81870513D01*
X137140446Y-81667353D01*
X137217439Y-81445635D01*
X137251118Y-81213358D01*
X137248907Y-81165599D01*
X140699507Y-77715000D01*
X163504496Y-77715000D01*
X165707519Y-79918024D01*
X164364590Y-79918024D01*
X164228731Y-79945047D01*
X164103035Y-80029035D01*
X164019047Y-80154731D01*
X163992024Y-80290590D01*
X163992024Y-82015410D01*
X164019047Y-82151269D01*
X164103035Y-82276965D01*
X164228731Y-82360953D01*
X164364590Y-82387976D01*
X166089410Y-82387976D01*
X166225269Y-82360953D01*
X166350965Y-82276965D01*
X166434953Y-82151269D01*
X166461976Y-82015410D01*
X166461976Y-80672481D01*
X166506000Y-80716505D01*
X166506001Y-95024408D01*
X166499825Y-95051700D01*
X166506001Y-95151243D01*
X166506001Y-95186114D01*
X166509818Y-95212768D01*
X166515433Y-95303286D01*
X166527612Y-95337020D01*
X166532696Y-95372523D01*
X166570230Y-95455073D01*
X166601160Y-95540748D01*
X166621972Y-95568874D01*
X166637028Y-95601987D01*
X166703918Y-95679617D01*
X166720442Y-95701949D01*
X166740084Y-95721590D01*
X166801569Y-95792947D01*
X166829627Y-95811133D01*
X169638001Y-98619508D01*
X169638002Y-109279491D01*
X166579463Y-112338031D01*
X166555797Y-112352963D01*
X166489773Y-112427721D01*
X166465117Y-112452376D01*
X166448968Y-112473925D01*
X166388935Y-112541898D01*
X166373692Y-112574364D01*
X166352183Y-112603063D01*
X166320348Y-112687984D01*
X166281641Y-112770427D01*
X166276470Y-112805031D01*
X166263701Y-112839092D01*
X166256106Y-112941284D01*
X166252000Y-112968760D01*
X166252000Y-112996537D01*
X166245020Y-113090468D01*
X166252000Y-113123166D01*
X166252001Y-114541345D01*
X166251187Y-114674657D01*
X166269336Y-114738157D01*
X166278697Y-114803525D01*
X166303791Y-114858716D01*
X166320455Y-114917022D01*
X166355696Y-114972873D01*
X166383028Y-115032987D01*
X166422607Y-115078922D01*
X166454963Y-115130203D01*
X166471694Y-115144979D01*
X166380120Y-115331489D01*
X166343227Y-115563116D01*
X166376072Y-115795352D01*
X166475752Y-116007663D01*
X166481504Y-116013995D01*
X166380120Y-116220485D01*
X166343227Y-116452112D01*
X166376072Y-116684348D01*
X166475752Y-116896659D01*
X166633453Y-117070274D01*
X166835233Y-117189845D01*
X167063251Y-117244797D01*
X167297348Y-117230274D01*
X167516825Y-117147559D01*
X167702279Y-117003967D01*
X167837312Y-116812189D01*
X167910141Y-116588704D01*
X167912287Y-116342888D01*
X167862758Y-116181389D01*
X168419334Y-116181389D01*
X168459868Y-116567037D01*
X168541813Y-116946053D01*
X168664214Y-117314001D01*
X168825636Y-117666579D01*
X169024192Y-117999660D01*
X169257560Y-118309349D01*
X169523008Y-118592023D01*
X169817434Y-118844376D01*
X170137390Y-119063455D01*
X170479136Y-119246698D01*
X170838673Y-119391959D01*
X171211795Y-119497542D01*
X171594137Y-119562212D01*
X171981227Y-119585209D01*
X172368538Y-119566266D01*
X172751537Y-119505605D01*
X173125744Y-119403935D01*
X173486782Y-119262445D01*
X173830428Y-119082792D01*
X174152661Y-118867076D01*
X174449713Y-118617820D01*
X174718107Y-118337941D01*
X174954705Y-118030713D01*
X175156738Y-117699729D01*
X175321844Y-117348861D01*
X175448090Y-116982214D01*
X175534001Y-116604078D01*
X175578596Y-116218655D01*
X175580035Y-115806332D01*
X175538132Y-115420609D01*
X175454863Y-115041882D01*
X175331179Y-114674363D01*
X175168528Y-114322351D01*
X174968809Y-113989965D01*
X174734362Y-113681092D01*
X174467929Y-113399346D01*
X174172624Y-113148022D01*
X173851905Y-112930062D01*
X173509522Y-112748014D01*
X173149480Y-112604008D01*
X172775991Y-112499727D01*
X172393426Y-112436393D01*
X172006257Y-112414748D01*
X171619016Y-112435042D01*
X171236231Y-112497040D01*
X170862381Y-112600015D01*
X170501839Y-112742764D01*
X170158822Y-112923616D01*
X169837344Y-113140456D01*
X169541164Y-113390747D01*
X169273748Y-113671562D01*
X169038225Y-113979614D01*
X168837348Y-114311302D01*
X168673468Y-114662743D01*
X168548502Y-115029827D01*
X168463912Y-115408262D01*
X168420688Y-115793618D01*
X168419334Y-116181389D01*
X167862758Y-116181389D01*
X167843368Y-116118165D01*
X167773036Y-116014480D01*
X167837312Y-115923194D01*
X167910141Y-115699708D01*
X167912287Y-115453892D01*
X167843368Y-115229169D01*
X167789244Y-115149378D01*
X167801947Y-115138432D01*
X167834927Y-115087552D01*
X167875066Y-115042102D01*
X167903132Y-114982322D01*
X167939049Y-114926909D01*
X167956421Y-114868819D01*
X167982359Y-114813574D01*
X167991765Y-114750641D01*
X168011274Y-114685407D01*
X168011689Y-114617331D01*
X168012000Y-114615254D01*
X168012000Y-114566497D01*
X168012813Y-114433345D01*
X168012000Y-114430500D01*
X168012000Y-113394506D01*
X171070541Y-110335966D01*
X171094204Y-110321036D01*
X171160224Y-110246283D01*
X171184885Y-110221623D01*
X171201033Y-110200075D01*
X171261066Y-110132102D01*
X171276309Y-110099636D01*
X171297818Y-110070937D01*
X171329653Y-109986016D01*
X171368360Y-109903573D01*
X171373531Y-109868969D01*
X171386300Y-109834908D01*
X171393895Y-109732715D01*
X171398001Y-109705240D01*
X171398001Y-109677462D01*
X171404981Y-109583532D01*
X171398001Y-109550833D01*
X171398001Y-98353582D01*
X171404174Y-98326300D01*
X171398001Y-98226785D01*
X171398001Y-98191888D01*
X171394182Y-98165219D01*
X171388568Y-98074715D01*
X171376390Y-98040980D01*
X171371305Y-98005476D01*
X171333763Y-97922907D01*
X171302841Y-97837252D01*
X171282031Y-97809130D01*
X171266974Y-97776013D01*
X171200081Y-97698381D01*
X171183558Y-97676050D01*
X171163914Y-97656407D01*
X171102432Y-97585054D01*
X171074377Y-97566870D01*
X168266000Y-94758494D01*
X168266000Y-80450579D01*
X168272173Y-80423297D01*
X168266000Y-80323782D01*
X168266000Y-80288885D01*
X168262181Y-80262216D01*
X168256567Y-80171712D01*
X168244389Y-80137977D01*
X168239304Y-80102473D01*
X168201762Y-80019904D01*
X168170840Y-79934249D01*
X168150030Y-79906127D01*
X168134973Y-79873010D01*
X168068080Y-79795378D01*
X168051557Y-79773047D01*
X168031913Y-79753404D01*
X167970431Y-79682051D01*
X167942376Y-79663867D01*
X167459898Y-79181389D01*
X168419334Y-79181389D01*
X168459868Y-79567037D01*
X168541813Y-79946053D01*
X168664214Y-80314001D01*
X168825636Y-80666579D01*
X169024192Y-80999660D01*
X169257560Y-81309349D01*
X169523008Y-81592023D01*
X169817434Y-81844376D01*
X170137390Y-82063455D01*
X170479136Y-82246698D01*
X170838673Y-82391959D01*
X171211795Y-82497542D01*
X171594137Y-82562212D01*
X171981227Y-82585209D01*
X172368538Y-82566266D01*
X172751537Y-82505605D01*
X173125744Y-82403935D01*
X173486782Y-82262445D01*
X173830428Y-82082792D01*
X174152661Y-81867076D01*
X174449713Y-81617820D01*
X174718107Y-81337941D01*
X174954705Y-81030713D01*
X175156738Y-80699729D01*
X175321844Y-80348861D01*
X175448090Y-79982214D01*
X175534001Y-79604078D01*
X175578596Y-79218655D01*
X175580035Y-78806332D01*
X175538132Y-78420609D01*
X175454863Y-78041882D01*
X175331179Y-77674363D01*
X175168528Y-77322351D01*
X174968809Y-76989965D01*
X174734362Y-76681092D01*
X174467929Y-76399346D01*
X174172624Y-76148022D01*
X173851905Y-75930062D01*
X173509522Y-75748014D01*
X173149480Y-75604008D01*
X172775991Y-75499727D01*
X172393426Y-75436393D01*
X172006257Y-75414748D01*
X171619016Y-75435042D01*
X171236231Y-75497040D01*
X170862381Y-75600015D01*
X170501839Y-75742764D01*
X170158822Y-75923616D01*
X169837344Y-76140456D01*
X169541164Y-76390747D01*
X169273748Y-76671562D01*
X169038225Y-76979614D01*
X168837348Y-77311302D01*
X168673468Y-77662743D01*
X168548502Y-78029827D01*
X168463912Y-78408262D01*
X168420688Y-78793618D01*
X168419334Y-79181389D01*
X167459898Y-79181389D01*
X164560971Y-76282463D01*
X164546039Y-76258797D01*
X164471277Y-76192769D01*
X164446627Y-76168119D01*
X164425083Y-76151971D01*
X164357104Y-76091934D01*
X164324637Y-76076691D01*
X164295939Y-76055183D01*
X164211027Y-76023352D01*
X164128576Y-75984641D01*
X164093971Y-75979470D01*
X164059910Y-75966701D01*
X163957718Y-75959106D01*
X163930243Y-75955000D01*
X163902465Y-75955000D01*
X163808534Y-75948020D01*
X163775836Y-75955000D01*
X140433581Y-75955000D01*
X140406299Y-75948827D01*
X140306784Y-75955000D01*
X140271885Y-75955000D01*
X140245218Y-75958820D01*
X140154715Y-75964433D01*
X140120979Y-75976611D01*
X140085476Y-75981696D01*
X140002910Y-76019236D01*
X139917252Y-76050160D01*
X139889129Y-76070970D01*
X139856012Y-76086027D01*
X139778382Y-76152918D01*
X139756048Y-76169444D01*
X139736410Y-76189083D01*
X139665053Y-76250568D01*
X139646867Y-76278626D01*
X136002494Y-79923000D01*
X135958376Y-79923000D01*
X135783355Y-79939698D01*
X135558140Y-80005770D01*
X135349483Y-80113235D01*
X135164910Y-80258218D01*
X135011085Y-80435487D01*
X134893554Y-80638647D01*
X134816561Y-80860365D01*
X134782882Y-81092642D01*
X134705531Y-81092642D01*
X134700266Y-80978904D01*
X134645276Y-80750730D01*
X134548132Y-80537072D01*
X134412337Y-80345638D01*
X134242795Y-80183336D01*
X134045620Y-80056021D01*
X133825039Y-79967125D01*
X133520716Y-79923000D01*
X133418376Y-79923000D01*
X133243355Y-79939698D01*
X133018140Y-80005770D01*
X132809483Y-80113235D01*
X132624910Y-80258218D01*
X132471085Y-80435487D01*
X132353554Y-80638647D01*
X132276561Y-80860365D01*
X132242882Y-81092642D01*
X124907013Y-81092642D01*
X124954705Y-81030713D01*
X125156738Y-80699729D01*
X125321844Y-80348861D01*
X125341908Y-80290590D01*
X127162024Y-80290590D01*
X127162024Y-80779000D01*
X128023000Y-80779000D01*
X128023000Y-79918024D01*
X128771000Y-79918024D01*
X128771000Y-80779000D01*
X129631976Y-80779000D01*
X129631976Y-80652905D01*
X129805305Y-80652905D01*
X129878033Y-80779000D01*
X130563000Y-80779000D01*
X131311000Y-80779000D01*
X132118131Y-80779000D01*
X132008132Y-80537072D01*
X131872337Y-80345638D01*
X131702795Y-80183336D01*
X131505621Y-80056022D01*
X131311000Y-79977581D01*
X131311000Y-80779000D01*
X130563000Y-80779000D01*
X130563000Y-79962065D01*
X130269483Y-80113235D01*
X130084910Y-80258218D01*
X129931085Y-80435487D01*
X129805305Y-80652905D01*
X129631976Y-80652905D01*
X129631976Y-80290590D01*
X129604953Y-80154731D01*
X129520965Y-80029035D01*
X129395269Y-79945047D01*
X129259410Y-79918024D01*
X128771000Y-79918024D01*
X128023000Y-79918024D01*
X127534590Y-79918024D01*
X127398731Y-79945047D01*
X127273035Y-80029035D01*
X127189047Y-80154731D01*
X127162024Y-80290590D01*
X125341908Y-80290590D01*
X125448090Y-79982214D01*
X125534001Y-79604078D01*
X125578596Y-79218655D01*
X125580035Y-78806332D01*
X125538132Y-78420609D01*
X125454863Y-78041882D01*
X125331179Y-77674363D01*
X125168528Y-77322351D01*
X124968809Y-76989965D01*
X124734362Y-76681092D01*
X124467929Y-76399346D01*
X124172624Y-76148022D01*
X123851905Y-75930062D01*
X123509522Y-75748014D01*
X123149480Y-75604008D01*
X122775991Y-75499727D01*
X122393426Y-75436393D01*
X122006257Y-75414748D01*
X121619016Y-75435042D01*
X121236231Y-75497040D01*
X120862381Y-75600015D01*
X120501839Y-75742764D01*
X120158822Y-75923616D01*
X119837344Y-76140456D01*
X119541164Y-76390747D01*
X119273748Y-76671562D01*
X119038225Y-76979614D01*
X118837348Y-77311302D01*
X118673468Y-77662743D01*
X118548502Y-78029827D01*
X118463912Y-78408262D01*
X118420688Y-78793618D01*
X118419334Y-79181389D01*
X118380000Y-79181389D01*
X118380000Y-75380000D01*
X175620001Y-75380000D01*
X175620000Y-119620000D01*
X118380000Y-119620000D01*
X118380000Y-116181389D01*
X118419334Y-116181389D01*
X118459868Y-116567037D01*
X118541813Y-116946053D01*
X118664214Y-117314001D01*
X118825636Y-117666579D01*
X119024192Y-117999660D01*
X119257560Y-118309349D01*
X119523008Y-118592023D01*
X119817434Y-118844376D01*
X120137390Y-119063455D01*
X120479136Y-119246698D01*
X120838673Y-119391959D01*
X121211795Y-119497542D01*
X121594137Y-119562212D01*
X121981227Y-119585209D01*
X122368538Y-119566266D01*
X122751537Y-119505605D01*
X123125744Y-119403935D01*
X123486782Y-119262445D01*
X123830428Y-119082792D01*
X124152661Y-118867076D01*
X124449713Y-118617820D01*
X124718107Y-118337941D01*
X124954705Y-118030713D01*
X125156738Y-117699729D01*
X125321844Y-117348861D01*
X125448090Y-116982214D01*
X125534001Y-116604078D01*
X125578596Y-116218655D01*
X125580035Y-115806332D01*
X125538132Y-115420609D01*
X125454863Y-115041882D01*
X125331179Y-114674363D01*
X125168528Y-114322351D01*
X124968809Y-113989965D01*
X124813327Y-113785124D01*
X157199227Y-113785124D01*
X157232072Y-114017360D01*
X157331752Y-114229671D01*
X157489453Y-114403286D01*
X157691233Y-114522857D01*
X157919251Y-114577809D01*
X158153348Y-114563286D01*
X158372825Y-114480571D01*
X158558279Y-114336979D01*
X158568826Y-114322000D01*
X163257626Y-114322000D01*
X163331453Y-114403278D01*
X163533233Y-114522849D01*
X163761251Y-114577801D01*
X163995348Y-114563278D01*
X164214825Y-114480563D01*
X164400279Y-114336971D01*
X164535312Y-114145193D01*
X164608141Y-113921708D01*
X164610287Y-113675892D01*
X164541368Y-113451169D01*
X164409703Y-113257066D01*
X164226784Y-113110258D01*
X164008783Y-113023725D01*
X163774976Y-113005118D01*
X163546034Y-113056084D01*
X163342198Y-113172113D01*
X163257641Y-113262000D01*
X158571045Y-113262000D01*
X158567703Y-113257073D01*
X158384784Y-113110266D01*
X158166783Y-113023733D01*
X157932976Y-113005126D01*
X157704034Y-113056092D01*
X157500198Y-113172121D01*
X157339491Y-113342959D01*
X157236120Y-113553497D01*
X157199227Y-113785124D01*
X124813327Y-113785124D01*
X124734362Y-113681092D01*
X124467929Y-113399346D01*
X124172624Y-113148022D01*
X123851905Y-112930062D01*
X123509522Y-112748014D01*
X123149480Y-112604008D01*
X122775991Y-112499727D01*
X122393426Y-112436393D01*
X122006257Y-112414748D01*
X121619016Y-112435042D01*
X121236231Y-112497040D01*
X120862381Y-112600015D01*
X120501839Y-112742764D01*
X120158822Y-112923616D01*
X119837344Y-113140456D01*
X119541164Y-113390747D01*
X119273748Y-113671562D01*
X119038225Y-113979614D01*
X118837348Y-114311302D01*
X118673468Y-114662743D01*
X118548502Y-115029827D01*
X118463912Y-115408262D01*
X118420688Y-115793618D01*
X118419334Y-116181389D01*
X118380000Y-116181389D01*
X118380000Y-111753116D01*
X138657225Y-111753116D01*
X138690070Y-111985352D01*
X138789750Y-112197663D01*
X138947451Y-112371278D01*
X139149231Y-112490849D01*
X139377249Y-112545801D01*
X139611346Y-112531278D01*
X139830823Y-112448563D01*
X140016277Y-112304971D01*
X140151310Y-112113193D01*
X140224139Y-111889708D01*
X140226285Y-111643892D01*
X140157366Y-111419169D01*
X140075998Y-111299215D01*
X140075998Y-111121035D01*
X145295181Y-111121035D01*
X145317583Y-111349504D01*
X145385468Y-111568802D01*
X145496061Y-111769971D01*
X145644846Y-111944794D01*
X145825746Y-112086128D01*
X146031370Y-112188200D01*
X146253318Y-112246841D01*
X146482524Y-112259656D01*
X146709627Y-112226121D01*
X146925346Y-112147605D01*
X147120873Y-112027316D01*
X147288219Y-111870169D01*
X147420547Y-111682581D01*
X147512453Y-111472217D01*
X147560228Y-111247451D01*
X147561056Y-111010435D01*
X147514850Y-110785342D01*
X147424415Y-110574341D01*
X147293399Y-110385835D01*
X147127156Y-110227522D01*
X146932474Y-110105871D01*
X146717307Y-110025851D01*
X146490444Y-109990731D01*
X146261154Y-110001946D01*
X146038802Y-110059035D01*
X145832470Y-110159671D01*
X145650588Y-110299739D01*
X145500587Y-110473517D01*
X145388591Y-110673909D01*
X145319178Y-110892728D01*
X145295181Y-111121035D01*
X140075998Y-111121035D01*
X140075998Y-107057035D01*
X153677181Y-107057035D01*
X153699583Y-107285504D01*
X153767468Y-107504802D01*
X153878061Y-107705971D01*
X154026846Y-107880794D01*
X154207746Y-108022128D01*
X154413370Y-108124200D01*
X154635318Y-108182841D01*
X154864524Y-108195656D01*
X155091627Y-108162121D01*
X155307346Y-108083605D01*
X155502873Y-107963316D01*
X155670219Y-107806169D01*
X155802547Y-107618581D01*
X155894453Y-107408217D01*
X155942228Y-107183451D01*
X155942669Y-107057035D01*
X166885181Y-107057035D01*
X166907583Y-107285504D01*
X166975468Y-107504802D01*
X167086061Y-107705971D01*
X167234846Y-107880794D01*
X167415746Y-108022128D01*
X167621370Y-108124200D01*
X167843318Y-108182841D01*
X168072524Y-108195656D01*
X168299627Y-108162121D01*
X168515346Y-108083605D01*
X168710873Y-107963316D01*
X168878219Y-107806169D01*
X169010547Y-107618581D01*
X169102453Y-107408217D01*
X169150228Y-107183451D01*
X169151056Y-106946435D01*
X169104850Y-106721342D01*
X169014415Y-106510341D01*
X168883399Y-106321835D01*
X168717156Y-106163522D01*
X168522474Y-106041871D01*
X168307307Y-105961851D01*
X168080444Y-105926731D01*
X167851154Y-105937946D01*
X167628802Y-105995035D01*
X167422470Y-106095671D01*
X167240588Y-106235739D01*
X167090587Y-106409517D01*
X166978591Y-106609909D01*
X166909178Y-106828728D01*
X166885181Y-107057035D01*
X155942669Y-107057035D01*
X155943056Y-106946435D01*
X155896850Y-106721342D01*
X155806415Y-106510341D01*
X155675399Y-106321835D01*
X155509156Y-106163522D01*
X155314474Y-106041871D01*
X155099307Y-105961851D01*
X154872444Y-105926731D01*
X154643154Y-105937946D01*
X154420802Y-105995035D01*
X154214470Y-106095671D01*
X154032588Y-106235739D01*
X153882587Y-106409517D01*
X153770591Y-106609909D01*
X153701178Y-106828728D01*
X153677181Y-107057035D01*
X140075998Y-107057035D01*
X140075998Y-104517141D01*
X156247335Y-104517141D01*
X156269142Y-104739544D01*
X156335225Y-104953021D01*
X156442882Y-105148848D01*
X156587717Y-105319030D01*
X156763814Y-105456612D01*
X156963979Y-105555974D01*
X157180035Y-105613059D01*
X157403156Y-105625533D01*
X157624230Y-105592888D01*
X157834222Y-105516457D01*
X158024558Y-105399361D01*
X158187461Y-105246386D01*
X158316276Y-105063778D01*
X158405743Y-104858999D01*
X158452251Y-104640194D01*
X158452680Y-104517141D01*
X164375335Y-104517141D01*
X164397142Y-104739544D01*
X164463225Y-104953021D01*
X164570882Y-105148848D01*
X164715717Y-105319030D01*
X164891814Y-105456612D01*
X165091979Y-105555974D01*
X165308035Y-105613059D01*
X165531156Y-105625533D01*
X165752230Y-105592888D01*
X165962222Y-105516457D01*
X166152558Y-105399361D01*
X166315461Y-105246386D01*
X166444276Y-105063778D01*
X166533743Y-104858999D01*
X166580251Y-104640194D01*
X166581056Y-104409483D01*
X166536076Y-104190359D01*
X166448042Y-103984960D01*
X166320504Y-103801457D01*
X166158674Y-103647348D01*
X165969160Y-103528927D01*
X165759706Y-103451031D01*
X165538866Y-103416844D01*
X165315663Y-103427761D01*
X165099213Y-103483335D01*
X164898360Y-103581299D01*
X164721308Y-103717647D01*
X164575287Y-103886812D01*
X164466265Y-104081885D01*
X164398694Y-104294895D01*
X164375335Y-104517141D01*
X158452680Y-104517141D01*
X158453056Y-104409483D01*
X158408076Y-104190359D01*
X158320042Y-103984960D01*
X158192504Y-103801457D01*
X158030674Y-103647348D01*
X157841160Y-103528927D01*
X157631706Y-103451031D01*
X157410866Y-103416844D01*
X157187663Y-103427761D01*
X156971213Y-103483335D01*
X156770360Y-103581299D01*
X156593308Y-103717647D01*
X156447287Y-103886812D01*
X156338265Y-104081885D01*
X156270694Y-104294895D01*
X156247335Y-104517141D01*
X140075998Y-104517141D01*
X140075998Y-101977141D01*
X153707335Y-101977141D01*
X153729142Y-102199544D01*
X153795225Y-102413021D01*
X153902882Y-102608848D01*
X154047717Y-102779030D01*
X154223814Y-102916612D01*
X154423979Y-103015974D01*
X154640035Y-103073059D01*
X154863156Y-103085533D01*
X155084230Y-103052888D01*
X155294222Y-102976457D01*
X155484558Y-102859361D01*
X155647461Y-102706386D01*
X155776276Y-102523778D01*
X155865743Y-102318999D01*
X155912251Y-102100194D01*
X155912680Y-101977141D01*
X166915335Y-101977141D01*
X166937142Y-102199544D01*
X167003225Y-102413021D01*
X167110882Y-102608848D01*
X167255717Y-102779030D01*
X167431814Y-102916612D01*
X167631979Y-103015974D01*
X167848035Y-103073059D01*
X168071156Y-103085533D01*
X168292230Y-103052888D01*
X168502222Y-102976457D01*
X168692558Y-102859361D01*
X168855461Y-102706386D01*
X168984276Y-102523778D01*
X169073743Y-102318999D01*
X169120251Y-102100194D01*
X169121056Y-101869483D01*
X169076076Y-101650359D01*
X168988042Y-101444960D01*
X168860504Y-101261457D01*
X168698674Y-101107348D01*
X168509160Y-100988927D01*
X168299706Y-100911031D01*
X168078866Y-100876844D01*
X167855663Y-100887761D01*
X167639213Y-100943335D01*
X167438360Y-101041299D01*
X167261308Y-101177647D01*
X167115287Y-101346812D01*
X167006265Y-101541885D01*
X166938694Y-101754895D01*
X166915335Y-101977141D01*
X155912680Y-101977141D01*
X155913056Y-101869483D01*
X155868076Y-101650359D01*
X155780042Y-101444960D01*
X155652504Y-101261457D01*
X155490674Y-101107348D01*
X155301160Y-100988927D01*
X155091706Y-100911031D01*
X154870866Y-100876844D01*
X154647663Y-100887761D01*
X154431213Y-100943335D01*
X154230360Y-101041299D01*
X154053308Y-101177647D01*
X153907287Y-101346812D01*
X153798265Y-101541885D01*
X153730694Y-101754895D01*
X153707335Y-101977141D01*
X140075998Y-101977141D01*
X140075998Y-99437141D01*
X156247335Y-99437141D01*
X156269142Y-99659544D01*
X156335225Y-99873021D01*
X156442882Y-100068848D01*
X156587717Y-100239030D01*
X156763814Y-100376612D01*
X156963979Y-100475974D01*
X157180035Y-100533059D01*
X157403156Y-100545533D01*
X157624230Y-100512888D01*
X157834222Y-100436457D01*
X158024558Y-100319361D01*
X158187461Y-100166386D01*
X158316276Y-99983778D01*
X158405743Y-99778999D01*
X158452251Y-99560194D01*
X158452680Y-99437141D01*
X164375335Y-99437141D01*
X164397142Y-99659544D01*
X164463225Y-99873021D01*
X164570882Y-100068848D01*
X164715717Y-100239030D01*
X164891814Y-100376612D01*
X165091979Y-100475974D01*
X165308035Y-100533059D01*
X165531156Y-100545533D01*
X165752230Y-100512888D01*
X165962222Y-100436457D01*
X166152558Y-100319361D01*
X166315461Y-100166386D01*
X166444276Y-99983778D01*
X166533743Y-99778999D01*
X166580251Y-99560194D01*
X166581056Y-99329483D01*
X166536076Y-99110359D01*
X166448042Y-98904960D01*
X166320504Y-98721457D01*
X166158674Y-98567348D01*
X165969160Y-98448927D01*
X165759706Y-98371031D01*
X165538866Y-98336844D01*
X165315663Y-98347761D01*
X165099213Y-98403335D01*
X164898360Y-98501299D01*
X164721308Y-98637647D01*
X164575287Y-98806812D01*
X164466265Y-99001885D01*
X164398694Y-99214895D01*
X164375335Y-99437141D01*
X158452680Y-99437141D01*
X158453056Y-99329483D01*
X158408076Y-99110359D01*
X158320042Y-98904960D01*
X158192504Y-98721457D01*
X158030674Y-98567348D01*
X157841160Y-98448927D01*
X157631706Y-98371031D01*
X157410866Y-98336844D01*
X157187663Y-98347761D01*
X156971213Y-98403335D01*
X156770360Y-98501299D01*
X156593308Y-98637647D01*
X156447287Y-98806812D01*
X156338265Y-99001885D01*
X156270694Y-99214895D01*
X156247335Y-99437141D01*
X140075998Y-99437141D01*
X140075998Y-96897035D01*
X156217181Y-96897035D01*
X156239583Y-97125504D01*
X156307468Y-97344802D01*
X156418061Y-97545971D01*
X156566846Y-97720794D01*
X156747746Y-97862128D01*
X156953370Y-97964200D01*
X157175318Y-98022841D01*
X157404524Y-98035656D01*
X157631627Y-98002121D01*
X157847346Y-97923605D01*
X158042873Y-97803316D01*
X158210219Y-97646169D01*
X158342547Y-97458581D01*
X158434453Y-97248217D01*
X158482228Y-97023451D01*
X158482669Y-96897035D01*
X164345181Y-96897035D01*
X164367583Y-97125504D01*
X164435468Y-97344802D01*
X164546061Y-97545971D01*
X164694846Y-97720794D01*
X164875746Y-97862128D01*
X165081370Y-97964200D01*
X165303318Y-98022841D01*
X165532524Y-98035656D01*
X165759627Y-98002121D01*
X165975346Y-97923605D01*
X166170873Y-97803316D01*
X166338219Y-97646169D01*
X166470547Y-97458581D01*
X166562453Y-97248217D01*
X166610228Y-97023451D01*
X166611056Y-96786435D01*
X166564850Y-96561342D01*
X166474415Y-96350341D01*
X166343399Y-96161835D01*
X166177156Y-96003522D01*
X165982474Y-95881871D01*
X165767307Y-95801851D01*
X165540444Y-95766731D01*
X165311154Y-95777946D01*
X165088802Y-95835035D01*
X164882470Y-95935671D01*
X164700588Y-96075739D01*
X164550587Y-96249517D01*
X164438591Y-96449909D01*
X164369178Y-96668728D01*
X164345181Y-96897035D01*
X158482669Y-96897035D01*
X158483056Y-96786435D01*
X158436850Y-96561342D01*
X158346415Y-96350341D01*
X158215399Y-96161835D01*
X158049156Y-96003522D01*
X157854474Y-95881871D01*
X157639307Y-95801851D01*
X157412444Y-95766731D01*
X157183154Y-95777946D01*
X156960802Y-95835035D01*
X156754470Y-95935671D01*
X156572588Y-96075739D01*
X156422587Y-96249517D01*
X156310591Y-96449909D01*
X156241178Y-96668728D01*
X156217181Y-96897035D01*
X140075998Y-96897035D01*
X140075998Y-84715954D01*
X142430269Y-82361684D01*
X142577284Y-82383000D01*
X142679624Y-82383000D01*
X142854645Y-82366302D01*
X143079860Y-82300230D01*
X143288517Y-82192765D01*
X143473090Y-82047782D01*
X143626915Y-81870513D01*
X143744446Y-81667353D01*
X143821439Y-81445635D01*
X143855118Y-81213358D01*
X143849531Y-81092642D01*
X143926882Y-81092642D01*
X143937734Y-81327096D01*
X143992724Y-81555270D01*
X144089868Y-81768928D01*
X144225663Y-81960362D01*
X144395205Y-82122664D01*
X144592380Y-82249979D01*
X144631001Y-82265543D01*
X144631001Y-82497804D01*
X144620619Y-82550000D01*
X144664318Y-82769700D01*
X144682571Y-82787952D01*
X144778893Y-82932108D01*
X144823145Y-82961676D01*
X146004321Y-84142853D01*
X146033892Y-84187108D01*
X146209204Y-84304248D01*
X146363803Y-84335000D01*
X146363808Y-84335000D01*
X146415999Y-84345381D01*
X146468190Y-84335000D01*
X160285523Y-84335000D01*
X160309047Y-84453268D01*
X160310204Y-84455000D01*
X160309047Y-84456732D01*
X160282024Y-84592590D01*
X160282024Y-85033166D01*
X160280540Y-85042281D01*
X160278785Y-85133645D01*
X160298567Y-85293603D01*
X160322527Y-85381785D01*
X160386407Y-85529759D01*
X160434152Y-85607674D01*
X160536998Y-85731774D01*
X160604695Y-85793157D01*
X160738238Y-85883402D01*
X160787000Y-85907079D01*
X160787001Y-87642741D01*
X160787000Y-87642746D01*
X160787000Y-87796275D01*
X160768491Y-87815951D01*
X160665120Y-88026489D01*
X160628227Y-88258116D01*
X160661072Y-88490352D01*
X160760752Y-88702663D01*
X160918453Y-88876278D01*
X161120233Y-88995849D01*
X161348251Y-89050801D01*
X161582348Y-89036278D01*
X161801825Y-88953563D01*
X161987279Y-88809971D01*
X162122312Y-88618193D01*
X162195141Y-88394708D01*
X162197287Y-88148892D01*
X162128368Y-87924169D01*
X162047000Y-87804215D01*
X162047000Y-85907169D01*
X162075240Y-85894359D01*
X162211099Y-85807641D01*
X162280378Y-85748051D01*
X162386437Y-85626688D01*
X162436207Y-85550048D01*
X162503939Y-85403796D01*
X162530198Y-85316272D01*
X162554161Y-85156887D01*
X162554799Y-85065507D01*
X162551976Y-85044767D01*
X162551976Y-84592590D01*
X162524953Y-84456732D01*
X162523796Y-84455000D01*
X162524953Y-84453268D01*
X162551976Y-84317410D01*
X162551976Y-83871423D01*
X162554161Y-83856887D01*
X162554799Y-83765506D01*
X162533064Y-83605803D01*
X162508030Y-83517920D01*
X162442346Y-83370734D01*
X162393650Y-83293407D01*
X162289296Y-83170576D01*
X162220857Y-83110026D01*
X162086223Y-83021419D01*
X162003539Y-82982511D01*
X161849447Y-82935253D01*
X161759166Y-82921115D01*
X161598005Y-82919005D01*
X161590159Y-82920024D01*
X161175798Y-82920024D01*
X161098004Y-82919005D01*
X161007384Y-82930775D01*
X160852108Y-82973983D01*
X160768433Y-83010714D01*
X160631525Y-83095767D01*
X160561526Y-83154503D01*
X160453992Y-83274561D01*
X160453699Y-83275000D01*
X146635532Y-83275000D01*
X145691000Y-82330469D01*
X145691000Y-82263591D01*
X145828517Y-82192765D01*
X146013090Y-82047782D01*
X146166915Y-81870513D01*
X146284446Y-81667353D01*
X146333184Y-81527000D01*
X146519869Y-81527000D01*
X146629868Y-81768928D01*
X146765663Y-81960362D01*
X146935205Y-82122664D01*
X147132379Y-82249978D01*
X147327000Y-82328419D01*
X147327000Y-81527000D01*
X148075000Y-81527000D01*
X148075000Y-82343935D01*
X148368517Y-82192765D01*
X148553090Y-82047782D01*
X148706915Y-81870513D01*
X148832695Y-81653095D01*
X148759967Y-81527000D01*
X149006024Y-81527000D01*
X149006024Y-82015410D01*
X149033047Y-82151269D01*
X149117035Y-82276965D01*
X149242731Y-82360953D01*
X149378590Y-82387976D01*
X149867000Y-82387976D01*
X149867000Y-81527000D01*
X150615000Y-81527000D01*
X150615000Y-82387976D01*
X151103410Y-82387976D01*
X151239269Y-82360953D01*
X151364965Y-82276965D01*
X151448953Y-82151269D01*
X151475976Y-82015410D01*
X151475976Y-81527000D01*
X150615000Y-81527000D01*
X149867000Y-81527000D01*
X149006024Y-81527000D01*
X148759967Y-81527000D01*
X148075000Y-81527000D01*
X147327000Y-81527000D01*
X146519869Y-81527000D01*
X146333184Y-81527000D01*
X146361439Y-81445635D01*
X146395118Y-81213358D01*
X146389531Y-81092642D01*
X156372882Y-81092642D01*
X156383734Y-81327096D01*
X156438724Y-81555270D01*
X156535868Y-81768928D01*
X156671663Y-81960362D01*
X156841205Y-82122664D01*
X157038380Y-82249979D01*
X157258961Y-82338875D01*
X157563284Y-82383000D01*
X157665624Y-82383000D01*
X157840645Y-82366302D01*
X158065860Y-82300230D01*
X158274517Y-82192765D01*
X158459090Y-82047782D01*
X158612915Y-81870513D01*
X158730446Y-81667353D01*
X158807439Y-81445635D01*
X158841118Y-81213358D01*
X158835531Y-81092642D01*
X158912882Y-81092642D01*
X158923734Y-81327096D01*
X158978724Y-81555270D01*
X159075868Y-81768928D01*
X159211663Y-81960362D01*
X159381205Y-82122664D01*
X159578380Y-82249979D01*
X159798961Y-82338875D01*
X160103284Y-82383000D01*
X160205624Y-82383000D01*
X160380645Y-82366302D01*
X160605860Y-82300230D01*
X160814517Y-82192765D01*
X160999090Y-82047782D01*
X161152915Y-81870513D01*
X161270446Y-81667353D01*
X161347439Y-81445635D01*
X161381118Y-81213358D01*
X161375531Y-81092642D01*
X161452882Y-81092642D01*
X161463734Y-81327096D01*
X161518724Y-81555270D01*
X161615868Y-81768928D01*
X161751663Y-81960362D01*
X161921205Y-82122664D01*
X162118380Y-82249979D01*
X162338961Y-82338875D01*
X162643284Y-82383000D01*
X162745624Y-82383000D01*
X162920645Y-82366302D01*
X163145860Y-82300230D01*
X163354517Y-82192765D01*
X163539090Y-82047782D01*
X163692915Y-81870513D01*
X163810446Y-81667353D01*
X163887439Y-81445635D01*
X163921118Y-81213358D01*
X163910266Y-80978904D01*
X163855276Y-80750730D01*
X163758132Y-80537072D01*
X163622337Y-80345638D01*
X163452795Y-80183336D01*
X163255620Y-80056021D01*
X163035039Y-79967125D01*
X162730716Y-79923000D01*
X162628376Y-79923000D01*
X162453355Y-79939698D01*
X162228140Y-80005770D01*
X162019483Y-80113235D01*
X161834910Y-80258218D01*
X161681085Y-80435487D01*
X161563554Y-80638647D01*
X161486561Y-80860365D01*
X161452882Y-81092642D01*
X161375531Y-81092642D01*
X161370266Y-80978904D01*
X161315276Y-80750730D01*
X161218132Y-80537072D01*
X161082337Y-80345638D01*
X160912795Y-80183336D01*
X160715620Y-80056021D01*
X160495039Y-79967125D01*
X160190716Y-79923000D01*
X160088376Y-79923000D01*
X159913355Y-79939698D01*
X159688140Y-80005770D01*
X159479483Y-80113235D01*
X159294910Y-80258218D01*
X159141085Y-80435487D01*
X159023554Y-80638647D01*
X158946561Y-80860365D01*
X158912882Y-81092642D01*
X158835531Y-81092642D01*
X158830266Y-80978904D01*
X158775276Y-80750730D01*
X158678132Y-80537072D01*
X158542337Y-80345638D01*
X158372795Y-80183336D01*
X158175620Y-80056021D01*
X157955039Y-79967125D01*
X157650716Y-79923000D01*
X157548376Y-79923000D01*
X157373355Y-79939698D01*
X157148140Y-80005770D01*
X156939483Y-80113235D01*
X156754910Y-80258218D01*
X156601085Y-80435487D01*
X156483554Y-80638647D01*
X156406561Y-80860365D01*
X156372882Y-81092642D01*
X146389531Y-81092642D01*
X146384266Y-80978904D01*
X146329276Y-80750730D01*
X146284798Y-80652905D01*
X146569305Y-80652905D01*
X146642033Y-80779000D01*
X147327000Y-80779000D01*
X147327000Y-79977581D01*
X148075000Y-79977581D01*
X148075000Y-80779000D01*
X148882131Y-80779000D01*
X148772132Y-80537072D01*
X148636337Y-80345638D01*
X148578834Y-80290590D01*
X149006024Y-80290590D01*
X149006024Y-80779000D01*
X149867000Y-80779000D01*
X149867000Y-79918024D01*
X150615000Y-79918024D01*
X150615000Y-80779000D01*
X151475976Y-80779000D01*
X151475976Y-80290590D01*
X151448953Y-80154731D01*
X151364965Y-80029035D01*
X151239269Y-79945047D01*
X151103410Y-79918024D01*
X150615000Y-79918024D01*
X149867000Y-79918024D01*
X149378590Y-79918024D01*
X149242731Y-79945047D01*
X149117035Y-80029035D01*
X149033047Y-80154731D01*
X149006024Y-80290590D01*
X148578834Y-80290590D01*
X148466795Y-80183336D01*
X148269621Y-80056022D01*
X148075000Y-79977581D01*
X147327000Y-79977581D01*
X147327000Y-79962065D01*
X147033483Y-80113235D01*
X146848910Y-80258218D01*
X146695085Y-80435487D01*
X146569305Y-80652905D01*
X146284798Y-80652905D01*
X146232132Y-80537072D01*
X146096337Y-80345638D01*
X145926795Y-80183336D01*
X145729620Y-80056021D01*
X145509039Y-79967125D01*
X145204716Y-79923000D01*
X145102376Y-79923000D01*
X144927355Y-79939698D01*
X144702140Y-80005770D01*
X144493483Y-80113235D01*
X144308910Y-80258218D01*
X144155085Y-80435487D01*
X144037554Y-80638647D01*
X143960561Y-80860365D01*
X143926882Y-81092642D01*
X143849531Y-81092642D01*
X143844266Y-80978904D01*
X143789276Y-80750730D01*
X143692132Y-80537072D01*
X143556337Y-80345638D01*
X143386795Y-80183336D01*
X143189620Y-80056021D01*
X142969039Y-79967125D01*
X142664716Y-79923000D01*
X142562376Y-79923000D01*
X142387355Y-79939698D01*
X142162140Y-80005770D01*
X141953483Y-80113235D01*
X141768910Y-80258218D01*
X141615085Y-80435487D01*
X141497554Y-80638647D01*
X141420561Y-80860365D01*
X141386882Y-81092642D01*
X141397734Y-81327096D01*
X141452724Y-81555270D01*
X141453366Y-81556681D01*
X139019987Y-83990061D01*
X138955945Y-84043798D01*
X138914151Y-84116188D01*
X138866216Y-84184647D01*
X138858932Y-84211832D01*
X138844860Y-84236205D01*
X138830343Y-84318525D01*
X138808714Y-84399249D01*
X138815998Y-84482507D01*
X138815999Y-111139788D01*
X138815998Y-111139794D01*
X138815998Y-111291275D01*
X138797489Y-111310951D01*
X138694118Y-111521489D01*
X138657225Y-111753116D01*
X118380000Y-111753116D01*
X118380000Y-104517141D01*
G36*
X135129000Y-97317521D02*
G01*
X134987491Y-97467951D01*
X134884120Y-97678489D01*
X134847227Y-97910116D01*
X134880072Y-98142352D01*
X134979752Y-98354663D01*
X135106000Y-98493651D01*
X135106001Y-104707970D01*
X134987491Y-104833951D01*
X134884120Y-105044489D01*
X134847227Y-105276116D01*
X134880072Y-105508352D01*
X134979752Y-105720663D01*
X135129000Y-105884972D01*
X135129000Y-110872000D01*
X127380000Y-110872000D01*
X127380000Y-93217000D01*
X135129000Y-93217000D01*
X135129000Y-97317521D01*
X135129000Y-97317521D01*
G37*
X135129000Y-97317521D02*
X134987491Y-97467951D01*
X134884120Y-97678489D01*
X134847227Y-97910116D01*
X134880072Y-98142352D01*
X134979752Y-98354663D01*
X135106000Y-98493651D01*
X135106001Y-104707970D01*
X134987491Y-104833951D01*
X134884120Y-105044489D01*
X134847227Y-105276116D01*
X134880072Y-105508352D01*
X134979752Y-105720663D01*
X135129000Y-105884972D01*
X135129000Y-110872000D01*
X127380000Y-110872000D01*
X127380000Y-93217000D01*
X135129000Y-93217000D01*
X135129000Y-97317521D01*
M02*
