G04 #@! TF.GenerationSoftware,KiCad,Pcbnew,6.0.0-rc1-unknown-r13783-618182dc*
G04 #@! TF.CreationDate,2018-09-26T19:15:08+03:00*
G04 #@! TF.ProjectId,vfd-ps,7666642D70732E6B696361645F706362,A*
G04 #@! TF.SameCoordinates,Original*
G04 #@! TF.FileFunction,Copper,L2,Bot,Signal*
G04 #@! TF.FilePolarity,Positive*
%FSLAX46Y46*%
G04 Gerber Fmt 4.6, Leading zero omitted, Abs format (unit mm)*
G04 Created by KiCad (PCBNEW 6.0.0-rc1-unknown-r13783-618182dc) date Wed Sep 26 19:15:08 2018*
%MOMM*%
%LPD*%
G01*
G04 APERTURE LIST*
G04 #@! TA.AperFunction,Conductor*
%ADD10R,4.500000X2.950000*%
G04 #@! TD*
G04 #@! TA.AperFunction,ViaPad*
%ADD11C,0.600000*%
G04 #@! TD*
G04 #@! TA.AperFunction,SMDPad,CuDef*
%ADD12R,3.100000X2.600000*%
G04 #@! TD*
G04 #@! TA.AperFunction,ComponentPad*
%ADD13C,1.500000*%
G04 #@! TD*
G04 #@! TA.AperFunction,ComponentPad*
%ADD14C,1.440000*%
G04 #@! TD*
G04 #@! TA.AperFunction,SMDPad,CuDef*
%ADD15C,0.500000*%
G04 #@! TD*
G04 #@! TA.AperFunction,Conductor*
%ADD16C,0.100000*%
G04 #@! TD*
G04 #@! TA.AperFunction,ComponentPad*
%ADD17O,1.700000X1.700000*%
G04 #@! TD*
G04 #@! TA.AperFunction,ComponentPad*
%ADD18R,1.700000X1.700000*%
G04 #@! TD*
G04 #@! TA.AperFunction,ComponentPad*
%ADD19C,6.400000*%
G04 #@! TD*
G04 #@! TA.AperFunction,ComponentPad*
%ADD20C,0.800000*%
G04 #@! TD*
G04 #@! TA.AperFunction,ViaPad*
%ADD21C,0.800000*%
G04 #@! TD*
G04 #@! TA.AperFunction,Conductor*
%ADD22C,1.000000*%
G04 #@! TD*
G04 #@! TA.AperFunction,Conductor*
%ADD23C,0.500000*%
G04 #@! TD*
G04 #@! TA.AperFunction,Conductor*
%ADD24C,0.300000*%
G04 #@! TD*
G04 #@! TA.AperFunction,Conductor*
%ADD25C,0.254000*%
G04 #@! TD*
G04 APERTURE END LIST*
D10*
G04 #@! TO.N,GNDPAD*
G04 #@! TO.C,U1*
X132207000Y-101981000D03*
D11*
X134007000Y-101381000D03*
X132807000Y-101381000D03*
X132807000Y-102581000D03*
X134007000Y-102581000D03*
X130407000Y-101381000D03*
X131507000Y-101381000D03*
X131507000Y-102581000D03*
X130407000Y-102581000D03*
D10*
X132207000Y-101981000D03*
D12*
G04 #@! TD*
G04 #@! TO.P,U1,9*
G04 #@! TO.N,GNDPAD*
X132207000Y-101981000D03*
D13*
G04 #@! TO.P,TP6,1*
G04 #@! TO.N,GND*
X128397000Y-84963000D03*
G04 #@! TD*
G04 #@! TO.P,TP5,1*
G04 #@! TO.N,Net-(C13-Pad2)*
X165481000Y-96901000D03*
G04 #@! TD*
G04 #@! TO.P,TP4,1*
G04 #@! TO.N,Net-(C11-Pad2)*
X157353000Y-96901000D03*
G04 #@! TD*
G04 #@! TO.P,TP3,1*
G04 #@! TO.N,Net-(RV3-Pad1)*
X168021000Y-107061000D03*
G04 #@! TD*
G04 #@! TO.P,TP2,1*
G04 #@! TO.N,Net-(R10-Pad2)*
X154813000Y-107061000D03*
G04 #@! TD*
G04 #@! TO.P,TP1,1*
G04 #@! TO.N,Net-(C5-Pad2)*
X146431000Y-111125000D03*
G04 #@! TD*
D14*
G04 #@! TO.P,RV3,1*
G04 #@! TO.N,Net-(RV3-Pad1)*
X165481000Y-104521000D03*
G04 #@! TO.P,RV3,2*
G04 #@! TO.N,Net-(C13-Pad2)*
X168021000Y-101981000D03*
G04 #@! TO.P,RV3,3*
X165481000Y-99441000D03*
G04 #@! TD*
G04 #@! TO.P,RV2,1*
G04 #@! TO.N,Net-(C11-Pad2)*
X157353000Y-99441000D03*
G04 #@! TO.P,RV2,2*
X154813000Y-101981000D03*
G04 #@! TO.P,RV2,3*
G04 #@! TO.N,Net-(R10-Pad2)*
X157353000Y-104521000D03*
G04 #@! TD*
G04 #@! TO.P,RV1,1*
G04 #@! TO.N,GND*
X125095000Y-99441000D03*
G04 #@! TO.P,RV1,2*
G04 #@! TO.N,Net-(R2-Pad1)*
X122555000Y-101981000D03*
G04 #@! TO.P,RV1,3*
X125095000Y-104521000D03*
G04 #@! TD*
D15*
G04 #@! TO.P,JP1,2*
G04 #@! TO.N,Net-(D2-Pad2)*
X161417000Y-85105000D03*
D16*
G04 #@! TD*
G04 #@! TO.N,Net-(D2-Pad2)*
G04 #@! TO.C,JP1*
G36*
X162166398Y-85105000D02*
X162166398Y-85129534D01*
X162161588Y-85178365D01*
X162152016Y-85226490D01*
X162137772Y-85273445D01*
X162118995Y-85318778D01*
X162095864Y-85362051D01*
X162068604Y-85402850D01*
X162037476Y-85440779D01*
X162002779Y-85475476D01*
X161964850Y-85506604D01*
X161924051Y-85533864D01*
X161880778Y-85556995D01*
X161835445Y-85575772D01*
X161788490Y-85590016D01*
X161740365Y-85599588D01*
X161691534Y-85604398D01*
X161667000Y-85604398D01*
X161667000Y-85605000D01*
X161167000Y-85605000D01*
X161167000Y-85604398D01*
X161142466Y-85604398D01*
X161093635Y-85599588D01*
X161045510Y-85590016D01*
X160998555Y-85575772D01*
X160953222Y-85556995D01*
X160909949Y-85533864D01*
X160869150Y-85506604D01*
X160831221Y-85475476D01*
X160796524Y-85440779D01*
X160765396Y-85402850D01*
X160738136Y-85362051D01*
X160715005Y-85318778D01*
X160696228Y-85273445D01*
X160681984Y-85226490D01*
X160672412Y-85178365D01*
X160667602Y-85129534D01*
X160667602Y-85105000D01*
X160667000Y-85105000D01*
X160667000Y-84605000D01*
X162167000Y-84605000D01*
X162167000Y-85105000D01*
X162166398Y-85105000D01*
X162166398Y-85105000D01*
G37*
D15*
G04 #@! TO.P,JP1,1*
G04 #@! TO.N,GNDPAD*
X161417000Y-83805000D03*
D16*
G04 #@! TD*
G04 #@! TO.N,GNDPAD*
G04 #@! TO.C,JP1*
G36*
X162017000Y-84305000D02*
X162017000Y-84705000D01*
X161617000Y-84705000D01*
X161617000Y-84305000D01*
X161217000Y-84305000D01*
X161217000Y-84705000D01*
X160817000Y-84705000D01*
X160817000Y-84305000D01*
X160667000Y-84305000D01*
X160667000Y-83805000D01*
X160667602Y-83805000D01*
X160667602Y-83780466D01*
X160672412Y-83731635D01*
X160681984Y-83683510D01*
X160696228Y-83636555D01*
X160715005Y-83591222D01*
X160738136Y-83547949D01*
X160765396Y-83507150D01*
X160796524Y-83469221D01*
X160831221Y-83434524D01*
X160869150Y-83403396D01*
X160909949Y-83376136D01*
X160953222Y-83353005D01*
X160998555Y-83334228D01*
X161045510Y-83319984D01*
X161093635Y-83310412D01*
X161142466Y-83305602D01*
X161167000Y-83305602D01*
X161167000Y-83305000D01*
X161667000Y-83305000D01*
X161667000Y-83305602D01*
X161691534Y-83305602D01*
X161740365Y-83310412D01*
X161788490Y-83319984D01*
X161835445Y-83334228D01*
X161880778Y-83353005D01*
X161924051Y-83376136D01*
X161964850Y-83403396D01*
X162002779Y-83434524D01*
X162037476Y-83469221D01*
X162068604Y-83507150D01*
X162095864Y-83547949D01*
X162118995Y-83591222D01*
X162137772Y-83636555D01*
X162152016Y-83683510D01*
X162161588Y-83731635D01*
X162166398Y-83780466D01*
X162166398Y-83805000D01*
X162167000Y-83805000D01*
X162167000Y-84305000D01*
X162017000Y-84305000D01*
X162017000Y-84305000D01*
G37*
D17*
G04 #@! TO.P,J3,4*
G04 #@! TO.N,VF1*
X157607000Y-81153000D03*
G04 #@! TO.P,J3,3*
X160147000Y-81153000D03*
G04 #@! TO.P,J3,2*
G04 #@! TO.N,VF2*
X162687000Y-81153000D03*
D18*
G04 #@! TO.P,J3,1*
X165227000Y-81153000D03*
G04 #@! TD*
D17*
G04 #@! TO.P,J2,4*
G04 #@! TO.N,GNDPAD*
X142621000Y-81153000D03*
G04 #@! TO.P,J2,3*
X145161000Y-81153000D03*
G04 #@! TO.P,J2,2*
G04 #@! TO.N,GND*
X147701000Y-81153000D03*
D18*
G04 #@! TO.P,J2,1*
X150241000Y-81153000D03*
G04 #@! TD*
D17*
G04 #@! TO.P,J1,4*
G04 #@! TO.N,+5V*
X136017000Y-81153000D03*
G04 #@! TO.P,J1,3*
X133477000Y-81153000D03*
G04 #@! TO.P,J1,2*
G04 #@! TO.N,GND*
X130937000Y-81153000D03*
D18*
G04 #@! TO.P,J1,1*
X128397000Y-81153000D03*
G04 #@! TD*
D19*
G04 #@! TO.P,REF\002A\002A,1*
G04 #@! TO.N,N/C*
X122000000Y-116000000D03*
D20*
X122000000Y-118400000D03*
X120302944Y-117697056D03*
X119600000Y-116000000D03*
X120302944Y-114302944D03*
X122000000Y-113600000D03*
X123697056Y-114302944D03*
X124400000Y-116000000D03*
X123697056Y-117697056D03*
G04 #@! TD*
D19*
G04 #@! TO.P,REF\002A\002A,1*
G04 #@! TO.N,N/C*
X122000000Y-79000000D03*
D20*
X122000000Y-81400000D03*
X120302944Y-80697056D03*
X119600000Y-79000000D03*
X120302944Y-77302944D03*
X122000000Y-76600000D03*
X123697056Y-77302944D03*
X124400000Y-79000000D03*
X123697056Y-80697056D03*
G04 #@! TD*
D19*
G04 #@! TO.P,REF\002A\002A,1*
G04 #@! TO.N,N/C*
X172000000Y-116000000D03*
D20*
X172000000Y-118400000D03*
X170302944Y-117697056D03*
X169600000Y-116000000D03*
X170302944Y-114302944D03*
X172000000Y-113600000D03*
X173697056Y-114302944D03*
X174400000Y-116000000D03*
X173697056Y-117697056D03*
G04 #@! TD*
D19*
G04 #@! TO.P,REF\002A\002A,1*
G04 #@! TO.N,N/C*
X172000000Y-79000000D03*
D20*
X172000000Y-81400000D03*
X170302944Y-80697056D03*
X169600000Y-79000000D03*
X170302944Y-77302944D03*
X172000000Y-76600000D03*
X173697056Y-77302944D03*
X174400000Y-79000000D03*
X173697056Y-80697056D03*
G04 #@! TD*
D21*
G04 #@! TO.N,GND*
X128905000Y-87630000D03*
X128905000Y-88900000D03*
X128905000Y-90170000D03*
X128905000Y-91440000D03*
X161417000Y-117983000D03*
X157353000Y-110363000D03*
X154559000Y-117983000D03*
X167132002Y-109093000D03*
X168021000Y-109093000D03*
X166243000Y-109093000D03*
G04 #@! TO.N,+5V*
X167132000Y-114554000D03*
X167132000Y-115570000D03*
X167132000Y-116458996D03*
G04 #@! TO.N,GNDPAD*
X139445998Y-111760000D03*
G04 #@! TO.N,Net-(C5-Pad2)*
X135636000Y-97917000D03*
X135636000Y-105283000D03*
G04 #@! TO.N,Net-(D2-Pad2)*
X161417000Y-88265000D03*
G04 #@! TO.N,Net-(R10-Pad2)*
X163830000Y-113792000D03*
X157988000Y-113792008D03*
G04 #@! TD*
D22*
G04 #@! TO.N,+5V*
X167132000Y-114554000D02*
X167132000Y-114554000D01*
X167132000Y-113030000D02*
X167132000Y-114554000D01*
X170518001Y-109643999D02*
X167132000Y-113030000D01*
X140335000Y-76835000D02*
X163869002Y-76835000D01*
X136017000Y-81153000D02*
X140335000Y-76835000D01*
X167386000Y-80351998D02*
X167386000Y-95123000D01*
X163869002Y-76835000D02*
X167386000Y-80351998D01*
X167386000Y-95123000D02*
X170518001Y-98255001D01*
X170518001Y-98255001D02*
X170518001Y-109643999D01*
D23*
G04 #@! TO.N,GNDPAD*
X139445998Y-84455002D02*
X139445998Y-111194315D01*
X139445998Y-111194315D02*
X139445998Y-111760000D01*
X142621000Y-81280000D02*
X139445998Y-84455002D01*
D24*
X160569408Y-83805000D02*
X161417000Y-83805000D01*
X145161000Y-81153000D02*
X145161000Y-82550000D01*
X146416000Y-83805000D02*
X160569408Y-83805000D01*
X145161000Y-82550000D02*
X146416000Y-83805000D01*
G04 #@! TO.N,Net-(C5-Pad2)*
X135636000Y-97917000D02*
X135636000Y-105283000D01*
D23*
G04 #@! TO.N,Net-(D2-Pad2)*
X161417000Y-85155010D02*
X161417000Y-87699315D01*
X161417000Y-87699315D02*
X161417000Y-88265000D01*
D24*
G04 #@! TO.N,Net-(R10-Pad2)*
X157988008Y-113792000D02*
X157988000Y-113792008D01*
X163830000Y-113792000D02*
X157988008Y-113792000D01*
G04 #@! TD*
D25*
G04 #@! TO.N,GND*
G36*
X169971526Y-75964175D02*
X168964175Y-76971526D01*
X168419000Y-78287695D01*
X168419000Y-79712305D01*
X168964175Y-81028474D01*
X169971526Y-82035825D01*
X171287695Y-82581000D01*
X172712305Y-82581000D01*
X174028474Y-82035825D01*
X175035825Y-81028474D01*
X175544001Y-79801629D01*
X175544000Y-115198369D01*
X175035825Y-113971526D01*
X174028474Y-112964175D01*
X172712305Y-112419000D01*
X171287695Y-112419000D01*
X169971526Y-112964175D01*
X168964175Y-113971526D01*
X168419000Y-115287695D01*
X168419000Y-116712305D01*
X168964175Y-118028474D01*
X169971526Y-119035825D01*
X171198369Y-119544000D01*
X122801631Y-119544000D01*
X124028474Y-119035825D01*
X125035825Y-118028474D01*
X125581000Y-116712305D01*
X125581000Y-115287695D01*
X125035825Y-113971526D01*
X124700956Y-113636657D01*
X157207000Y-113636657D01*
X157207000Y-113947359D01*
X157325900Y-114234409D01*
X157545599Y-114454108D01*
X157832649Y-114573008D01*
X158143351Y-114573008D01*
X158430401Y-114454108D01*
X158561509Y-114323000D01*
X163256499Y-114323000D01*
X163387599Y-114454100D01*
X163674649Y-114573000D01*
X163985351Y-114573000D01*
X164272401Y-114454100D01*
X164492100Y-114234401D01*
X164611000Y-113947351D01*
X164611000Y-113636649D01*
X164492100Y-113349599D01*
X164272401Y-113129900D01*
X163985351Y-113011000D01*
X163674649Y-113011000D01*
X163387599Y-113129900D01*
X163256499Y-113261000D01*
X158561493Y-113261000D01*
X158430401Y-113129908D01*
X158143351Y-113011008D01*
X157832649Y-113011008D01*
X157545599Y-113129908D01*
X157325900Y-113349607D01*
X157207000Y-113636657D01*
X124700956Y-113636657D01*
X124028474Y-112964175D01*
X122712305Y-112419000D01*
X121287695Y-112419000D01*
X119971526Y-112964175D01*
X118964175Y-113971526D01*
X118456000Y-115198369D01*
X118456000Y-111604649D01*
X138664998Y-111604649D01*
X138664998Y-111915351D01*
X138783898Y-112202401D01*
X139003597Y-112422100D01*
X139290647Y-112541000D01*
X139601349Y-112541000D01*
X139888399Y-112422100D01*
X140108098Y-112202401D01*
X140226998Y-111915351D01*
X140226998Y-111604649D01*
X140108098Y-111317599D01*
X140076998Y-111286499D01*
X140076998Y-110900030D01*
X145300000Y-110900030D01*
X145300000Y-111349970D01*
X145472184Y-111765660D01*
X145790340Y-112083816D01*
X146206030Y-112256000D01*
X146655970Y-112256000D01*
X147071660Y-112083816D01*
X147389816Y-111765660D01*
X147562000Y-111349970D01*
X147562000Y-110900030D01*
X147389816Y-110484340D01*
X147071660Y-110166184D01*
X146655970Y-109994000D01*
X146206030Y-109994000D01*
X145790340Y-110166184D01*
X145472184Y-110484340D01*
X145300000Y-110900030D01*
X140076998Y-110900030D01*
X140076998Y-106836030D01*
X153682000Y-106836030D01*
X153682000Y-107285970D01*
X153854184Y-107701660D01*
X154172340Y-108019816D01*
X154588030Y-108192000D01*
X155037970Y-108192000D01*
X155453660Y-108019816D01*
X155771816Y-107701660D01*
X155944000Y-107285970D01*
X155944000Y-106836030D01*
X166890000Y-106836030D01*
X166890000Y-107285970D01*
X167062184Y-107701660D01*
X167380340Y-108019816D01*
X167796030Y-108192000D01*
X168245970Y-108192000D01*
X168661660Y-108019816D01*
X168979816Y-107701660D01*
X169152000Y-107285970D01*
X169152000Y-106836030D01*
X168979816Y-106420340D01*
X168661660Y-106102184D01*
X168245970Y-105930000D01*
X167796030Y-105930000D01*
X167380340Y-106102184D01*
X167062184Y-106420340D01*
X166890000Y-106836030D01*
X155944000Y-106836030D01*
X155771816Y-106420340D01*
X155453660Y-106102184D01*
X155037970Y-105930000D01*
X154588030Y-105930000D01*
X154172340Y-106102184D01*
X153854184Y-106420340D01*
X153682000Y-106836030D01*
X140076998Y-106836030D01*
X140076998Y-104301997D01*
X156252000Y-104301997D01*
X156252000Y-104740003D01*
X156419617Y-105144666D01*
X156729334Y-105454383D01*
X157133997Y-105622000D01*
X157572003Y-105622000D01*
X157976666Y-105454383D01*
X158286383Y-105144666D01*
X158454000Y-104740003D01*
X158454000Y-104301997D01*
X164380000Y-104301997D01*
X164380000Y-104740003D01*
X164547617Y-105144666D01*
X164857334Y-105454383D01*
X165261997Y-105622000D01*
X165700003Y-105622000D01*
X166104666Y-105454383D01*
X166414383Y-105144666D01*
X166582000Y-104740003D01*
X166582000Y-104301997D01*
X166414383Y-103897334D01*
X166104666Y-103587617D01*
X165700003Y-103420000D01*
X165261997Y-103420000D01*
X164857334Y-103587617D01*
X164547617Y-103897334D01*
X164380000Y-104301997D01*
X158454000Y-104301997D01*
X158286383Y-103897334D01*
X157976666Y-103587617D01*
X157572003Y-103420000D01*
X157133997Y-103420000D01*
X156729334Y-103587617D01*
X156419617Y-103897334D01*
X156252000Y-104301997D01*
X140076998Y-104301997D01*
X140076998Y-101761997D01*
X153712000Y-101761997D01*
X153712000Y-102200003D01*
X153879617Y-102604666D01*
X154189334Y-102914383D01*
X154593997Y-103082000D01*
X155032003Y-103082000D01*
X155436666Y-102914383D01*
X155746383Y-102604666D01*
X155914000Y-102200003D01*
X155914000Y-101761997D01*
X166920000Y-101761997D01*
X166920000Y-102200003D01*
X167087617Y-102604666D01*
X167397334Y-102914383D01*
X167801997Y-103082000D01*
X168240003Y-103082000D01*
X168644666Y-102914383D01*
X168954383Y-102604666D01*
X169122000Y-102200003D01*
X169122000Y-101761997D01*
X168954383Y-101357334D01*
X168644666Y-101047617D01*
X168240003Y-100880000D01*
X167801997Y-100880000D01*
X167397334Y-101047617D01*
X167087617Y-101357334D01*
X166920000Y-101761997D01*
X155914000Y-101761997D01*
X155746383Y-101357334D01*
X155436666Y-101047617D01*
X155032003Y-100880000D01*
X154593997Y-100880000D01*
X154189334Y-101047617D01*
X153879617Y-101357334D01*
X153712000Y-101761997D01*
X140076998Y-101761997D01*
X140076998Y-99221997D01*
X156252000Y-99221997D01*
X156252000Y-99660003D01*
X156419617Y-100064666D01*
X156729334Y-100374383D01*
X157133997Y-100542000D01*
X157572003Y-100542000D01*
X157976666Y-100374383D01*
X158286383Y-100064666D01*
X158454000Y-99660003D01*
X158454000Y-99221997D01*
X164380000Y-99221997D01*
X164380000Y-99660003D01*
X164547617Y-100064666D01*
X164857334Y-100374383D01*
X165261997Y-100542000D01*
X165700003Y-100542000D01*
X166104666Y-100374383D01*
X166414383Y-100064666D01*
X166582000Y-99660003D01*
X166582000Y-99221997D01*
X166414383Y-98817334D01*
X166104666Y-98507617D01*
X165700003Y-98340000D01*
X165261997Y-98340000D01*
X164857334Y-98507617D01*
X164547617Y-98817334D01*
X164380000Y-99221997D01*
X158454000Y-99221997D01*
X158286383Y-98817334D01*
X157976666Y-98507617D01*
X157572003Y-98340000D01*
X157133997Y-98340000D01*
X156729334Y-98507617D01*
X156419617Y-98817334D01*
X156252000Y-99221997D01*
X140076998Y-99221997D01*
X140076998Y-96676030D01*
X156222000Y-96676030D01*
X156222000Y-97125970D01*
X156394184Y-97541660D01*
X156712340Y-97859816D01*
X157128030Y-98032000D01*
X157577970Y-98032000D01*
X157993660Y-97859816D01*
X158311816Y-97541660D01*
X158484000Y-97125970D01*
X158484000Y-96676030D01*
X164350000Y-96676030D01*
X164350000Y-97125970D01*
X164522184Y-97541660D01*
X164840340Y-97859816D01*
X165256030Y-98032000D01*
X165705970Y-98032000D01*
X166121660Y-97859816D01*
X166439816Y-97541660D01*
X166612000Y-97125970D01*
X166612000Y-96676030D01*
X166439816Y-96260340D01*
X166121660Y-95942184D01*
X165705970Y-95770000D01*
X165256030Y-95770000D01*
X164840340Y-95942184D01*
X164522184Y-96260340D01*
X164350000Y-96676030D01*
X158484000Y-96676030D01*
X158311816Y-96260340D01*
X157993660Y-95942184D01*
X157577970Y-95770000D01*
X157128030Y-95770000D01*
X156712340Y-95942184D01*
X156394184Y-96260340D01*
X156222000Y-96676030D01*
X140076998Y-96676030D01*
X140076998Y-84716370D01*
X142424366Y-82369003D01*
X142499761Y-82384000D01*
X142742239Y-82384000D01*
X143101312Y-82312576D01*
X143508501Y-82040501D01*
X143780576Y-81633312D01*
X143876116Y-81153000D01*
X143905884Y-81153000D01*
X144001424Y-81633312D01*
X144273499Y-82040501D01*
X144630001Y-82278708D01*
X144630001Y-82497705D01*
X144619599Y-82550000D01*
X144660810Y-82757185D01*
X144748549Y-82888496D01*
X144748551Y-82888498D01*
X144778172Y-82932829D01*
X144822503Y-82962450D01*
X146003550Y-84143498D01*
X146033171Y-84187829D01*
X146077502Y-84217450D01*
X146077503Y-84217451D01*
X146208530Y-84305000D01*
X146208814Y-84305190D01*
X146363706Y-84336000D01*
X146363709Y-84336000D01*
X146415999Y-84346401D01*
X146468289Y-84336000D01*
X160284702Y-84336000D01*
X160308106Y-84453659D01*
X160309002Y-84455000D01*
X160308106Y-84456341D01*
X160278536Y-84605000D01*
X160278536Y-85105000D01*
X160280944Y-85117106D01*
X160280944Y-85154009D01*
X160288408Y-85229794D01*
X160307530Y-85325927D01*
X160329635Y-85398799D01*
X160367144Y-85489355D01*
X160403043Y-85556517D01*
X160457499Y-85638016D01*
X160505809Y-85696883D01*
X160575117Y-85766191D01*
X160633984Y-85814501D01*
X160715483Y-85868957D01*
X160782645Y-85904856D01*
X160786000Y-85906246D01*
X160786001Y-87637163D01*
X160786000Y-87637168D01*
X160786000Y-87791499D01*
X160754900Y-87822599D01*
X160636000Y-88109649D01*
X160636000Y-88420351D01*
X160754900Y-88707401D01*
X160974599Y-88927100D01*
X161261649Y-89046000D01*
X161572351Y-89046000D01*
X161859401Y-88927100D01*
X162079100Y-88707401D01*
X162198000Y-88420351D01*
X162198000Y-88109649D01*
X162079100Y-87822599D01*
X162048000Y-87791499D01*
X162048000Y-85906246D01*
X162051355Y-85904856D01*
X162118517Y-85868957D01*
X162200016Y-85814501D01*
X162258883Y-85766191D01*
X162328191Y-85696883D01*
X162376501Y-85638016D01*
X162430957Y-85556517D01*
X162466856Y-85489355D01*
X162504365Y-85398799D01*
X162526470Y-85325927D01*
X162545592Y-85229794D01*
X162553056Y-85154009D01*
X162553056Y-85117106D01*
X162555464Y-85105000D01*
X162555464Y-84605000D01*
X162525894Y-84456341D01*
X162524998Y-84455000D01*
X162525894Y-84453659D01*
X162555464Y-84305000D01*
X162555464Y-83805000D01*
X162553056Y-83792894D01*
X162553056Y-83755991D01*
X162545592Y-83680206D01*
X162526470Y-83584073D01*
X162504365Y-83511201D01*
X162466856Y-83420645D01*
X162430957Y-83353483D01*
X162376501Y-83271984D01*
X162328191Y-83213117D01*
X162258883Y-83143809D01*
X162200016Y-83095499D01*
X162118517Y-83041043D01*
X162051355Y-83005144D01*
X161960799Y-82967635D01*
X161887927Y-82945530D01*
X161791794Y-82926408D01*
X161716009Y-82918944D01*
X161679106Y-82918944D01*
X161667000Y-82916536D01*
X161167000Y-82916536D01*
X161154894Y-82918944D01*
X161117991Y-82918944D01*
X161042206Y-82926408D01*
X160946073Y-82945530D01*
X160873201Y-82967635D01*
X160782645Y-83005144D01*
X160715483Y-83041043D01*
X160633984Y-83095499D01*
X160575117Y-83143809D01*
X160505809Y-83213117D01*
X160457499Y-83271984D01*
X160456152Y-83274000D01*
X146635948Y-83274000D01*
X145692000Y-82330053D01*
X145692000Y-82278707D01*
X146048501Y-82040501D01*
X146272721Y-81704931D01*
X146600629Y-81704931D01*
X146895605Y-82084012D01*
X147149074Y-82253336D01*
X147328000Y-82225753D01*
X147328000Y-81526000D01*
X148074000Y-81526000D01*
X148074000Y-82225753D01*
X148252926Y-82253336D01*
X148506395Y-82084012D01*
X148801371Y-81704931D01*
X148790869Y-81621250D01*
X149010000Y-81621250D01*
X149010000Y-82078786D01*
X149068004Y-82218820D01*
X149175181Y-82325996D01*
X149315215Y-82384000D01*
X149772750Y-82384000D01*
X149868000Y-82288750D01*
X149868000Y-81526000D01*
X150614000Y-81526000D01*
X150614000Y-82288750D01*
X150709250Y-82384000D01*
X151166785Y-82384000D01*
X151306819Y-82325996D01*
X151413996Y-82218820D01*
X151472000Y-82078786D01*
X151472000Y-81621250D01*
X151376750Y-81526000D01*
X150614000Y-81526000D01*
X149868000Y-81526000D01*
X149105250Y-81526000D01*
X149010000Y-81621250D01*
X148790869Y-81621250D01*
X148778915Y-81526000D01*
X148074000Y-81526000D01*
X147328000Y-81526000D01*
X146623085Y-81526000D01*
X146600629Y-81704931D01*
X146272721Y-81704931D01*
X146320576Y-81633312D01*
X146416116Y-81153000D01*
X156351884Y-81153000D01*
X156447424Y-81633312D01*
X156719499Y-82040501D01*
X157126688Y-82312576D01*
X157485761Y-82384000D01*
X157728239Y-82384000D01*
X158087312Y-82312576D01*
X158494501Y-82040501D01*
X158766576Y-81633312D01*
X158862116Y-81153000D01*
X158891884Y-81153000D01*
X158987424Y-81633312D01*
X159259499Y-82040501D01*
X159666688Y-82312576D01*
X160025761Y-82384000D01*
X160268239Y-82384000D01*
X160627312Y-82312576D01*
X161034501Y-82040501D01*
X161306576Y-81633312D01*
X161402116Y-81153000D01*
X161431884Y-81153000D01*
X161527424Y-81633312D01*
X161799499Y-82040501D01*
X162206688Y-82312576D01*
X162565761Y-82384000D01*
X162808239Y-82384000D01*
X163167312Y-82312576D01*
X163574501Y-82040501D01*
X163846576Y-81633312D01*
X163942116Y-81153000D01*
X163846576Y-80672688D01*
X163574501Y-80265499D01*
X163167312Y-79993424D01*
X162808239Y-79922000D01*
X162565761Y-79922000D01*
X162206688Y-79993424D01*
X161799499Y-80265499D01*
X161527424Y-80672688D01*
X161431884Y-81153000D01*
X161402116Y-81153000D01*
X161306576Y-80672688D01*
X161034501Y-80265499D01*
X160627312Y-79993424D01*
X160268239Y-79922000D01*
X160025761Y-79922000D01*
X159666688Y-79993424D01*
X159259499Y-80265499D01*
X158987424Y-80672688D01*
X158891884Y-81153000D01*
X158862116Y-81153000D01*
X158766576Y-80672688D01*
X158494501Y-80265499D01*
X158087312Y-79993424D01*
X157728239Y-79922000D01*
X157485761Y-79922000D01*
X157126688Y-79993424D01*
X156719499Y-80265499D01*
X156447424Y-80672688D01*
X156351884Y-81153000D01*
X146416116Y-81153000D01*
X146320576Y-80672688D01*
X146272722Y-80601069D01*
X146600629Y-80601069D01*
X146623085Y-80780000D01*
X147328000Y-80780000D01*
X147328000Y-80080247D01*
X148074000Y-80080247D01*
X148074000Y-80780000D01*
X148778915Y-80780000D01*
X148801371Y-80601069D01*
X148510462Y-80227214D01*
X149010000Y-80227214D01*
X149010000Y-80684750D01*
X149105250Y-80780000D01*
X149868000Y-80780000D01*
X149868000Y-80017250D01*
X150614000Y-80017250D01*
X150614000Y-80780000D01*
X151376750Y-80780000D01*
X151472000Y-80684750D01*
X151472000Y-80227214D01*
X151413996Y-80087180D01*
X151306819Y-79980004D01*
X151166785Y-79922000D01*
X150709250Y-79922000D01*
X150614000Y-80017250D01*
X149868000Y-80017250D01*
X149772750Y-79922000D01*
X149315215Y-79922000D01*
X149175181Y-79980004D01*
X149068004Y-80087180D01*
X149010000Y-80227214D01*
X148510462Y-80227214D01*
X148506395Y-80221988D01*
X148252926Y-80052664D01*
X148074000Y-80080247D01*
X147328000Y-80080247D01*
X147149074Y-80052664D01*
X146895605Y-80221988D01*
X146600629Y-80601069D01*
X146272722Y-80601069D01*
X146048501Y-80265499D01*
X145641312Y-79993424D01*
X145282239Y-79922000D01*
X145039761Y-79922000D01*
X144680688Y-79993424D01*
X144273499Y-80265499D01*
X144001424Y-80672688D01*
X143905884Y-81153000D01*
X143876116Y-81153000D01*
X143780576Y-80672688D01*
X143508501Y-80265499D01*
X143101312Y-79993424D01*
X142742239Y-79922000D01*
X142499761Y-79922000D01*
X142140688Y-79993424D01*
X141733499Y-80265499D01*
X141461424Y-80672688D01*
X141365884Y-81153000D01*
X141447138Y-81561493D01*
X139043762Y-83964869D01*
X138991072Y-84000076D01*
X138865621Y-84187829D01*
X138851609Y-84208799D01*
X138802636Y-84455002D01*
X138814998Y-84517150D01*
X138814999Y-111132163D01*
X138814998Y-111132168D01*
X138814998Y-111286499D01*
X138783898Y-111317599D01*
X138664998Y-111604649D01*
X118456000Y-111604649D01*
X118456000Y-104301997D01*
X123994000Y-104301997D01*
X123994000Y-104740003D01*
X124161617Y-105144666D01*
X124471334Y-105454383D01*
X124875997Y-105622000D01*
X125314003Y-105622000D01*
X125718666Y-105454383D01*
X126028383Y-105144666D01*
X126196000Y-104740003D01*
X126196000Y-104301997D01*
X126028383Y-103897334D01*
X125718666Y-103587617D01*
X125314003Y-103420000D01*
X124875997Y-103420000D01*
X124471334Y-103587617D01*
X124161617Y-103897334D01*
X123994000Y-104301997D01*
X118456000Y-104301997D01*
X118456000Y-101761997D01*
X121454000Y-101761997D01*
X121454000Y-102200003D01*
X121621617Y-102604666D01*
X121931334Y-102914383D01*
X122335997Y-103082000D01*
X122774003Y-103082000D01*
X123178666Y-102914383D01*
X123488383Y-102604666D01*
X123656000Y-102200003D01*
X123656000Y-101761997D01*
X123488383Y-101357334D01*
X123178666Y-101047617D01*
X122774003Y-100880000D01*
X122335997Y-100880000D01*
X121931334Y-101047617D01*
X121621617Y-101357334D01*
X121454000Y-101761997D01*
X118456000Y-101761997D01*
X118456000Y-100375921D01*
X124669196Y-100375921D01*
X124761265Y-100512814D01*
X125196835Y-100558941D01*
X125428735Y-100512814D01*
X125520804Y-100375921D01*
X125095000Y-99950117D01*
X124669196Y-100375921D01*
X118456000Y-100375921D01*
X118456000Y-99542835D01*
X123977059Y-99542835D01*
X124023186Y-99774735D01*
X124160079Y-99866804D01*
X124585883Y-99441000D01*
X125604117Y-99441000D01*
X126029921Y-99866804D01*
X126166814Y-99774735D01*
X126212941Y-99339165D01*
X126166814Y-99107265D01*
X126029921Y-99015196D01*
X125604117Y-99441000D01*
X124585883Y-99441000D01*
X124160079Y-99015196D01*
X124023186Y-99107265D01*
X123977059Y-99542835D01*
X118456000Y-99542835D01*
X118456000Y-98506079D01*
X124669196Y-98506079D01*
X125095000Y-98931883D01*
X125520804Y-98506079D01*
X125428735Y-98369186D01*
X124993165Y-98323059D01*
X124761265Y-98369186D01*
X124669196Y-98506079D01*
X118456000Y-98506079D01*
X118456000Y-93091000D01*
X126873000Y-93091000D01*
X126873000Y-110998000D01*
X126902002Y-111143802D01*
X126984592Y-111267408D01*
X127108198Y-111349998D01*
X127254000Y-111379000D01*
X135255000Y-111379000D01*
X135400802Y-111349998D01*
X135524408Y-111267408D01*
X135606998Y-111143802D01*
X135636000Y-110998000D01*
X135636000Y-106064000D01*
X135791351Y-106064000D01*
X136078401Y-105945100D01*
X136298100Y-105725401D01*
X136417000Y-105438351D01*
X136417000Y-105127649D01*
X136298100Y-104840599D01*
X136167000Y-104709499D01*
X136167000Y-98490501D01*
X136298100Y-98359401D01*
X136417000Y-98072351D01*
X136417000Y-97761649D01*
X136298100Y-97474599D01*
X136078401Y-97254900D01*
X135791351Y-97136000D01*
X135636000Y-97136000D01*
X135636000Y-93091000D01*
X135606998Y-92945198D01*
X135524408Y-92821592D01*
X135400802Y-92739002D01*
X135255000Y-92710000D01*
X127254000Y-92710000D01*
X127108198Y-92739002D01*
X126984592Y-92821592D01*
X126902002Y-92945198D01*
X126873000Y-93091000D01*
X118456000Y-93091000D01*
X118456000Y-85926765D01*
X127960736Y-85926765D01*
X128057391Y-86065017D01*
X128504966Y-86111093D01*
X128736609Y-86065017D01*
X128833264Y-85926765D01*
X128397000Y-85490502D01*
X127960736Y-85926765D01*
X118456000Y-85926765D01*
X118456000Y-85070966D01*
X127248907Y-85070966D01*
X127294983Y-85302609D01*
X127433235Y-85399264D01*
X127869498Y-84963000D01*
X128924502Y-84963000D01*
X129360765Y-85399264D01*
X129499017Y-85302609D01*
X129545093Y-84855034D01*
X129499017Y-84623391D01*
X129360765Y-84526736D01*
X128924502Y-84963000D01*
X127869498Y-84963000D01*
X127433235Y-84526736D01*
X127294983Y-84623391D01*
X127248907Y-85070966D01*
X118456000Y-85070966D01*
X118456000Y-83999235D01*
X127960736Y-83999235D01*
X128397000Y-84435498D01*
X128833264Y-83999235D01*
X128736609Y-83860983D01*
X128289034Y-83814907D01*
X128057391Y-83860983D01*
X127960736Y-83999235D01*
X118456000Y-83999235D01*
X118456000Y-79801631D01*
X118964175Y-81028474D01*
X119971526Y-82035825D01*
X121287695Y-82581000D01*
X122712305Y-82581000D01*
X124028474Y-82035825D01*
X124443049Y-81621250D01*
X127166000Y-81621250D01*
X127166000Y-82078786D01*
X127224004Y-82218820D01*
X127331181Y-82325996D01*
X127471215Y-82384000D01*
X127928750Y-82384000D01*
X128024000Y-82288750D01*
X128024000Y-81526000D01*
X128770000Y-81526000D01*
X128770000Y-82288750D01*
X128865250Y-82384000D01*
X129322785Y-82384000D01*
X129462819Y-82325996D01*
X129569996Y-82218820D01*
X129628000Y-82078786D01*
X129628000Y-81704931D01*
X129836629Y-81704931D01*
X130131605Y-82084012D01*
X130385074Y-82253336D01*
X130564000Y-82225753D01*
X130564000Y-81526000D01*
X131310000Y-81526000D01*
X131310000Y-82225753D01*
X131488926Y-82253336D01*
X131742395Y-82084012D01*
X132037371Y-81704931D01*
X132014915Y-81526000D01*
X131310000Y-81526000D01*
X130564000Y-81526000D01*
X129859085Y-81526000D01*
X129836629Y-81704931D01*
X129628000Y-81704931D01*
X129628000Y-81621250D01*
X129532750Y-81526000D01*
X128770000Y-81526000D01*
X128024000Y-81526000D01*
X127261250Y-81526000D01*
X127166000Y-81621250D01*
X124443049Y-81621250D01*
X124911299Y-81153000D01*
X132221884Y-81153000D01*
X132317424Y-81633312D01*
X132589499Y-82040501D01*
X132996688Y-82312576D01*
X133355761Y-82384000D01*
X133598239Y-82384000D01*
X133957312Y-82312576D01*
X134364501Y-82040501D01*
X134636576Y-81633312D01*
X134732116Y-81153000D01*
X134761884Y-81153000D01*
X134857424Y-81633312D01*
X135129499Y-82040501D01*
X135536688Y-82312576D01*
X135895761Y-82384000D01*
X136138239Y-82384000D01*
X136497312Y-82312576D01*
X136904501Y-82040501D01*
X137176576Y-81633312D01*
X137272116Y-81153000D01*
X137270590Y-81145331D01*
X140699922Y-77716000D01*
X163504081Y-77716000D01*
X165702616Y-79914536D01*
X164377000Y-79914536D01*
X164228341Y-79944106D01*
X164102314Y-80028314D01*
X164018106Y-80154341D01*
X163988536Y-80303000D01*
X163988536Y-82003000D01*
X164018106Y-82151659D01*
X164102314Y-82277686D01*
X164228341Y-82361894D01*
X164377000Y-82391464D01*
X166077000Y-82391464D01*
X166225659Y-82361894D01*
X166351686Y-82277686D01*
X166435894Y-82151659D01*
X166465464Y-82003000D01*
X166465464Y-80677384D01*
X166505000Y-80716920D01*
X166505001Y-95036232D01*
X166487742Y-95123000D01*
X166556117Y-95466748D01*
X166556118Y-95466749D01*
X166750836Y-95758165D01*
X166824394Y-95807315D01*
X169637001Y-98619923D01*
X169637002Y-109279076D01*
X166570396Y-112345683D01*
X166496835Y-112394835D01*
X166302117Y-112686252D01*
X166251000Y-112943234D01*
X166251000Y-112943237D01*
X166233742Y-113030000D01*
X166251000Y-113116763D01*
X166251001Y-114467229D01*
X166233741Y-114554000D01*
X166302117Y-114897749D01*
X166464465Y-115140720D01*
X166351000Y-115414649D01*
X166351000Y-115725351D01*
X166469900Y-116012401D01*
X166471997Y-116014498D01*
X166469900Y-116016595D01*
X166351000Y-116303645D01*
X166351000Y-116614347D01*
X166469900Y-116901397D01*
X166689599Y-117121096D01*
X166976649Y-117239996D01*
X167287351Y-117239996D01*
X167574401Y-117121096D01*
X167794100Y-116901397D01*
X167913000Y-116614347D01*
X167913000Y-116303645D01*
X167794100Y-116016595D01*
X167792003Y-116014498D01*
X167794100Y-116012401D01*
X167913000Y-115725351D01*
X167913000Y-115414649D01*
X167799535Y-115140720D01*
X167961883Y-114897749D01*
X168013000Y-114640767D01*
X168030259Y-114554000D01*
X168013000Y-114467233D01*
X168013000Y-113394921D01*
X171079608Y-110328314D01*
X171153166Y-110279164D01*
X171347884Y-109987748D01*
X171399001Y-109730766D01*
X171416260Y-109643999D01*
X171399001Y-109557232D01*
X171399001Y-98341762D01*
X171416259Y-98255000D01*
X171399001Y-98168239D01*
X171399001Y-98168234D01*
X171347884Y-97911252D01*
X171153166Y-97619836D01*
X171079609Y-97570687D01*
X168267000Y-94758079D01*
X168267000Y-80438759D01*
X168284258Y-80351997D01*
X168267000Y-80265236D01*
X168267000Y-80265231D01*
X168215883Y-80008249D01*
X168021165Y-79716833D01*
X167947608Y-79667684D01*
X164553319Y-76273396D01*
X164504167Y-76199835D01*
X164212751Y-76005117D01*
X163955769Y-75954000D01*
X163955765Y-75954000D01*
X163869002Y-75936742D01*
X163782239Y-75954000D01*
X140421762Y-75954000D01*
X140334999Y-75936742D01*
X140248236Y-75954000D01*
X140248233Y-75954000D01*
X139991251Y-76005117D01*
X139699835Y-76199835D01*
X139650685Y-76273393D01*
X136002079Y-79922000D01*
X135895761Y-79922000D01*
X135536688Y-79993424D01*
X135129499Y-80265499D01*
X134857424Y-80672688D01*
X134761884Y-81153000D01*
X134732116Y-81153000D01*
X134636576Y-80672688D01*
X134364501Y-80265499D01*
X133957312Y-79993424D01*
X133598239Y-79922000D01*
X133355761Y-79922000D01*
X132996688Y-79993424D01*
X132589499Y-80265499D01*
X132317424Y-80672688D01*
X132221884Y-81153000D01*
X124911299Y-81153000D01*
X125035825Y-81028474D01*
X125367717Y-80227214D01*
X127166000Y-80227214D01*
X127166000Y-80684750D01*
X127261250Y-80780000D01*
X128024000Y-80780000D01*
X128024000Y-80017250D01*
X128770000Y-80017250D01*
X128770000Y-80780000D01*
X129532750Y-80780000D01*
X129628000Y-80684750D01*
X129628000Y-80601069D01*
X129836629Y-80601069D01*
X129859085Y-80780000D01*
X130564000Y-80780000D01*
X130564000Y-80080247D01*
X131310000Y-80080247D01*
X131310000Y-80780000D01*
X132014915Y-80780000D01*
X132037371Y-80601069D01*
X131742395Y-80221988D01*
X131488926Y-80052664D01*
X131310000Y-80080247D01*
X130564000Y-80080247D01*
X130385074Y-80052664D01*
X130131605Y-80221988D01*
X129836629Y-80601069D01*
X129628000Y-80601069D01*
X129628000Y-80227214D01*
X129569996Y-80087180D01*
X129462819Y-79980004D01*
X129322785Y-79922000D01*
X128865250Y-79922000D01*
X128770000Y-80017250D01*
X128024000Y-80017250D01*
X127928750Y-79922000D01*
X127471215Y-79922000D01*
X127331181Y-79980004D01*
X127224004Y-80087180D01*
X127166000Y-80227214D01*
X125367717Y-80227214D01*
X125581000Y-79712305D01*
X125581000Y-78287695D01*
X125035825Y-76971526D01*
X124028474Y-75964175D01*
X122801631Y-75456000D01*
X171198369Y-75456000D01*
X169971526Y-75964175D01*
X169971526Y-75964175D01*
G37*
X169971526Y-75964175D02*
X168964175Y-76971526D01*
X168419000Y-78287695D01*
X168419000Y-79712305D01*
X168964175Y-81028474D01*
X169971526Y-82035825D01*
X171287695Y-82581000D01*
X172712305Y-82581000D01*
X174028474Y-82035825D01*
X175035825Y-81028474D01*
X175544001Y-79801629D01*
X175544000Y-115198369D01*
X175035825Y-113971526D01*
X174028474Y-112964175D01*
X172712305Y-112419000D01*
X171287695Y-112419000D01*
X169971526Y-112964175D01*
X168964175Y-113971526D01*
X168419000Y-115287695D01*
X168419000Y-116712305D01*
X168964175Y-118028474D01*
X169971526Y-119035825D01*
X171198369Y-119544000D01*
X122801631Y-119544000D01*
X124028474Y-119035825D01*
X125035825Y-118028474D01*
X125581000Y-116712305D01*
X125581000Y-115287695D01*
X125035825Y-113971526D01*
X124700956Y-113636657D01*
X157207000Y-113636657D01*
X157207000Y-113947359D01*
X157325900Y-114234409D01*
X157545599Y-114454108D01*
X157832649Y-114573008D01*
X158143351Y-114573008D01*
X158430401Y-114454108D01*
X158561509Y-114323000D01*
X163256499Y-114323000D01*
X163387599Y-114454100D01*
X163674649Y-114573000D01*
X163985351Y-114573000D01*
X164272401Y-114454100D01*
X164492100Y-114234401D01*
X164611000Y-113947351D01*
X164611000Y-113636649D01*
X164492100Y-113349599D01*
X164272401Y-113129900D01*
X163985351Y-113011000D01*
X163674649Y-113011000D01*
X163387599Y-113129900D01*
X163256499Y-113261000D01*
X158561493Y-113261000D01*
X158430401Y-113129908D01*
X158143351Y-113011008D01*
X157832649Y-113011008D01*
X157545599Y-113129908D01*
X157325900Y-113349607D01*
X157207000Y-113636657D01*
X124700956Y-113636657D01*
X124028474Y-112964175D01*
X122712305Y-112419000D01*
X121287695Y-112419000D01*
X119971526Y-112964175D01*
X118964175Y-113971526D01*
X118456000Y-115198369D01*
X118456000Y-111604649D01*
X138664998Y-111604649D01*
X138664998Y-111915351D01*
X138783898Y-112202401D01*
X139003597Y-112422100D01*
X139290647Y-112541000D01*
X139601349Y-112541000D01*
X139888399Y-112422100D01*
X140108098Y-112202401D01*
X140226998Y-111915351D01*
X140226998Y-111604649D01*
X140108098Y-111317599D01*
X140076998Y-111286499D01*
X140076998Y-110900030D01*
X145300000Y-110900030D01*
X145300000Y-111349970D01*
X145472184Y-111765660D01*
X145790340Y-112083816D01*
X146206030Y-112256000D01*
X146655970Y-112256000D01*
X147071660Y-112083816D01*
X147389816Y-111765660D01*
X147562000Y-111349970D01*
X147562000Y-110900030D01*
X147389816Y-110484340D01*
X147071660Y-110166184D01*
X146655970Y-109994000D01*
X146206030Y-109994000D01*
X145790340Y-110166184D01*
X145472184Y-110484340D01*
X145300000Y-110900030D01*
X140076998Y-110900030D01*
X140076998Y-106836030D01*
X153682000Y-106836030D01*
X153682000Y-107285970D01*
X153854184Y-107701660D01*
X154172340Y-108019816D01*
X154588030Y-108192000D01*
X155037970Y-108192000D01*
X155453660Y-108019816D01*
X155771816Y-107701660D01*
X155944000Y-107285970D01*
X155944000Y-106836030D01*
X166890000Y-106836030D01*
X166890000Y-107285970D01*
X167062184Y-107701660D01*
X167380340Y-108019816D01*
X167796030Y-108192000D01*
X168245970Y-108192000D01*
X168661660Y-108019816D01*
X168979816Y-107701660D01*
X169152000Y-107285970D01*
X169152000Y-106836030D01*
X168979816Y-106420340D01*
X168661660Y-106102184D01*
X168245970Y-105930000D01*
X167796030Y-105930000D01*
X167380340Y-106102184D01*
X167062184Y-106420340D01*
X166890000Y-106836030D01*
X155944000Y-106836030D01*
X155771816Y-106420340D01*
X155453660Y-106102184D01*
X155037970Y-105930000D01*
X154588030Y-105930000D01*
X154172340Y-106102184D01*
X153854184Y-106420340D01*
X153682000Y-106836030D01*
X140076998Y-106836030D01*
X140076998Y-104301997D01*
X156252000Y-104301997D01*
X156252000Y-104740003D01*
X156419617Y-105144666D01*
X156729334Y-105454383D01*
X157133997Y-105622000D01*
X157572003Y-105622000D01*
X157976666Y-105454383D01*
X158286383Y-105144666D01*
X158454000Y-104740003D01*
X158454000Y-104301997D01*
X164380000Y-104301997D01*
X164380000Y-104740003D01*
X164547617Y-105144666D01*
X164857334Y-105454383D01*
X165261997Y-105622000D01*
X165700003Y-105622000D01*
X166104666Y-105454383D01*
X166414383Y-105144666D01*
X166582000Y-104740003D01*
X166582000Y-104301997D01*
X166414383Y-103897334D01*
X166104666Y-103587617D01*
X165700003Y-103420000D01*
X165261997Y-103420000D01*
X164857334Y-103587617D01*
X164547617Y-103897334D01*
X164380000Y-104301997D01*
X158454000Y-104301997D01*
X158286383Y-103897334D01*
X157976666Y-103587617D01*
X157572003Y-103420000D01*
X157133997Y-103420000D01*
X156729334Y-103587617D01*
X156419617Y-103897334D01*
X156252000Y-104301997D01*
X140076998Y-104301997D01*
X140076998Y-101761997D01*
X153712000Y-101761997D01*
X153712000Y-102200003D01*
X153879617Y-102604666D01*
X154189334Y-102914383D01*
X154593997Y-103082000D01*
X155032003Y-103082000D01*
X155436666Y-102914383D01*
X155746383Y-102604666D01*
X155914000Y-102200003D01*
X155914000Y-101761997D01*
X166920000Y-101761997D01*
X166920000Y-102200003D01*
X167087617Y-102604666D01*
X167397334Y-102914383D01*
X167801997Y-103082000D01*
X168240003Y-103082000D01*
X168644666Y-102914383D01*
X168954383Y-102604666D01*
X169122000Y-102200003D01*
X169122000Y-101761997D01*
X168954383Y-101357334D01*
X168644666Y-101047617D01*
X168240003Y-100880000D01*
X167801997Y-100880000D01*
X167397334Y-101047617D01*
X167087617Y-101357334D01*
X166920000Y-101761997D01*
X155914000Y-101761997D01*
X155746383Y-101357334D01*
X155436666Y-101047617D01*
X155032003Y-100880000D01*
X154593997Y-100880000D01*
X154189334Y-101047617D01*
X153879617Y-101357334D01*
X153712000Y-101761997D01*
X140076998Y-101761997D01*
X140076998Y-99221997D01*
X156252000Y-99221997D01*
X156252000Y-99660003D01*
X156419617Y-100064666D01*
X156729334Y-100374383D01*
X157133997Y-100542000D01*
X157572003Y-100542000D01*
X157976666Y-100374383D01*
X158286383Y-100064666D01*
X158454000Y-99660003D01*
X158454000Y-99221997D01*
X164380000Y-99221997D01*
X164380000Y-99660003D01*
X164547617Y-100064666D01*
X164857334Y-100374383D01*
X165261997Y-100542000D01*
X165700003Y-100542000D01*
X166104666Y-100374383D01*
X166414383Y-100064666D01*
X166582000Y-99660003D01*
X166582000Y-99221997D01*
X166414383Y-98817334D01*
X166104666Y-98507617D01*
X165700003Y-98340000D01*
X165261997Y-98340000D01*
X164857334Y-98507617D01*
X164547617Y-98817334D01*
X164380000Y-99221997D01*
X158454000Y-99221997D01*
X158286383Y-98817334D01*
X157976666Y-98507617D01*
X157572003Y-98340000D01*
X157133997Y-98340000D01*
X156729334Y-98507617D01*
X156419617Y-98817334D01*
X156252000Y-99221997D01*
X140076998Y-99221997D01*
X140076998Y-96676030D01*
X156222000Y-96676030D01*
X156222000Y-97125970D01*
X156394184Y-97541660D01*
X156712340Y-97859816D01*
X157128030Y-98032000D01*
X157577970Y-98032000D01*
X157993660Y-97859816D01*
X158311816Y-97541660D01*
X158484000Y-97125970D01*
X158484000Y-96676030D01*
X164350000Y-96676030D01*
X164350000Y-97125970D01*
X164522184Y-97541660D01*
X164840340Y-97859816D01*
X165256030Y-98032000D01*
X165705970Y-98032000D01*
X166121660Y-97859816D01*
X166439816Y-97541660D01*
X166612000Y-97125970D01*
X166612000Y-96676030D01*
X166439816Y-96260340D01*
X166121660Y-95942184D01*
X165705970Y-95770000D01*
X165256030Y-95770000D01*
X164840340Y-95942184D01*
X164522184Y-96260340D01*
X164350000Y-96676030D01*
X158484000Y-96676030D01*
X158311816Y-96260340D01*
X157993660Y-95942184D01*
X157577970Y-95770000D01*
X157128030Y-95770000D01*
X156712340Y-95942184D01*
X156394184Y-96260340D01*
X156222000Y-96676030D01*
X140076998Y-96676030D01*
X140076998Y-84716370D01*
X142424366Y-82369003D01*
X142499761Y-82384000D01*
X142742239Y-82384000D01*
X143101312Y-82312576D01*
X143508501Y-82040501D01*
X143780576Y-81633312D01*
X143876116Y-81153000D01*
X143905884Y-81153000D01*
X144001424Y-81633312D01*
X144273499Y-82040501D01*
X144630001Y-82278708D01*
X144630001Y-82497705D01*
X144619599Y-82550000D01*
X144660810Y-82757185D01*
X144748549Y-82888496D01*
X144748551Y-82888498D01*
X144778172Y-82932829D01*
X144822503Y-82962450D01*
X146003550Y-84143498D01*
X146033171Y-84187829D01*
X146077502Y-84217450D01*
X146077503Y-84217451D01*
X146208530Y-84305000D01*
X146208814Y-84305190D01*
X146363706Y-84336000D01*
X146363709Y-84336000D01*
X146415999Y-84346401D01*
X146468289Y-84336000D01*
X160284702Y-84336000D01*
X160308106Y-84453659D01*
X160309002Y-84455000D01*
X160308106Y-84456341D01*
X160278536Y-84605000D01*
X160278536Y-85105000D01*
X160280944Y-85117106D01*
X160280944Y-85154009D01*
X160288408Y-85229794D01*
X160307530Y-85325927D01*
X160329635Y-85398799D01*
X160367144Y-85489355D01*
X160403043Y-85556517D01*
X160457499Y-85638016D01*
X160505809Y-85696883D01*
X160575117Y-85766191D01*
X160633984Y-85814501D01*
X160715483Y-85868957D01*
X160782645Y-85904856D01*
X160786000Y-85906246D01*
X160786001Y-87637163D01*
X160786000Y-87637168D01*
X160786000Y-87791499D01*
X160754900Y-87822599D01*
X160636000Y-88109649D01*
X160636000Y-88420351D01*
X160754900Y-88707401D01*
X160974599Y-88927100D01*
X161261649Y-89046000D01*
X161572351Y-89046000D01*
X161859401Y-88927100D01*
X162079100Y-88707401D01*
X162198000Y-88420351D01*
X162198000Y-88109649D01*
X162079100Y-87822599D01*
X162048000Y-87791499D01*
X162048000Y-85906246D01*
X162051355Y-85904856D01*
X162118517Y-85868957D01*
X162200016Y-85814501D01*
X162258883Y-85766191D01*
X162328191Y-85696883D01*
X162376501Y-85638016D01*
X162430957Y-85556517D01*
X162466856Y-85489355D01*
X162504365Y-85398799D01*
X162526470Y-85325927D01*
X162545592Y-85229794D01*
X162553056Y-85154009D01*
X162553056Y-85117106D01*
X162555464Y-85105000D01*
X162555464Y-84605000D01*
X162525894Y-84456341D01*
X162524998Y-84455000D01*
X162525894Y-84453659D01*
X162555464Y-84305000D01*
X162555464Y-83805000D01*
X162553056Y-83792894D01*
X162553056Y-83755991D01*
X162545592Y-83680206D01*
X162526470Y-83584073D01*
X162504365Y-83511201D01*
X162466856Y-83420645D01*
X162430957Y-83353483D01*
X162376501Y-83271984D01*
X162328191Y-83213117D01*
X162258883Y-83143809D01*
X162200016Y-83095499D01*
X162118517Y-83041043D01*
X162051355Y-83005144D01*
X161960799Y-82967635D01*
X161887927Y-82945530D01*
X161791794Y-82926408D01*
X161716009Y-82918944D01*
X161679106Y-82918944D01*
X161667000Y-82916536D01*
X161167000Y-82916536D01*
X161154894Y-82918944D01*
X161117991Y-82918944D01*
X161042206Y-82926408D01*
X160946073Y-82945530D01*
X160873201Y-82967635D01*
X160782645Y-83005144D01*
X160715483Y-83041043D01*
X160633984Y-83095499D01*
X160575117Y-83143809D01*
X160505809Y-83213117D01*
X160457499Y-83271984D01*
X160456152Y-83274000D01*
X146635948Y-83274000D01*
X145692000Y-82330053D01*
X145692000Y-82278707D01*
X146048501Y-82040501D01*
X146272721Y-81704931D01*
X146600629Y-81704931D01*
X146895605Y-82084012D01*
X147149074Y-82253336D01*
X147328000Y-82225753D01*
X147328000Y-81526000D01*
X148074000Y-81526000D01*
X148074000Y-82225753D01*
X148252926Y-82253336D01*
X148506395Y-82084012D01*
X148801371Y-81704931D01*
X148790869Y-81621250D01*
X149010000Y-81621250D01*
X149010000Y-82078786D01*
X149068004Y-82218820D01*
X149175181Y-82325996D01*
X149315215Y-82384000D01*
X149772750Y-82384000D01*
X149868000Y-82288750D01*
X149868000Y-81526000D01*
X150614000Y-81526000D01*
X150614000Y-82288750D01*
X150709250Y-82384000D01*
X151166785Y-82384000D01*
X151306819Y-82325996D01*
X151413996Y-82218820D01*
X151472000Y-82078786D01*
X151472000Y-81621250D01*
X151376750Y-81526000D01*
X150614000Y-81526000D01*
X149868000Y-81526000D01*
X149105250Y-81526000D01*
X149010000Y-81621250D01*
X148790869Y-81621250D01*
X148778915Y-81526000D01*
X148074000Y-81526000D01*
X147328000Y-81526000D01*
X146623085Y-81526000D01*
X146600629Y-81704931D01*
X146272721Y-81704931D01*
X146320576Y-81633312D01*
X146416116Y-81153000D01*
X156351884Y-81153000D01*
X156447424Y-81633312D01*
X156719499Y-82040501D01*
X157126688Y-82312576D01*
X157485761Y-82384000D01*
X157728239Y-82384000D01*
X158087312Y-82312576D01*
X158494501Y-82040501D01*
X158766576Y-81633312D01*
X158862116Y-81153000D01*
X158891884Y-81153000D01*
X158987424Y-81633312D01*
X159259499Y-82040501D01*
X159666688Y-82312576D01*
X160025761Y-82384000D01*
X160268239Y-82384000D01*
X160627312Y-82312576D01*
X161034501Y-82040501D01*
X161306576Y-81633312D01*
X161402116Y-81153000D01*
X161431884Y-81153000D01*
X161527424Y-81633312D01*
X161799499Y-82040501D01*
X162206688Y-82312576D01*
X162565761Y-82384000D01*
X162808239Y-82384000D01*
X163167312Y-82312576D01*
X163574501Y-82040501D01*
X163846576Y-81633312D01*
X163942116Y-81153000D01*
X163846576Y-80672688D01*
X163574501Y-80265499D01*
X163167312Y-79993424D01*
X162808239Y-79922000D01*
X162565761Y-79922000D01*
X162206688Y-79993424D01*
X161799499Y-80265499D01*
X161527424Y-80672688D01*
X161431884Y-81153000D01*
X161402116Y-81153000D01*
X161306576Y-80672688D01*
X161034501Y-80265499D01*
X160627312Y-79993424D01*
X160268239Y-79922000D01*
X160025761Y-79922000D01*
X159666688Y-79993424D01*
X159259499Y-80265499D01*
X158987424Y-80672688D01*
X158891884Y-81153000D01*
X158862116Y-81153000D01*
X158766576Y-80672688D01*
X158494501Y-80265499D01*
X158087312Y-79993424D01*
X157728239Y-79922000D01*
X157485761Y-79922000D01*
X157126688Y-79993424D01*
X156719499Y-80265499D01*
X156447424Y-80672688D01*
X156351884Y-81153000D01*
X146416116Y-81153000D01*
X146320576Y-80672688D01*
X146272722Y-80601069D01*
X146600629Y-80601069D01*
X146623085Y-80780000D01*
X147328000Y-80780000D01*
X147328000Y-80080247D01*
X148074000Y-80080247D01*
X148074000Y-80780000D01*
X148778915Y-80780000D01*
X148801371Y-80601069D01*
X148510462Y-80227214D01*
X149010000Y-80227214D01*
X149010000Y-80684750D01*
X149105250Y-80780000D01*
X149868000Y-80780000D01*
X149868000Y-80017250D01*
X150614000Y-80017250D01*
X150614000Y-80780000D01*
X151376750Y-80780000D01*
X151472000Y-80684750D01*
X151472000Y-80227214D01*
X151413996Y-80087180D01*
X151306819Y-79980004D01*
X151166785Y-79922000D01*
X150709250Y-79922000D01*
X150614000Y-80017250D01*
X149868000Y-80017250D01*
X149772750Y-79922000D01*
X149315215Y-79922000D01*
X149175181Y-79980004D01*
X149068004Y-80087180D01*
X149010000Y-80227214D01*
X148510462Y-80227214D01*
X148506395Y-80221988D01*
X148252926Y-80052664D01*
X148074000Y-80080247D01*
X147328000Y-80080247D01*
X147149074Y-80052664D01*
X146895605Y-80221988D01*
X146600629Y-80601069D01*
X146272722Y-80601069D01*
X146048501Y-80265499D01*
X145641312Y-79993424D01*
X145282239Y-79922000D01*
X145039761Y-79922000D01*
X144680688Y-79993424D01*
X144273499Y-80265499D01*
X144001424Y-80672688D01*
X143905884Y-81153000D01*
X143876116Y-81153000D01*
X143780576Y-80672688D01*
X143508501Y-80265499D01*
X143101312Y-79993424D01*
X142742239Y-79922000D01*
X142499761Y-79922000D01*
X142140688Y-79993424D01*
X141733499Y-80265499D01*
X141461424Y-80672688D01*
X141365884Y-81153000D01*
X141447138Y-81561493D01*
X139043762Y-83964869D01*
X138991072Y-84000076D01*
X138865621Y-84187829D01*
X138851609Y-84208799D01*
X138802636Y-84455002D01*
X138814998Y-84517150D01*
X138814999Y-111132163D01*
X138814998Y-111132168D01*
X138814998Y-111286499D01*
X138783898Y-111317599D01*
X138664998Y-111604649D01*
X118456000Y-111604649D01*
X118456000Y-104301997D01*
X123994000Y-104301997D01*
X123994000Y-104740003D01*
X124161617Y-105144666D01*
X124471334Y-105454383D01*
X124875997Y-105622000D01*
X125314003Y-105622000D01*
X125718666Y-105454383D01*
X126028383Y-105144666D01*
X126196000Y-104740003D01*
X126196000Y-104301997D01*
X126028383Y-103897334D01*
X125718666Y-103587617D01*
X125314003Y-103420000D01*
X124875997Y-103420000D01*
X124471334Y-103587617D01*
X124161617Y-103897334D01*
X123994000Y-104301997D01*
X118456000Y-104301997D01*
X118456000Y-101761997D01*
X121454000Y-101761997D01*
X121454000Y-102200003D01*
X121621617Y-102604666D01*
X121931334Y-102914383D01*
X122335997Y-103082000D01*
X122774003Y-103082000D01*
X123178666Y-102914383D01*
X123488383Y-102604666D01*
X123656000Y-102200003D01*
X123656000Y-101761997D01*
X123488383Y-101357334D01*
X123178666Y-101047617D01*
X122774003Y-100880000D01*
X122335997Y-100880000D01*
X121931334Y-101047617D01*
X121621617Y-101357334D01*
X121454000Y-101761997D01*
X118456000Y-101761997D01*
X118456000Y-100375921D01*
X124669196Y-100375921D01*
X124761265Y-100512814D01*
X125196835Y-100558941D01*
X125428735Y-100512814D01*
X125520804Y-100375921D01*
X125095000Y-99950117D01*
X124669196Y-100375921D01*
X118456000Y-100375921D01*
X118456000Y-99542835D01*
X123977059Y-99542835D01*
X124023186Y-99774735D01*
X124160079Y-99866804D01*
X124585883Y-99441000D01*
X125604117Y-99441000D01*
X126029921Y-99866804D01*
X126166814Y-99774735D01*
X126212941Y-99339165D01*
X126166814Y-99107265D01*
X126029921Y-99015196D01*
X125604117Y-99441000D01*
X124585883Y-99441000D01*
X124160079Y-99015196D01*
X124023186Y-99107265D01*
X123977059Y-99542835D01*
X118456000Y-99542835D01*
X118456000Y-98506079D01*
X124669196Y-98506079D01*
X125095000Y-98931883D01*
X125520804Y-98506079D01*
X125428735Y-98369186D01*
X124993165Y-98323059D01*
X124761265Y-98369186D01*
X124669196Y-98506079D01*
X118456000Y-98506079D01*
X118456000Y-93091000D01*
X126873000Y-93091000D01*
X126873000Y-110998000D01*
X126902002Y-111143802D01*
X126984592Y-111267408D01*
X127108198Y-111349998D01*
X127254000Y-111379000D01*
X135255000Y-111379000D01*
X135400802Y-111349998D01*
X135524408Y-111267408D01*
X135606998Y-111143802D01*
X135636000Y-110998000D01*
X135636000Y-106064000D01*
X135791351Y-106064000D01*
X136078401Y-105945100D01*
X136298100Y-105725401D01*
X136417000Y-105438351D01*
X136417000Y-105127649D01*
X136298100Y-104840599D01*
X136167000Y-104709499D01*
X136167000Y-98490501D01*
X136298100Y-98359401D01*
X136417000Y-98072351D01*
X136417000Y-97761649D01*
X136298100Y-97474599D01*
X136078401Y-97254900D01*
X135791351Y-97136000D01*
X135636000Y-97136000D01*
X135636000Y-93091000D01*
X135606998Y-92945198D01*
X135524408Y-92821592D01*
X135400802Y-92739002D01*
X135255000Y-92710000D01*
X127254000Y-92710000D01*
X127108198Y-92739002D01*
X126984592Y-92821592D01*
X126902002Y-92945198D01*
X126873000Y-93091000D01*
X118456000Y-93091000D01*
X118456000Y-85926765D01*
X127960736Y-85926765D01*
X128057391Y-86065017D01*
X128504966Y-86111093D01*
X128736609Y-86065017D01*
X128833264Y-85926765D01*
X128397000Y-85490502D01*
X127960736Y-85926765D01*
X118456000Y-85926765D01*
X118456000Y-85070966D01*
X127248907Y-85070966D01*
X127294983Y-85302609D01*
X127433235Y-85399264D01*
X127869498Y-84963000D01*
X128924502Y-84963000D01*
X129360765Y-85399264D01*
X129499017Y-85302609D01*
X129545093Y-84855034D01*
X129499017Y-84623391D01*
X129360765Y-84526736D01*
X128924502Y-84963000D01*
X127869498Y-84963000D01*
X127433235Y-84526736D01*
X127294983Y-84623391D01*
X127248907Y-85070966D01*
X118456000Y-85070966D01*
X118456000Y-83999235D01*
X127960736Y-83999235D01*
X128397000Y-84435498D01*
X128833264Y-83999235D01*
X128736609Y-83860983D01*
X128289034Y-83814907D01*
X128057391Y-83860983D01*
X127960736Y-83999235D01*
X118456000Y-83999235D01*
X118456000Y-79801631D01*
X118964175Y-81028474D01*
X119971526Y-82035825D01*
X121287695Y-82581000D01*
X122712305Y-82581000D01*
X124028474Y-82035825D01*
X124443049Y-81621250D01*
X127166000Y-81621250D01*
X127166000Y-82078786D01*
X127224004Y-82218820D01*
X127331181Y-82325996D01*
X127471215Y-82384000D01*
X127928750Y-82384000D01*
X128024000Y-82288750D01*
X128024000Y-81526000D01*
X128770000Y-81526000D01*
X128770000Y-82288750D01*
X128865250Y-82384000D01*
X129322785Y-82384000D01*
X129462819Y-82325996D01*
X129569996Y-82218820D01*
X129628000Y-82078786D01*
X129628000Y-81704931D01*
X129836629Y-81704931D01*
X130131605Y-82084012D01*
X130385074Y-82253336D01*
X130564000Y-82225753D01*
X130564000Y-81526000D01*
X131310000Y-81526000D01*
X131310000Y-82225753D01*
X131488926Y-82253336D01*
X131742395Y-82084012D01*
X132037371Y-81704931D01*
X132014915Y-81526000D01*
X131310000Y-81526000D01*
X130564000Y-81526000D01*
X129859085Y-81526000D01*
X129836629Y-81704931D01*
X129628000Y-81704931D01*
X129628000Y-81621250D01*
X129532750Y-81526000D01*
X128770000Y-81526000D01*
X128024000Y-81526000D01*
X127261250Y-81526000D01*
X127166000Y-81621250D01*
X124443049Y-81621250D01*
X124911299Y-81153000D01*
X132221884Y-81153000D01*
X132317424Y-81633312D01*
X132589499Y-82040501D01*
X132996688Y-82312576D01*
X133355761Y-82384000D01*
X133598239Y-82384000D01*
X133957312Y-82312576D01*
X134364501Y-82040501D01*
X134636576Y-81633312D01*
X134732116Y-81153000D01*
X134761884Y-81153000D01*
X134857424Y-81633312D01*
X135129499Y-82040501D01*
X135536688Y-82312576D01*
X135895761Y-82384000D01*
X136138239Y-82384000D01*
X136497312Y-82312576D01*
X136904501Y-82040501D01*
X137176576Y-81633312D01*
X137272116Y-81153000D01*
X137270590Y-81145331D01*
X140699922Y-77716000D01*
X163504081Y-77716000D01*
X165702616Y-79914536D01*
X164377000Y-79914536D01*
X164228341Y-79944106D01*
X164102314Y-80028314D01*
X164018106Y-80154341D01*
X163988536Y-80303000D01*
X163988536Y-82003000D01*
X164018106Y-82151659D01*
X164102314Y-82277686D01*
X164228341Y-82361894D01*
X164377000Y-82391464D01*
X166077000Y-82391464D01*
X166225659Y-82361894D01*
X166351686Y-82277686D01*
X166435894Y-82151659D01*
X166465464Y-82003000D01*
X166465464Y-80677384D01*
X166505000Y-80716920D01*
X166505001Y-95036232D01*
X166487742Y-95123000D01*
X166556117Y-95466748D01*
X166556118Y-95466749D01*
X166750836Y-95758165D01*
X166824394Y-95807315D01*
X169637001Y-98619923D01*
X169637002Y-109279076D01*
X166570396Y-112345683D01*
X166496835Y-112394835D01*
X166302117Y-112686252D01*
X166251000Y-112943234D01*
X166251000Y-112943237D01*
X166233742Y-113030000D01*
X166251000Y-113116763D01*
X166251001Y-114467229D01*
X166233741Y-114554000D01*
X166302117Y-114897749D01*
X166464465Y-115140720D01*
X166351000Y-115414649D01*
X166351000Y-115725351D01*
X166469900Y-116012401D01*
X166471997Y-116014498D01*
X166469900Y-116016595D01*
X166351000Y-116303645D01*
X166351000Y-116614347D01*
X166469900Y-116901397D01*
X166689599Y-117121096D01*
X166976649Y-117239996D01*
X167287351Y-117239996D01*
X167574401Y-117121096D01*
X167794100Y-116901397D01*
X167913000Y-116614347D01*
X167913000Y-116303645D01*
X167794100Y-116016595D01*
X167792003Y-116014498D01*
X167794100Y-116012401D01*
X167913000Y-115725351D01*
X167913000Y-115414649D01*
X167799535Y-115140720D01*
X167961883Y-114897749D01*
X168013000Y-114640767D01*
X168030259Y-114554000D01*
X168013000Y-114467233D01*
X168013000Y-113394921D01*
X171079608Y-110328314D01*
X171153166Y-110279164D01*
X171347884Y-109987748D01*
X171399001Y-109730766D01*
X171416260Y-109643999D01*
X171399001Y-109557232D01*
X171399001Y-98341762D01*
X171416259Y-98255000D01*
X171399001Y-98168239D01*
X171399001Y-98168234D01*
X171347884Y-97911252D01*
X171153166Y-97619836D01*
X171079609Y-97570687D01*
X168267000Y-94758079D01*
X168267000Y-80438759D01*
X168284258Y-80351997D01*
X168267000Y-80265236D01*
X168267000Y-80265231D01*
X168215883Y-80008249D01*
X168021165Y-79716833D01*
X167947608Y-79667684D01*
X164553319Y-76273396D01*
X164504167Y-76199835D01*
X164212751Y-76005117D01*
X163955769Y-75954000D01*
X163955765Y-75954000D01*
X163869002Y-75936742D01*
X163782239Y-75954000D01*
X140421762Y-75954000D01*
X140334999Y-75936742D01*
X140248236Y-75954000D01*
X140248233Y-75954000D01*
X139991251Y-76005117D01*
X139699835Y-76199835D01*
X139650685Y-76273393D01*
X136002079Y-79922000D01*
X135895761Y-79922000D01*
X135536688Y-79993424D01*
X135129499Y-80265499D01*
X134857424Y-80672688D01*
X134761884Y-81153000D01*
X134732116Y-81153000D01*
X134636576Y-80672688D01*
X134364501Y-80265499D01*
X133957312Y-79993424D01*
X133598239Y-79922000D01*
X133355761Y-79922000D01*
X132996688Y-79993424D01*
X132589499Y-80265499D01*
X132317424Y-80672688D01*
X132221884Y-81153000D01*
X124911299Y-81153000D01*
X125035825Y-81028474D01*
X125367717Y-80227214D01*
X127166000Y-80227214D01*
X127166000Y-80684750D01*
X127261250Y-80780000D01*
X128024000Y-80780000D01*
X128024000Y-80017250D01*
X128770000Y-80017250D01*
X128770000Y-80780000D01*
X129532750Y-80780000D01*
X129628000Y-80684750D01*
X129628000Y-80601069D01*
X129836629Y-80601069D01*
X129859085Y-80780000D01*
X130564000Y-80780000D01*
X130564000Y-80080247D01*
X131310000Y-80080247D01*
X131310000Y-80780000D01*
X132014915Y-80780000D01*
X132037371Y-80601069D01*
X131742395Y-80221988D01*
X131488926Y-80052664D01*
X131310000Y-80080247D01*
X130564000Y-80080247D01*
X130385074Y-80052664D01*
X130131605Y-80221988D01*
X129836629Y-80601069D01*
X129628000Y-80601069D01*
X129628000Y-80227214D01*
X129569996Y-80087180D01*
X129462819Y-79980004D01*
X129322785Y-79922000D01*
X128865250Y-79922000D01*
X128770000Y-80017250D01*
X128024000Y-80017250D01*
X127928750Y-79922000D01*
X127471215Y-79922000D01*
X127331181Y-79980004D01*
X127224004Y-80087180D01*
X127166000Y-80227214D01*
X125367717Y-80227214D01*
X125581000Y-79712305D01*
X125581000Y-78287695D01*
X125035825Y-76971526D01*
X124028474Y-75964175D01*
X122801631Y-75456000D01*
X171198369Y-75456000D01*
X169971526Y-75964175D01*
G04 #@! TO.N,GNDPAD*
G36*
X135128000Y-97320499D02*
X134973900Y-97474599D01*
X134855000Y-97761649D01*
X134855000Y-98072351D01*
X134973900Y-98359401D01*
X135105000Y-98490501D01*
X135105001Y-104709498D01*
X134973900Y-104840599D01*
X134855000Y-105127649D01*
X134855000Y-105438351D01*
X134973900Y-105725401D01*
X135128000Y-105879501D01*
X135128000Y-110871000D01*
X127381000Y-110871000D01*
X127381000Y-93218000D01*
X135128000Y-93218000D01*
X135128000Y-97320499D01*
X135128000Y-97320499D01*
G37*
X135128000Y-97320499D02*
X134973900Y-97474599D01*
X134855000Y-97761649D01*
X134855000Y-98072351D01*
X134973900Y-98359401D01*
X135105000Y-98490501D01*
X135105001Y-104709498D01*
X134973900Y-104840599D01*
X134855000Y-105127649D01*
X134855000Y-105438351D01*
X134973900Y-105725401D01*
X135128000Y-105879501D01*
X135128000Y-110871000D01*
X127381000Y-110871000D01*
X127381000Y-93218000D01*
X135128000Y-93218000D01*
X135128000Y-97320499D01*
G04 #@! TD*
M02*
