M48
; DRILL file {KiCad 6.0.0-unknown-r16460-346495ae} date Mon 14 Oct 2019 21:20:13 MSK
; FORMAT={-:-/ absolute / metric / decimal}
; #@! TF.CreationDate,2019-10-14T21:20:13+03:00
; #@! TF.GenerationSoftware,Kicad,Pcbnew,6.0.0-unknown-r16460-346495ae
FMAT,2
METRIC
T1C0.300
T2C0.400
T3C0.500
T4C0.700
T5C0.800
T6C1.000
T7C3.200
%
G90
G05
T1
X130.407Y-101.381
X130.407Y-102.581
X131.507Y-101.381
X131.507Y-102.581
X132.807Y-101.381
X132.807Y-102.581
X134.007Y-101.381
X134.007Y-102.581
T2
X128.905Y-87.63
X128.905Y-88.9
X128.905Y-90.17
X128.905Y-91.44
X135.636Y-97.917
X135.636Y-105.283
X139.446Y-111.76
X154.559Y-117.983
X156.972Y-108.966
X157.988Y-113.792
X161.417Y-88.265
X161.417Y-117.983
X163.83Y-113.792
X166.243Y-109.093
X167.132Y-114.554
X167.132Y-115.57
X167.132Y-116.459
X167.132Y-109.093
X168.021Y-109.093
T3
X119.6Y-79.0
X120.303Y-77.303
X120.303Y-80.697
X122.0Y-76.6
X122.0Y-81.4
X123.697Y-77.303
X169.6Y-79.0
X170.303Y-77.303
X170.303Y-80.697
X172.0Y-76.6
X172.0Y-81.4
X173.697Y-77.303
X173.697Y-80.697
X174.4Y-79.0
X119.6Y-116.0
X120.303Y-114.303
X120.303Y-117.697
X122.0Y-113.6
X122.0Y-118.4
X123.697Y-114.303
X123.697Y-117.697
X124.4Y-116.0
X169.6Y-116.0
X170.303Y-114.303
X170.303Y-117.697
X172.0Y-113.6
X172.0Y-118.4
X173.697Y-114.303
X173.697Y-117.697
X174.4Y-116.0
X123.697Y-80.697
X124.4Y-79.0
T4
X168.021Y-107.061
X128.397Y-84.963
X154.813Y-107.061
X157.353Y-96.901
X146.431Y-111.125
X165.481Y-96.901
T5
X122.555Y-101.981
X125.095Y-99.441
X125.095Y-104.521
X154.813Y-101.981
X157.353Y-99.441
X157.353Y-104.521
X165.481Y-99.441
X165.481Y-104.521
X168.021Y-101.981
T6
X142.621Y-78.994
X145.161Y-78.994
X147.701Y-78.994
X150.241Y-78.994
X157.607Y-78.994
X160.147Y-78.994
X162.687Y-78.994
X165.227Y-78.994
X128.397Y-78.994
X130.937Y-78.994
X133.477Y-78.994
X136.017Y-78.994
T7
X172.0Y-79.0
X122.0Y-116.0
X172.0Y-116.0
X122.0Y-79.0
T0
M30
