G04 #@! TF.GenerationSoftware,KiCad,Pcbnew,6.0.0-rc1-unknown-r13783-618182dc*
G04 #@! TF.CreationDate,2018-09-26T19:15:08+03:00*
G04 #@! TF.ProjectId,vfd-ps,7666642D70732E6B696361645F706362,A*
G04 #@! TF.SameCoordinates,Original*
G04 #@! TF.FileFunction,Soldermask,Bot*
G04 #@! TF.FilePolarity,Negative*
%FSLAX46Y46*%
G04 Gerber Fmt 4.6, Leading zero omitted, Abs format (unit mm)*
G04 Created by KiCad (PCBNEW 6.0.0-rc1-unknown-r13783-618182dc) date Wed Sep 26 19:15:08 2018*
%MOMM*%
%LPD*%
G01*
G04 APERTURE LIST*
%ADD10C,0.100000*%
G04 APERTURE END LIST*
D10*
G36*
X122991743Y-112730660D02*
X123610503Y-112986958D01*
X124167377Y-113359050D01*
X124640950Y-113832623D01*
X125013042Y-114389497D01*
X125269340Y-115008257D01*
X125400000Y-115665128D01*
X125400000Y-116334872D01*
X125269340Y-116991743D01*
X125013042Y-117610503D01*
X124640950Y-118167377D01*
X124167377Y-118640950D01*
X123610503Y-119013042D01*
X122991743Y-119269340D01*
X122334872Y-119400000D01*
X121665128Y-119400000D01*
X121008257Y-119269340D01*
X120389497Y-119013042D01*
X119832623Y-118640950D01*
X119359050Y-118167377D01*
X118986958Y-117610503D01*
X118730660Y-116991743D01*
X118600000Y-116334872D01*
X118600000Y-115665128D01*
X118730660Y-115008257D01*
X118986958Y-114389497D01*
X119359050Y-113832623D01*
X119832623Y-113359050D01*
X120389497Y-112986958D01*
X121008257Y-112730660D01*
X121665128Y-112600000D01*
X122334872Y-112600000D01*
X122991743Y-112730660D01*
X122991743Y-112730660D01*
G37*
G36*
X172991743Y-112730660D02*
X173610503Y-112986958D01*
X174167377Y-113359050D01*
X174640950Y-113832623D01*
X175013042Y-114389497D01*
X175269340Y-115008257D01*
X175400000Y-115665128D01*
X175400000Y-116334872D01*
X175269340Y-116991743D01*
X175013042Y-117610503D01*
X174640950Y-118167377D01*
X174167377Y-118640950D01*
X173610503Y-119013042D01*
X172991743Y-119269340D01*
X172334872Y-119400000D01*
X171665128Y-119400000D01*
X171008257Y-119269340D01*
X170389497Y-119013042D01*
X169832623Y-118640950D01*
X169359050Y-118167377D01*
X168986958Y-117610503D01*
X168730660Y-116991743D01*
X168600000Y-116334872D01*
X168600000Y-115665128D01*
X168730660Y-115008257D01*
X168986958Y-114389497D01*
X169359050Y-113832623D01*
X169832623Y-113359050D01*
X170389497Y-112986958D01*
X171008257Y-112730660D01*
X171665128Y-112600000D01*
X172334872Y-112600000D01*
X172991743Y-112730660D01*
X172991743Y-112730660D01*
G37*
G36*
X146570451Y-110184127D02*
X146708105Y-110211508D01*
X146880994Y-110283121D01*
X147036590Y-110387087D01*
X147168913Y-110519410D01*
X147272879Y-110675006D01*
X147344492Y-110847895D01*
X147381000Y-111031433D01*
X147381000Y-111218567D01*
X147344492Y-111402105D01*
X147272879Y-111574994D01*
X147168913Y-111730590D01*
X147036590Y-111862913D01*
X146880994Y-111966879D01*
X146708105Y-112038492D01*
X146570452Y-112065873D01*
X146524568Y-112075000D01*
X146337432Y-112075000D01*
X146291548Y-112065873D01*
X146153895Y-112038492D01*
X145981006Y-111966879D01*
X145825410Y-111862913D01*
X145693087Y-111730590D01*
X145589121Y-111574994D01*
X145517508Y-111402105D01*
X145481000Y-111218567D01*
X145481000Y-111031433D01*
X145517508Y-110847895D01*
X145589121Y-110675006D01*
X145693087Y-110519410D01*
X145825410Y-110387087D01*
X145981006Y-110283121D01*
X146153895Y-110211508D01*
X146291549Y-110184127D01*
X146337432Y-110175000D01*
X146524568Y-110175000D01*
X146570451Y-110184127D01*
X146570451Y-110184127D01*
G37*
G36*
X154952451Y-106120127D02*
X155090105Y-106147508D01*
X155262994Y-106219121D01*
X155418590Y-106323087D01*
X155550913Y-106455410D01*
X155654879Y-106611006D01*
X155726492Y-106783895D01*
X155763000Y-106967433D01*
X155763000Y-107154567D01*
X155726492Y-107338105D01*
X155654879Y-107510994D01*
X155550913Y-107666590D01*
X155418590Y-107798913D01*
X155262994Y-107902879D01*
X155090105Y-107974492D01*
X154952451Y-108001873D01*
X154906568Y-108011000D01*
X154719432Y-108011000D01*
X154673549Y-108001873D01*
X154535895Y-107974492D01*
X154363006Y-107902879D01*
X154207410Y-107798913D01*
X154075087Y-107666590D01*
X153971121Y-107510994D01*
X153899508Y-107338105D01*
X153863000Y-107154567D01*
X153863000Y-106967433D01*
X153899508Y-106783895D01*
X153971121Y-106611006D01*
X154075087Y-106455410D01*
X154207410Y-106323087D01*
X154363006Y-106219121D01*
X154535895Y-106147508D01*
X154673548Y-106120127D01*
X154719432Y-106111000D01*
X154906568Y-106111000D01*
X154952451Y-106120127D01*
X154952451Y-106120127D01*
G37*
G36*
X168160451Y-106120127D02*
X168298105Y-106147508D01*
X168470994Y-106219121D01*
X168626590Y-106323087D01*
X168758913Y-106455410D01*
X168862879Y-106611006D01*
X168934492Y-106783895D01*
X168971000Y-106967433D01*
X168971000Y-107154567D01*
X168934492Y-107338105D01*
X168862879Y-107510994D01*
X168758913Y-107666590D01*
X168626590Y-107798913D01*
X168470994Y-107902879D01*
X168298105Y-107974492D01*
X168160451Y-108001873D01*
X168114568Y-108011000D01*
X167927432Y-108011000D01*
X167881549Y-108001873D01*
X167743895Y-107974492D01*
X167571006Y-107902879D01*
X167415410Y-107798913D01*
X167283087Y-107666590D01*
X167179121Y-107510994D01*
X167107508Y-107338105D01*
X167071000Y-107154567D01*
X167071000Y-106967433D01*
X167107508Y-106783895D01*
X167179121Y-106611006D01*
X167283087Y-106455410D01*
X167415410Y-106323087D01*
X167571006Y-106219121D01*
X167743895Y-106147508D01*
X167881548Y-106120127D01*
X167927432Y-106111000D01*
X168114568Y-106111000D01*
X168160451Y-106120127D01*
X168160451Y-106120127D01*
G37*
G36*
X157621353Y-103636355D02*
X157788784Y-103705707D01*
X157939466Y-103806390D01*
X158067610Y-103934534D01*
X158168293Y-104085216D01*
X158237645Y-104252647D01*
X158273000Y-104430387D01*
X158273000Y-104611613D01*
X158237645Y-104789353D01*
X158168293Y-104956784D01*
X158067610Y-105107466D01*
X157939466Y-105235610D01*
X157788784Y-105336293D01*
X157621353Y-105405645D01*
X157443613Y-105441000D01*
X157262387Y-105441000D01*
X157084647Y-105405645D01*
X156917216Y-105336293D01*
X156766534Y-105235610D01*
X156638390Y-105107466D01*
X156537707Y-104956784D01*
X156468355Y-104789353D01*
X156433000Y-104611613D01*
X156433000Y-104430387D01*
X156468355Y-104252647D01*
X156537707Y-104085216D01*
X156638390Y-103934534D01*
X156766534Y-103806390D01*
X156917216Y-103705707D01*
X157084647Y-103636355D01*
X157262387Y-103601000D01*
X157443613Y-103601000D01*
X157621353Y-103636355D01*
X157621353Y-103636355D01*
G37*
G36*
X165749353Y-103636355D02*
X165916784Y-103705707D01*
X166067466Y-103806390D01*
X166195610Y-103934534D01*
X166296293Y-104085216D01*
X166365645Y-104252647D01*
X166401000Y-104430387D01*
X166401000Y-104611613D01*
X166365645Y-104789353D01*
X166296293Y-104956784D01*
X166195610Y-105107466D01*
X166067466Y-105235610D01*
X165916784Y-105336293D01*
X165749353Y-105405645D01*
X165571613Y-105441000D01*
X165390387Y-105441000D01*
X165212647Y-105405645D01*
X165045216Y-105336293D01*
X164894534Y-105235610D01*
X164766390Y-105107466D01*
X164665707Y-104956784D01*
X164596355Y-104789353D01*
X164561000Y-104611613D01*
X164561000Y-104430387D01*
X164596355Y-104252647D01*
X164665707Y-104085216D01*
X164766390Y-103934534D01*
X164894534Y-103806390D01*
X165045216Y-103705707D01*
X165212647Y-103636355D01*
X165390387Y-103601000D01*
X165571613Y-103601000D01*
X165749353Y-103636355D01*
X165749353Y-103636355D01*
G37*
G36*
X125363353Y-103636355D02*
X125530784Y-103705707D01*
X125681466Y-103806390D01*
X125809610Y-103934534D01*
X125910293Y-104085216D01*
X125979645Y-104252647D01*
X126015000Y-104430387D01*
X126015000Y-104611613D01*
X125979645Y-104789353D01*
X125910293Y-104956784D01*
X125809610Y-105107466D01*
X125681466Y-105235610D01*
X125530784Y-105336293D01*
X125363353Y-105405645D01*
X125185613Y-105441000D01*
X125004387Y-105441000D01*
X124826647Y-105405645D01*
X124659216Y-105336293D01*
X124508534Y-105235610D01*
X124380390Y-105107466D01*
X124279707Y-104956784D01*
X124210355Y-104789353D01*
X124175000Y-104611613D01*
X124175000Y-104430387D01*
X124210355Y-104252647D01*
X124279707Y-104085216D01*
X124380390Y-103934534D01*
X124508534Y-103806390D01*
X124659216Y-103705707D01*
X124826647Y-103636355D01*
X125004387Y-103601000D01*
X125185613Y-103601000D01*
X125363353Y-103636355D01*
X125363353Y-103636355D01*
G37*
G36*
X133957000Y-103481000D02*
X130457000Y-103481000D01*
X130457000Y-100481000D01*
X133957000Y-100481000D01*
X133957000Y-103481000D01*
X133957000Y-103481000D01*
G37*
G36*
X168289353Y-101096355D02*
X168456784Y-101165707D01*
X168607466Y-101266390D01*
X168735610Y-101394534D01*
X168836293Y-101545216D01*
X168905645Y-101712647D01*
X168941000Y-101890387D01*
X168941000Y-102071613D01*
X168905645Y-102249353D01*
X168836293Y-102416784D01*
X168735610Y-102567466D01*
X168607466Y-102695610D01*
X168456784Y-102796293D01*
X168289353Y-102865645D01*
X168111613Y-102901000D01*
X167930387Y-102901000D01*
X167752647Y-102865645D01*
X167585216Y-102796293D01*
X167434534Y-102695610D01*
X167306390Y-102567466D01*
X167205707Y-102416784D01*
X167136355Y-102249353D01*
X167101000Y-102071613D01*
X167101000Y-101890387D01*
X167136355Y-101712647D01*
X167205707Y-101545216D01*
X167306390Y-101394534D01*
X167434534Y-101266390D01*
X167585216Y-101165707D01*
X167752647Y-101096355D01*
X167930387Y-101061000D01*
X168111613Y-101061000D01*
X168289353Y-101096355D01*
X168289353Y-101096355D01*
G37*
G36*
X122823353Y-101096355D02*
X122990784Y-101165707D01*
X123141466Y-101266390D01*
X123269610Y-101394534D01*
X123370293Y-101545216D01*
X123439645Y-101712647D01*
X123475000Y-101890387D01*
X123475000Y-102071613D01*
X123439645Y-102249353D01*
X123370293Y-102416784D01*
X123269610Y-102567466D01*
X123141466Y-102695610D01*
X122990784Y-102796293D01*
X122823353Y-102865645D01*
X122645613Y-102901000D01*
X122464387Y-102901000D01*
X122286647Y-102865645D01*
X122119216Y-102796293D01*
X121968534Y-102695610D01*
X121840390Y-102567466D01*
X121739707Y-102416784D01*
X121670355Y-102249353D01*
X121635000Y-102071613D01*
X121635000Y-101890387D01*
X121670355Y-101712647D01*
X121739707Y-101545216D01*
X121840390Y-101394534D01*
X121968534Y-101266390D01*
X122119216Y-101165707D01*
X122286647Y-101096355D01*
X122464387Y-101061000D01*
X122645613Y-101061000D01*
X122823353Y-101096355D01*
X122823353Y-101096355D01*
G37*
G36*
X155081353Y-101096355D02*
X155248784Y-101165707D01*
X155399466Y-101266390D01*
X155527610Y-101394534D01*
X155628293Y-101545216D01*
X155697645Y-101712647D01*
X155733000Y-101890387D01*
X155733000Y-102071613D01*
X155697645Y-102249353D01*
X155628293Y-102416784D01*
X155527610Y-102567466D01*
X155399466Y-102695610D01*
X155248784Y-102796293D01*
X155081353Y-102865645D01*
X154903613Y-102901000D01*
X154722387Y-102901000D01*
X154544647Y-102865645D01*
X154377216Y-102796293D01*
X154226534Y-102695610D01*
X154098390Y-102567466D01*
X153997707Y-102416784D01*
X153928355Y-102249353D01*
X153893000Y-102071613D01*
X153893000Y-101890387D01*
X153928355Y-101712647D01*
X153997707Y-101545216D01*
X154098390Y-101394534D01*
X154226534Y-101266390D01*
X154377216Y-101165707D01*
X154544647Y-101096355D01*
X154722387Y-101061000D01*
X154903613Y-101061000D01*
X155081353Y-101096355D01*
X155081353Y-101096355D01*
G37*
G36*
X125363353Y-98556355D02*
X125530784Y-98625707D01*
X125681466Y-98726390D01*
X125809610Y-98854534D01*
X125910293Y-99005216D01*
X125979645Y-99172647D01*
X126015000Y-99350387D01*
X126015000Y-99531613D01*
X125979645Y-99709353D01*
X125910293Y-99876784D01*
X125809610Y-100027466D01*
X125681466Y-100155610D01*
X125530784Y-100256293D01*
X125363353Y-100325645D01*
X125185613Y-100361000D01*
X125004387Y-100361000D01*
X124826647Y-100325645D01*
X124659216Y-100256293D01*
X124508534Y-100155610D01*
X124380390Y-100027466D01*
X124279707Y-99876784D01*
X124210355Y-99709353D01*
X124175000Y-99531613D01*
X124175000Y-99350387D01*
X124210355Y-99172647D01*
X124279707Y-99005216D01*
X124380390Y-98854534D01*
X124508534Y-98726390D01*
X124659216Y-98625707D01*
X124826647Y-98556355D01*
X125004387Y-98521000D01*
X125185613Y-98521000D01*
X125363353Y-98556355D01*
X125363353Y-98556355D01*
G37*
G36*
X157621353Y-98556355D02*
X157788784Y-98625707D01*
X157939466Y-98726390D01*
X158067610Y-98854534D01*
X158168293Y-99005216D01*
X158237645Y-99172647D01*
X158273000Y-99350387D01*
X158273000Y-99531613D01*
X158237645Y-99709353D01*
X158168293Y-99876784D01*
X158067610Y-100027466D01*
X157939466Y-100155610D01*
X157788784Y-100256293D01*
X157621353Y-100325645D01*
X157443613Y-100361000D01*
X157262387Y-100361000D01*
X157084647Y-100325645D01*
X156917216Y-100256293D01*
X156766534Y-100155610D01*
X156638390Y-100027466D01*
X156537707Y-99876784D01*
X156468355Y-99709353D01*
X156433000Y-99531613D01*
X156433000Y-99350387D01*
X156468355Y-99172647D01*
X156537707Y-99005216D01*
X156638390Y-98854534D01*
X156766534Y-98726390D01*
X156917216Y-98625707D01*
X157084647Y-98556355D01*
X157262387Y-98521000D01*
X157443613Y-98521000D01*
X157621353Y-98556355D01*
X157621353Y-98556355D01*
G37*
G36*
X165749353Y-98556355D02*
X165916784Y-98625707D01*
X166067466Y-98726390D01*
X166195610Y-98854534D01*
X166296293Y-99005216D01*
X166365645Y-99172647D01*
X166401000Y-99350387D01*
X166401000Y-99531613D01*
X166365645Y-99709353D01*
X166296293Y-99876784D01*
X166195610Y-100027466D01*
X166067466Y-100155610D01*
X165916784Y-100256293D01*
X165749353Y-100325645D01*
X165571613Y-100361000D01*
X165390387Y-100361000D01*
X165212647Y-100325645D01*
X165045216Y-100256293D01*
X164894534Y-100155610D01*
X164766390Y-100027466D01*
X164665707Y-99876784D01*
X164596355Y-99709353D01*
X164561000Y-99531613D01*
X164561000Y-99350387D01*
X164596355Y-99172647D01*
X164665707Y-99005216D01*
X164766390Y-98854534D01*
X164894534Y-98726390D01*
X165045216Y-98625707D01*
X165212647Y-98556355D01*
X165390387Y-98521000D01*
X165571613Y-98521000D01*
X165749353Y-98556355D01*
X165749353Y-98556355D01*
G37*
G36*
X157492452Y-95960127D02*
X157630105Y-95987508D01*
X157802994Y-96059121D01*
X157958590Y-96163087D01*
X158090913Y-96295410D01*
X158194879Y-96451006D01*
X158266492Y-96623895D01*
X158303000Y-96807433D01*
X158303000Y-96994567D01*
X158266492Y-97178105D01*
X158194879Y-97350994D01*
X158090913Y-97506590D01*
X157958590Y-97638913D01*
X157802994Y-97742879D01*
X157630105Y-97814492D01*
X157492452Y-97841873D01*
X157446568Y-97851000D01*
X157259432Y-97851000D01*
X157213548Y-97841873D01*
X157075895Y-97814492D01*
X156903006Y-97742879D01*
X156747410Y-97638913D01*
X156615087Y-97506590D01*
X156511121Y-97350994D01*
X156439508Y-97178105D01*
X156403000Y-96994567D01*
X156403000Y-96807433D01*
X156439508Y-96623895D01*
X156511121Y-96451006D01*
X156615087Y-96295410D01*
X156747410Y-96163087D01*
X156903006Y-96059121D01*
X157075895Y-95987508D01*
X157213548Y-95960127D01*
X157259432Y-95951000D01*
X157446568Y-95951000D01*
X157492452Y-95960127D01*
X157492452Y-95960127D01*
G37*
G36*
X165620452Y-95960127D02*
X165758105Y-95987508D01*
X165930994Y-96059121D01*
X166086590Y-96163087D01*
X166218913Y-96295410D01*
X166322879Y-96451006D01*
X166394492Y-96623895D01*
X166431000Y-96807433D01*
X166431000Y-96994567D01*
X166394492Y-97178105D01*
X166322879Y-97350994D01*
X166218913Y-97506590D01*
X166086590Y-97638913D01*
X165930994Y-97742879D01*
X165758105Y-97814492D01*
X165620452Y-97841873D01*
X165574568Y-97851000D01*
X165387432Y-97851000D01*
X165341548Y-97841873D01*
X165203895Y-97814492D01*
X165031006Y-97742879D01*
X164875410Y-97638913D01*
X164743087Y-97506590D01*
X164639121Y-97350994D01*
X164567508Y-97178105D01*
X164531000Y-96994567D01*
X164531000Y-96807433D01*
X164567508Y-96623895D01*
X164639121Y-96451006D01*
X164743087Y-96295410D01*
X164875410Y-96163087D01*
X165031006Y-96059121D01*
X165203895Y-95987508D01*
X165341548Y-95960127D01*
X165387432Y-95951000D01*
X165574568Y-95951000D01*
X165620452Y-95960127D01*
X165620452Y-95960127D01*
G37*
G36*
X128536452Y-84022127D02*
X128674105Y-84049508D01*
X128846994Y-84121121D01*
X129002590Y-84225087D01*
X129134913Y-84357410D01*
X129238879Y-84513006D01*
X129310492Y-84685895D01*
X129347000Y-84869433D01*
X129347000Y-85056567D01*
X129310492Y-85240105D01*
X129238879Y-85412994D01*
X129134913Y-85568590D01*
X129002590Y-85700913D01*
X128846994Y-85804879D01*
X128674105Y-85876492D01*
X128536452Y-85903873D01*
X128490568Y-85913000D01*
X128303432Y-85913000D01*
X128257549Y-85903873D01*
X128119895Y-85876492D01*
X127947006Y-85804879D01*
X127791410Y-85700913D01*
X127659087Y-85568590D01*
X127555121Y-85412994D01*
X127483508Y-85240105D01*
X127447000Y-85056567D01*
X127447000Y-84869433D01*
X127483508Y-84685895D01*
X127555121Y-84513006D01*
X127659087Y-84357410D01*
X127791410Y-84225087D01*
X127947006Y-84121121D01*
X128119895Y-84049508D01*
X128257548Y-84022127D01*
X128303432Y-84013000D01*
X128490568Y-84013000D01*
X128536452Y-84022127D01*
X128536452Y-84022127D01*
G37*
G36*
X161679197Y-83105233D02*
X161691449Y-83105835D01*
X161709869Y-83105835D01*
X161761358Y-83110906D01*
X161845443Y-83127632D01*
X161879168Y-83137862D01*
X161889048Y-83140859D01*
X161889050Y-83140860D01*
X161894955Y-83142651D01*
X161974164Y-83175460D01*
X162019787Y-83199846D01*
X162091082Y-83247484D01*
X162131076Y-83280306D01*
X162191694Y-83340924D01*
X162224516Y-83380918D01*
X162272154Y-83452213D01*
X162296540Y-83497836D01*
X162329349Y-83577045D01*
X162344368Y-83626557D01*
X162361094Y-83710642D01*
X162366165Y-83762131D01*
X162366165Y-83780551D01*
X162366767Y-83792803D01*
X162368573Y-83811140D01*
X162368573Y-84298860D01*
X162364107Y-84344203D01*
X162364106Y-84344206D01*
X162364106Y-84344207D01*
X162360101Y-84357410D01*
X162352668Y-84381913D01*
X162345097Y-84396078D01*
X162335720Y-84418717D01*
X162330940Y-84442750D01*
X162330940Y-84467255D01*
X162335721Y-84491288D01*
X162345097Y-84513922D01*
X162352668Y-84528087D01*
X162364107Y-84565797D01*
X162368573Y-84611140D01*
X162368573Y-85098860D01*
X162366767Y-85117197D01*
X162366165Y-85129449D01*
X162366165Y-85147869D01*
X162361094Y-85199358D01*
X162344368Y-85283443D01*
X162329349Y-85332955D01*
X162296540Y-85412164D01*
X162272154Y-85457787D01*
X162224516Y-85529082D01*
X162191694Y-85569076D01*
X162131076Y-85629694D01*
X162091082Y-85662516D01*
X162019787Y-85710154D01*
X161974164Y-85734540D01*
X161894955Y-85767349D01*
X161889050Y-85769140D01*
X161889048Y-85769141D01*
X161879168Y-85772138D01*
X161845443Y-85782368D01*
X161761358Y-85799094D01*
X161709869Y-85804165D01*
X161691449Y-85804165D01*
X161679197Y-85804767D01*
X161660860Y-85806573D01*
X161173140Y-85806573D01*
X161154803Y-85804767D01*
X161142551Y-85804165D01*
X161124131Y-85804165D01*
X161072642Y-85799094D01*
X160988557Y-85782368D01*
X160954832Y-85772138D01*
X160944952Y-85769141D01*
X160944950Y-85769140D01*
X160939045Y-85767349D01*
X160859836Y-85734540D01*
X160814213Y-85710154D01*
X160742918Y-85662516D01*
X160702924Y-85629694D01*
X160642306Y-85569076D01*
X160609484Y-85529082D01*
X160561846Y-85457787D01*
X160537460Y-85412164D01*
X160504651Y-85332955D01*
X160489632Y-85283443D01*
X160472906Y-85199358D01*
X160467835Y-85147869D01*
X160467835Y-85129449D01*
X160467233Y-85117197D01*
X160465427Y-85098860D01*
X160465427Y-84611140D01*
X160469893Y-84565797D01*
X160481332Y-84528087D01*
X160488903Y-84513922D01*
X160498280Y-84491283D01*
X160503060Y-84467250D01*
X160503060Y-84442745D01*
X160498279Y-84418712D01*
X160488903Y-84396078D01*
X160481332Y-84381913D01*
X160473899Y-84357410D01*
X160469894Y-84344207D01*
X160469894Y-84344206D01*
X160469893Y-84344203D01*
X160465427Y-84298860D01*
X160465427Y-83811140D01*
X160467233Y-83792803D01*
X160467835Y-83780551D01*
X160467835Y-83762131D01*
X160472906Y-83710642D01*
X160489632Y-83626557D01*
X160504651Y-83577045D01*
X160537460Y-83497836D01*
X160561846Y-83452213D01*
X160609484Y-83380918D01*
X160642306Y-83340924D01*
X160702924Y-83280306D01*
X160742918Y-83247484D01*
X160814213Y-83199846D01*
X160859836Y-83175460D01*
X160939045Y-83142651D01*
X160944950Y-83140860D01*
X160944952Y-83140859D01*
X160954832Y-83137862D01*
X160988557Y-83127632D01*
X161072642Y-83110906D01*
X161124131Y-83105835D01*
X161142551Y-83105835D01*
X161154803Y-83105233D01*
X161173140Y-83103427D01*
X161660860Y-83103427D01*
X161679197Y-83105233D01*
X161679197Y-83105233D01*
G37*
G36*
X122991743Y-75730660D02*
X123610503Y-75986958D01*
X124167377Y-76359050D01*
X124640950Y-76832623D01*
X125013042Y-77389497D01*
X125269340Y-78008257D01*
X125400000Y-78665128D01*
X125400000Y-79334872D01*
X125269340Y-79991743D01*
X125013042Y-80610503D01*
X124640950Y-81167377D01*
X124167377Y-81640950D01*
X123610503Y-82013042D01*
X122991743Y-82269340D01*
X122334872Y-82400000D01*
X121665128Y-82400000D01*
X121008257Y-82269340D01*
X120389497Y-82013042D01*
X119832623Y-81640950D01*
X119359050Y-81167377D01*
X118986958Y-80610503D01*
X118730660Y-79991743D01*
X118600000Y-79334872D01*
X118600000Y-78665128D01*
X118730660Y-78008257D01*
X118986958Y-77389497D01*
X119359050Y-76832623D01*
X119832623Y-76359050D01*
X120389497Y-75986958D01*
X121008257Y-75730660D01*
X121665128Y-75600000D01*
X122334872Y-75600000D01*
X122991743Y-75730660D01*
X122991743Y-75730660D01*
G37*
G36*
X172991743Y-75730660D02*
X173610503Y-75986958D01*
X174167377Y-76359050D01*
X174640950Y-76832623D01*
X175013042Y-77389497D01*
X175269340Y-78008257D01*
X175400000Y-78665128D01*
X175400000Y-79334872D01*
X175269340Y-79991743D01*
X175013042Y-80610503D01*
X174640950Y-81167377D01*
X174167377Y-81640950D01*
X173610503Y-82013042D01*
X172991743Y-82269340D01*
X172334872Y-82400000D01*
X171665128Y-82400000D01*
X171008257Y-82269340D01*
X170389497Y-82013042D01*
X169832623Y-81640950D01*
X169359050Y-81167377D01*
X168986958Y-80610503D01*
X168730660Y-79991743D01*
X168600000Y-79334872D01*
X168600000Y-78665128D01*
X168730660Y-78008257D01*
X168986958Y-77389497D01*
X169359050Y-76832623D01*
X169832623Y-76359050D01*
X170389497Y-75986958D01*
X171008257Y-75730660D01*
X171665128Y-75600000D01*
X172334872Y-75600000D01*
X172991743Y-75730660D01*
X172991743Y-75730660D01*
G37*
G36*
X129447000Y-82203000D02*
X127347000Y-82203000D01*
X127347000Y-80103000D01*
X129447000Y-80103000D01*
X129447000Y-82203000D01*
X129447000Y-82203000D01*
G37*
G36*
X131065707Y-80110596D02*
X131142836Y-80118193D01*
X131274787Y-80158220D01*
X131340763Y-80178233D01*
X131523172Y-80275733D01*
X131683054Y-80406946D01*
X131814267Y-80566828D01*
X131911767Y-80749237D01*
X131931780Y-80815213D01*
X131971807Y-80947164D01*
X131992080Y-81153000D01*
X131971807Y-81358836D01*
X131941394Y-81459095D01*
X131911767Y-81556763D01*
X131814267Y-81739172D01*
X131683054Y-81899054D01*
X131523172Y-82030267D01*
X131340763Y-82127767D01*
X131274787Y-82147780D01*
X131142836Y-82187807D01*
X131065707Y-82195403D01*
X130988580Y-82203000D01*
X130885420Y-82203000D01*
X130808293Y-82195403D01*
X130731164Y-82187807D01*
X130599213Y-82147780D01*
X130533237Y-82127767D01*
X130350828Y-82030267D01*
X130190946Y-81899054D01*
X130059733Y-81739172D01*
X129962233Y-81556763D01*
X129932606Y-81459095D01*
X129902193Y-81358836D01*
X129881920Y-81153000D01*
X129902193Y-80947164D01*
X129942220Y-80815213D01*
X129962233Y-80749237D01*
X130059733Y-80566828D01*
X130190946Y-80406946D01*
X130350828Y-80275733D01*
X130533237Y-80178233D01*
X130599213Y-80158220D01*
X130731164Y-80118193D01*
X130808293Y-80110596D01*
X130885420Y-80103000D01*
X130988580Y-80103000D01*
X131065707Y-80110596D01*
X131065707Y-80110596D01*
G37*
G36*
X133605707Y-80110596D02*
X133682836Y-80118193D01*
X133814787Y-80158220D01*
X133880763Y-80178233D01*
X134063172Y-80275733D01*
X134223054Y-80406946D01*
X134354267Y-80566828D01*
X134451767Y-80749237D01*
X134471780Y-80815213D01*
X134511807Y-80947164D01*
X134532080Y-81153000D01*
X134511807Y-81358836D01*
X134481394Y-81459095D01*
X134451767Y-81556763D01*
X134354267Y-81739172D01*
X134223054Y-81899054D01*
X134063172Y-82030267D01*
X133880763Y-82127767D01*
X133814787Y-82147780D01*
X133682836Y-82187807D01*
X133605707Y-82195403D01*
X133528580Y-82203000D01*
X133425420Y-82203000D01*
X133348293Y-82195403D01*
X133271164Y-82187807D01*
X133139213Y-82147780D01*
X133073237Y-82127767D01*
X132890828Y-82030267D01*
X132730946Y-81899054D01*
X132599733Y-81739172D01*
X132502233Y-81556763D01*
X132472606Y-81459095D01*
X132442193Y-81358836D01*
X132421920Y-81153000D01*
X132442193Y-80947164D01*
X132482220Y-80815213D01*
X132502233Y-80749237D01*
X132599733Y-80566828D01*
X132730946Y-80406946D01*
X132890828Y-80275733D01*
X133073237Y-80178233D01*
X133139213Y-80158220D01*
X133271164Y-80118193D01*
X133348293Y-80110596D01*
X133425420Y-80103000D01*
X133528580Y-80103000D01*
X133605707Y-80110596D01*
X133605707Y-80110596D01*
G37*
G36*
X142749707Y-80110596D02*
X142826836Y-80118193D01*
X142958787Y-80158220D01*
X143024763Y-80178233D01*
X143207172Y-80275733D01*
X143367054Y-80406946D01*
X143498267Y-80566828D01*
X143595767Y-80749237D01*
X143615780Y-80815213D01*
X143655807Y-80947164D01*
X143676080Y-81153000D01*
X143655807Y-81358836D01*
X143625394Y-81459095D01*
X143595767Y-81556763D01*
X143498267Y-81739172D01*
X143367054Y-81899054D01*
X143207172Y-82030267D01*
X143024763Y-82127767D01*
X142958787Y-82147780D01*
X142826836Y-82187807D01*
X142749707Y-82195403D01*
X142672580Y-82203000D01*
X142569420Y-82203000D01*
X142492293Y-82195403D01*
X142415164Y-82187807D01*
X142283213Y-82147780D01*
X142217237Y-82127767D01*
X142034828Y-82030267D01*
X141874946Y-81899054D01*
X141743733Y-81739172D01*
X141646233Y-81556763D01*
X141616606Y-81459095D01*
X141586193Y-81358836D01*
X141565920Y-81153000D01*
X141586193Y-80947164D01*
X141626220Y-80815213D01*
X141646233Y-80749237D01*
X141743733Y-80566828D01*
X141874946Y-80406946D01*
X142034828Y-80275733D01*
X142217237Y-80178233D01*
X142283213Y-80158220D01*
X142415164Y-80118193D01*
X142492293Y-80110596D01*
X142569420Y-80103000D01*
X142672580Y-80103000D01*
X142749707Y-80110596D01*
X142749707Y-80110596D01*
G37*
G36*
X166277000Y-82203000D02*
X164177000Y-82203000D01*
X164177000Y-80103000D01*
X166277000Y-80103000D01*
X166277000Y-82203000D01*
X166277000Y-82203000D01*
G37*
G36*
X145289707Y-80110596D02*
X145366836Y-80118193D01*
X145498787Y-80158220D01*
X145564763Y-80178233D01*
X145747172Y-80275733D01*
X145907054Y-80406946D01*
X146038267Y-80566828D01*
X146135767Y-80749237D01*
X146155780Y-80815213D01*
X146195807Y-80947164D01*
X146216080Y-81153000D01*
X146195807Y-81358836D01*
X146165394Y-81459095D01*
X146135767Y-81556763D01*
X146038267Y-81739172D01*
X145907054Y-81899054D01*
X145747172Y-82030267D01*
X145564763Y-82127767D01*
X145498787Y-82147780D01*
X145366836Y-82187807D01*
X145289707Y-82195403D01*
X145212580Y-82203000D01*
X145109420Y-82203000D01*
X145032293Y-82195403D01*
X144955164Y-82187807D01*
X144823213Y-82147780D01*
X144757237Y-82127767D01*
X144574828Y-82030267D01*
X144414946Y-81899054D01*
X144283733Y-81739172D01*
X144186233Y-81556763D01*
X144156606Y-81459095D01*
X144126193Y-81358836D01*
X144105920Y-81153000D01*
X144126193Y-80947164D01*
X144166220Y-80815213D01*
X144186233Y-80749237D01*
X144283733Y-80566828D01*
X144414946Y-80406946D01*
X144574828Y-80275733D01*
X144757237Y-80178233D01*
X144823213Y-80158220D01*
X144955164Y-80118193D01*
X145032293Y-80110596D01*
X145109420Y-80103000D01*
X145212580Y-80103000D01*
X145289707Y-80110596D01*
X145289707Y-80110596D01*
G37*
G36*
X147829707Y-80110596D02*
X147906836Y-80118193D01*
X148038787Y-80158220D01*
X148104763Y-80178233D01*
X148287172Y-80275733D01*
X148447054Y-80406946D01*
X148578267Y-80566828D01*
X148675767Y-80749237D01*
X148695780Y-80815213D01*
X148735807Y-80947164D01*
X148756080Y-81153000D01*
X148735807Y-81358836D01*
X148705394Y-81459095D01*
X148675767Y-81556763D01*
X148578267Y-81739172D01*
X148447054Y-81899054D01*
X148287172Y-82030267D01*
X148104763Y-82127767D01*
X148038787Y-82147780D01*
X147906836Y-82187807D01*
X147829707Y-82195403D01*
X147752580Y-82203000D01*
X147649420Y-82203000D01*
X147572293Y-82195403D01*
X147495164Y-82187807D01*
X147363213Y-82147780D01*
X147297237Y-82127767D01*
X147114828Y-82030267D01*
X146954946Y-81899054D01*
X146823733Y-81739172D01*
X146726233Y-81556763D01*
X146696606Y-81459095D01*
X146666193Y-81358836D01*
X146645920Y-81153000D01*
X146666193Y-80947164D01*
X146706220Y-80815213D01*
X146726233Y-80749237D01*
X146823733Y-80566828D01*
X146954946Y-80406946D01*
X147114828Y-80275733D01*
X147297237Y-80178233D01*
X147363213Y-80158220D01*
X147495164Y-80118193D01*
X147572293Y-80110596D01*
X147649420Y-80103000D01*
X147752580Y-80103000D01*
X147829707Y-80110596D01*
X147829707Y-80110596D01*
G37*
G36*
X151291000Y-82203000D02*
X149191000Y-82203000D01*
X149191000Y-80103000D01*
X151291000Y-80103000D01*
X151291000Y-82203000D01*
X151291000Y-82203000D01*
G37*
G36*
X157735707Y-80110596D02*
X157812836Y-80118193D01*
X157944787Y-80158220D01*
X158010763Y-80178233D01*
X158193172Y-80275733D01*
X158353054Y-80406946D01*
X158484267Y-80566828D01*
X158581767Y-80749237D01*
X158601780Y-80815213D01*
X158641807Y-80947164D01*
X158662080Y-81153000D01*
X158641807Y-81358836D01*
X158611394Y-81459095D01*
X158581767Y-81556763D01*
X158484267Y-81739172D01*
X158353054Y-81899054D01*
X158193172Y-82030267D01*
X158010763Y-82127767D01*
X157944787Y-82147780D01*
X157812836Y-82187807D01*
X157735707Y-82195403D01*
X157658580Y-82203000D01*
X157555420Y-82203000D01*
X157478293Y-82195403D01*
X157401164Y-82187807D01*
X157269213Y-82147780D01*
X157203237Y-82127767D01*
X157020828Y-82030267D01*
X156860946Y-81899054D01*
X156729733Y-81739172D01*
X156632233Y-81556763D01*
X156602606Y-81459095D01*
X156572193Y-81358836D01*
X156551920Y-81153000D01*
X156572193Y-80947164D01*
X156612220Y-80815213D01*
X156632233Y-80749237D01*
X156729733Y-80566828D01*
X156860946Y-80406946D01*
X157020828Y-80275733D01*
X157203237Y-80178233D01*
X157269213Y-80158220D01*
X157401164Y-80118193D01*
X157478293Y-80110596D01*
X157555420Y-80103000D01*
X157658580Y-80103000D01*
X157735707Y-80110596D01*
X157735707Y-80110596D01*
G37*
G36*
X160275707Y-80110596D02*
X160352836Y-80118193D01*
X160484787Y-80158220D01*
X160550763Y-80178233D01*
X160733172Y-80275733D01*
X160893054Y-80406946D01*
X161024267Y-80566828D01*
X161121767Y-80749237D01*
X161141780Y-80815213D01*
X161181807Y-80947164D01*
X161202080Y-81153000D01*
X161181807Y-81358836D01*
X161151394Y-81459095D01*
X161121767Y-81556763D01*
X161024267Y-81739172D01*
X160893054Y-81899054D01*
X160733172Y-82030267D01*
X160550763Y-82127767D01*
X160484787Y-82147780D01*
X160352836Y-82187807D01*
X160275707Y-82195403D01*
X160198580Y-82203000D01*
X160095420Y-82203000D01*
X160018293Y-82195403D01*
X159941164Y-82187807D01*
X159809213Y-82147780D01*
X159743237Y-82127767D01*
X159560828Y-82030267D01*
X159400946Y-81899054D01*
X159269733Y-81739172D01*
X159172233Y-81556763D01*
X159142606Y-81459095D01*
X159112193Y-81358836D01*
X159091920Y-81153000D01*
X159112193Y-80947164D01*
X159152220Y-80815213D01*
X159172233Y-80749237D01*
X159269733Y-80566828D01*
X159400946Y-80406946D01*
X159560828Y-80275733D01*
X159743237Y-80178233D01*
X159809213Y-80158220D01*
X159941164Y-80118193D01*
X160018293Y-80110596D01*
X160095420Y-80103000D01*
X160198580Y-80103000D01*
X160275707Y-80110596D01*
X160275707Y-80110596D01*
G37*
G36*
X162815707Y-80110596D02*
X162892836Y-80118193D01*
X163024787Y-80158220D01*
X163090763Y-80178233D01*
X163273172Y-80275733D01*
X163433054Y-80406946D01*
X163564267Y-80566828D01*
X163661767Y-80749237D01*
X163681780Y-80815213D01*
X163721807Y-80947164D01*
X163742080Y-81153000D01*
X163721807Y-81358836D01*
X163691394Y-81459095D01*
X163661767Y-81556763D01*
X163564267Y-81739172D01*
X163433054Y-81899054D01*
X163273172Y-82030267D01*
X163090763Y-82127767D01*
X163024787Y-82147780D01*
X162892836Y-82187807D01*
X162815707Y-82195403D01*
X162738580Y-82203000D01*
X162635420Y-82203000D01*
X162558293Y-82195403D01*
X162481164Y-82187807D01*
X162349213Y-82147780D01*
X162283237Y-82127767D01*
X162100828Y-82030267D01*
X161940946Y-81899054D01*
X161809733Y-81739172D01*
X161712233Y-81556763D01*
X161682606Y-81459095D01*
X161652193Y-81358836D01*
X161631920Y-81153000D01*
X161652193Y-80947164D01*
X161692220Y-80815213D01*
X161712233Y-80749237D01*
X161809733Y-80566828D01*
X161940946Y-80406946D01*
X162100828Y-80275733D01*
X162283237Y-80178233D01*
X162349213Y-80158220D01*
X162481164Y-80118193D01*
X162558293Y-80110596D01*
X162635420Y-80103000D01*
X162738580Y-80103000D01*
X162815707Y-80110596D01*
X162815707Y-80110596D01*
G37*
G36*
X136145707Y-80110596D02*
X136222836Y-80118193D01*
X136354787Y-80158220D01*
X136420763Y-80178233D01*
X136603172Y-80275733D01*
X136763054Y-80406946D01*
X136894267Y-80566828D01*
X136991767Y-80749237D01*
X137011780Y-80815213D01*
X137051807Y-80947164D01*
X137072080Y-81153000D01*
X137051807Y-81358836D01*
X137021394Y-81459095D01*
X136991767Y-81556763D01*
X136894267Y-81739172D01*
X136763054Y-81899054D01*
X136603172Y-82030267D01*
X136420763Y-82127767D01*
X136354787Y-82147780D01*
X136222836Y-82187807D01*
X136145707Y-82195403D01*
X136068580Y-82203000D01*
X135965420Y-82203000D01*
X135888293Y-82195403D01*
X135811164Y-82187807D01*
X135679213Y-82147780D01*
X135613237Y-82127767D01*
X135430828Y-82030267D01*
X135270946Y-81899054D01*
X135139733Y-81739172D01*
X135042233Y-81556763D01*
X135012606Y-81459095D01*
X134982193Y-81358836D01*
X134961920Y-81153000D01*
X134982193Y-80947164D01*
X135022220Y-80815213D01*
X135042233Y-80749237D01*
X135139733Y-80566828D01*
X135270946Y-80406946D01*
X135430828Y-80275733D01*
X135613237Y-80178233D01*
X135679213Y-80158220D01*
X135811164Y-80118193D01*
X135888293Y-80110596D01*
X135965420Y-80103000D01*
X136068580Y-80103000D01*
X136145707Y-80110596D01*
X136145707Y-80110596D01*
G37*
M02*
