G04 #@! TF.GenerationSoftware,KiCad,Pcbnew,6.0.0-rc1-unknown-r13783-618182dc*
G04 #@! TF.CreationDate,2018-09-26T19:15:08+03:00*
G04 #@! TF.ProjectId,vfd-ps,7666642D70732E6B696361645F706362,A*
G04 #@! TF.SameCoordinates,Original*
G04 #@! TF.FileFunction,Copper,L1,Top,Signal*
G04 #@! TF.FilePolarity,Positive*
%FSLAX46Y46*%
G04 Gerber Fmt 4.6, Leading zero omitted, Abs format (unit mm)*
G04 Created by KiCad (PCBNEW 6.0.0-rc1-unknown-r13783-618182dc) date Wed Sep 26 19:15:08 2018*
%MOMM*%
%LPD*%
G01*
G04 APERTURE LIST*
G04 #@! TA.AperFunction,SMDPad,CuDef*
%ADD10R,1.450000X0.450000*%
G04 #@! TD*
G04 #@! TA.AperFunction,SMDPad,CuDef*
%ADD11R,3.100000X2.600000*%
G04 #@! TD*
G04 #@! TA.AperFunction,Conductor*
%ADD12R,4.500000X2.950000*%
G04 #@! TD*
G04 #@! TA.AperFunction,SMDPad,CuDef*
%ADD13R,0.600000X1.550000*%
G04 #@! TD*
G04 #@! TA.AperFunction,ViaPad*
%ADD14C,0.600000*%
G04 #@! TD*
G04 #@! TA.AperFunction,ComponentPad*
%ADD15C,1.500000*%
G04 #@! TD*
G04 #@! TA.AperFunction,ComponentPad*
%ADD16C,1.440000*%
G04 #@! TD*
G04 #@! TA.AperFunction,SMDPad,CuDef*
%ADD17R,1.450000X1.150000*%
G04 #@! TD*
G04 #@! TA.AperFunction,SMDPad,CuDef*
%ADD18R,1.150000X1.450000*%
G04 #@! TD*
G04 #@! TA.AperFunction,SMDPad,CuDef*
%ADD19R,5.400000X3.500000*%
G04 #@! TD*
G04 #@! TA.AperFunction,ComponentPad*
%ADD20O,1.700000X1.700000*%
G04 #@! TD*
G04 #@! TA.AperFunction,ComponentPad*
%ADD21R,1.700000X1.700000*%
G04 #@! TD*
G04 #@! TA.AperFunction,SMDPad,CuDef*
%ADD22R,0.800000X0.900000*%
G04 #@! TD*
G04 #@! TA.AperFunction,SMDPad,CuDef*
%ADD23R,1.800000X2.500000*%
G04 #@! TD*
G04 #@! TA.AperFunction,SMDPad,CuDef*
%ADD24R,1.800000X1.150000*%
G04 #@! TD*
G04 #@! TA.AperFunction,SMDPad,CuDef*
%ADD25R,1.600000X3.500000*%
G04 #@! TD*
G04 #@! TA.AperFunction,SMDPad,CuDef*
%ADD26R,2.700000X1.150000*%
G04 #@! TD*
G04 #@! TA.AperFunction,SMDPad,CuDef*
%ADD27R,1.150000X2.700000*%
G04 #@! TD*
G04 #@! TA.AperFunction,SMDPad,CuDef*
%ADD28R,1.150000X1.800000*%
G04 #@! TD*
G04 #@! TA.AperFunction,ComponentPad*
%ADD29C,6.400000*%
G04 #@! TD*
G04 #@! TA.AperFunction,ComponentPad*
%ADD30C,0.800000*%
G04 #@! TD*
G04 #@! TA.AperFunction,ViaPad*
%ADD31C,0.800000*%
G04 #@! TD*
G04 #@! TA.AperFunction,Conductor*
%ADD32C,0.400000*%
G04 #@! TD*
G04 #@! TA.AperFunction,Conductor*
%ADD33C,1.000000*%
G04 #@! TD*
G04 #@! TA.AperFunction,Conductor*
%ADD34C,0.500000*%
G04 #@! TD*
G04 #@! TA.AperFunction,Conductor*
%ADD35C,0.300000*%
G04 #@! TD*
G04 #@! TA.AperFunction,Conductor*
%ADD36C,0.254000*%
G04 #@! TD*
G04 APERTURE END LIST*
D10*
G04 #@! TO.P,U2,8*
G04 #@! TO.N,Net-(RV3-Pad1)*
X163817000Y-110785000D03*
G04 #@! TO.P,U2,7*
G04 #@! TO.N,GND*
X163817000Y-111435000D03*
G04 #@! TO.P,U2,6*
G04 #@! TO.N,+5V*
X163817000Y-112085000D03*
G04 #@! TO.P,U2,5*
G04 #@! TO.N,Net-(R10-Pad2)*
X163817000Y-112735000D03*
G04 #@! TO.P,U2,4*
G04 #@! TO.N,Net-(C14-Pad1)*
X159017000Y-112735000D03*
G04 #@! TO.P,U2,3*
G04 #@! TO.N,Net-(R12-Pad1)*
X159017000Y-112085000D03*
G04 #@! TO.P,U2,2*
G04 #@! TO.N,Net-(C15-Pad1)*
X159017000Y-111435000D03*
G04 #@! TO.P,U2,1*
G04 #@! TO.N,GND*
X159017000Y-110785000D03*
G04 #@! TD*
D11*
G04 #@! TO.P,U1,9*
G04 #@! TO.N,GNDPAD*
X132207000Y-101981000D03*
D12*
G04 #@! TD*
G04 #@! TO.N,GNDPAD*
G04 #@! TO.C,U1*
X132207000Y-101981000D03*
D13*
G04 #@! TO.P,U1,1*
G04 #@! TO.N,Net-(C5-Pad1)*
X134112000Y-99281000D03*
G04 #@! TO.P,U1,2*
G04 #@! TO.N,+5V*
X132842000Y-99281000D03*
G04 #@! TO.P,U1,3*
G04 #@! TO.N,Net-(R1-Pad2)*
X131572000Y-99281000D03*
G04 #@! TO.P,U1,4*
G04 #@! TO.N,Net-(R4-Pad1)*
X130302000Y-99281000D03*
G04 #@! TO.P,U1,5*
G04 #@! TO.N,Net-(R2-Pad2)*
X130302000Y-104681000D03*
G04 #@! TO.P,U1,6*
G04 #@! TO.N,Net-(C10-Pad1)*
X131572000Y-104681000D03*
G04 #@! TO.P,U1,7*
G04 #@! TO.N,GNDPAD*
X132842000Y-104681000D03*
G04 #@! TO.P,U1,8*
G04 #@! TO.N,Net-(C5-Pad2)*
X134112000Y-104681000D03*
D14*
G04 #@! TD*
G04 #@! TO.N,GNDPAD*
G04 #@! TO.C,U1*
X134007000Y-101381000D03*
G04 #@! TO.N,GNDPAD*
G04 #@! TO.C,U1*
X132807000Y-101381000D03*
X132807000Y-102581000D03*
X134007000Y-102581000D03*
X130407000Y-101381000D03*
X131507000Y-101381000D03*
X131507000Y-102581000D03*
X130407000Y-102581000D03*
G04 #@! TD*
D15*
G04 #@! TO.P,TP6,1*
G04 #@! TO.N,GND*
X128397000Y-84963000D03*
G04 #@! TD*
G04 #@! TO.P,TP5,1*
G04 #@! TO.N,Net-(C13-Pad2)*
X165481000Y-96901000D03*
G04 #@! TD*
G04 #@! TO.P,TP4,1*
G04 #@! TO.N,Net-(C11-Pad2)*
X157353000Y-96901000D03*
G04 #@! TD*
G04 #@! TO.P,TP3,1*
G04 #@! TO.N,Net-(RV3-Pad1)*
X168021000Y-107061000D03*
G04 #@! TD*
G04 #@! TO.P,TP2,1*
G04 #@! TO.N,Net-(R10-Pad2)*
X154813000Y-107061000D03*
G04 #@! TD*
G04 #@! TO.P,TP1,1*
G04 #@! TO.N,Net-(C5-Pad2)*
X146431000Y-111125000D03*
G04 #@! TD*
D16*
G04 #@! TO.P,RV3,1*
G04 #@! TO.N,Net-(RV3-Pad1)*
X165481000Y-104521000D03*
G04 #@! TO.P,RV3,2*
G04 #@! TO.N,Net-(C13-Pad2)*
X168021000Y-101981000D03*
G04 #@! TO.P,RV3,3*
X165481000Y-99441000D03*
G04 #@! TD*
G04 #@! TO.P,RV2,1*
G04 #@! TO.N,Net-(C11-Pad2)*
X157353000Y-99441000D03*
G04 #@! TO.P,RV2,2*
X154813000Y-101981000D03*
G04 #@! TO.P,RV2,3*
G04 #@! TO.N,Net-(R10-Pad2)*
X157353000Y-104521000D03*
G04 #@! TD*
G04 #@! TO.P,RV1,1*
G04 #@! TO.N,GND*
X125095000Y-99441000D03*
G04 #@! TO.P,RV1,2*
G04 #@! TO.N,Net-(R2-Pad1)*
X122555000Y-101981000D03*
G04 #@! TO.P,RV1,3*
X125095000Y-104521000D03*
G04 #@! TD*
D17*
G04 #@! TO.P,R12,2*
G04 #@! TO.N,GND*
X161417000Y-116851000D03*
G04 #@! TO.P,R12,1*
G04 #@! TO.N,Net-(R12-Pad1)*
X161417000Y-115051000D03*
G04 #@! TD*
G04 #@! TO.P,R11,2*
G04 #@! TO.N,VF2*
X162687000Y-91451000D03*
G04 #@! TO.P,R11,1*
G04 #@! TO.N,Net-(D2-Pad1)*
X162687000Y-89651000D03*
G04 #@! TD*
G04 #@! TO.P,R10,2*
G04 #@! TO.N,Net-(R10-Pad2)*
X156845000Y-116851000D03*
G04 #@! TO.P,R10,1*
G04 #@! TO.N,Net-(C14-Pad1)*
X156845000Y-115051000D03*
G04 #@! TD*
G04 #@! TO.P,R9,2*
G04 #@! TO.N,Net-(R10-Pad2)*
X159131000Y-116851000D03*
G04 #@! TO.P,R9,1*
G04 #@! TO.N,Net-(R12-Pad1)*
X159131000Y-115051000D03*
G04 #@! TD*
G04 #@! TO.P,R8,2*
G04 #@! TO.N,+5V*
X163703000Y-116851000D03*
G04 #@! TO.P,R8,1*
G04 #@! TO.N,Net-(R12-Pad1)*
X163703000Y-115051000D03*
G04 #@! TD*
G04 #@! TO.P,R7,2*
G04 #@! TO.N,Net-(D2-Pad1)*
X160147000Y-89651000D03*
G04 #@! TO.P,R7,1*
G04 #@! TO.N,VF1*
X160147000Y-91451000D03*
G04 #@! TD*
D18*
G04 #@! TO.P,R6,2*
G04 #@! TO.N,GNDPAD*
X126227000Y-109855000D03*
G04 #@! TO.P,R6,1*
G04 #@! TO.N,Net-(R2-Pad2)*
X128027000Y-109855000D03*
G04 #@! TD*
G04 #@! TO.P,R5,2*
G04 #@! TO.N,Net-(C9-Pad1)*
X131837000Y-109855000D03*
G04 #@! TO.P,R5,1*
G04 #@! TO.N,Net-(C10-Pad1)*
X130037000Y-109855000D03*
G04 #@! TD*
G04 #@! TO.P,R4,2*
G04 #@! TO.N,GNDPAD*
X126227000Y-96393000D03*
G04 #@! TO.P,R4,1*
G04 #@! TO.N,Net-(R4-Pad1)*
X128027000Y-96393000D03*
G04 #@! TD*
G04 #@! TO.P,R3,2*
G04 #@! TO.N,GNDPAD*
X126227000Y-94107000D03*
G04 #@! TO.P,R3,1*
G04 #@! TO.N,Net-(R1-Pad2)*
X128027000Y-94107000D03*
G04 #@! TD*
G04 #@! TO.P,R2,2*
G04 #@! TO.N,Net-(R2-Pad2)*
X128027000Y-107569000D03*
G04 #@! TO.P,R2,1*
G04 #@! TO.N,Net-(R2-Pad1)*
X126227000Y-107569000D03*
G04 #@! TD*
G04 #@! TO.P,R1,2*
G04 #@! TO.N,Net-(R1-Pad2)*
X130037000Y-96393000D03*
G04 #@! TO.P,R1,1*
G04 #@! TO.N,+5V*
X131837000Y-96393000D03*
G04 #@! TD*
D19*
G04 #@! TO.P,L1,1*
G04 #@! TO.N,Net-(C5-Pad2)*
X146431000Y-107231000D03*
G04 #@! TO.P,L1,2*
G04 #@! TO.N,GND*
X146431000Y-96731000D03*
G04 #@! TD*
D20*
G04 #@! TO.P,J3,4*
G04 #@! TO.N,VF1*
X157607000Y-81153000D03*
G04 #@! TO.P,J3,3*
X160147000Y-81153000D03*
G04 #@! TO.P,J3,2*
G04 #@! TO.N,VF2*
X162687000Y-81153000D03*
D21*
G04 #@! TO.P,J3,1*
X165227000Y-81153000D03*
G04 #@! TD*
D20*
G04 #@! TO.P,J2,4*
G04 #@! TO.N,GNDPAD*
X142621000Y-81153000D03*
G04 #@! TO.P,J2,3*
X145161000Y-81153000D03*
G04 #@! TO.P,J2,2*
G04 #@! TO.N,GND*
X147701000Y-81153000D03*
D21*
G04 #@! TO.P,J2,1*
X150241000Y-81153000D03*
G04 #@! TD*
D20*
G04 #@! TO.P,J1,4*
G04 #@! TO.N,+5V*
X136017000Y-81153000D03*
G04 #@! TO.P,J1,3*
X133477000Y-81153000D03*
G04 #@! TO.P,J1,2*
G04 #@! TO.N,GND*
X130937000Y-81153000D03*
D21*
G04 #@! TO.P,J1,1*
X128397000Y-81153000D03*
G04 #@! TD*
D22*
G04 #@! TO.P,D2,3*
G04 #@! TO.N,N/C*
X161417000Y-85156506D03*
G04 #@! TO.P,D2,2*
G04 #@! TO.N,Net-(D2-Pad2)*
X162367000Y-87156506D03*
G04 #@! TO.P,D2,1*
G04 #@! TO.N,Net-(D2-Pad1)*
X160467000Y-87156506D03*
G04 #@! TD*
D23*
G04 #@! TO.P,D1,2*
G04 #@! TO.N,GNDPAD*
X137541000Y-99981000D03*
G04 #@! TO.P,D1,1*
G04 #@! TO.N,Net-(C5-Pad2)*
X137541000Y-103981000D03*
G04 #@! TD*
D24*
G04 #@! TO.P,C15,2*
G04 #@! TO.N,GND*
X154559000Y-110006000D03*
G04 #@! TO.P,C15,1*
G04 #@! TO.N,Net-(C15-Pad1)*
X154559000Y-113006000D03*
G04 #@! TD*
D17*
G04 #@! TO.P,C14,2*
G04 #@! TO.N,GND*
X154559000Y-116851000D03*
G04 #@! TO.P,C14,1*
G04 #@! TO.N,Net-(C14-Pad1)*
X154559000Y-115051000D03*
G04 #@! TD*
D25*
G04 #@! TO.P,C13,2*
G04 #@! TO.N,Net-(C13-Pad2)*
X168148000Y-91219000D03*
G04 #@! TO.P,C13,1*
G04 #@! TO.N,VF2*
X168148000Y-85819000D03*
G04 #@! TD*
D26*
G04 #@! TO.P,C12,2*
G04 #@! TO.N,GND*
X167132000Y-110260000D03*
G04 #@! TO.P,C12,1*
G04 #@! TO.N,+5V*
X167132000Y-113260000D03*
G04 #@! TD*
D25*
G04 #@! TO.P,C11,2*
G04 #@! TO.N,Net-(C11-Pad2)*
X154813000Y-91219000D03*
G04 #@! TO.P,C11,1*
G04 #@! TO.N,VF1*
X154813000Y-85819000D03*
G04 #@! TD*
D18*
G04 #@! TO.P,C10,2*
G04 #@! TO.N,GNDPAD*
X131837000Y-107569000D03*
G04 #@! TO.P,C10,1*
G04 #@! TO.N,Net-(C10-Pad1)*
X130037000Y-107569000D03*
G04 #@! TD*
G04 #@! TO.P,C9,2*
G04 #@! TO.N,GNDPAD*
X133847000Y-107569000D03*
G04 #@! TO.P,C9,1*
G04 #@! TO.N,Net-(C9-Pad1)*
X135647000Y-107569000D03*
G04 #@! TD*
D27*
G04 #@! TO.P,C8,2*
G04 #@! TO.N,GNDPAD*
X144931000Y-84963000D03*
G04 #@! TO.P,C8,1*
G04 #@! TO.N,GND*
X147931000Y-84963000D03*
G04 #@! TD*
G04 #@! TO.P,C7,2*
G04 #@! TO.N,GNDPAD*
X144931000Y-88519000D03*
G04 #@! TO.P,C7,1*
G04 #@! TO.N,GND*
X147931000Y-88519000D03*
G04 #@! TD*
G04 #@! TO.P,C6,2*
G04 #@! TO.N,GNDPAD*
X144931000Y-92075000D03*
G04 #@! TO.P,C6,1*
G04 #@! TO.N,GND*
X147931000Y-92075000D03*
G04 #@! TD*
D18*
G04 #@! TO.P,C5,2*
G04 #@! TO.N,Net-(C5-Pad2)*
X135647000Y-96393000D03*
G04 #@! TO.P,C5,1*
G04 #@! TO.N,Net-(C5-Pad1)*
X133847000Y-96393000D03*
G04 #@! TD*
D28*
G04 #@! TO.P,C4,2*
G04 #@! TO.N,GNDPAD*
X140946000Y-92075000D03*
G04 #@! TO.P,C4,1*
G04 #@! TO.N,+5V*
X137946000Y-92075000D03*
G04 #@! TD*
D27*
G04 #@! TO.P,C3,2*
G04 #@! TO.N,GND*
X130707000Y-92075000D03*
G04 #@! TO.P,C3,1*
G04 #@! TO.N,+5V*
X133707000Y-92075000D03*
G04 #@! TD*
G04 #@! TO.P,C2,2*
G04 #@! TO.N,GND*
X130707000Y-88519000D03*
G04 #@! TO.P,C2,1*
G04 #@! TO.N,+5V*
X133707000Y-88519000D03*
G04 #@! TD*
G04 #@! TO.P,C1,2*
G04 #@! TO.N,GND*
X130707000Y-84963000D03*
G04 #@! TO.P,C1,1*
G04 #@! TO.N,+5V*
X133707000Y-84963000D03*
G04 #@! TD*
D29*
G04 #@! TO.P,REF\002A\002A,1*
G04 #@! TO.N,N/C*
X122000000Y-116000000D03*
D30*
X122000000Y-118400000D03*
X120302944Y-117697056D03*
X119600000Y-116000000D03*
X120302944Y-114302944D03*
X122000000Y-113600000D03*
X123697056Y-114302944D03*
X124400000Y-116000000D03*
X123697056Y-117697056D03*
G04 #@! TD*
D29*
G04 #@! TO.P,REF\002A\002A,1*
G04 #@! TO.N,N/C*
X122000000Y-79000000D03*
D30*
X122000000Y-81400000D03*
X120302944Y-80697056D03*
X119600000Y-79000000D03*
X120302944Y-77302944D03*
X122000000Y-76600000D03*
X123697056Y-77302944D03*
X124400000Y-79000000D03*
X123697056Y-80697056D03*
G04 #@! TD*
D29*
G04 #@! TO.P,REF\002A\002A,1*
G04 #@! TO.N,N/C*
X172000000Y-116000000D03*
D30*
X172000000Y-118400000D03*
X170302944Y-117697056D03*
X169600000Y-116000000D03*
X170302944Y-114302944D03*
X172000000Y-113600000D03*
X173697056Y-114302944D03*
X174400000Y-116000000D03*
X173697056Y-117697056D03*
G04 #@! TD*
D29*
G04 #@! TO.P,REF\002A\002A,1*
G04 #@! TO.N,N/C*
X172000000Y-79000000D03*
D30*
X172000000Y-81400000D03*
X170302944Y-80697056D03*
X169600000Y-79000000D03*
X170302944Y-77302944D03*
X172000000Y-76600000D03*
X173697056Y-77302944D03*
X174400000Y-79000000D03*
X173697056Y-80697056D03*
G04 #@! TD*
D31*
G04 #@! TO.N,GND*
X128905000Y-87630000D03*
X128905000Y-88900000D03*
X128905000Y-90170000D03*
X128905000Y-91440000D03*
X161417000Y-117983000D03*
X157353000Y-110363000D03*
X154559000Y-117983000D03*
X167132002Y-109093000D03*
X168021000Y-109093000D03*
X166243000Y-109093000D03*
G04 #@! TO.N,+5V*
X167132000Y-114554000D03*
X167132000Y-115570000D03*
X167132000Y-116458996D03*
G04 #@! TO.N,GNDPAD*
X139445998Y-111760000D03*
G04 #@! TO.N,Net-(C5-Pad2)*
X135636000Y-97917000D03*
X135636000Y-105283000D03*
G04 #@! TO.N,Net-(D2-Pad2)*
X161417000Y-88265000D03*
G04 #@! TO.N,Net-(R10-Pad2)*
X163830000Y-113792000D03*
X157988000Y-113792008D03*
G04 #@! TD*
D32*
G04 #@! TO.N,GND*
X164942000Y-111435000D02*
X163817000Y-111435000D01*
X166932000Y-111435000D02*
X164942000Y-111435000D01*
X167132000Y-111235000D02*
X166932000Y-111435000D01*
X167132000Y-110260000D02*
X167132000Y-111235000D01*
X161417000Y-116851000D02*
X161417000Y-117983000D01*
X159017000Y-110785000D02*
X157775000Y-110785000D01*
X157775000Y-110785000D02*
X157353000Y-110363000D01*
X154559000Y-116851000D02*
X154559000Y-117983000D01*
X156996000Y-110006000D02*
X157353000Y-110363000D01*
X154559000Y-110006000D02*
X156996000Y-110006000D01*
D33*
X167132002Y-110259998D02*
X168021000Y-109093000D01*
X167132002Y-109658685D02*
X166243000Y-109093000D01*
X167132000Y-110260000D02*
X167132002Y-110259998D01*
X167132002Y-109093000D02*
X168021000Y-109093000D01*
X168021000Y-109093000D02*
X166243000Y-109093000D01*
X168021000Y-109093000D02*
X167132002Y-109658685D01*
X166243000Y-109093000D02*
X167132002Y-109093000D01*
D34*
G04 #@! TO.N,+5V*
X131953000Y-96647000D02*
X131837000Y-96531000D01*
X131837000Y-96531000D02*
X131837000Y-96393000D01*
X132842000Y-99281000D02*
X132842000Y-98298000D01*
X131953000Y-97409000D02*
X131953000Y-96647000D01*
X132842000Y-98298000D02*
X131953000Y-97409000D01*
X133731000Y-92099000D02*
X133707000Y-92075000D01*
X131837000Y-96393000D02*
X131837000Y-95493000D01*
X133731000Y-93599000D02*
X133731000Y-92099000D01*
X131837000Y-95493000D02*
X133731000Y-93599000D01*
X133707000Y-92075000D02*
X133707000Y-88519000D01*
X133707000Y-88519000D02*
X133707000Y-84963000D01*
X133477000Y-81153000D02*
X136017000Y-81153000D01*
X133707000Y-81383000D02*
X133477000Y-81153000D01*
X133707000Y-84963000D02*
X133707000Y-81383000D01*
X133707000Y-92075000D02*
X137946000Y-92075000D01*
D32*
X167132000Y-112285000D02*
X167132000Y-113260000D01*
X166932000Y-112085000D02*
X167132000Y-112285000D01*
X163817000Y-112085000D02*
X166932000Y-112085000D01*
D33*
X167132000Y-113260000D02*
X167132000Y-114554000D01*
X167132000Y-114554000D02*
X167132000Y-116458996D01*
D32*
X167131996Y-116459000D02*
X167132000Y-116458996D01*
X165735000Y-116459000D02*
X167131996Y-116459000D01*
X163703000Y-116851000D02*
X165343000Y-116851000D01*
X165343000Y-116851000D02*
X165735000Y-116459000D01*
D34*
G04 #@! TO.N,GNDPAD*
X142621000Y-81153000D02*
X145161000Y-81153000D01*
X144931000Y-81383000D02*
X145161000Y-81153000D01*
X144931000Y-84963000D02*
X144931000Y-81383000D01*
X144931000Y-84963000D02*
X144931000Y-88519000D01*
D35*
X144931000Y-90169000D02*
X144931000Y-92075000D01*
X144931000Y-88519000D02*
X144931000Y-90169000D01*
X144931000Y-92075000D02*
X140946000Y-92075000D01*
D32*
X132842000Y-102616000D02*
X132807000Y-102581000D01*
X132842000Y-104681000D02*
X132842000Y-102616000D01*
X132842000Y-104681000D02*
X132842000Y-107569000D01*
X131837000Y-107569000D02*
X132842000Y-107569000D01*
X132842000Y-107569000D02*
X133847000Y-107569000D01*
X126227000Y-94107000D02*
X126227000Y-96393000D01*
X130190000Y-101381000D02*
X130407000Y-101381000D01*
X126227000Y-97418000D02*
X130190000Y-101381000D01*
X126227000Y-96393000D02*
X126227000Y-97418000D01*
D34*
X138880313Y-111760000D02*
X139445998Y-111760000D01*
X127000000Y-111760000D02*
X138880313Y-111760000D01*
X126227000Y-109855000D02*
X126227000Y-110987000D01*
X126227000Y-110987000D02*
X127000000Y-111760000D01*
D32*
G04 #@! TO.N,Net-(C5-Pad2)*
X135647000Y-96393000D02*
X135647000Y-97906000D01*
D35*
X135647000Y-97906000D02*
X135636000Y-97917000D01*
D34*
X146431000Y-111125000D02*
X146431000Y-107231000D01*
D32*
G04 #@! TO.N,Net-(C5-Pad1)*
X134112000Y-99281000D02*
X134112000Y-97917000D01*
X133847000Y-97652000D02*
X133847000Y-96393000D01*
X134112000Y-97917000D02*
X133847000Y-97652000D01*
G04 #@! TO.N,Net-(C9-Pad1)*
X135647000Y-108701000D02*
X135647000Y-107569000D01*
X131837000Y-109855000D02*
X134493000Y-109855000D01*
X134493000Y-109855000D02*
X135647000Y-108701000D01*
G04 #@! TO.N,Net-(C10-Pad1)*
X130037000Y-107569000D02*
X130037000Y-109855000D01*
X131572000Y-105918000D02*
X131572000Y-104681000D01*
X131318000Y-106172000D02*
X131572000Y-105918000D01*
X130556000Y-106172000D02*
X131318000Y-106172000D01*
X130037000Y-107569000D02*
X130037000Y-106691000D01*
X130037000Y-106691000D02*
X130556000Y-106172000D01*
G04 #@! TO.N,Net-(C14-Pad1)*
X154559000Y-115051000D02*
X156845000Y-115051000D01*
X159017000Y-112735000D02*
X157693000Y-112735000D01*
X156845000Y-113583000D02*
X156845000Y-115051000D01*
X157693000Y-112735000D02*
X156845000Y-113583000D01*
G04 #@! TO.N,Net-(C15-Pad1)*
X157892000Y-111435000D02*
X159017000Y-111435000D01*
X156321000Y-113006000D02*
X154559000Y-113006000D01*
X157892000Y-111435000D02*
X156321000Y-113006000D01*
D34*
G04 #@! TO.N,Net-(D2-Pad2)*
X162052000Y-88265000D02*
X161417000Y-88265000D01*
X162367000Y-87156506D02*
X162367000Y-87950000D01*
X162367000Y-87950000D02*
X162052000Y-88265000D01*
G04 #@! TO.N,Net-(D2-Pad1)*
X162687000Y-89651000D02*
X160147000Y-89651000D01*
X160467000Y-87156506D02*
X160467000Y-88326000D01*
X160397000Y-88326000D02*
X160147000Y-88576000D01*
X160147000Y-88576000D02*
X160147000Y-89651000D01*
X160467000Y-88326000D02*
X160397000Y-88326000D01*
D32*
G04 #@! TO.N,Net-(R1-Pad2)*
X131572000Y-98206000D02*
X131283000Y-97917000D01*
X131572000Y-99281000D02*
X131572000Y-98206000D01*
X131283000Y-97917000D02*
X130429000Y-97917000D01*
X130037000Y-97525000D02*
X130037000Y-96393000D01*
X130429000Y-97917000D02*
X130037000Y-97525000D01*
X130037000Y-95368000D02*
X130037000Y-96393000D01*
D35*
X130037000Y-95242000D02*
X130037000Y-95368000D01*
D32*
X128902000Y-94107000D02*
X130037000Y-95242000D01*
X128027000Y-94107000D02*
X128902000Y-94107000D01*
G04 #@! TO.N,Net-(R2-Pad2)*
X128027000Y-109855000D02*
X128027000Y-107569000D01*
X130302000Y-104681000D02*
X129634000Y-104681000D01*
X128027000Y-106288000D02*
X128027000Y-107569000D01*
X129634000Y-104681000D02*
X128027000Y-106288000D01*
G04 #@! TO.N,Net-(R2-Pad1)*
X126227000Y-105653000D02*
X125095000Y-104521000D01*
X126227000Y-107569000D02*
X126227000Y-105653000D01*
X125095000Y-104521000D02*
X122555000Y-101981000D01*
G04 #@! TO.N,Net-(R4-Pad1)*
X130302000Y-99281000D02*
X129702000Y-99281000D01*
X128027000Y-97606000D02*
X128027000Y-96393000D01*
X129702000Y-99281000D02*
X128027000Y-97606000D01*
G04 #@! TO.N,Net-(R12-Pad1)*
X161417000Y-115051000D02*
X163703000Y-115051000D01*
X159131000Y-115051000D02*
X161417000Y-115051000D01*
X161417000Y-113497542D02*
X160004458Y-112085000D01*
X161417000Y-115051000D02*
X161417000Y-113497542D01*
X160004458Y-112085000D02*
X159017000Y-112085000D01*
D34*
G04 #@! TO.N,Net-(R10-Pad2)*
X157353000Y-104521000D02*
X154813000Y-107061000D01*
D32*
X156845000Y-116851000D02*
X159131000Y-116851000D01*
X161884000Y-112735000D02*
X163817000Y-112735000D01*
X156591000Y-107061000D02*
X158877000Y-109347000D01*
X154813000Y-107061000D02*
X156591000Y-107061000D01*
X160909000Y-109347000D02*
X161417000Y-109855000D01*
X158877000Y-109347000D02*
X160909000Y-109347000D01*
X161417000Y-109855000D02*
X161417000Y-112268000D01*
X161417000Y-112268000D02*
X161884000Y-112735000D01*
D35*
X163830000Y-112748000D02*
X163817000Y-112735000D01*
X163830000Y-113792000D02*
X163830000Y-112748000D01*
X157988000Y-114357693D02*
X157988000Y-113792008D01*
X159131000Y-116851000D02*
X157999000Y-116851000D01*
X157988000Y-116840000D02*
X157988000Y-114357693D01*
X157999000Y-116851000D02*
X157988000Y-116840000D01*
D34*
G04 #@! TO.N,Net-(RV3-Pad1)*
X165481000Y-104521000D02*
X168021000Y-107061000D01*
D32*
X163817000Y-109360000D02*
X166116000Y-107061000D01*
X163817000Y-110785000D02*
X163817000Y-109360000D01*
X166116000Y-107061000D02*
X166960340Y-107061000D01*
X166960340Y-107061000D02*
X168021000Y-107061000D01*
G04 #@! TD*
D36*
G04 #@! TO.N,+5V*
G36*
X137287000Y-89027000D02*
X137296667Y-89075601D01*
X137331965Y-89123950D01*
X138938000Y-90482903D01*
X138938000Y-93726000D01*
X137414000Y-93726000D01*
X137365399Y-93735667D01*
X137324197Y-93763197D01*
X136345394Y-94742000D01*
X132715000Y-94742000D01*
X132715000Y-92543250D01*
X132751000Y-92543250D01*
X132751000Y-93500785D01*
X132809004Y-93640819D01*
X132916180Y-93747996D01*
X133056214Y-93806000D01*
X133324250Y-93806000D01*
X133419500Y-93710750D01*
X133419500Y-92448000D01*
X133994500Y-92448000D01*
X133994500Y-93710750D01*
X134089750Y-93806000D01*
X134357786Y-93806000D01*
X134497820Y-93747996D01*
X134604996Y-93640819D01*
X134663000Y-93500785D01*
X134663000Y-92543250D01*
X136990000Y-92543250D01*
X136990000Y-93050785D01*
X137048004Y-93190819D01*
X137155180Y-93297996D01*
X137295214Y-93356000D01*
X137563250Y-93356000D01*
X137658500Y-93260750D01*
X137658500Y-92448000D01*
X138233500Y-92448000D01*
X138233500Y-93260750D01*
X138328750Y-93356000D01*
X138596786Y-93356000D01*
X138736820Y-93297996D01*
X138843996Y-93190819D01*
X138902000Y-93050785D01*
X138902000Y-92543250D01*
X138806750Y-92448000D01*
X138233500Y-92448000D01*
X137658500Y-92448000D01*
X137085250Y-92448000D01*
X136990000Y-92543250D01*
X134663000Y-92543250D01*
X134567750Y-92448000D01*
X133994500Y-92448000D01*
X133419500Y-92448000D01*
X132846250Y-92448000D01*
X132751000Y-92543250D01*
X132715000Y-92543250D01*
X132715000Y-90649215D01*
X132751000Y-90649215D01*
X132751000Y-91606750D01*
X132846250Y-91702000D01*
X133419500Y-91702000D01*
X133419500Y-90439250D01*
X133994500Y-90439250D01*
X133994500Y-91702000D01*
X134567750Y-91702000D01*
X134663000Y-91606750D01*
X134663000Y-91099215D01*
X136990000Y-91099215D01*
X136990000Y-91606750D01*
X137085250Y-91702000D01*
X137658500Y-91702000D01*
X137658500Y-90889250D01*
X138233500Y-90889250D01*
X138233500Y-91702000D01*
X138806750Y-91702000D01*
X138902000Y-91606750D01*
X138902000Y-91099215D01*
X138843996Y-90959181D01*
X138736820Y-90852004D01*
X138596786Y-90794000D01*
X138328750Y-90794000D01*
X138233500Y-90889250D01*
X137658500Y-90889250D01*
X137563250Y-90794000D01*
X137295214Y-90794000D01*
X137155180Y-90852004D01*
X137048004Y-90959181D01*
X136990000Y-91099215D01*
X134663000Y-91099215D01*
X134663000Y-90649215D01*
X134604996Y-90509181D01*
X134497820Y-90402004D01*
X134357786Y-90344000D01*
X134089750Y-90344000D01*
X133994500Y-90439250D01*
X133419500Y-90439250D01*
X133324250Y-90344000D01*
X133056214Y-90344000D01*
X132916180Y-90402004D01*
X132809004Y-90509181D01*
X132751000Y-90649215D01*
X132715000Y-90649215D01*
X132715000Y-88987250D01*
X132751000Y-88987250D01*
X132751000Y-89944785D01*
X132809004Y-90084819D01*
X132916180Y-90191996D01*
X133056214Y-90250000D01*
X133324250Y-90250000D01*
X133419500Y-90154750D01*
X133419500Y-88892000D01*
X133994500Y-88892000D01*
X133994500Y-90154750D01*
X134089750Y-90250000D01*
X134357786Y-90250000D01*
X134497820Y-90191996D01*
X134604996Y-90084819D01*
X134663000Y-89944785D01*
X134663000Y-88987250D01*
X134567750Y-88892000D01*
X133994500Y-88892000D01*
X133419500Y-88892000D01*
X132846250Y-88892000D01*
X132751000Y-88987250D01*
X132715000Y-88987250D01*
X132715000Y-87093215D01*
X132751000Y-87093215D01*
X132751000Y-88050750D01*
X132846250Y-88146000D01*
X133419500Y-88146000D01*
X133419500Y-86883250D01*
X133994500Y-86883250D01*
X133994500Y-88146000D01*
X134567750Y-88146000D01*
X134663000Y-88050750D01*
X134663000Y-87093215D01*
X134604996Y-86953181D01*
X134497820Y-86846004D01*
X134357786Y-86788000D01*
X134089750Y-86788000D01*
X133994500Y-86883250D01*
X133419500Y-86883250D01*
X133324250Y-86788000D01*
X133056214Y-86788000D01*
X132916180Y-86846004D01*
X132809004Y-86953181D01*
X132751000Y-87093215D01*
X132715000Y-87093215D01*
X132715000Y-85431250D01*
X132751000Y-85431250D01*
X132751000Y-86388785D01*
X132809004Y-86528819D01*
X132916180Y-86635996D01*
X133056214Y-86694000D01*
X133324250Y-86694000D01*
X133419500Y-86598750D01*
X133419500Y-85336000D01*
X133994500Y-85336000D01*
X133994500Y-86598750D01*
X134089750Y-86694000D01*
X134357786Y-86694000D01*
X134497820Y-86635996D01*
X134604996Y-86528819D01*
X134663000Y-86388785D01*
X134663000Y-85431250D01*
X134567750Y-85336000D01*
X133994500Y-85336000D01*
X133419500Y-85336000D01*
X132846250Y-85336000D01*
X132751000Y-85431250D01*
X132715000Y-85431250D01*
X132715000Y-83537215D01*
X132751000Y-83537215D01*
X132751000Y-84494750D01*
X132846250Y-84590000D01*
X133419500Y-84590000D01*
X133419500Y-83327250D01*
X133994500Y-83327250D01*
X133994500Y-84590000D01*
X134567750Y-84590000D01*
X134663000Y-84494750D01*
X134663000Y-83537215D01*
X134604996Y-83397181D01*
X134497820Y-83290004D01*
X134357786Y-83232000D01*
X134089750Y-83232000D01*
X133994500Y-83327250D01*
X133419500Y-83327250D01*
X133324250Y-83232000D01*
X133056214Y-83232000D01*
X132916180Y-83290004D01*
X132809004Y-83397181D01*
X132751000Y-83537215D01*
X132715000Y-83537215D01*
X132715000Y-82113001D01*
X132925074Y-82253336D01*
X133104000Y-82225753D01*
X133104000Y-81526000D01*
X133850000Y-81526000D01*
X133850000Y-82225753D01*
X134028926Y-82253336D01*
X134282395Y-82084012D01*
X134577371Y-81704931D01*
X134916629Y-81704931D01*
X135211605Y-82084012D01*
X135465074Y-82253336D01*
X135644000Y-82225753D01*
X135644000Y-81526000D01*
X136390000Y-81526000D01*
X136390000Y-82225753D01*
X136568926Y-82253336D01*
X136822395Y-82084012D01*
X137117371Y-81704931D01*
X137094915Y-81526000D01*
X136390000Y-81526000D01*
X135644000Y-81526000D01*
X134939085Y-81526000D01*
X134916629Y-81704931D01*
X134577371Y-81704931D01*
X134554915Y-81526000D01*
X133850000Y-81526000D01*
X133104000Y-81526000D01*
X133084000Y-81526000D01*
X133084000Y-80780000D01*
X133104000Y-80780000D01*
X133104000Y-80080247D01*
X133850000Y-80080247D01*
X133850000Y-80780000D01*
X134554915Y-80780000D01*
X134577371Y-80601069D01*
X134916629Y-80601069D01*
X134939085Y-80780000D01*
X135644000Y-80780000D01*
X135644000Y-80080247D01*
X136390000Y-80080247D01*
X136390000Y-80780000D01*
X137094915Y-80780000D01*
X137117371Y-80601069D01*
X136822395Y-80221988D01*
X136568926Y-80052664D01*
X136390000Y-80080247D01*
X135644000Y-80080247D01*
X135465074Y-80052664D01*
X135211605Y-80221988D01*
X134916629Y-80601069D01*
X134577371Y-80601069D01*
X134282395Y-80221988D01*
X134028926Y-80052664D01*
X133850000Y-80080247D01*
X133104000Y-80080247D01*
X132925074Y-80052664D01*
X132715000Y-80192999D01*
X132715000Y-79502000D01*
X137287000Y-79502000D01*
X137287000Y-89027000D01*
X137287000Y-89027000D01*
G37*
X137287000Y-89027000D02*
X137296667Y-89075601D01*
X137331965Y-89123950D01*
X138938000Y-90482903D01*
X138938000Y-93726000D01*
X137414000Y-93726000D01*
X137365399Y-93735667D01*
X137324197Y-93763197D01*
X136345394Y-94742000D01*
X132715000Y-94742000D01*
X132715000Y-92543250D01*
X132751000Y-92543250D01*
X132751000Y-93500785D01*
X132809004Y-93640819D01*
X132916180Y-93747996D01*
X133056214Y-93806000D01*
X133324250Y-93806000D01*
X133419500Y-93710750D01*
X133419500Y-92448000D01*
X133994500Y-92448000D01*
X133994500Y-93710750D01*
X134089750Y-93806000D01*
X134357786Y-93806000D01*
X134497820Y-93747996D01*
X134604996Y-93640819D01*
X134663000Y-93500785D01*
X134663000Y-92543250D01*
X136990000Y-92543250D01*
X136990000Y-93050785D01*
X137048004Y-93190819D01*
X137155180Y-93297996D01*
X137295214Y-93356000D01*
X137563250Y-93356000D01*
X137658500Y-93260750D01*
X137658500Y-92448000D01*
X138233500Y-92448000D01*
X138233500Y-93260750D01*
X138328750Y-93356000D01*
X138596786Y-93356000D01*
X138736820Y-93297996D01*
X138843996Y-93190819D01*
X138902000Y-93050785D01*
X138902000Y-92543250D01*
X138806750Y-92448000D01*
X138233500Y-92448000D01*
X137658500Y-92448000D01*
X137085250Y-92448000D01*
X136990000Y-92543250D01*
X134663000Y-92543250D01*
X134567750Y-92448000D01*
X133994500Y-92448000D01*
X133419500Y-92448000D01*
X132846250Y-92448000D01*
X132751000Y-92543250D01*
X132715000Y-92543250D01*
X132715000Y-90649215D01*
X132751000Y-90649215D01*
X132751000Y-91606750D01*
X132846250Y-91702000D01*
X133419500Y-91702000D01*
X133419500Y-90439250D01*
X133994500Y-90439250D01*
X133994500Y-91702000D01*
X134567750Y-91702000D01*
X134663000Y-91606750D01*
X134663000Y-91099215D01*
X136990000Y-91099215D01*
X136990000Y-91606750D01*
X137085250Y-91702000D01*
X137658500Y-91702000D01*
X137658500Y-90889250D01*
X138233500Y-90889250D01*
X138233500Y-91702000D01*
X138806750Y-91702000D01*
X138902000Y-91606750D01*
X138902000Y-91099215D01*
X138843996Y-90959181D01*
X138736820Y-90852004D01*
X138596786Y-90794000D01*
X138328750Y-90794000D01*
X138233500Y-90889250D01*
X137658500Y-90889250D01*
X137563250Y-90794000D01*
X137295214Y-90794000D01*
X137155180Y-90852004D01*
X137048004Y-90959181D01*
X136990000Y-91099215D01*
X134663000Y-91099215D01*
X134663000Y-90649215D01*
X134604996Y-90509181D01*
X134497820Y-90402004D01*
X134357786Y-90344000D01*
X134089750Y-90344000D01*
X133994500Y-90439250D01*
X133419500Y-90439250D01*
X133324250Y-90344000D01*
X133056214Y-90344000D01*
X132916180Y-90402004D01*
X132809004Y-90509181D01*
X132751000Y-90649215D01*
X132715000Y-90649215D01*
X132715000Y-88987250D01*
X132751000Y-88987250D01*
X132751000Y-89944785D01*
X132809004Y-90084819D01*
X132916180Y-90191996D01*
X133056214Y-90250000D01*
X133324250Y-90250000D01*
X133419500Y-90154750D01*
X133419500Y-88892000D01*
X133994500Y-88892000D01*
X133994500Y-90154750D01*
X134089750Y-90250000D01*
X134357786Y-90250000D01*
X134497820Y-90191996D01*
X134604996Y-90084819D01*
X134663000Y-89944785D01*
X134663000Y-88987250D01*
X134567750Y-88892000D01*
X133994500Y-88892000D01*
X133419500Y-88892000D01*
X132846250Y-88892000D01*
X132751000Y-88987250D01*
X132715000Y-88987250D01*
X132715000Y-87093215D01*
X132751000Y-87093215D01*
X132751000Y-88050750D01*
X132846250Y-88146000D01*
X133419500Y-88146000D01*
X133419500Y-86883250D01*
X133994500Y-86883250D01*
X133994500Y-88146000D01*
X134567750Y-88146000D01*
X134663000Y-88050750D01*
X134663000Y-87093215D01*
X134604996Y-86953181D01*
X134497820Y-86846004D01*
X134357786Y-86788000D01*
X134089750Y-86788000D01*
X133994500Y-86883250D01*
X133419500Y-86883250D01*
X133324250Y-86788000D01*
X133056214Y-86788000D01*
X132916180Y-86846004D01*
X132809004Y-86953181D01*
X132751000Y-87093215D01*
X132715000Y-87093215D01*
X132715000Y-85431250D01*
X132751000Y-85431250D01*
X132751000Y-86388785D01*
X132809004Y-86528819D01*
X132916180Y-86635996D01*
X133056214Y-86694000D01*
X133324250Y-86694000D01*
X133419500Y-86598750D01*
X133419500Y-85336000D01*
X133994500Y-85336000D01*
X133994500Y-86598750D01*
X134089750Y-86694000D01*
X134357786Y-86694000D01*
X134497820Y-86635996D01*
X134604996Y-86528819D01*
X134663000Y-86388785D01*
X134663000Y-85431250D01*
X134567750Y-85336000D01*
X133994500Y-85336000D01*
X133419500Y-85336000D01*
X132846250Y-85336000D01*
X132751000Y-85431250D01*
X132715000Y-85431250D01*
X132715000Y-83537215D01*
X132751000Y-83537215D01*
X132751000Y-84494750D01*
X132846250Y-84590000D01*
X133419500Y-84590000D01*
X133419500Y-83327250D01*
X133994500Y-83327250D01*
X133994500Y-84590000D01*
X134567750Y-84590000D01*
X134663000Y-84494750D01*
X134663000Y-83537215D01*
X134604996Y-83397181D01*
X134497820Y-83290004D01*
X134357786Y-83232000D01*
X134089750Y-83232000D01*
X133994500Y-83327250D01*
X133419500Y-83327250D01*
X133324250Y-83232000D01*
X133056214Y-83232000D01*
X132916180Y-83290004D01*
X132809004Y-83397181D01*
X132751000Y-83537215D01*
X132715000Y-83537215D01*
X132715000Y-82113001D01*
X132925074Y-82253336D01*
X133104000Y-82225753D01*
X133104000Y-81526000D01*
X133850000Y-81526000D01*
X133850000Y-82225753D01*
X134028926Y-82253336D01*
X134282395Y-82084012D01*
X134577371Y-81704931D01*
X134916629Y-81704931D01*
X135211605Y-82084012D01*
X135465074Y-82253336D01*
X135644000Y-82225753D01*
X135644000Y-81526000D01*
X136390000Y-81526000D01*
X136390000Y-82225753D01*
X136568926Y-82253336D01*
X136822395Y-82084012D01*
X137117371Y-81704931D01*
X137094915Y-81526000D01*
X136390000Y-81526000D01*
X135644000Y-81526000D01*
X134939085Y-81526000D01*
X134916629Y-81704931D01*
X134577371Y-81704931D01*
X134554915Y-81526000D01*
X133850000Y-81526000D01*
X133104000Y-81526000D01*
X133084000Y-81526000D01*
X133084000Y-80780000D01*
X133104000Y-80780000D01*
X133104000Y-80080247D01*
X133850000Y-80080247D01*
X133850000Y-80780000D01*
X134554915Y-80780000D01*
X134577371Y-80601069D01*
X134916629Y-80601069D01*
X134939085Y-80780000D01*
X135644000Y-80780000D01*
X135644000Y-80080247D01*
X136390000Y-80080247D01*
X136390000Y-80780000D01*
X137094915Y-80780000D01*
X137117371Y-80601069D01*
X136822395Y-80221988D01*
X136568926Y-80052664D01*
X136390000Y-80080247D01*
X135644000Y-80080247D01*
X135465074Y-80052664D01*
X135211605Y-80221988D01*
X134916629Y-80601069D01*
X134577371Y-80601069D01*
X134282395Y-80221988D01*
X134028926Y-80052664D01*
X133850000Y-80080247D01*
X133104000Y-80080247D01*
X132925074Y-80052664D01*
X132715000Y-80192999D01*
X132715000Y-79502000D01*
X137287000Y-79502000D01*
X137287000Y-89027000D01*
G04 #@! TO.N,GNDPAD*
G36*
X145923000Y-80192999D02*
X145712926Y-80052664D01*
X145534000Y-80080247D01*
X145534000Y-80780000D01*
X145554000Y-80780000D01*
X145554000Y-81526000D01*
X145534000Y-81526000D01*
X145534000Y-82225753D01*
X145712926Y-82253336D01*
X145923000Y-82113001D01*
X145923000Y-94107000D01*
X142875000Y-94107000D01*
X142826399Y-94116667D01*
X142785197Y-94144197D01*
X142757667Y-94185399D01*
X142748000Y-94234000D01*
X142748000Y-100404394D01*
X141425394Y-101727000D01*
X136652000Y-101727000D01*
X136603399Y-101736667D01*
X136562197Y-101764197D01*
X135001000Y-103325394D01*
X135001000Y-100457000D01*
X134999459Y-100449250D01*
X136260000Y-100449250D01*
X136260000Y-101306786D01*
X136318004Y-101446820D01*
X136425181Y-101553996D01*
X136565215Y-101612000D01*
X137072750Y-101612000D01*
X137168000Y-101516750D01*
X137168000Y-100354000D01*
X137914000Y-100354000D01*
X137914000Y-101516750D01*
X138009250Y-101612000D01*
X138516785Y-101612000D01*
X138656819Y-101553996D01*
X138763996Y-101446820D01*
X138822000Y-101306786D01*
X138822000Y-100449250D01*
X138726750Y-100354000D01*
X137914000Y-100354000D01*
X137168000Y-100354000D01*
X136355250Y-100354000D01*
X136260000Y-100449250D01*
X134999459Y-100449250D01*
X134991333Y-100408399D01*
X134963803Y-100367197D01*
X134922601Y-100339667D01*
X134874000Y-100330000D01*
X134874000Y-99874606D01*
X136093392Y-98655214D01*
X136260000Y-98655214D01*
X136260000Y-99512750D01*
X136355250Y-99608000D01*
X137168000Y-99608000D01*
X137168000Y-98445250D01*
X137914000Y-98445250D01*
X137914000Y-99608000D01*
X138726750Y-99608000D01*
X138822000Y-99512750D01*
X138822000Y-98655214D01*
X138763996Y-98515180D01*
X138656819Y-98408004D01*
X138516785Y-98350000D01*
X138009250Y-98350000D01*
X137914000Y-98445250D01*
X137168000Y-98445250D01*
X137072750Y-98350000D01*
X136565215Y-98350000D01*
X136425181Y-98408004D01*
X136318004Y-98515180D01*
X136260000Y-98655214D01*
X136093392Y-98655214D01*
X136995803Y-97752803D01*
X137023333Y-97711601D01*
X137033000Y-97663000D01*
X137033000Y-95556606D01*
X137847606Y-94742000D01*
X139827000Y-94742000D01*
X139875601Y-94732333D01*
X139916803Y-94704803D01*
X139944333Y-94663601D01*
X139954000Y-94615000D01*
X139954000Y-92543250D01*
X139990000Y-92543250D01*
X139990000Y-93050785D01*
X140048004Y-93190819D01*
X140155180Y-93297996D01*
X140295214Y-93356000D01*
X140563250Y-93356000D01*
X140658500Y-93260750D01*
X140658500Y-92448000D01*
X141233500Y-92448000D01*
X141233500Y-93260750D01*
X141328750Y-93356000D01*
X141596786Y-93356000D01*
X141736820Y-93297996D01*
X141843996Y-93190819D01*
X141902000Y-93050785D01*
X141902000Y-92543250D01*
X143975000Y-92543250D01*
X143975000Y-93500785D01*
X144033004Y-93640819D01*
X144140180Y-93747996D01*
X144280214Y-93806000D01*
X144548250Y-93806000D01*
X144643500Y-93710750D01*
X144643500Y-92448000D01*
X145218500Y-92448000D01*
X145218500Y-93710750D01*
X145313750Y-93806000D01*
X145581786Y-93806000D01*
X145721820Y-93747996D01*
X145828996Y-93640819D01*
X145887000Y-93500785D01*
X145887000Y-92543250D01*
X145791750Y-92448000D01*
X145218500Y-92448000D01*
X144643500Y-92448000D01*
X144070250Y-92448000D01*
X143975000Y-92543250D01*
X141902000Y-92543250D01*
X141806750Y-92448000D01*
X141233500Y-92448000D01*
X140658500Y-92448000D01*
X140085250Y-92448000D01*
X139990000Y-92543250D01*
X139954000Y-92543250D01*
X139954000Y-91099215D01*
X139990000Y-91099215D01*
X139990000Y-91606750D01*
X140085250Y-91702000D01*
X140658500Y-91702000D01*
X140658500Y-90889250D01*
X141233500Y-90889250D01*
X141233500Y-91702000D01*
X141806750Y-91702000D01*
X141902000Y-91606750D01*
X141902000Y-91099215D01*
X141843996Y-90959181D01*
X141736820Y-90852004D01*
X141596786Y-90794000D01*
X141328750Y-90794000D01*
X141233500Y-90889250D01*
X140658500Y-90889250D01*
X140563250Y-90794000D01*
X140295214Y-90794000D01*
X140155180Y-90852004D01*
X140048004Y-90959181D01*
X139990000Y-91099215D01*
X139954000Y-91099215D01*
X139954000Y-90649215D01*
X143975000Y-90649215D01*
X143975000Y-91606750D01*
X144070250Y-91702000D01*
X144643500Y-91702000D01*
X144643500Y-90439250D01*
X145218500Y-90439250D01*
X145218500Y-91702000D01*
X145791750Y-91702000D01*
X145887000Y-91606750D01*
X145887000Y-90649215D01*
X145828996Y-90509181D01*
X145721820Y-90402004D01*
X145581786Y-90344000D01*
X145313750Y-90344000D01*
X145218500Y-90439250D01*
X144643500Y-90439250D01*
X144548250Y-90344000D01*
X144280214Y-90344000D01*
X144140180Y-90402004D01*
X144033004Y-90509181D01*
X143975000Y-90649215D01*
X139954000Y-90649215D01*
X139954000Y-90476606D01*
X141313803Y-89116803D01*
X141341333Y-89075601D01*
X141351000Y-89027000D01*
X141351000Y-88987250D01*
X143975000Y-88987250D01*
X143975000Y-89944785D01*
X144033004Y-90084819D01*
X144140180Y-90191996D01*
X144280214Y-90250000D01*
X144548250Y-90250000D01*
X144643500Y-90154750D01*
X144643500Y-88892000D01*
X145218500Y-88892000D01*
X145218500Y-90154750D01*
X145313750Y-90250000D01*
X145581786Y-90250000D01*
X145721820Y-90191996D01*
X145828996Y-90084819D01*
X145887000Y-89944785D01*
X145887000Y-88987250D01*
X145791750Y-88892000D01*
X145218500Y-88892000D01*
X144643500Y-88892000D01*
X144070250Y-88892000D01*
X143975000Y-88987250D01*
X141351000Y-88987250D01*
X141351000Y-87093215D01*
X143975000Y-87093215D01*
X143975000Y-88050750D01*
X144070250Y-88146000D01*
X144643500Y-88146000D01*
X144643500Y-86883250D01*
X145218500Y-86883250D01*
X145218500Y-88146000D01*
X145791750Y-88146000D01*
X145887000Y-88050750D01*
X145887000Y-87093215D01*
X145828996Y-86953181D01*
X145721820Y-86846004D01*
X145581786Y-86788000D01*
X145313750Y-86788000D01*
X145218500Y-86883250D01*
X144643500Y-86883250D01*
X144548250Y-86788000D01*
X144280214Y-86788000D01*
X144140180Y-86846004D01*
X144033004Y-86953181D01*
X143975000Y-87093215D01*
X141351000Y-87093215D01*
X141351000Y-85431250D01*
X143975000Y-85431250D01*
X143975000Y-86388785D01*
X144033004Y-86528819D01*
X144140180Y-86635996D01*
X144280214Y-86694000D01*
X144548250Y-86694000D01*
X144643500Y-86598750D01*
X144643500Y-85336000D01*
X145218500Y-85336000D01*
X145218500Y-86598750D01*
X145313750Y-86694000D01*
X145581786Y-86694000D01*
X145721820Y-86635996D01*
X145828996Y-86528819D01*
X145887000Y-86388785D01*
X145887000Y-85431250D01*
X145791750Y-85336000D01*
X145218500Y-85336000D01*
X144643500Y-85336000D01*
X144070250Y-85336000D01*
X143975000Y-85431250D01*
X141351000Y-85431250D01*
X141351000Y-83537215D01*
X143975000Y-83537215D01*
X143975000Y-84494750D01*
X144070250Y-84590000D01*
X144643500Y-84590000D01*
X144643500Y-83327250D01*
X145218500Y-83327250D01*
X145218500Y-84590000D01*
X145791750Y-84590000D01*
X145887000Y-84494750D01*
X145887000Y-83537215D01*
X145828996Y-83397181D01*
X145721820Y-83290004D01*
X145581786Y-83232000D01*
X145313750Y-83232000D01*
X145218500Y-83327250D01*
X144643500Y-83327250D01*
X144548250Y-83232000D01*
X144280214Y-83232000D01*
X144140180Y-83290004D01*
X144033004Y-83397181D01*
X143975000Y-83537215D01*
X141351000Y-83537215D01*
X141351000Y-81704931D01*
X141520629Y-81704931D01*
X141815605Y-82084012D01*
X142069074Y-82253336D01*
X142248000Y-82225753D01*
X142248000Y-81526000D01*
X142994000Y-81526000D01*
X142994000Y-82225753D01*
X143172926Y-82253336D01*
X143426395Y-82084012D01*
X143721371Y-81704931D01*
X144060629Y-81704931D01*
X144355605Y-82084012D01*
X144609074Y-82253336D01*
X144788000Y-82225753D01*
X144788000Y-81526000D01*
X144083085Y-81526000D01*
X144060629Y-81704931D01*
X143721371Y-81704931D01*
X143698915Y-81526000D01*
X142994000Y-81526000D01*
X142248000Y-81526000D01*
X141543085Y-81526000D01*
X141520629Y-81704931D01*
X141351000Y-81704931D01*
X141351000Y-80601069D01*
X141520629Y-80601069D01*
X141543085Y-80780000D01*
X142248000Y-80780000D01*
X142248000Y-80080247D01*
X142994000Y-80080247D01*
X142994000Y-80780000D01*
X143698915Y-80780000D01*
X143721371Y-80601069D01*
X144060629Y-80601069D01*
X144083085Y-80780000D01*
X144788000Y-80780000D01*
X144788000Y-80080247D01*
X144609074Y-80052664D01*
X144355605Y-80221988D01*
X144060629Y-80601069D01*
X143721371Y-80601069D01*
X143426395Y-80221988D01*
X143172926Y-80052664D01*
X142994000Y-80080247D01*
X142248000Y-80080247D01*
X142069074Y-80052664D01*
X141815605Y-80221988D01*
X141520629Y-80601069D01*
X141351000Y-80601069D01*
X141351000Y-79502000D01*
X145923000Y-79502000D01*
X145923000Y-80192999D01*
X145923000Y-80192999D01*
G37*
X145923000Y-80192999D02*
X145712926Y-80052664D01*
X145534000Y-80080247D01*
X145534000Y-80780000D01*
X145554000Y-80780000D01*
X145554000Y-81526000D01*
X145534000Y-81526000D01*
X145534000Y-82225753D01*
X145712926Y-82253336D01*
X145923000Y-82113001D01*
X145923000Y-94107000D01*
X142875000Y-94107000D01*
X142826399Y-94116667D01*
X142785197Y-94144197D01*
X142757667Y-94185399D01*
X142748000Y-94234000D01*
X142748000Y-100404394D01*
X141425394Y-101727000D01*
X136652000Y-101727000D01*
X136603399Y-101736667D01*
X136562197Y-101764197D01*
X135001000Y-103325394D01*
X135001000Y-100457000D01*
X134999459Y-100449250D01*
X136260000Y-100449250D01*
X136260000Y-101306786D01*
X136318004Y-101446820D01*
X136425181Y-101553996D01*
X136565215Y-101612000D01*
X137072750Y-101612000D01*
X137168000Y-101516750D01*
X137168000Y-100354000D01*
X137914000Y-100354000D01*
X137914000Y-101516750D01*
X138009250Y-101612000D01*
X138516785Y-101612000D01*
X138656819Y-101553996D01*
X138763996Y-101446820D01*
X138822000Y-101306786D01*
X138822000Y-100449250D01*
X138726750Y-100354000D01*
X137914000Y-100354000D01*
X137168000Y-100354000D01*
X136355250Y-100354000D01*
X136260000Y-100449250D01*
X134999459Y-100449250D01*
X134991333Y-100408399D01*
X134963803Y-100367197D01*
X134922601Y-100339667D01*
X134874000Y-100330000D01*
X134874000Y-99874606D01*
X136093392Y-98655214D01*
X136260000Y-98655214D01*
X136260000Y-99512750D01*
X136355250Y-99608000D01*
X137168000Y-99608000D01*
X137168000Y-98445250D01*
X137914000Y-98445250D01*
X137914000Y-99608000D01*
X138726750Y-99608000D01*
X138822000Y-99512750D01*
X138822000Y-98655214D01*
X138763996Y-98515180D01*
X138656819Y-98408004D01*
X138516785Y-98350000D01*
X138009250Y-98350000D01*
X137914000Y-98445250D01*
X137168000Y-98445250D01*
X137072750Y-98350000D01*
X136565215Y-98350000D01*
X136425181Y-98408004D01*
X136318004Y-98515180D01*
X136260000Y-98655214D01*
X136093392Y-98655214D01*
X136995803Y-97752803D01*
X137023333Y-97711601D01*
X137033000Y-97663000D01*
X137033000Y-95556606D01*
X137847606Y-94742000D01*
X139827000Y-94742000D01*
X139875601Y-94732333D01*
X139916803Y-94704803D01*
X139944333Y-94663601D01*
X139954000Y-94615000D01*
X139954000Y-92543250D01*
X139990000Y-92543250D01*
X139990000Y-93050785D01*
X140048004Y-93190819D01*
X140155180Y-93297996D01*
X140295214Y-93356000D01*
X140563250Y-93356000D01*
X140658500Y-93260750D01*
X140658500Y-92448000D01*
X141233500Y-92448000D01*
X141233500Y-93260750D01*
X141328750Y-93356000D01*
X141596786Y-93356000D01*
X141736820Y-93297996D01*
X141843996Y-93190819D01*
X141902000Y-93050785D01*
X141902000Y-92543250D01*
X143975000Y-92543250D01*
X143975000Y-93500785D01*
X144033004Y-93640819D01*
X144140180Y-93747996D01*
X144280214Y-93806000D01*
X144548250Y-93806000D01*
X144643500Y-93710750D01*
X144643500Y-92448000D01*
X145218500Y-92448000D01*
X145218500Y-93710750D01*
X145313750Y-93806000D01*
X145581786Y-93806000D01*
X145721820Y-93747996D01*
X145828996Y-93640819D01*
X145887000Y-93500785D01*
X145887000Y-92543250D01*
X145791750Y-92448000D01*
X145218500Y-92448000D01*
X144643500Y-92448000D01*
X144070250Y-92448000D01*
X143975000Y-92543250D01*
X141902000Y-92543250D01*
X141806750Y-92448000D01*
X141233500Y-92448000D01*
X140658500Y-92448000D01*
X140085250Y-92448000D01*
X139990000Y-92543250D01*
X139954000Y-92543250D01*
X139954000Y-91099215D01*
X139990000Y-91099215D01*
X139990000Y-91606750D01*
X140085250Y-91702000D01*
X140658500Y-91702000D01*
X140658500Y-90889250D01*
X141233500Y-90889250D01*
X141233500Y-91702000D01*
X141806750Y-91702000D01*
X141902000Y-91606750D01*
X141902000Y-91099215D01*
X141843996Y-90959181D01*
X141736820Y-90852004D01*
X141596786Y-90794000D01*
X141328750Y-90794000D01*
X141233500Y-90889250D01*
X140658500Y-90889250D01*
X140563250Y-90794000D01*
X140295214Y-90794000D01*
X140155180Y-90852004D01*
X140048004Y-90959181D01*
X139990000Y-91099215D01*
X139954000Y-91099215D01*
X139954000Y-90649215D01*
X143975000Y-90649215D01*
X143975000Y-91606750D01*
X144070250Y-91702000D01*
X144643500Y-91702000D01*
X144643500Y-90439250D01*
X145218500Y-90439250D01*
X145218500Y-91702000D01*
X145791750Y-91702000D01*
X145887000Y-91606750D01*
X145887000Y-90649215D01*
X145828996Y-90509181D01*
X145721820Y-90402004D01*
X145581786Y-90344000D01*
X145313750Y-90344000D01*
X145218500Y-90439250D01*
X144643500Y-90439250D01*
X144548250Y-90344000D01*
X144280214Y-90344000D01*
X144140180Y-90402004D01*
X144033004Y-90509181D01*
X143975000Y-90649215D01*
X139954000Y-90649215D01*
X139954000Y-90476606D01*
X141313803Y-89116803D01*
X141341333Y-89075601D01*
X141351000Y-89027000D01*
X141351000Y-88987250D01*
X143975000Y-88987250D01*
X143975000Y-89944785D01*
X144033004Y-90084819D01*
X144140180Y-90191996D01*
X144280214Y-90250000D01*
X144548250Y-90250000D01*
X144643500Y-90154750D01*
X144643500Y-88892000D01*
X145218500Y-88892000D01*
X145218500Y-90154750D01*
X145313750Y-90250000D01*
X145581786Y-90250000D01*
X145721820Y-90191996D01*
X145828996Y-90084819D01*
X145887000Y-89944785D01*
X145887000Y-88987250D01*
X145791750Y-88892000D01*
X145218500Y-88892000D01*
X144643500Y-88892000D01*
X144070250Y-88892000D01*
X143975000Y-88987250D01*
X141351000Y-88987250D01*
X141351000Y-87093215D01*
X143975000Y-87093215D01*
X143975000Y-88050750D01*
X144070250Y-88146000D01*
X144643500Y-88146000D01*
X144643500Y-86883250D01*
X145218500Y-86883250D01*
X145218500Y-88146000D01*
X145791750Y-88146000D01*
X145887000Y-88050750D01*
X145887000Y-87093215D01*
X145828996Y-86953181D01*
X145721820Y-86846004D01*
X145581786Y-86788000D01*
X145313750Y-86788000D01*
X145218500Y-86883250D01*
X144643500Y-86883250D01*
X144548250Y-86788000D01*
X144280214Y-86788000D01*
X144140180Y-86846004D01*
X144033004Y-86953181D01*
X143975000Y-87093215D01*
X141351000Y-87093215D01*
X141351000Y-85431250D01*
X143975000Y-85431250D01*
X143975000Y-86388785D01*
X144033004Y-86528819D01*
X144140180Y-86635996D01*
X144280214Y-86694000D01*
X144548250Y-86694000D01*
X144643500Y-86598750D01*
X144643500Y-85336000D01*
X145218500Y-85336000D01*
X145218500Y-86598750D01*
X145313750Y-86694000D01*
X145581786Y-86694000D01*
X145721820Y-86635996D01*
X145828996Y-86528819D01*
X145887000Y-86388785D01*
X145887000Y-85431250D01*
X145791750Y-85336000D01*
X145218500Y-85336000D01*
X144643500Y-85336000D01*
X144070250Y-85336000D01*
X143975000Y-85431250D01*
X141351000Y-85431250D01*
X141351000Y-83537215D01*
X143975000Y-83537215D01*
X143975000Y-84494750D01*
X144070250Y-84590000D01*
X144643500Y-84590000D01*
X144643500Y-83327250D01*
X145218500Y-83327250D01*
X145218500Y-84590000D01*
X145791750Y-84590000D01*
X145887000Y-84494750D01*
X145887000Y-83537215D01*
X145828996Y-83397181D01*
X145721820Y-83290004D01*
X145581786Y-83232000D01*
X145313750Y-83232000D01*
X145218500Y-83327250D01*
X144643500Y-83327250D01*
X144548250Y-83232000D01*
X144280214Y-83232000D01*
X144140180Y-83290004D01*
X144033004Y-83397181D01*
X143975000Y-83537215D01*
X141351000Y-83537215D01*
X141351000Y-81704931D01*
X141520629Y-81704931D01*
X141815605Y-82084012D01*
X142069074Y-82253336D01*
X142248000Y-82225753D01*
X142248000Y-81526000D01*
X142994000Y-81526000D01*
X142994000Y-82225753D01*
X143172926Y-82253336D01*
X143426395Y-82084012D01*
X143721371Y-81704931D01*
X144060629Y-81704931D01*
X144355605Y-82084012D01*
X144609074Y-82253336D01*
X144788000Y-82225753D01*
X144788000Y-81526000D01*
X144083085Y-81526000D01*
X144060629Y-81704931D01*
X143721371Y-81704931D01*
X143698915Y-81526000D01*
X142994000Y-81526000D01*
X142248000Y-81526000D01*
X141543085Y-81526000D01*
X141520629Y-81704931D01*
X141351000Y-81704931D01*
X141351000Y-80601069D01*
X141520629Y-80601069D01*
X141543085Y-80780000D01*
X142248000Y-80780000D01*
X142248000Y-80080247D01*
X142994000Y-80080247D01*
X142994000Y-80780000D01*
X143698915Y-80780000D01*
X143721371Y-80601069D01*
X144060629Y-80601069D01*
X144083085Y-80780000D01*
X144788000Y-80780000D01*
X144788000Y-80080247D01*
X144609074Y-80052664D01*
X144355605Y-80221988D01*
X144060629Y-80601069D01*
X143721371Y-80601069D01*
X143426395Y-80221988D01*
X143172926Y-80052664D01*
X142994000Y-80080247D01*
X142248000Y-80080247D01*
X142069074Y-80052664D01*
X141815605Y-80221988D01*
X141520629Y-80601069D01*
X141351000Y-80601069D01*
X141351000Y-79502000D01*
X145923000Y-79502000D01*
X145923000Y-80192999D01*
G04 #@! TO.N,GND*
G36*
X151511000Y-99441000D02*
X143891000Y-99441000D01*
X143891000Y-98862000D01*
X145962750Y-98862000D01*
X146058000Y-98766750D01*
X146058000Y-97104000D01*
X146804000Y-97104000D01*
X146804000Y-98766750D01*
X146899250Y-98862000D01*
X149206785Y-98862000D01*
X149346819Y-98803996D01*
X149453996Y-98696820D01*
X149512000Y-98556786D01*
X149512000Y-97199250D01*
X149416750Y-97104000D01*
X146804000Y-97104000D01*
X146058000Y-97104000D01*
X146038000Y-97104000D01*
X146038000Y-96358000D01*
X146058000Y-96358000D01*
X146058000Y-96338000D01*
X146804000Y-96338000D01*
X146804000Y-96358000D01*
X149416750Y-96358000D01*
X149512000Y-96262750D01*
X149512000Y-94905214D01*
X149453996Y-94765180D01*
X149346819Y-94658004D01*
X149206785Y-94600000D01*
X146899250Y-94600000D01*
X146804002Y-94695248D01*
X146804002Y-94655389D01*
X146811996Y-94616058D01*
X146829269Y-92543250D01*
X146975000Y-92543250D01*
X146975000Y-93500785D01*
X147033004Y-93640819D01*
X147140180Y-93747996D01*
X147280214Y-93806000D01*
X147548250Y-93806000D01*
X147643500Y-93710750D01*
X147643500Y-92448000D01*
X148218500Y-92448000D01*
X148218500Y-93710750D01*
X148313750Y-93806000D01*
X148581786Y-93806000D01*
X148721820Y-93747996D01*
X148828996Y-93640819D01*
X148887000Y-93500785D01*
X148887000Y-92543250D01*
X148791750Y-92448000D01*
X148218500Y-92448000D01*
X147643500Y-92448000D01*
X147070250Y-92448000D01*
X146975000Y-92543250D01*
X146829269Y-92543250D01*
X146845052Y-90649215D01*
X146975000Y-90649215D01*
X146975000Y-91606750D01*
X147070250Y-91702000D01*
X147643500Y-91702000D01*
X147643500Y-90439250D01*
X148218500Y-90439250D01*
X148218500Y-91702000D01*
X148791750Y-91702000D01*
X148887000Y-91606750D01*
X148887000Y-90649215D01*
X148828996Y-90509181D01*
X148721820Y-90402004D01*
X148581786Y-90344000D01*
X148313750Y-90344000D01*
X148218500Y-90439250D01*
X147643500Y-90439250D01*
X147548250Y-90344000D01*
X147280214Y-90344000D01*
X147140180Y-90402004D01*
X147033004Y-90509181D01*
X146975000Y-90649215D01*
X146845052Y-90649215D01*
X146858901Y-88987250D01*
X146975000Y-88987250D01*
X146975000Y-89944785D01*
X147033004Y-90084819D01*
X147140180Y-90191996D01*
X147280214Y-90250000D01*
X147548250Y-90250000D01*
X147643500Y-90154750D01*
X147643500Y-88892000D01*
X148218500Y-88892000D01*
X148218500Y-90154750D01*
X148313750Y-90250000D01*
X148581786Y-90250000D01*
X148721820Y-90191996D01*
X148828996Y-90084819D01*
X148887000Y-89944785D01*
X148887000Y-88987250D01*
X148791750Y-88892000D01*
X148218500Y-88892000D01*
X147643500Y-88892000D01*
X147070250Y-88892000D01*
X146975000Y-88987250D01*
X146858901Y-88987250D01*
X146874684Y-87093215D01*
X146975000Y-87093215D01*
X146975000Y-88050750D01*
X147070250Y-88146000D01*
X147643500Y-88146000D01*
X147643500Y-86883250D01*
X148218500Y-86883250D01*
X148218500Y-88146000D01*
X148791750Y-88146000D01*
X148887000Y-88050750D01*
X148887000Y-87093215D01*
X148828996Y-86953181D01*
X148721820Y-86846004D01*
X148581786Y-86788000D01*
X148313750Y-86788000D01*
X148218500Y-86883250D01*
X147643500Y-86883250D01*
X147548250Y-86788000D01*
X147280214Y-86788000D01*
X147140180Y-86846004D01*
X147033004Y-86953181D01*
X146975000Y-87093215D01*
X146874684Y-87093215D01*
X146888534Y-85431250D01*
X146975000Y-85431250D01*
X146975000Y-86388785D01*
X147033004Y-86528819D01*
X147140180Y-86635996D01*
X147280214Y-86694000D01*
X147548250Y-86694000D01*
X147643500Y-86598750D01*
X147643500Y-85336000D01*
X148218500Y-85336000D01*
X148218500Y-86598750D01*
X148313750Y-86694000D01*
X148581786Y-86694000D01*
X148721820Y-86635996D01*
X148828996Y-86528819D01*
X148887000Y-86388785D01*
X148887000Y-85431250D01*
X148791750Y-85336000D01*
X148218500Y-85336000D01*
X147643500Y-85336000D01*
X147070250Y-85336000D01*
X146975000Y-85431250D01*
X146888534Y-85431250D01*
X146904318Y-83537215D01*
X146975000Y-83537215D01*
X146975000Y-84494750D01*
X147070250Y-84590000D01*
X147643500Y-84590000D01*
X147643500Y-83327250D01*
X148218500Y-83327250D01*
X148218500Y-84590000D01*
X148791750Y-84590000D01*
X148887000Y-84494750D01*
X148887000Y-83537215D01*
X148828996Y-83397181D01*
X148721820Y-83290004D01*
X148581786Y-83232000D01*
X148313750Y-83232000D01*
X148218500Y-83327250D01*
X147643500Y-83327250D01*
X147548250Y-83232000D01*
X147280214Y-83232000D01*
X147140180Y-83290004D01*
X147033004Y-83397181D01*
X146975000Y-83537215D01*
X146904318Y-83537215D01*
X146916314Y-82097846D01*
X147149074Y-82253336D01*
X147328000Y-82225753D01*
X147328000Y-81526000D01*
X148074000Y-81526000D01*
X148074000Y-82225753D01*
X148252926Y-82253336D01*
X148506395Y-82084012D01*
X148801371Y-81704931D01*
X148790869Y-81621250D01*
X149010000Y-81621250D01*
X149010000Y-82078786D01*
X149068004Y-82218820D01*
X149175181Y-82325996D01*
X149315215Y-82384000D01*
X149772750Y-82384000D01*
X149868000Y-82288750D01*
X149868000Y-81526000D01*
X150614000Y-81526000D01*
X150614000Y-82288750D01*
X150709250Y-82384000D01*
X151166785Y-82384000D01*
X151306819Y-82325996D01*
X151413996Y-82218820D01*
X151472000Y-82078786D01*
X151472000Y-81621250D01*
X151376750Y-81526000D01*
X150614000Y-81526000D01*
X149868000Y-81526000D01*
X149105250Y-81526000D01*
X149010000Y-81621250D01*
X148790869Y-81621250D01*
X148778915Y-81526000D01*
X148074000Y-81526000D01*
X147328000Y-81526000D01*
X147308000Y-81526000D01*
X147308000Y-80780000D01*
X147328000Y-80780000D01*
X147328000Y-80080247D01*
X148074000Y-80080247D01*
X148074000Y-80780000D01*
X148778915Y-80780000D01*
X148801371Y-80601069D01*
X148510462Y-80227214D01*
X149010000Y-80227214D01*
X149010000Y-80684750D01*
X149105250Y-80780000D01*
X149868000Y-80780000D01*
X149868000Y-80017250D01*
X150614000Y-80017250D01*
X150614000Y-80780000D01*
X151376750Y-80780000D01*
X151472000Y-80684750D01*
X151472000Y-80227214D01*
X151413996Y-80087180D01*
X151306819Y-79980004D01*
X151166785Y-79922000D01*
X150709250Y-79922000D01*
X150614000Y-80017250D01*
X149868000Y-80017250D01*
X149772750Y-79922000D01*
X149315215Y-79922000D01*
X149175181Y-79980004D01*
X149068004Y-80087180D01*
X149010000Y-80227214D01*
X148510462Y-80227214D01*
X148506395Y-80221988D01*
X148252926Y-80052664D01*
X148074000Y-80080247D01*
X147328000Y-80080247D01*
X147149074Y-80052664D01*
X146932150Y-80197575D01*
X146937946Y-79502000D01*
X151511000Y-79502000D01*
X151511000Y-99441000D01*
X151511000Y-99441000D01*
G37*
X151511000Y-99441000D02*
X143891000Y-99441000D01*
X143891000Y-98862000D01*
X145962750Y-98862000D01*
X146058000Y-98766750D01*
X146058000Y-97104000D01*
X146804000Y-97104000D01*
X146804000Y-98766750D01*
X146899250Y-98862000D01*
X149206785Y-98862000D01*
X149346819Y-98803996D01*
X149453996Y-98696820D01*
X149512000Y-98556786D01*
X149512000Y-97199250D01*
X149416750Y-97104000D01*
X146804000Y-97104000D01*
X146058000Y-97104000D01*
X146038000Y-97104000D01*
X146038000Y-96358000D01*
X146058000Y-96358000D01*
X146058000Y-96338000D01*
X146804000Y-96338000D01*
X146804000Y-96358000D01*
X149416750Y-96358000D01*
X149512000Y-96262750D01*
X149512000Y-94905214D01*
X149453996Y-94765180D01*
X149346819Y-94658004D01*
X149206785Y-94600000D01*
X146899250Y-94600000D01*
X146804002Y-94695248D01*
X146804002Y-94655389D01*
X146811996Y-94616058D01*
X146829269Y-92543250D01*
X146975000Y-92543250D01*
X146975000Y-93500785D01*
X147033004Y-93640819D01*
X147140180Y-93747996D01*
X147280214Y-93806000D01*
X147548250Y-93806000D01*
X147643500Y-93710750D01*
X147643500Y-92448000D01*
X148218500Y-92448000D01*
X148218500Y-93710750D01*
X148313750Y-93806000D01*
X148581786Y-93806000D01*
X148721820Y-93747996D01*
X148828996Y-93640819D01*
X148887000Y-93500785D01*
X148887000Y-92543250D01*
X148791750Y-92448000D01*
X148218500Y-92448000D01*
X147643500Y-92448000D01*
X147070250Y-92448000D01*
X146975000Y-92543250D01*
X146829269Y-92543250D01*
X146845052Y-90649215D01*
X146975000Y-90649215D01*
X146975000Y-91606750D01*
X147070250Y-91702000D01*
X147643500Y-91702000D01*
X147643500Y-90439250D01*
X148218500Y-90439250D01*
X148218500Y-91702000D01*
X148791750Y-91702000D01*
X148887000Y-91606750D01*
X148887000Y-90649215D01*
X148828996Y-90509181D01*
X148721820Y-90402004D01*
X148581786Y-90344000D01*
X148313750Y-90344000D01*
X148218500Y-90439250D01*
X147643500Y-90439250D01*
X147548250Y-90344000D01*
X147280214Y-90344000D01*
X147140180Y-90402004D01*
X147033004Y-90509181D01*
X146975000Y-90649215D01*
X146845052Y-90649215D01*
X146858901Y-88987250D01*
X146975000Y-88987250D01*
X146975000Y-89944785D01*
X147033004Y-90084819D01*
X147140180Y-90191996D01*
X147280214Y-90250000D01*
X147548250Y-90250000D01*
X147643500Y-90154750D01*
X147643500Y-88892000D01*
X148218500Y-88892000D01*
X148218500Y-90154750D01*
X148313750Y-90250000D01*
X148581786Y-90250000D01*
X148721820Y-90191996D01*
X148828996Y-90084819D01*
X148887000Y-89944785D01*
X148887000Y-88987250D01*
X148791750Y-88892000D01*
X148218500Y-88892000D01*
X147643500Y-88892000D01*
X147070250Y-88892000D01*
X146975000Y-88987250D01*
X146858901Y-88987250D01*
X146874684Y-87093215D01*
X146975000Y-87093215D01*
X146975000Y-88050750D01*
X147070250Y-88146000D01*
X147643500Y-88146000D01*
X147643500Y-86883250D01*
X148218500Y-86883250D01*
X148218500Y-88146000D01*
X148791750Y-88146000D01*
X148887000Y-88050750D01*
X148887000Y-87093215D01*
X148828996Y-86953181D01*
X148721820Y-86846004D01*
X148581786Y-86788000D01*
X148313750Y-86788000D01*
X148218500Y-86883250D01*
X147643500Y-86883250D01*
X147548250Y-86788000D01*
X147280214Y-86788000D01*
X147140180Y-86846004D01*
X147033004Y-86953181D01*
X146975000Y-87093215D01*
X146874684Y-87093215D01*
X146888534Y-85431250D01*
X146975000Y-85431250D01*
X146975000Y-86388785D01*
X147033004Y-86528819D01*
X147140180Y-86635996D01*
X147280214Y-86694000D01*
X147548250Y-86694000D01*
X147643500Y-86598750D01*
X147643500Y-85336000D01*
X148218500Y-85336000D01*
X148218500Y-86598750D01*
X148313750Y-86694000D01*
X148581786Y-86694000D01*
X148721820Y-86635996D01*
X148828996Y-86528819D01*
X148887000Y-86388785D01*
X148887000Y-85431250D01*
X148791750Y-85336000D01*
X148218500Y-85336000D01*
X147643500Y-85336000D01*
X147070250Y-85336000D01*
X146975000Y-85431250D01*
X146888534Y-85431250D01*
X146904318Y-83537215D01*
X146975000Y-83537215D01*
X146975000Y-84494750D01*
X147070250Y-84590000D01*
X147643500Y-84590000D01*
X147643500Y-83327250D01*
X148218500Y-83327250D01*
X148218500Y-84590000D01*
X148791750Y-84590000D01*
X148887000Y-84494750D01*
X148887000Y-83537215D01*
X148828996Y-83397181D01*
X148721820Y-83290004D01*
X148581786Y-83232000D01*
X148313750Y-83232000D01*
X148218500Y-83327250D01*
X147643500Y-83327250D01*
X147548250Y-83232000D01*
X147280214Y-83232000D01*
X147140180Y-83290004D01*
X147033004Y-83397181D01*
X146975000Y-83537215D01*
X146904318Y-83537215D01*
X146916314Y-82097846D01*
X147149074Y-82253336D01*
X147328000Y-82225753D01*
X147328000Y-81526000D01*
X148074000Y-81526000D01*
X148074000Y-82225753D01*
X148252926Y-82253336D01*
X148506395Y-82084012D01*
X148801371Y-81704931D01*
X148790869Y-81621250D01*
X149010000Y-81621250D01*
X149010000Y-82078786D01*
X149068004Y-82218820D01*
X149175181Y-82325996D01*
X149315215Y-82384000D01*
X149772750Y-82384000D01*
X149868000Y-82288750D01*
X149868000Y-81526000D01*
X150614000Y-81526000D01*
X150614000Y-82288750D01*
X150709250Y-82384000D01*
X151166785Y-82384000D01*
X151306819Y-82325996D01*
X151413996Y-82218820D01*
X151472000Y-82078786D01*
X151472000Y-81621250D01*
X151376750Y-81526000D01*
X150614000Y-81526000D01*
X149868000Y-81526000D01*
X149105250Y-81526000D01*
X149010000Y-81621250D01*
X148790869Y-81621250D01*
X148778915Y-81526000D01*
X148074000Y-81526000D01*
X147328000Y-81526000D01*
X147308000Y-81526000D01*
X147308000Y-80780000D01*
X147328000Y-80780000D01*
X147328000Y-80080247D01*
X148074000Y-80080247D01*
X148074000Y-80780000D01*
X148778915Y-80780000D01*
X148801371Y-80601069D01*
X148510462Y-80227214D01*
X149010000Y-80227214D01*
X149010000Y-80684750D01*
X149105250Y-80780000D01*
X149868000Y-80780000D01*
X149868000Y-80017250D01*
X150614000Y-80017250D01*
X150614000Y-80780000D01*
X151376750Y-80780000D01*
X151472000Y-80684750D01*
X151472000Y-80227214D01*
X151413996Y-80087180D01*
X151306819Y-79980004D01*
X151166785Y-79922000D01*
X150709250Y-79922000D01*
X150614000Y-80017250D01*
X149868000Y-80017250D01*
X149772750Y-79922000D01*
X149315215Y-79922000D01*
X149175181Y-79980004D01*
X149068004Y-80087180D01*
X149010000Y-80227214D01*
X148510462Y-80227214D01*
X148506395Y-80221988D01*
X148252926Y-80052664D01*
X148074000Y-80080247D01*
X147328000Y-80080247D01*
X147149074Y-80052664D01*
X146932150Y-80197575D01*
X146937946Y-79502000D01*
X151511000Y-79502000D01*
X151511000Y-99441000D01*
G36*
X131699000Y-80192999D02*
X131488926Y-80052664D01*
X131310000Y-80080247D01*
X131310000Y-80780000D01*
X131330000Y-80780000D01*
X131330000Y-81526000D01*
X131310000Y-81526000D01*
X131310000Y-82225753D01*
X131488926Y-82253336D01*
X131699000Y-82113001D01*
X131699000Y-93726000D01*
X131519816Y-93726000D01*
X131604996Y-93640819D01*
X131663000Y-93500785D01*
X131663000Y-92543250D01*
X131567750Y-92448000D01*
X130994500Y-92448000D01*
X130994500Y-92468000D01*
X130419500Y-92468000D01*
X130419500Y-92448000D01*
X129846250Y-92448000D01*
X129751000Y-92543250D01*
X129751000Y-93500785D01*
X129809004Y-93640819D01*
X129894184Y-93726000D01*
X129413000Y-93726000D01*
X129413000Y-92710000D01*
X129403333Y-92661399D01*
X129375803Y-92620197D01*
X129334601Y-92592667D01*
X129286000Y-92583000D01*
X127127000Y-92583000D01*
X127127000Y-90649215D01*
X129751000Y-90649215D01*
X129751000Y-91606750D01*
X129846250Y-91702000D01*
X130419500Y-91702000D01*
X130419500Y-90439250D01*
X130994500Y-90439250D01*
X130994500Y-91702000D01*
X131567750Y-91702000D01*
X131663000Y-91606750D01*
X131663000Y-90649215D01*
X131604996Y-90509181D01*
X131497820Y-90402004D01*
X131357786Y-90344000D01*
X131089750Y-90344000D01*
X130994500Y-90439250D01*
X130419500Y-90439250D01*
X130324250Y-90344000D01*
X130056214Y-90344000D01*
X129916180Y-90402004D01*
X129809004Y-90509181D01*
X129751000Y-90649215D01*
X127127000Y-90649215D01*
X127127000Y-88987250D01*
X129751000Y-88987250D01*
X129751000Y-89944785D01*
X129809004Y-90084819D01*
X129916180Y-90191996D01*
X130056214Y-90250000D01*
X130324250Y-90250000D01*
X130419500Y-90154750D01*
X130419500Y-88892000D01*
X130994500Y-88892000D01*
X130994500Y-90154750D01*
X131089750Y-90250000D01*
X131357786Y-90250000D01*
X131497820Y-90191996D01*
X131604996Y-90084819D01*
X131663000Y-89944785D01*
X131663000Y-88987250D01*
X131567750Y-88892000D01*
X130994500Y-88892000D01*
X130419500Y-88892000D01*
X129846250Y-88892000D01*
X129751000Y-88987250D01*
X127127000Y-88987250D01*
X127127000Y-87093215D01*
X129751000Y-87093215D01*
X129751000Y-88050750D01*
X129846250Y-88146000D01*
X130419500Y-88146000D01*
X130419500Y-86883250D01*
X130994500Y-86883250D01*
X130994500Y-88146000D01*
X131567750Y-88146000D01*
X131663000Y-88050750D01*
X131663000Y-87093215D01*
X131604996Y-86953181D01*
X131497820Y-86846004D01*
X131357786Y-86788000D01*
X131089750Y-86788000D01*
X130994500Y-86883250D01*
X130419500Y-86883250D01*
X130324250Y-86788000D01*
X130056214Y-86788000D01*
X129916180Y-86846004D01*
X129809004Y-86953181D01*
X129751000Y-87093215D01*
X127127000Y-87093215D01*
X127127000Y-85926765D01*
X127960736Y-85926765D01*
X128057391Y-86065017D01*
X128504966Y-86111093D01*
X128736609Y-86065017D01*
X128833264Y-85926765D01*
X128397000Y-85490502D01*
X127960736Y-85926765D01*
X127127000Y-85926765D01*
X127127000Y-85431250D01*
X129751000Y-85431250D01*
X129751000Y-86388785D01*
X129809004Y-86528819D01*
X129916180Y-86635996D01*
X130056214Y-86694000D01*
X130324250Y-86694000D01*
X130419500Y-86598750D01*
X130419500Y-85336000D01*
X130994500Y-85336000D01*
X130994500Y-86598750D01*
X131089750Y-86694000D01*
X131357786Y-86694000D01*
X131497820Y-86635996D01*
X131604996Y-86528819D01*
X131663000Y-86388785D01*
X131663000Y-85431250D01*
X131567750Y-85336000D01*
X130994500Y-85336000D01*
X130419500Y-85336000D01*
X129846250Y-85336000D01*
X129751000Y-85431250D01*
X127127000Y-85431250D01*
X127127000Y-85070966D01*
X127248907Y-85070966D01*
X127294983Y-85302609D01*
X127433235Y-85399264D01*
X127869498Y-84963000D01*
X128924502Y-84963000D01*
X129360765Y-85399264D01*
X129499017Y-85302609D01*
X129545093Y-84855034D01*
X129499017Y-84623391D01*
X129360765Y-84526736D01*
X128924502Y-84963000D01*
X127869498Y-84963000D01*
X127433235Y-84526736D01*
X127294983Y-84623391D01*
X127248907Y-85070966D01*
X127127000Y-85070966D01*
X127127000Y-83999235D01*
X127960736Y-83999235D01*
X128397000Y-84435498D01*
X128833264Y-83999235D01*
X128736609Y-83860983D01*
X128289034Y-83814907D01*
X128057391Y-83860983D01*
X127960736Y-83999235D01*
X127127000Y-83999235D01*
X127127000Y-83537215D01*
X129751000Y-83537215D01*
X129751000Y-84494750D01*
X129846250Y-84590000D01*
X130419500Y-84590000D01*
X130419500Y-83327250D01*
X130994500Y-83327250D01*
X130994500Y-84590000D01*
X131567750Y-84590000D01*
X131663000Y-84494750D01*
X131663000Y-83537215D01*
X131604996Y-83397181D01*
X131497820Y-83290004D01*
X131357786Y-83232000D01*
X131089750Y-83232000D01*
X130994500Y-83327250D01*
X130419500Y-83327250D01*
X130324250Y-83232000D01*
X130056214Y-83232000D01*
X129916180Y-83290004D01*
X129809004Y-83397181D01*
X129751000Y-83537215D01*
X127127000Y-83537215D01*
X127127000Y-81621250D01*
X127166000Y-81621250D01*
X127166000Y-82078786D01*
X127224004Y-82218820D01*
X127331181Y-82325996D01*
X127471215Y-82384000D01*
X127928750Y-82384000D01*
X128024000Y-82288750D01*
X128024000Y-81526000D01*
X128770000Y-81526000D01*
X128770000Y-82288750D01*
X128865250Y-82384000D01*
X129322785Y-82384000D01*
X129462819Y-82325996D01*
X129569996Y-82218820D01*
X129628000Y-82078786D01*
X129628000Y-81704931D01*
X129836629Y-81704931D01*
X130131605Y-82084012D01*
X130385074Y-82253336D01*
X130564000Y-82225753D01*
X130564000Y-81526000D01*
X129859085Y-81526000D01*
X129836629Y-81704931D01*
X129628000Y-81704931D01*
X129628000Y-81621250D01*
X129532750Y-81526000D01*
X128770000Y-81526000D01*
X128024000Y-81526000D01*
X127261250Y-81526000D01*
X127166000Y-81621250D01*
X127127000Y-81621250D01*
X127127000Y-80227214D01*
X127166000Y-80227214D01*
X127166000Y-80684750D01*
X127261250Y-80780000D01*
X128024000Y-80780000D01*
X128024000Y-80017250D01*
X128770000Y-80017250D01*
X128770000Y-80780000D01*
X129532750Y-80780000D01*
X129628000Y-80684750D01*
X129628000Y-80601069D01*
X129836629Y-80601069D01*
X129859085Y-80780000D01*
X130564000Y-80780000D01*
X130564000Y-80080247D01*
X130385074Y-80052664D01*
X130131605Y-80221988D01*
X129836629Y-80601069D01*
X129628000Y-80601069D01*
X129628000Y-80227214D01*
X129569996Y-80087180D01*
X129462819Y-79980004D01*
X129322785Y-79922000D01*
X128865250Y-79922000D01*
X128770000Y-80017250D01*
X128024000Y-80017250D01*
X127928750Y-79922000D01*
X127471215Y-79922000D01*
X127331181Y-79980004D01*
X127224004Y-80087180D01*
X127166000Y-80227214D01*
X127127000Y-80227214D01*
X127127000Y-79502000D01*
X131699000Y-79502000D01*
X131699000Y-80192999D01*
X131699000Y-80192999D01*
G37*
X131699000Y-80192999D02*
X131488926Y-80052664D01*
X131310000Y-80080247D01*
X131310000Y-80780000D01*
X131330000Y-80780000D01*
X131330000Y-81526000D01*
X131310000Y-81526000D01*
X131310000Y-82225753D01*
X131488926Y-82253336D01*
X131699000Y-82113001D01*
X131699000Y-93726000D01*
X131519816Y-93726000D01*
X131604996Y-93640819D01*
X131663000Y-93500785D01*
X131663000Y-92543250D01*
X131567750Y-92448000D01*
X130994500Y-92448000D01*
X130994500Y-92468000D01*
X130419500Y-92468000D01*
X130419500Y-92448000D01*
X129846250Y-92448000D01*
X129751000Y-92543250D01*
X129751000Y-93500785D01*
X129809004Y-93640819D01*
X129894184Y-93726000D01*
X129413000Y-93726000D01*
X129413000Y-92710000D01*
X129403333Y-92661399D01*
X129375803Y-92620197D01*
X129334601Y-92592667D01*
X129286000Y-92583000D01*
X127127000Y-92583000D01*
X127127000Y-90649215D01*
X129751000Y-90649215D01*
X129751000Y-91606750D01*
X129846250Y-91702000D01*
X130419500Y-91702000D01*
X130419500Y-90439250D01*
X130994500Y-90439250D01*
X130994500Y-91702000D01*
X131567750Y-91702000D01*
X131663000Y-91606750D01*
X131663000Y-90649215D01*
X131604996Y-90509181D01*
X131497820Y-90402004D01*
X131357786Y-90344000D01*
X131089750Y-90344000D01*
X130994500Y-90439250D01*
X130419500Y-90439250D01*
X130324250Y-90344000D01*
X130056214Y-90344000D01*
X129916180Y-90402004D01*
X129809004Y-90509181D01*
X129751000Y-90649215D01*
X127127000Y-90649215D01*
X127127000Y-88987250D01*
X129751000Y-88987250D01*
X129751000Y-89944785D01*
X129809004Y-90084819D01*
X129916180Y-90191996D01*
X130056214Y-90250000D01*
X130324250Y-90250000D01*
X130419500Y-90154750D01*
X130419500Y-88892000D01*
X130994500Y-88892000D01*
X130994500Y-90154750D01*
X131089750Y-90250000D01*
X131357786Y-90250000D01*
X131497820Y-90191996D01*
X131604996Y-90084819D01*
X131663000Y-89944785D01*
X131663000Y-88987250D01*
X131567750Y-88892000D01*
X130994500Y-88892000D01*
X130419500Y-88892000D01*
X129846250Y-88892000D01*
X129751000Y-88987250D01*
X127127000Y-88987250D01*
X127127000Y-87093215D01*
X129751000Y-87093215D01*
X129751000Y-88050750D01*
X129846250Y-88146000D01*
X130419500Y-88146000D01*
X130419500Y-86883250D01*
X130994500Y-86883250D01*
X130994500Y-88146000D01*
X131567750Y-88146000D01*
X131663000Y-88050750D01*
X131663000Y-87093215D01*
X131604996Y-86953181D01*
X131497820Y-86846004D01*
X131357786Y-86788000D01*
X131089750Y-86788000D01*
X130994500Y-86883250D01*
X130419500Y-86883250D01*
X130324250Y-86788000D01*
X130056214Y-86788000D01*
X129916180Y-86846004D01*
X129809004Y-86953181D01*
X129751000Y-87093215D01*
X127127000Y-87093215D01*
X127127000Y-85926765D01*
X127960736Y-85926765D01*
X128057391Y-86065017D01*
X128504966Y-86111093D01*
X128736609Y-86065017D01*
X128833264Y-85926765D01*
X128397000Y-85490502D01*
X127960736Y-85926765D01*
X127127000Y-85926765D01*
X127127000Y-85431250D01*
X129751000Y-85431250D01*
X129751000Y-86388785D01*
X129809004Y-86528819D01*
X129916180Y-86635996D01*
X130056214Y-86694000D01*
X130324250Y-86694000D01*
X130419500Y-86598750D01*
X130419500Y-85336000D01*
X130994500Y-85336000D01*
X130994500Y-86598750D01*
X131089750Y-86694000D01*
X131357786Y-86694000D01*
X131497820Y-86635996D01*
X131604996Y-86528819D01*
X131663000Y-86388785D01*
X131663000Y-85431250D01*
X131567750Y-85336000D01*
X130994500Y-85336000D01*
X130419500Y-85336000D01*
X129846250Y-85336000D01*
X129751000Y-85431250D01*
X127127000Y-85431250D01*
X127127000Y-85070966D01*
X127248907Y-85070966D01*
X127294983Y-85302609D01*
X127433235Y-85399264D01*
X127869498Y-84963000D01*
X128924502Y-84963000D01*
X129360765Y-85399264D01*
X129499017Y-85302609D01*
X129545093Y-84855034D01*
X129499017Y-84623391D01*
X129360765Y-84526736D01*
X128924502Y-84963000D01*
X127869498Y-84963000D01*
X127433235Y-84526736D01*
X127294983Y-84623391D01*
X127248907Y-85070966D01*
X127127000Y-85070966D01*
X127127000Y-83999235D01*
X127960736Y-83999235D01*
X128397000Y-84435498D01*
X128833264Y-83999235D01*
X128736609Y-83860983D01*
X128289034Y-83814907D01*
X128057391Y-83860983D01*
X127960736Y-83999235D01*
X127127000Y-83999235D01*
X127127000Y-83537215D01*
X129751000Y-83537215D01*
X129751000Y-84494750D01*
X129846250Y-84590000D01*
X130419500Y-84590000D01*
X130419500Y-83327250D01*
X130994500Y-83327250D01*
X130994500Y-84590000D01*
X131567750Y-84590000D01*
X131663000Y-84494750D01*
X131663000Y-83537215D01*
X131604996Y-83397181D01*
X131497820Y-83290004D01*
X131357786Y-83232000D01*
X131089750Y-83232000D01*
X130994500Y-83327250D01*
X130419500Y-83327250D01*
X130324250Y-83232000D01*
X130056214Y-83232000D01*
X129916180Y-83290004D01*
X129809004Y-83397181D01*
X129751000Y-83537215D01*
X127127000Y-83537215D01*
X127127000Y-81621250D01*
X127166000Y-81621250D01*
X127166000Y-82078786D01*
X127224004Y-82218820D01*
X127331181Y-82325996D01*
X127471215Y-82384000D01*
X127928750Y-82384000D01*
X128024000Y-82288750D01*
X128024000Y-81526000D01*
X128770000Y-81526000D01*
X128770000Y-82288750D01*
X128865250Y-82384000D01*
X129322785Y-82384000D01*
X129462819Y-82325996D01*
X129569996Y-82218820D01*
X129628000Y-82078786D01*
X129628000Y-81704931D01*
X129836629Y-81704931D01*
X130131605Y-82084012D01*
X130385074Y-82253336D01*
X130564000Y-82225753D01*
X130564000Y-81526000D01*
X129859085Y-81526000D01*
X129836629Y-81704931D01*
X129628000Y-81704931D01*
X129628000Y-81621250D01*
X129532750Y-81526000D01*
X128770000Y-81526000D01*
X128024000Y-81526000D01*
X127261250Y-81526000D01*
X127166000Y-81621250D01*
X127127000Y-81621250D01*
X127127000Y-80227214D01*
X127166000Y-80227214D01*
X127166000Y-80684750D01*
X127261250Y-80780000D01*
X128024000Y-80780000D01*
X128024000Y-80017250D01*
X128770000Y-80017250D01*
X128770000Y-80780000D01*
X129532750Y-80780000D01*
X129628000Y-80684750D01*
X129628000Y-80601069D01*
X129836629Y-80601069D01*
X129859085Y-80780000D01*
X130564000Y-80780000D01*
X130564000Y-80080247D01*
X130385074Y-80052664D01*
X130131605Y-80221988D01*
X129836629Y-80601069D01*
X129628000Y-80601069D01*
X129628000Y-80227214D01*
X129569996Y-80087180D01*
X129462819Y-79980004D01*
X129322785Y-79922000D01*
X128865250Y-79922000D01*
X128770000Y-80017250D01*
X128024000Y-80017250D01*
X127928750Y-79922000D01*
X127471215Y-79922000D01*
X127331181Y-79980004D01*
X127224004Y-80087180D01*
X127166000Y-80227214D01*
X127127000Y-80227214D01*
X127127000Y-79502000D01*
X131699000Y-79502000D01*
X131699000Y-80192999D01*
G04 #@! TO.N,GNDPAD*
G36*
X129831197Y-100546803D02*
X129872399Y-100574333D01*
X129921000Y-100584000D01*
X134747000Y-100584000D01*
X134747000Y-103378000D01*
X129921000Y-103378000D01*
X129872399Y-103387667D01*
X129831197Y-103415197D01*
X128090394Y-105156000D01*
X126551658Y-105156000D01*
X126492000Y-105096342D01*
X126492000Y-98806000D01*
X128090394Y-98806000D01*
X129831197Y-100546803D01*
X129831197Y-100546803D01*
G37*
X129831197Y-100546803D02*
X129872399Y-100574333D01*
X129921000Y-100584000D01*
X134747000Y-100584000D01*
X134747000Y-103378000D01*
X129921000Y-103378000D01*
X129872399Y-103387667D01*
X129831197Y-103415197D01*
X128090394Y-105156000D01*
X126551658Y-105156000D01*
X126492000Y-105096342D01*
X126492000Y-98806000D01*
X128090394Y-98806000D01*
X129831197Y-100546803D01*
G04 #@! TO.N,Net-(C5-Pad2)*
G36*
X143547197Y-104610803D02*
X143588399Y-104638333D01*
X143637000Y-104648000D01*
X151511000Y-104648000D01*
X151511000Y-109601000D01*
X139625606Y-109601000D01*
X137723856Y-107699250D01*
X143350000Y-107699250D01*
X143350000Y-109056786D01*
X143408004Y-109196820D01*
X143515181Y-109303996D01*
X143655215Y-109362000D01*
X145962750Y-109362000D01*
X146058000Y-109266750D01*
X146058000Y-107604000D01*
X146804000Y-107604000D01*
X146804000Y-109266750D01*
X146899250Y-109362000D01*
X149206785Y-109362000D01*
X149346819Y-109303996D01*
X149453996Y-109196820D01*
X149512000Y-109056786D01*
X149512000Y-107699250D01*
X149416750Y-107604000D01*
X146804000Y-107604000D01*
X146058000Y-107604000D01*
X143445250Y-107604000D01*
X143350000Y-107699250D01*
X137723856Y-107699250D01*
X136106803Y-106082197D01*
X136065601Y-106054667D01*
X136017000Y-106045000D01*
X133604000Y-106045000D01*
X133604000Y-105782235D01*
X133736215Y-105837000D01*
X133866750Y-105837000D01*
X133962000Y-105741750D01*
X133962000Y-105054000D01*
X134262000Y-105054000D01*
X134262000Y-105741750D01*
X134357250Y-105837000D01*
X134487785Y-105837000D01*
X134627819Y-105778996D01*
X134734996Y-105671820D01*
X134793000Y-105531786D01*
X134793000Y-105149250D01*
X134697750Y-105054000D01*
X134262000Y-105054000D01*
X133962000Y-105054000D01*
X133812000Y-105054000D01*
X133812000Y-104449250D01*
X136260000Y-104449250D01*
X136260000Y-105306786D01*
X136318004Y-105446820D01*
X136425181Y-105553996D01*
X136565215Y-105612000D01*
X137072750Y-105612000D01*
X137168000Y-105516750D01*
X137168000Y-104354000D01*
X137914000Y-104354000D01*
X137914000Y-105516750D01*
X138009250Y-105612000D01*
X138516785Y-105612000D01*
X138656819Y-105553996D01*
X138763996Y-105446820D01*
X138781229Y-105405214D01*
X143350000Y-105405214D01*
X143350000Y-106762750D01*
X143445250Y-106858000D01*
X146058000Y-106858000D01*
X146058000Y-105195250D01*
X146804000Y-105195250D01*
X146804000Y-106858000D01*
X149416750Y-106858000D01*
X149512000Y-106762750D01*
X149512000Y-105405214D01*
X149453996Y-105265180D01*
X149346819Y-105158004D01*
X149206785Y-105100000D01*
X146899250Y-105100000D01*
X146804000Y-105195250D01*
X146058000Y-105195250D01*
X145962750Y-105100000D01*
X143655215Y-105100000D01*
X143515181Y-105158004D01*
X143408004Y-105265180D01*
X143350000Y-105405214D01*
X138781229Y-105405214D01*
X138822000Y-105306786D01*
X138822000Y-104449250D01*
X138726750Y-104354000D01*
X137914000Y-104354000D01*
X137168000Y-104354000D01*
X136355250Y-104354000D01*
X136260000Y-104449250D01*
X133812000Y-104449250D01*
X133812000Y-104308000D01*
X133962000Y-104308000D01*
X133962000Y-104288000D01*
X134262000Y-104288000D01*
X134262000Y-104308000D01*
X134697750Y-104308000D01*
X134738750Y-104267000D01*
X135255000Y-104267000D01*
X135303601Y-104257333D01*
X135344803Y-104229803D01*
X136260000Y-103314606D01*
X136260000Y-103512750D01*
X136355250Y-103608000D01*
X137168000Y-103608000D01*
X137168000Y-103588000D01*
X137914000Y-103588000D01*
X137914000Y-103608000D01*
X138726750Y-103608000D01*
X138822000Y-103512750D01*
X138822000Y-102655214D01*
X138763996Y-102515180D01*
X138737816Y-102489000D01*
X141425394Y-102489000D01*
X143547197Y-104610803D01*
X143547197Y-104610803D01*
G37*
X143547197Y-104610803D02*
X143588399Y-104638333D01*
X143637000Y-104648000D01*
X151511000Y-104648000D01*
X151511000Y-109601000D01*
X139625606Y-109601000D01*
X137723856Y-107699250D01*
X143350000Y-107699250D01*
X143350000Y-109056786D01*
X143408004Y-109196820D01*
X143515181Y-109303996D01*
X143655215Y-109362000D01*
X145962750Y-109362000D01*
X146058000Y-109266750D01*
X146058000Y-107604000D01*
X146804000Y-107604000D01*
X146804000Y-109266750D01*
X146899250Y-109362000D01*
X149206785Y-109362000D01*
X149346819Y-109303996D01*
X149453996Y-109196820D01*
X149512000Y-109056786D01*
X149512000Y-107699250D01*
X149416750Y-107604000D01*
X146804000Y-107604000D01*
X146058000Y-107604000D01*
X143445250Y-107604000D01*
X143350000Y-107699250D01*
X137723856Y-107699250D01*
X136106803Y-106082197D01*
X136065601Y-106054667D01*
X136017000Y-106045000D01*
X133604000Y-106045000D01*
X133604000Y-105782235D01*
X133736215Y-105837000D01*
X133866750Y-105837000D01*
X133962000Y-105741750D01*
X133962000Y-105054000D01*
X134262000Y-105054000D01*
X134262000Y-105741750D01*
X134357250Y-105837000D01*
X134487785Y-105837000D01*
X134627819Y-105778996D01*
X134734996Y-105671820D01*
X134793000Y-105531786D01*
X134793000Y-105149250D01*
X134697750Y-105054000D01*
X134262000Y-105054000D01*
X133962000Y-105054000D01*
X133812000Y-105054000D01*
X133812000Y-104449250D01*
X136260000Y-104449250D01*
X136260000Y-105306786D01*
X136318004Y-105446820D01*
X136425181Y-105553996D01*
X136565215Y-105612000D01*
X137072750Y-105612000D01*
X137168000Y-105516750D01*
X137168000Y-104354000D01*
X137914000Y-104354000D01*
X137914000Y-105516750D01*
X138009250Y-105612000D01*
X138516785Y-105612000D01*
X138656819Y-105553996D01*
X138763996Y-105446820D01*
X138781229Y-105405214D01*
X143350000Y-105405214D01*
X143350000Y-106762750D01*
X143445250Y-106858000D01*
X146058000Y-106858000D01*
X146058000Y-105195250D01*
X146804000Y-105195250D01*
X146804000Y-106858000D01*
X149416750Y-106858000D01*
X149512000Y-106762750D01*
X149512000Y-105405214D01*
X149453996Y-105265180D01*
X149346819Y-105158004D01*
X149206785Y-105100000D01*
X146899250Y-105100000D01*
X146804000Y-105195250D01*
X146058000Y-105195250D01*
X145962750Y-105100000D01*
X143655215Y-105100000D01*
X143515181Y-105158004D01*
X143408004Y-105265180D01*
X143350000Y-105405214D01*
X138781229Y-105405214D01*
X138822000Y-105306786D01*
X138822000Y-104449250D01*
X138726750Y-104354000D01*
X137914000Y-104354000D01*
X137168000Y-104354000D01*
X136355250Y-104354000D01*
X136260000Y-104449250D01*
X133812000Y-104449250D01*
X133812000Y-104308000D01*
X133962000Y-104308000D01*
X133962000Y-104288000D01*
X134262000Y-104288000D01*
X134262000Y-104308000D01*
X134697750Y-104308000D01*
X134738750Y-104267000D01*
X135255000Y-104267000D01*
X135303601Y-104257333D01*
X135344803Y-104229803D01*
X136260000Y-103314606D01*
X136260000Y-103512750D01*
X136355250Y-103608000D01*
X137168000Y-103608000D01*
X137168000Y-103588000D01*
X137914000Y-103588000D01*
X137914000Y-103608000D01*
X138726750Y-103608000D01*
X138822000Y-103512750D01*
X138822000Y-102655214D01*
X138763996Y-102515180D01*
X138737816Y-102489000D01*
X141425394Y-102489000D01*
X143547197Y-104610803D01*
G04 #@! TO.N,VF2*
G36*
X169926000Y-83491606D02*
X169926000Y-88011000D01*
X166624000Y-88011000D01*
X166575399Y-88020667D01*
X166534197Y-88048197D01*
X166026197Y-88556197D01*
X165998667Y-88597399D01*
X165989000Y-88646000D01*
X165989000Y-90498394D01*
X162052000Y-94435394D01*
X162052000Y-92407000D01*
X162464750Y-92407000D01*
X162560000Y-92311750D01*
X162560000Y-91578000D01*
X162814000Y-91578000D01*
X162814000Y-92311750D01*
X162909250Y-92407000D01*
X163487785Y-92407000D01*
X163627819Y-92348996D01*
X163734996Y-92241820D01*
X163793000Y-92101786D01*
X163793000Y-91673250D01*
X163697750Y-91578000D01*
X162814000Y-91578000D01*
X162560000Y-91578000D01*
X162540000Y-91578000D01*
X162540000Y-91324000D01*
X162560000Y-91324000D01*
X162560000Y-91304000D01*
X162814000Y-91304000D01*
X162814000Y-91324000D01*
X163697750Y-91324000D01*
X163793000Y-91228750D01*
X163793000Y-90800214D01*
X163734996Y-90660180D01*
X163627819Y-90553004D01*
X163622981Y-90551000D01*
X163703000Y-90551000D01*
X163751601Y-90541333D01*
X163792803Y-90513803D01*
X163820333Y-90472601D01*
X163830000Y-90424000D01*
X163830000Y-86041250D01*
X166967000Y-86041250D01*
X166967000Y-87644786D01*
X167025004Y-87784820D01*
X167132181Y-87891996D01*
X167272215Y-87950000D01*
X167925750Y-87950000D01*
X168021000Y-87854750D01*
X168021000Y-85946000D01*
X168275000Y-85946000D01*
X168275000Y-87854750D01*
X168370250Y-87950000D01*
X169023785Y-87950000D01*
X169163819Y-87891996D01*
X169270996Y-87784820D01*
X169329000Y-87644786D01*
X169329000Y-86041250D01*
X169233750Y-85946000D01*
X168275000Y-85946000D01*
X168021000Y-85946000D01*
X167062250Y-85946000D01*
X166967000Y-86041250D01*
X163830000Y-86041250D01*
X163830000Y-84328000D01*
X163820333Y-84279399D01*
X163789861Y-84235349D01*
X163531584Y-83993214D01*
X166967000Y-83993214D01*
X166967000Y-85596750D01*
X167062250Y-85692000D01*
X168021000Y-85692000D01*
X168021000Y-83783250D01*
X168275000Y-83783250D01*
X168275000Y-85692000D01*
X169233750Y-85692000D01*
X169329000Y-85596750D01*
X169329000Y-83993214D01*
X169270996Y-83853180D01*
X169163819Y-83746004D01*
X169023785Y-83688000D01*
X168370250Y-83688000D01*
X168275000Y-83783250D01*
X168021000Y-83783250D01*
X167925750Y-83688000D01*
X167272215Y-83688000D01*
X167132181Y-83746004D01*
X167025004Y-83853180D01*
X166967000Y-83993214D01*
X163531584Y-83993214D01*
X161798000Y-82367979D01*
X161798000Y-81979017D01*
X162070036Y-82218245D01*
X162370020Y-82342489D01*
X162560000Y-82281627D01*
X162560000Y-81280000D01*
X162814000Y-81280000D01*
X162814000Y-82281627D01*
X163003980Y-82342489D01*
X163303964Y-82218245D01*
X163664652Y-81901056D01*
X163876501Y-81469982D01*
X163846430Y-81375250D01*
X163996000Y-81375250D01*
X163996000Y-82078786D01*
X164054004Y-82218820D01*
X164161181Y-82325996D01*
X164301215Y-82384000D01*
X165004750Y-82384000D01*
X165100000Y-82288750D01*
X165100000Y-81280000D01*
X165354000Y-81280000D01*
X165354000Y-82288750D01*
X165449250Y-82384000D01*
X166152785Y-82384000D01*
X166292819Y-82325996D01*
X166399996Y-82218820D01*
X166458000Y-82078786D01*
X166458000Y-81375250D01*
X166362750Y-81280000D01*
X165354000Y-81280000D01*
X165100000Y-81280000D01*
X164091250Y-81280000D01*
X163996000Y-81375250D01*
X163846430Y-81375250D01*
X163816193Y-81280000D01*
X162814000Y-81280000D01*
X162560000Y-81280000D01*
X162540000Y-81280000D01*
X162540000Y-81026000D01*
X162560000Y-81026000D01*
X162560000Y-80024373D01*
X162814000Y-80024373D01*
X162814000Y-81026000D01*
X163816193Y-81026000D01*
X163876501Y-80836018D01*
X163664652Y-80404944D01*
X163462549Y-80227214D01*
X163996000Y-80227214D01*
X163996000Y-80930750D01*
X164091250Y-81026000D01*
X165100000Y-81026000D01*
X165100000Y-80017250D01*
X165354000Y-80017250D01*
X165354000Y-81026000D01*
X166362750Y-81026000D01*
X166458000Y-80930750D01*
X166458000Y-80227214D01*
X166399996Y-80087180D01*
X166292819Y-79980004D01*
X166152785Y-79922000D01*
X165449250Y-79922000D01*
X165354000Y-80017250D01*
X165100000Y-80017250D01*
X165004750Y-79922000D01*
X164301215Y-79922000D01*
X164161181Y-79980004D01*
X164054004Y-80087180D01*
X163996000Y-80227214D01*
X163462549Y-80227214D01*
X163303964Y-80087755D01*
X163003980Y-79963511D01*
X162814000Y-80024373D01*
X162560000Y-80024373D01*
X162370020Y-79963511D01*
X162070036Y-80087755D01*
X161798000Y-80326983D01*
X161798000Y-79883000D01*
X166317394Y-79883000D01*
X169926000Y-83491606D01*
X169926000Y-83491606D01*
G37*
X169926000Y-83491606D02*
X169926000Y-88011000D01*
X166624000Y-88011000D01*
X166575399Y-88020667D01*
X166534197Y-88048197D01*
X166026197Y-88556197D01*
X165998667Y-88597399D01*
X165989000Y-88646000D01*
X165989000Y-90498394D01*
X162052000Y-94435394D01*
X162052000Y-92407000D01*
X162464750Y-92407000D01*
X162560000Y-92311750D01*
X162560000Y-91578000D01*
X162814000Y-91578000D01*
X162814000Y-92311750D01*
X162909250Y-92407000D01*
X163487785Y-92407000D01*
X163627819Y-92348996D01*
X163734996Y-92241820D01*
X163793000Y-92101786D01*
X163793000Y-91673250D01*
X163697750Y-91578000D01*
X162814000Y-91578000D01*
X162560000Y-91578000D01*
X162540000Y-91578000D01*
X162540000Y-91324000D01*
X162560000Y-91324000D01*
X162560000Y-91304000D01*
X162814000Y-91304000D01*
X162814000Y-91324000D01*
X163697750Y-91324000D01*
X163793000Y-91228750D01*
X163793000Y-90800214D01*
X163734996Y-90660180D01*
X163627819Y-90553004D01*
X163622981Y-90551000D01*
X163703000Y-90551000D01*
X163751601Y-90541333D01*
X163792803Y-90513803D01*
X163820333Y-90472601D01*
X163830000Y-90424000D01*
X163830000Y-86041250D01*
X166967000Y-86041250D01*
X166967000Y-87644786D01*
X167025004Y-87784820D01*
X167132181Y-87891996D01*
X167272215Y-87950000D01*
X167925750Y-87950000D01*
X168021000Y-87854750D01*
X168021000Y-85946000D01*
X168275000Y-85946000D01*
X168275000Y-87854750D01*
X168370250Y-87950000D01*
X169023785Y-87950000D01*
X169163819Y-87891996D01*
X169270996Y-87784820D01*
X169329000Y-87644786D01*
X169329000Y-86041250D01*
X169233750Y-85946000D01*
X168275000Y-85946000D01*
X168021000Y-85946000D01*
X167062250Y-85946000D01*
X166967000Y-86041250D01*
X163830000Y-86041250D01*
X163830000Y-84328000D01*
X163820333Y-84279399D01*
X163789861Y-84235349D01*
X163531584Y-83993214D01*
X166967000Y-83993214D01*
X166967000Y-85596750D01*
X167062250Y-85692000D01*
X168021000Y-85692000D01*
X168021000Y-83783250D01*
X168275000Y-83783250D01*
X168275000Y-85692000D01*
X169233750Y-85692000D01*
X169329000Y-85596750D01*
X169329000Y-83993214D01*
X169270996Y-83853180D01*
X169163819Y-83746004D01*
X169023785Y-83688000D01*
X168370250Y-83688000D01*
X168275000Y-83783250D01*
X168021000Y-83783250D01*
X167925750Y-83688000D01*
X167272215Y-83688000D01*
X167132181Y-83746004D01*
X167025004Y-83853180D01*
X166967000Y-83993214D01*
X163531584Y-83993214D01*
X161798000Y-82367979D01*
X161798000Y-81979017D01*
X162070036Y-82218245D01*
X162370020Y-82342489D01*
X162560000Y-82281627D01*
X162560000Y-81280000D01*
X162814000Y-81280000D01*
X162814000Y-82281627D01*
X163003980Y-82342489D01*
X163303964Y-82218245D01*
X163664652Y-81901056D01*
X163876501Y-81469982D01*
X163846430Y-81375250D01*
X163996000Y-81375250D01*
X163996000Y-82078786D01*
X164054004Y-82218820D01*
X164161181Y-82325996D01*
X164301215Y-82384000D01*
X165004750Y-82384000D01*
X165100000Y-82288750D01*
X165100000Y-81280000D01*
X165354000Y-81280000D01*
X165354000Y-82288750D01*
X165449250Y-82384000D01*
X166152785Y-82384000D01*
X166292819Y-82325996D01*
X166399996Y-82218820D01*
X166458000Y-82078786D01*
X166458000Y-81375250D01*
X166362750Y-81280000D01*
X165354000Y-81280000D01*
X165100000Y-81280000D01*
X164091250Y-81280000D01*
X163996000Y-81375250D01*
X163846430Y-81375250D01*
X163816193Y-81280000D01*
X162814000Y-81280000D01*
X162560000Y-81280000D01*
X162540000Y-81280000D01*
X162540000Y-81026000D01*
X162560000Y-81026000D01*
X162560000Y-80024373D01*
X162814000Y-80024373D01*
X162814000Y-81026000D01*
X163816193Y-81026000D01*
X163876501Y-80836018D01*
X163664652Y-80404944D01*
X163462549Y-80227214D01*
X163996000Y-80227214D01*
X163996000Y-80930750D01*
X164091250Y-81026000D01*
X165100000Y-81026000D01*
X165100000Y-80017250D01*
X165354000Y-80017250D01*
X165354000Y-81026000D01*
X166362750Y-81026000D01*
X166458000Y-80930750D01*
X166458000Y-80227214D01*
X166399996Y-80087180D01*
X166292819Y-79980004D01*
X166152785Y-79922000D01*
X165449250Y-79922000D01*
X165354000Y-80017250D01*
X165100000Y-80017250D01*
X165004750Y-79922000D01*
X164301215Y-79922000D01*
X164161181Y-79980004D01*
X164054004Y-80087180D01*
X163996000Y-80227214D01*
X163462549Y-80227214D01*
X163303964Y-80087755D01*
X163003980Y-79963511D01*
X162814000Y-80024373D01*
X162560000Y-80024373D01*
X162370020Y-79963511D01*
X162070036Y-80087755D01*
X161798000Y-80326983D01*
X161798000Y-79883000D01*
X166317394Y-79883000D01*
X169926000Y-83491606D01*
G04 #@! TO.N,VF1*
G36*
X161036000Y-80326983D02*
X160763964Y-80087755D01*
X160463980Y-79963511D01*
X160274000Y-80024373D01*
X160274000Y-81026000D01*
X160294000Y-81026000D01*
X160294000Y-81280000D01*
X160274000Y-81280000D01*
X160274000Y-82281627D01*
X160463980Y-82342489D01*
X160763964Y-82218245D01*
X161036000Y-81979017D01*
X161036000Y-82367979D01*
X159044139Y-84235349D01*
X159015295Y-84275642D01*
X159004000Y-84328000D01*
X159004000Y-90424000D01*
X159013667Y-90472601D01*
X159041197Y-90513803D01*
X159082399Y-90541333D01*
X159131000Y-90551000D01*
X159211019Y-90551000D01*
X159206181Y-90553004D01*
X159099004Y-90660180D01*
X159041000Y-90800214D01*
X159041000Y-91228750D01*
X159136250Y-91324000D01*
X160020000Y-91324000D01*
X160020000Y-91304000D01*
X160274000Y-91304000D01*
X160274000Y-91324000D01*
X160294000Y-91324000D01*
X160294000Y-91578000D01*
X160274000Y-91578000D01*
X160274000Y-92311750D01*
X160369250Y-92407000D01*
X160782000Y-92407000D01*
X160782000Y-94435394D01*
X158019856Y-91673250D01*
X159041000Y-91673250D01*
X159041000Y-92101786D01*
X159099004Y-92241820D01*
X159206181Y-92348996D01*
X159346215Y-92407000D01*
X159924750Y-92407000D01*
X160020000Y-92311750D01*
X160020000Y-91578000D01*
X159136250Y-91578000D01*
X159041000Y-91673250D01*
X158019856Y-91673250D01*
X156845000Y-90498394D01*
X156845000Y-88646000D01*
X156835333Y-88597399D01*
X156807803Y-88556197D01*
X156299803Y-88048197D01*
X156258601Y-88020667D01*
X156210000Y-88011000D01*
X153035000Y-88011000D01*
X153035000Y-86041250D01*
X153632000Y-86041250D01*
X153632000Y-87644786D01*
X153690004Y-87784820D01*
X153797181Y-87891996D01*
X153937215Y-87950000D01*
X154590750Y-87950000D01*
X154686000Y-87854750D01*
X154686000Y-85946000D01*
X154940000Y-85946000D01*
X154940000Y-87854750D01*
X155035250Y-87950000D01*
X155688785Y-87950000D01*
X155828819Y-87891996D01*
X155935996Y-87784820D01*
X155994000Y-87644786D01*
X155994000Y-86041250D01*
X155898750Y-85946000D01*
X154940000Y-85946000D01*
X154686000Y-85946000D01*
X153727250Y-85946000D01*
X153632000Y-86041250D01*
X153035000Y-86041250D01*
X153035000Y-83993214D01*
X153632000Y-83993214D01*
X153632000Y-85596750D01*
X153727250Y-85692000D01*
X154686000Y-85692000D01*
X154686000Y-83783250D01*
X154940000Y-83783250D01*
X154940000Y-85692000D01*
X155898750Y-85692000D01*
X155994000Y-85596750D01*
X155994000Y-83993214D01*
X155935996Y-83853180D01*
X155828819Y-83746004D01*
X155688785Y-83688000D01*
X155035250Y-83688000D01*
X154940000Y-83783250D01*
X154686000Y-83783250D01*
X154590750Y-83688000D01*
X153937215Y-83688000D01*
X153797181Y-83746004D01*
X153690004Y-83853180D01*
X153632000Y-83993214D01*
X153035000Y-83993214D01*
X153035000Y-83490305D01*
X154985656Y-81469982D01*
X156417499Y-81469982D01*
X156629348Y-81901056D01*
X156990036Y-82218245D01*
X157290020Y-82342489D01*
X157480000Y-82281627D01*
X157480000Y-81280000D01*
X157734000Y-81280000D01*
X157734000Y-82281627D01*
X157923980Y-82342489D01*
X158223964Y-82218245D01*
X158584652Y-81901056D01*
X158796501Y-81469982D01*
X158957499Y-81469982D01*
X159169348Y-81901056D01*
X159530036Y-82218245D01*
X159830020Y-82342489D01*
X160020000Y-82281627D01*
X160020000Y-81280000D01*
X159017807Y-81280000D01*
X158957499Y-81469982D01*
X158796501Y-81469982D01*
X158736193Y-81280000D01*
X157734000Y-81280000D01*
X157480000Y-81280000D01*
X156477807Y-81280000D01*
X156417499Y-81469982D01*
X154985656Y-81469982D01*
X155597759Y-80836018D01*
X156417499Y-80836018D01*
X156477807Y-81026000D01*
X157480000Y-81026000D01*
X157480000Y-80024373D01*
X157734000Y-80024373D01*
X157734000Y-81026000D01*
X158736193Y-81026000D01*
X158796501Y-80836018D01*
X158957499Y-80836018D01*
X159017807Y-81026000D01*
X160020000Y-81026000D01*
X160020000Y-80024373D01*
X159830020Y-79963511D01*
X159530036Y-80087755D01*
X159169348Y-80404944D01*
X158957499Y-80836018D01*
X158796501Y-80836018D01*
X158584652Y-80404944D01*
X158223964Y-80087755D01*
X157923980Y-79963511D01*
X157734000Y-80024373D01*
X157480000Y-80024373D01*
X157290020Y-79963511D01*
X156990036Y-80087755D01*
X156629348Y-80404944D01*
X156417499Y-80836018D01*
X155597759Y-80836018D01*
X156517915Y-79883000D01*
X161036000Y-79883000D01*
X161036000Y-80326983D01*
X161036000Y-80326983D01*
G37*
X161036000Y-80326983D02*
X160763964Y-80087755D01*
X160463980Y-79963511D01*
X160274000Y-80024373D01*
X160274000Y-81026000D01*
X160294000Y-81026000D01*
X160294000Y-81280000D01*
X160274000Y-81280000D01*
X160274000Y-82281627D01*
X160463980Y-82342489D01*
X160763964Y-82218245D01*
X161036000Y-81979017D01*
X161036000Y-82367979D01*
X159044139Y-84235349D01*
X159015295Y-84275642D01*
X159004000Y-84328000D01*
X159004000Y-90424000D01*
X159013667Y-90472601D01*
X159041197Y-90513803D01*
X159082399Y-90541333D01*
X159131000Y-90551000D01*
X159211019Y-90551000D01*
X159206181Y-90553004D01*
X159099004Y-90660180D01*
X159041000Y-90800214D01*
X159041000Y-91228750D01*
X159136250Y-91324000D01*
X160020000Y-91324000D01*
X160020000Y-91304000D01*
X160274000Y-91304000D01*
X160274000Y-91324000D01*
X160294000Y-91324000D01*
X160294000Y-91578000D01*
X160274000Y-91578000D01*
X160274000Y-92311750D01*
X160369250Y-92407000D01*
X160782000Y-92407000D01*
X160782000Y-94435394D01*
X158019856Y-91673250D01*
X159041000Y-91673250D01*
X159041000Y-92101786D01*
X159099004Y-92241820D01*
X159206181Y-92348996D01*
X159346215Y-92407000D01*
X159924750Y-92407000D01*
X160020000Y-92311750D01*
X160020000Y-91578000D01*
X159136250Y-91578000D01*
X159041000Y-91673250D01*
X158019856Y-91673250D01*
X156845000Y-90498394D01*
X156845000Y-88646000D01*
X156835333Y-88597399D01*
X156807803Y-88556197D01*
X156299803Y-88048197D01*
X156258601Y-88020667D01*
X156210000Y-88011000D01*
X153035000Y-88011000D01*
X153035000Y-86041250D01*
X153632000Y-86041250D01*
X153632000Y-87644786D01*
X153690004Y-87784820D01*
X153797181Y-87891996D01*
X153937215Y-87950000D01*
X154590750Y-87950000D01*
X154686000Y-87854750D01*
X154686000Y-85946000D01*
X154940000Y-85946000D01*
X154940000Y-87854750D01*
X155035250Y-87950000D01*
X155688785Y-87950000D01*
X155828819Y-87891996D01*
X155935996Y-87784820D01*
X155994000Y-87644786D01*
X155994000Y-86041250D01*
X155898750Y-85946000D01*
X154940000Y-85946000D01*
X154686000Y-85946000D01*
X153727250Y-85946000D01*
X153632000Y-86041250D01*
X153035000Y-86041250D01*
X153035000Y-83993214D01*
X153632000Y-83993214D01*
X153632000Y-85596750D01*
X153727250Y-85692000D01*
X154686000Y-85692000D01*
X154686000Y-83783250D01*
X154940000Y-83783250D01*
X154940000Y-85692000D01*
X155898750Y-85692000D01*
X155994000Y-85596750D01*
X155994000Y-83993214D01*
X155935996Y-83853180D01*
X155828819Y-83746004D01*
X155688785Y-83688000D01*
X155035250Y-83688000D01*
X154940000Y-83783250D01*
X154686000Y-83783250D01*
X154590750Y-83688000D01*
X153937215Y-83688000D01*
X153797181Y-83746004D01*
X153690004Y-83853180D01*
X153632000Y-83993214D01*
X153035000Y-83993214D01*
X153035000Y-83490305D01*
X154985656Y-81469982D01*
X156417499Y-81469982D01*
X156629348Y-81901056D01*
X156990036Y-82218245D01*
X157290020Y-82342489D01*
X157480000Y-82281627D01*
X157480000Y-81280000D01*
X157734000Y-81280000D01*
X157734000Y-82281627D01*
X157923980Y-82342489D01*
X158223964Y-82218245D01*
X158584652Y-81901056D01*
X158796501Y-81469982D01*
X158957499Y-81469982D01*
X159169348Y-81901056D01*
X159530036Y-82218245D01*
X159830020Y-82342489D01*
X160020000Y-82281627D01*
X160020000Y-81280000D01*
X159017807Y-81280000D01*
X158957499Y-81469982D01*
X158796501Y-81469982D01*
X158736193Y-81280000D01*
X157734000Y-81280000D01*
X157480000Y-81280000D01*
X156477807Y-81280000D01*
X156417499Y-81469982D01*
X154985656Y-81469982D01*
X155597759Y-80836018D01*
X156417499Y-80836018D01*
X156477807Y-81026000D01*
X157480000Y-81026000D01*
X157480000Y-80024373D01*
X157734000Y-80024373D01*
X157734000Y-81026000D01*
X158736193Y-81026000D01*
X158796501Y-80836018D01*
X158957499Y-80836018D01*
X159017807Y-81026000D01*
X160020000Y-81026000D01*
X160020000Y-80024373D01*
X159830020Y-79963511D01*
X159530036Y-80087755D01*
X159169348Y-80404944D01*
X158957499Y-80836018D01*
X158796501Y-80836018D01*
X158584652Y-80404944D01*
X158223964Y-80087755D01*
X157923980Y-79963511D01*
X157734000Y-80024373D01*
X157480000Y-80024373D01*
X157290020Y-79963511D01*
X156990036Y-80087755D01*
X156629348Y-80404944D01*
X156417499Y-80836018D01*
X155597759Y-80836018D01*
X156517915Y-79883000D01*
X161036000Y-79883000D01*
X161036000Y-80326983D01*
G04 #@! TO.N,Net-(C13-Pad2)*
G36*
X169926000Y-103378000D02*
X167565606Y-103378000D01*
X166979261Y-102791655D01*
X167389950Y-102791655D01*
X167468151Y-102957997D01*
X167884115Y-103095193D01*
X168320917Y-103062764D01*
X168573849Y-102957997D01*
X168652050Y-102791655D01*
X168021000Y-102160605D01*
X167389950Y-102791655D01*
X166979261Y-102791655D01*
X166031721Y-101844115D01*
X166906807Y-101844115D01*
X166939236Y-102280917D01*
X167044003Y-102533849D01*
X167210345Y-102612050D01*
X167841395Y-101981000D01*
X168200605Y-101981000D01*
X168831655Y-102612050D01*
X168997997Y-102533849D01*
X169135193Y-102117885D01*
X169102764Y-101681083D01*
X168997997Y-101428151D01*
X168831655Y-101349950D01*
X168200605Y-101981000D01*
X167841395Y-101981000D01*
X167210345Y-101349950D01*
X167044003Y-101428151D01*
X166906807Y-101844115D01*
X166031721Y-101844115D01*
X165357951Y-101170345D01*
X167389950Y-101170345D01*
X168021000Y-101801395D01*
X168652050Y-101170345D01*
X168573849Y-101004003D01*
X168157885Y-100866807D01*
X167721083Y-100899236D01*
X167468151Y-101004003D01*
X167389950Y-101170345D01*
X165357951Y-101170345D01*
X164439261Y-100251655D01*
X164849950Y-100251655D01*
X164928151Y-100417997D01*
X165344115Y-100555193D01*
X165780917Y-100522764D01*
X166033849Y-100417997D01*
X166112050Y-100251655D01*
X165481000Y-99620605D01*
X164849950Y-100251655D01*
X164439261Y-100251655D01*
X163491721Y-99304115D01*
X164366807Y-99304115D01*
X164399236Y-99740917D01*
X164504003Y-99993849D01*
X164670345Y-100072050D01*
X165301395Y-99441000D01*
X165660605Y-99441000D01*
X166291655Y-100072050D01*
X166457997Y-99993849D01*
X166595193Y-99577885D01*
X166562764Y-99141083D01*
X166457997Y-98888151D01*
X166291655Y-98809950D01*
X165660605Y-99441000D01*
X165301395Y-99441000D01*
X164670345Y-98809950D01*
X164504003Y-98888151D01*
X164366807Y-99304115D01*
X163491721Y-99304115D01*
X162817951Y-98630345D01*
X164849950Y-98630345D01*
X165481000Y-99261395D01*
X166112050Y-98630345D01*
X166033849Y-98464003D01*
X165617885Y-98326807D01*
X165181083Y-98359236D01*
X164928151Y-98464003D01*
X164849950Y-98630345D01*
X162817951Y-98630345D01*
X162052000Y-97864394D01*
X162052000Y-97733446D01*
X164828159Y-97733446D01*
X164910059Y-97902898D01*
X165336930Y-98045123D01*
X165785733Y-98013164D01*
X166051941Y-97902898D01*
X166133841Y-97733446D01*
X165481000Y-97080605D01*
X164828159Y-97733446D01*
X162052000Y-97733446D01*
X162052000Y-96756930D01*
X164336877Y-96756930D01*
X164368836Y-97205733D01*
X164479102Y-97471941D01*
X164648554Y-97553841D01*
X165301395Y-96901000D01*
X165660605Y-96901000D01*
X166313446Y-97553841D01*
X166482898Y-97471941D01*
X166625123Y-97045070D01*
X166593164Y-96596267D01*
X166482898Y-96330059D01*
X166313446Y-96248159D01*
X165660605Y-96901000D01*
X165301395Y-96901000D01*
X164648554Y-96248159D01*
X164479102Y-96330059D01*
X164336877Y-96756930D01*
X162052000Y-96756930D01*
X162052000Y-96068554D01*
X164828159Y-96068554D01*
X165481000Y-96721395D01*
X166133841Y-96068554D01*
X166051941Y-95899102D01*
X165625070Y-95756877D01*
X165176267Y-95788836D01*
X164910059Y-95899102D01*
X164828159Y-96068554D01*
X162052000Y-96068554D01*
X162052000Y-95556606D01*
X166167356Y-91441250D01*
X166967000Y-91441250D01*
X166967000Y-93044786D01*
X167025004Y-93184820D01*
X167132181Y-93291996D01*
X167272215Y-93350000D01*
X167925750Y-93350000D01*
X168021000Y-93254750D01*
X168021000Y-91346000D01*
X168275000Y-91346000D01*
X168275000Y-93254750D01*
X168370250Y-93350000D01*
X169023785Y-93350000D01*
X169163819Y-93291996D01*
X169270996Y-93184820D01*
X169329000Y-93044786D01*
X169329000Y-91441250D01*
X169233750Y-91346000D01*
X168275000Y-91346000D01*
X168021000Y-91346000D01*
X167062250Y-91346000D01*
X166967000Y-91441250D01*
X166167356Y-91441250D01*
X166713803Y-90894803D01*
X166741333Y-90853601D01*
X166751000Y-90805000D01*
X166751000Y-89393214D01*
X166967000Y-89393214D01*
X166967000Y-90996750D01*
X167062250Y-91092000D01*
X168021000Y-91092000D01*
X168021000Y-89183250D01*
X168275000Y-89183250D01*
X168275000Y-91092000D01*
X169233750Y-91092000D01*
X169329000Y-90996750D01*
X169329000Y-89393214D01*
X169270996Y-89253180D01*
X169163819Y-89146004D01*
X169023785Y-89088000D01*
X168370250Y-89088000D01*
X168275000Y-89183250D01*
X168021000Y-89183250D01*
X167925750Y-89088000D01*
X167272215Y-89088000D01*
X167132181Y-89146004D01*
X167025004Y-89253180D01*
X166967000Y-89393214D01*
X166751000Y-89393214D01*
X166751000Y-89079606D01*
X167057606Y-88773000D01*
X169926000Y-88773000D01*
X169926000Y-103378000D01*
X169926000Y-103378000D01*
G37*
X169926000Y-103378000D02*
X167565606Y-103378000D01*
X166979261Y-102791655D01*
X167389950Y-102791655D01*
X167468151Y-102957997D01*
X167884115Y-103095193D01*
X168320917Y-103062764D01*
X168573849Y-102957997D01*
X168652050Y-102791655D01*
X168021000Y-102160605D01*
X167389950Y-102791655D01*
X166979261Y-102791655D01*
X166031721Y-101844115D01*
X166906807Y-101844115D01*
X166939236Y-102280917D01*
X167044003Y-102533849D01*
X167210345Y-102612050D01*
X167841395Y-101981000D01*
X168200605Y-101981000D01*
X168831655Y-102612050D01*
X168997997Y-102533849D01*
X169135193Y-102117885D01*
X169102764Y-101681083D01*
X168997997Y-101428151D01*
X168831655Y-101349950D01*
X168200605Y-101981000D01*
X167841395Y-101981000D01*
X167210345Y-101349950D01*
X167044003Y-101428151D01*
X166906807Y-101844115D01*
X166031721Y-101844115D01*
X165357951Y-101170345D01*
X167389950Y-101170345D01*
X168021000Y-101801395D01*
X168652050Y-101170345D01*
X168573849Y-101004003D01*
X168157885Y-100866807D01*
X167721083Y-100899236D01*
X167468151Y-101004003D01*
X167389950Y-101170345D01*
X165357951Y-101170345D01*
X164439261Y-100251655D01*
X164849950Y-100251655D01*
X164928151Y-100417997D01*
X165344115Y-100555193D01*
X165780917Y-100522764D01*
X166033849Y-100417997D01*
X166112050Y-100251655D01*
X165481000Y-99620605D01*
X164849950Y-100251655D01*
X164439261Y-100251655D01*
X163491721Y-99304115D01*
X164366807Y-99304115D01*
X164399236Y-99740917D01*
X164504003Y-99993849D01*
X164670345Y-100072050D01*
X165301395Y-99441000D01*
X165660605Y-99441000D01*
X166291655Y-100072050D01*
X166457997Y-99993849D01*
X166595193Y-99577885D01*
X166562764Y-99141083D01*
X166457997Y-98888151D01*
X166291655Y-98809950D01*
X165660605Y-99441000D01*
X165301395Y-99441000D01*
X164670345Y-98809950D01*
X164504003Y-98888151D01*
X164366807Y-99304115D01*
X163491721Y-99304115D01*
X162817951Y-98630345D01*
X164849950Y-98630345D01*
X165481000Y-99261395D01*
X166112050Y-98630345D01*
X166033849Y-98464003D01*
X165617885Y-98326807D01*
X165181083Y-98359236D01*
X164928151Y-98464003D01*
X164849950Y-98630345D01*
X162817951Y-98630345D01*
X162052000Y-97864394D01*
X162052000Y-97733446D01*
X164828159Y-97733446D01*
X164910059Y-97902898D01*
X165336930Y-98045123D01*
X165785733Y-98013164D01*
X166051941Y-97902898D01*
X166133841Y-97733446D01*
X165481000Y-97080605D01*
X164828159Y-97733446D01*
X162052000Y-97733446D01*
X162052000Y-96756930D01*
X164336877Y-96756930D01*
X164368836Y-97205733D01*
X164479102Y-97471941D01*
X164648554Y-97553841D01*
X165301395Y-96901000D01*
X165660605Y-96901000D01*
X166313446Y-97553841D01*
X166482898Y-97471941D01*
X166625123Y-97045070D01*
X166593164Y-96596267D01*
X166482898Y-96330059D01*
X166313446Y-96248159D01*
X165660605Y-96901000D01*
X165301395Y-96901000D01*
X164648554Y-96248159D01*
X164479102Y-96330059D01*
X164336877Y-96756930D01*
X162052000Y-96756930D01*
X162052000Y-96068554D01*
X164828159Y-96068554D01*
X165481000Y-96721395D01*
X166133841Y-96068554D01*
X166051941Y-95899102D01*
X165625070Y-95756877D01*
X165176267Y-95788836D01*
X164910059Y-95899102D01*
X164828159Y-96068554D01*
X162052000Y-96068554D01*
X162052000Y-95556606D01*
X166167356Y-91441250D01*
X166967000Y-91441250D01*
X166967000Y-93044786D01*
X167025004Y-93184820D01*
X167132181Y-93291996D01*
X167272215Y-93350000D01*
X167925750Y-93350000D01*
X168021000Y-93254750D01*
X168021000Y-91346000D01*
X168275000Y-91346000D01*
X168275000Y-93254750D01*
X168370250Y-93350000D01*
X169023785Y-93350000D01*
X169163819Y-93291996D01*
X169270996Y-93184820D01*
X169329000Y-93044786D01*
X169329000Y-91441250D01*
X169233750Y-91346000D01*
X168275000Y-91346000D01*
X168021000Y-91346000D01*
X167062250Y-91346000D01*
X166967000Y-91441250D01*
X166167356Y-91441250D01*
X166713803Y-90894803D01*
X166741333Y-90853601D01*
X166751000Y-90805000D01*
X166751000Y-89393214D01*
X166967000Y-89393214D01*
X166967000Y-90996750D01*
X167062250Y-91092000D01*
X168021000Y-91092000D01*
X168021000Y-89183250D01*
X168275000Y-89183250D01*
X168275000Y-91092000D01*
X169233750Y-91092000D01*
X169329000Y-90996750D01*
X169329000Y-89393214D01*
X169270996Y-89253180D01*
X169163819Y-89146004D01*
X169023785Y-89088000D01*
X168370250Y-89088000D01*
X168275000Y-89183250D01*
X168021000Y-89183250D01*
X167925750Y-89088000D01*
X167272215Y-89088000D01*
X167132181Y-89146004D01*
X167025004Y-89253180D01*
X166967000Y-89393214D01*
X166751000Y-89393214D01*
X166751000Y-89079606D01*
X167057606Y-88773000D01*
X169926000Y-88773000D01*
X169926000Y-103378000D01*
G04 #@! TO.N,Net-(C11-Pad2)*
G36*
X156083000Y-89079606D02*
X156083000Y-90805000D01*
X156092667Y-90853601D01*
X156120197Y-90894803D01*
X160782000Y-95556606D01*
X160782000Y-97864394D01*
X155268394Y-103378000D01*
X153035000Y-103378000D01*
X153035000Y-102791655D01*
X154181950Y-102791655D01*
X154260151Y-102957997D01*
X154676115Y-103095193D01*
X155112917Y-103062764D01*
X155365849Y-102957997D01*
X155444050Y-102791655D01*
X154813000Y-102160605D01*
X154181950Y-102791655D01*
X153035000Y-102791655D01*
X153035000Y-101844115D01*
X153698807Y-101844115D01*
X153731236Y-102280917D01*
X153836003Y-102533849D01*
X154002345Y-102612050D01*
X154633395Y-101981000D01*
X154992605Y-101981000D01*
X155623655Y-102612050D01*
X155789997Y-102533849D01*
X155927193Y-102117885D01*
X155894764Y-101681083D01*
X155789997Y-101428151D01*
X155623655Y-101349950D01*
X154992605Y-101981000D01*
X154633395Y-101981000D01*
X154002345Y-101349950D01*
X153836003Y-101428151D01*
X153698807Y-101844115D01*
X153035000Y-101844115D01*
X153035000Y-101170345D01*
X154181950Y-101170345D01*
X154813000Y-101801395D01*
X155444050Y-101170345D01*
X155365849Y-101004003D01*
X154949885Y-100866807D01*
X154513083Y-100899236D01*
X154260151Y-101004003D01*
X154181950Y-101170345D01*
X153035000Y-101170345D01*
X153035000Y-100251655D01*
X156721950Y-100251655D01*
X156800151Y-100417997D01*
X157216115Y-100555193D01*
X157652917Y-100522764D01*
X157905849Y-100417997D01*
X157984050Y-100251655D01*
X157353000Y-99620605D01*
X156721950Y-100251655D01*
X153035000Y-100251655D01*
X153035000Y-99304115D01*
X156238807Y-99304115D01*
X156271236Y-99740917D01*
X156376003Y-99993849D01*
X156542345Y-100072050D01*
X157173395Y-99441000D01*
X157532605Y-99441000D01*
X158163655Y-100072050D01*
X158329997Y-99993849D01*
X158467193Y-99577885D01*
X158434764Y-99141083D01*
X158329997Y-98888151D01*
X158163655Y-98809950D01*
X157532605Y-99441000D01*
X157173395Y-99441000D01*
X156542345Y-98809950D01*
X156376003Y-98888151D01*
X156238807Y-99304115D01*
X153035000Y-99304115D01*
X153035000Y-98630345D01*
X156721950Y-98630345D01*
X157353000Y-99261395D01*
X157984050Y-98630345D01*
X157905849Y-98464003D01*
X157489885Y-98326807D01*
X157053083Y-98359236D01*
X156800151Y-98464003D01*
X156721950Y-98630345D01*
X153035000Y-98630345D01*
X153035000Y-97733446D01*
X156700159Y-97733446D01*
X156782059Y-97902898D01*
X157208930Y-98045123D01*
X157657733Y-98013164D01*
X157923941Y-97902898D01*
X158005841Y-97733446D01*
X157353000Y-97080605D01*
X156700159Y-97733446D01*
X153035000Y-97733446D01*
X153035000Y-96756930D01*
X156208877Y-96756930D01*
X156240836Y-97205733D01*
X156351102Y-97471941D01*
X156520554Y-97553841D01*
X157173395Y-96901000D01*
X157532605Y-96901000D01*
X158185446Y-97553841D01*
X158354898Y-97471941D01*
X158497123Y-97045070D01*
X158465164Y-96596267D01*
X158354898Y-96330059D01*
X158185446Y-96248159D01*
X157532605Y-96901000D01*
X157173395Y-96901000D01*
X156520554Y-96248159D01*
X156351102Y-96330059D01*
X156208877Y-96756930D01*
X153035000Y-96756930D01*
X153035000Y-96068554D01*
X156700159Y-96068554D01*
X157353000Y-96721395D01*
X158005841Y-96068554D01*
X157923941Y-95899102D01*
X157497070Y-95756877D01*
X157048267Y-95788836D01*
X156782059Y-95899102D01*
X156700159Y-96068554D01*
X153035000Y-96068554D01*
X153035000Y-91441250D01*
X153632000Y-91441250D01*
X153632000Y-93044786D01*
X153690004Y-93184820D01*
X153797181Y-93291996D01*
X153937215Y-93350000D01*
X154590750Y-93350000D01*
X154686000Y-93254750D01*
X154686000Y-91346000D01*
X154940000Y-91346000D01*
X154940000Y-93254750D01*
X155035250Y-93350000D01*
X155688785Y-93350000D01*
X155828819Y-93291996D01*
X155935996Y-93184820D01*
X155994000Y-93044786D01*
X155994000Y-91441250D01*
X155898750Y-91346000D01*
X154940000Y-91346000D01*
X154686000Y-91346000D01*
X153727250Y-91346000D01*
X153632000Y-91441250D01*
X153035000Y-91441250D01*
X153035000Y-89393214D01*
X153632000Y-89393214D01*
X153632000Y-90996750D01*
X153727250Y-91092000D01*
X154686000Y-91092000D01*
X154686000Y-89183250D01*
X154940000Y-89183250D01*
X154940000Y-91092000D01*
X155898750Y-91092000D01*
X155994000Y-90996750D01*
X155994000Y-89393214D01*
X155935996Y-89253180D01*
X155828819Y-89146004D01*
X155688785Y-89088000D01*
X155035250Y-89088000D01*
X154940000Y-89183250D01*
X154686000Y-89183250D01*
X154590750Y-89088000D01*
X153937215Y-89088000D01*
X153797181Y-89146004D01*
X153690004Y-89253180D01*
X153632000Y-89393214D01*
X153035000Y-89393214D01*
X153035000Y-88773000D01*
X155776394Y-88773000D01*
X156083000Y-89079606D01*
X156083000Y-89079606D01*
G37*
X156083000Y-89079606D02*
X156083000Y-90805000D01*
X156092667Y-90853601D01*
X156120197Y-90894803D01*
X160782000Y-95556606D01*
X160782000Y-97864394D01*
X155268394Y-103378000D01*
X153035000Y-103378000D01*
X153035000Y-102791655D01*
X154181950Y-102791655D01*
X154260151Y-102957997D01*
X154676115Y-103095193D01*
X155112917Y-103062764D01*
X155365849Y-102957997D01*
X155444050Y-102791655D01*
X154813000Y-102160605D01*
X154181950Y-102791655D01*
X153035000Y-102791655D01*
X153035000Y-101844115D01*
X153698807Y-101844115D01*
X153731236Y-102280917D01*
X153836003Y-102533849D01*
X154002345Y-102612050D01*
X154633395Y-101981000D01*
X154992605Y-101981000D01*
X155623655Y-102612050D01*
X155789997Y-102533849D01*
X155927193Y-102117885D01*
X155894764Y-101681083D01*
X155789997Y-101428151D01*
X155623655Y-101349950D01*
X154992605Y-101981000D01*
X154633395Y-101981000D01*
X154002345Y-101349950D01*
X153836003Y-101428151D01*
X153698807Y-101844115D01*
X153035000Y-101844115D01*
X153035000Y-101170345D01*
X154181950Y-101170345D01*
X154813000Y-101801395D01*
X155444050Y-101170345D01*
X155365849Y-101004003D01*
X154949885Y-100866807D01*
X154513083Y-100899236D01*
X154260151Y-101004003D01*
X154181950Y-101170345D01*
X153035000Y-101170345D01*
X153035000Y-100251655D01*
X156721950Y-100251655D01*
X156800151Y-100417997D01*
X157216115Y-100555193D01*
X157652917Y-100522764D01*
X157905849Y-100417997D01*
X157984050Y-100251655D01*
X157353000Y-99620605D01*
X156721950Y-100251655D01*
X153035000Y-100251655D01*
X153035000Y-99304115D01*
X156238807Y-99304115D01*
X156271236Y-99740917D01*
X156376003Y-99993849D01*
X156542345Y-100072050D01*
X157173395Y-99441000D01*
X157532605Y-99441000D01*
X158163655Y-100072050D01*
X158329997Y-99993849D01*
X158467193Y-99577885D01*
X158434764Y-99141083D01*
X158329997Y-98888151D01*
X158163655Y-98809950D01*
X157532605Y-99441000D01*
X157173395Y-99441000D01*
X156542345Y-98809950D01*
X156376003Y-98888151D01*
X156238807Y-99304115D01*
X153035000Y-99304115D01*
X153035000Y-98630345D01*
X156721950Y-98630345D01*
X157353000Y-99261395D01*
X157984050Y-98630345D01*
X157905849Y-98464003D01*
X157489885Y-98326807D01*
X157053083Y-98359236D01*
X156800151Y-98464003D01*
X156721950Y-98630345D01*
X153035000Y-98630345D01*
X153035000Y-97733446D01*
X156700159Y-97733446D01*
X156782059Y-97902898D01*
X157208930Y-98045123D01*
X157657733Y-98013164D01*
X157923941Y-97902898D01*
X158005841Y-97733446D01*
X157353000Y-97080605D01*
X156700159Y-97733446D01*
X153035000Y-97733446D01*
X153035000Y-96756930D01*
X156208877Y-96756930D01*
X156240836Y-97205733D01*
X156351102Y-97471941D01*
X156520554Y-97553841D01*
X157173395Y-96901000D01*
X157532605Y-96901000D01*
X158185446Y-97553841D01*
X158354898Y-97471941D01*
X158497123Y-97045070D01*
X158465164Y-96596267D01*
X158354898Y-96330059D01*
X158185446Y-96248159D01*
X157532605Y-96901000D01*
X157173395Y-96901000D01*
X156520554Y-96248159D01*
X156351102Y-96330059D01*
X156208877Y-96756930D01*
X153035000Y-96756930D01*
X153035000Y-96068554D01*
X156700159Y-96068554D01*
X157353000Y-96721395D01*
X158005841Y-96068554D01*
X157923941Y-95899102D01*
X157497070Y-95756877D01*
X157048267Y-95788836D01*
X156782059Y-95899102D01*
X156700159Y-96068554D01*
X153035000Y-96068554D01*
X153035000Y-91441250D01*
X153632000Y-91441250D01*
X153632000Y-93044786D01*
X153690004Y-93184820D01*
X153797181Y-93291996D01*
X153937215Y-93350000D01*
X154590750Y-93350000D01*
X154686000Y-93254750D01*
X154686000Y-91346000D01*
X154940000Y-91346000D01*
X154940000Y-93254750D01*
X155035250Y-93350000D01*
X155688785Y-93350000D01*
X155828819Y-93291996D01*
X155935996Y-93184820D01*
X155994000Y-93044786D01*
X155994000Y-91441250D01*
X155898750Y-91346000D01*
X154940000Y-91346000D01*
X154686000Y-91346000D01*
X153727250Y-91346000D01*
X153632000Y-91441250D01*
X153035000Y-91441250D01*
X153035000Y-89393214D01*
X153632000Y-89393214D01*
X153632000Y-90996750D01*
X153727250Y-91092000D01*
X154686000Y-91092000D01*
X154686000Y-89183250D01*
X154940000Y-89183250D01*
X154940000Y-91092000D01*
X155898750Y-91092000D01*
X155994000Y-90996750D01*
X155994000Y-89393214D01*
X155935996Y-89253180D01*
X155828819Y-89146004D01*
X155688785Y-89088000D01*
X155035250Y-89088000D01*
X154940000Y-89183250D01*
X154686000Y-89183250D01*
X154590750Y-89088000D01*
X153937215Y-89088000D01*
X153797181Y-89146004D01*
X153690004Y-89253180D01*
X153632000Y-89393214D01*
X153035000Y-89393214D01*
X153035000Y-88773000D01*
X155776394Y-88773000D01*
X156083000Y-89079606D01*
G04 #@! TO.N,Net-(RV3-Pad1)*
G36*
X167296197Y-104229803D02*
X167337399Y-104257333D01*
X167386000Y-104267000D01*
X169926000Y-104267000D01*
X169926000Y-108204000D01*
X167919305Y-108204000D01*
X167905086Y-108203118D01*
X168325733Y-108173164D01*
X168591941Y-108062898D01*
X168673841Y-107893446D01*
X168021000Y-107240605D01*
X167368159Y-107893446D01*
X167450059Y-108062898D01*
X167873559Y-108204000D01*
X165660606Y-108204000D01*
X164373536Y-106916930D01*
X166876877Y-106916930D01*
X166908836Y-107365733D01*
X167019102Y-107631941D01*
X167188554Y-107713841D01*
X167841395Y-107061000D01*
X168200605Y-107061000D01*
X168853446Y-107713841D01*
X169022898Y-107631941D01*
X169165123Y-107205070D01*
X169133164Y-106756267D01*
X169022898Y-106490059D01*
X168853446Y-106408159D01*
X168200605Y-107061000D01*
X167841395Y-107061000D01*
X167188554Y-106408159D01*
X167019102Y-106490059D01*
X166876877Y-106916930D01*
X164373536Y-106916930D01*
X163685160Y-106228554D01*
X167368159Y-106228554D01*
X168021000Y-106881395D01*
X168673841Y-106228554D01*
X168591941Y-106059102D01*
X168165070Y-105916877D01*
X167716267Y-105948836D01*
X167450059Y-106059102D01*
X167368159Y-106228554D01*
X163685160Y-106228554D01*
X162788261Y-105331655D01*
X164849950Y-105331655D01*
X164928151Y-105497997D01*
X165344115Y-105635193D01*
X165780917Y-105602764D01*
X166033849Y-105497997D01*
X166112050Y-105331655D01*
X165481000Y-104700605D01*
X164849950Y-105331655D01*
X162788261Y-105331655D01*
X162052000Y-104595394D01*
X162052000Y-104384115D01*
X164366807Y-104384115D01*
X164399236Y-104820917D01*
X164504003Y-105073849D01*
X164670345Y-105152050D01*
X165301395Y-104521000D01*
X165660605Y-104521000D01*
X166291655Y-105152050D01*
X166457997Y-105073849D01*
X166595193Y-104657885D01*
X166562764Y-104221083D01*
X166457997Y-103968151D01*
X166291655Y-103889950D01*
X165660605Y-104521000D01*
X165301395Y-104521000D01*
X164670345Y-103889950D01*
X164504003Y-103968151D01*
X164366807Y-104384115D01*
X162052000Y-104384115D01*
X162052000Y-103710345D01*
X164849950Y-103710345D01*
X165481000Y-104341395D01*
X166112050Y-103710345D01*
X166033849Y-103544003D01*
X165617885Y-103406807D01*
X165181083Y-103439236D01*
X164928151Y-103544003D01*
X164849950Y-103710345D01*
X162052000Y-103710345D01*
X162052000Y-98985606D01*
X167296197Y-104229803D01*
X167296197Y-104229803D01*
G37*
X167296197Y-104229803D02*
X167337399Y-104257333D01*
X167386000Y-104267000D01*
X169926000Y-104267000D01*
X169926000Y-108204000D01*
X167919305Y-108204000D01*
X167905086Y-108203118D01*
X168325733Y-108173164D01*
X168591941Y-108062898D01*
X168673841Y-107893446D01*
X168021000Y-107240605D01*
X167368159Y-107893446D01*
X167450059Y-108062898D01*
X167873559Y-108204000D01*
X165660606Y-108204000D01*
X164373536Y-106916930D01*
X166876877Y-106916930D01*
X166908836Y-107365733D01*
X167019102Y-107631941D01*
X167188554Y-107713841D01*
X167841395Y-107061000D01*
X168200605Y-107061000D01*
X168853446Y-107713841D01*
X169022898Y-107631941D01*
X169165123Y-107205070D01*
X169133164Y-106756267D01*
X169022898Y-106490059D01*
X168853446Y-106408159D01*
X168200605Y-107061000D01*
X167841395Y-107061000D01*
X167188554Y-106408159D01*
X167019102Y-106490059D01*
X166876877Y-106916930D01*
X164373536Y-106916930D01*
X163685160Y-106228554D01*
X167368159Y-106228554D01*
X168021000Y-106881395D01*
X168673841Y-106228554D01*
X168591941Y-106059102D01*
X168165070Y-105916877D01*
X167716267Y-105948836D01*
X167450059Y-106059102D01*
X167368159Y-106228554D01*
X163685160Y-106228554D01*
X162788261Y-105331655D01*
X164849950Y-105331655D01*
X164928151Y-105497997D01*
X165344115Y-105635193D01*
X165780917Y-105602764D01*
X166033849Y-105497997D01*
X166112050Y-105331655D01*
X165481000Y-104700605D01*
X164849950Y-105331655D01*
X162788261Y-105331655D01*
X162052000Y-104595394D01*
X162052000Y-104384115D01*
X164366807Y-104384115D01*
X164399236Y-104820917D01*
X164504003Y-105073849D01*
X164670345Y-105152050D01*
X165301395Y-104521000D01*
X165660605Y-104521000D01*
X166291655Y-105152050D01*
X166457997Y-105073849D01*
X166595193Y-104657885D01*
X166562764Y-104221083D01*
X166457997Y-103968151D01*
X166291655Y-103889950D01*
X165660605Y-104521000D01*
X165301395Y-104521000D01*
X164670345Y-103889950D01*
X164504003Y-103968151D01*
X164366807Y-104384115D01*
X162052000Y-104384115D01*
X162052000Y-103710345D01*
X164849950Y-103710345D01*
X165481000Y-104341395D01*
X166112050Y-103710345D01*
X166033849Y-103544003D01*
X165617885Y-103406807D01*
X165181083Y-103439236D01*
X164928151Y-103544003D01*
X164849950Y-103710345D01*
X162052000Y-103710345D01*
X162052000Y-98985606D01*
X167296197Y-104229803D01*
G04 #@! TO.N,Net-(R10-Pad2)*
G36*
X160782000Y-104595394D02*
X157173394Y-108204000D01*
X154684700Y-108204000D01*
X155117733Y-108173164D01*
X155383941Y-108062898D01*
X155465841Y-107893446D01*
X154813000Y-107240605D01*
X154160159Y-107893446D01*
X154242059Y-108062898D01*
X154665559Y-108204000D01*
X153035000Y-108204000D01*
X153035000Y-106916930D01*
X153668877Y-106916930D01*
X153700836Y-107365733D01*
X153811102Y-107631941D01*
X153980554Y-107713841D01*
X154633395Y-107061000D01*
X154992605Y-107061000D01*
X155645446Y-107713841D01*
X155814898Y-107631941D01*
X155957123Y-107205070D01*
X155925164Y-106756267D01*
X155814898Y-106490059D01*
X155645446Y-106408159D01*
X154992605Y-107061000D01*
X154633395Y-107061000D01*
X153980554Y-106408159D01*
X153811102Y-106490059D01*
X153668877Y-106916930D01*
X153035000Y-106916930D01*
X153035000Y-106228554D01*
X154160159Y-106228554D01*
X154813000Y-106881395D01*
X155465841Y-106228554D01*
X155383941Y-106059102D01*
X154957070Y-105916877D01*
X154508267Y-105948836D01*
X154242059Y-106059102D01*
X154160159Y-106228554D01*
X153035000Y-106228554D01*
X153035000Y-105331655D01*
X156721950Y-105331655D01*
X156800151Y-105497997D01*
X157216115Y-105635193D01*
X157652917Y-105602764D01*
X157905849Y-105497997D01*
X157984050Y-105331655D01*
X157353000Y-104700605D01*
X156721950Y-105331655D01*
X153035000Y-105331655D01*
X153035000Y-104384115D01*
X156238807Y-104384115D01*
X156271236Y-104820917D01*
X156376003Y-105073849D01*
X156542345Y-105152050D01*
X157173395Y-104521000D01*
X157532605Y-104521000D01*
X158163655Y-105152050D01*
X158329997Y-105073849D01*
X158467193Y-104657885D01*
X158434764Y-104221083D01*
X158329997Y-103968151D01*
X158163655Y-103889950D01*
X157532605Y-104521000D01*
X157173395Y-104521000D01*
X156542345Y-103889950D01*
X156376003Y-103968151D01*
X156238807Y-104384115D01*
X153035000Y-104384115D01*
X153035000Y-104267000D01*
X155448000Y-104267000D01*
X155496601Y-104257333D01*
X155537803Y-104229803D01*
X156057261Y-103710345D01*
X156721950Y-103710345D01*
X157353000Y-104341395D01*
X157984050Y-103710345D01*
X157905849Y-103544003D01*
X157489885Y-103406807D01*
X157053083Y-103439236D01*
X156800151Y-103544003D01*
X156721950Y-103710345D01*
X156057261Y-103710345D01*
X160782000Y-98985606D01*
X160782000Y-104595394D01*
X160782000Y-104595394D01*
G37*
X160782000Y-104595394D02*
X157173394Y-108204000D01*
X154684700Y-108204000D01*
X155117733Y-108173164D01*
X155383941Y-108062898D01*
X155465841Y-107893446D01*
X154813000Y-107240605D01*
X154160159Y-107893446D01*
X154242059Y-108062898D01*
X154665559Y-108204000D01*
X153035000Y-108204000D01*
X153035000Y-106916930D01*
X153668877Y-106916930D01*
X153700836Y-107365733D01*
X153811102Y-107631941D01*
X153980554Y-107713841D01*
X154633395Y-107061000D01*
X154992605Y-107061000D01*
X155645446Y-107713841D01*
X155814898Y-107631941D01*
X155957123Y-107205070D01*
X155925164Y-106756267D01*
X155814898Y-106490059D01*
X155645446Y-106408159D01*
X154992605Y-107061000D01*
X154633395Y-107061000D01*
X153980554Y-106408159D01*
X153811102Y-106490059D01*
X153668877Y-106916930D01*
X153035000Y-106916930D01*
X153035000Y-106228554D01*
X154160159Y-106228554D01*
X154813000Y-106881395D01*
X155465841Y-106228554D01*
X155383941Y-106059102D01*
X154957070Y-105916877D01*
X154508267Y-105948836D01*
X154242059Y-106059102D01*
X154160159Y-106228554D01*
X153035000Y-106228554D01*
X153035000Y-105331655D01*
X156721950Y-105331655D01*
X156800151Y-105497997D01*
X157216115Y-105635193D01*
X157652917Y-105602764D01*
X157905849Y-105497997D01*
X157984050Y-105331655D01*
X157353000Y-104700605D01*
X156721950Y-105331655D01*
X153035000Y-105331655D01*
X153035000Y-104384115D01*
X156238807Y-104384115D01*
X156271236Y-104820917D01*
X156376003Y-105073849D01*
X156542345Y-105152050D01*
X157173395Y-104521000D01*
X157532605Y-104521000D01*
X158163655Y-105152050D01*
X158329997Y-105073849D01*
X158467193Y-104657885D01*
X158434764Y-104221083D01*
X158329997Y-103968151D01*
X158163655Y-103889950D01*
X157532605Y-104521000D01*
X157173395Y-104521000D01*
X156542345Y-103889950D01*
X156376003Y-103968151D01*
X156238807Y-104384115D01*
X153035000Y-104384115D01*
X153035000Y-104267000D01*
X155448000Y-104267000D01*
X155496601Y-104257333D01*
X155537803Y-104229803D01*
X156057261Y-103710345D01*
X156721950Y-103710345D01*
X157353000Y-104341395D01*
X157984050Y-103710345D01*
X157905849Y-103544003D01*
X157489885Y-103406807D01*
X157053083Y-103439236D01*
X156800151Y-103544003D01*
X156721950Y-103710345D01*
X156057261Y-103710345D01*
X160782000Y-98985606D01*
X160782000Y-104595394D01*
G04 #@! TD*
M02*
