G04 #@! TF.GenerationSoftware,KiCad,Pcbnew,6.0.0-unknown-r16460-346495ae*
G04 #@! TF.CreationDate,2019-10-08T21:17:02+03:00*
G04 #@! TF.ProjectId,vfd-ps,7666642d-7073-42e6-9b69-6361645f7063,A*
G04 #@! TF.SameCoordinates,Original*
G04 #@! TF.FileFunction,Soldermask,Bot*
G04 #@! TF.FilePolarity,Negative*
%FSLAX46Y46*%
G04 Gerber Fmt 4.6, Leading zero omitted, Abs format (unit mm)*
G04 Created by KiCad (PCBNEW 6.0.0-unknown-r16460-346495ae) date 2019-10-08 21:17:02*
%MOMM*%
%LPD*%
G04 APERTURE LIST*
%ADD10C,0.100000*%
G04 APERTURE END LIST*
D10*
G36*
X122052063Y-112597591D02*
G01*
X122095065Y-112596502D01*
X122232429Y-112607675D01*
X122373645Y-112615570D01*
X122416283Y-112622629D01*
X122456207Y-112625876D01*
X122594525Y-112652136D01*
X122736975Y-112675719D01*
X122775728Y-112686539D01*
X122812166Y-112693457D01*
X122949747Y-112735126D01*
X123091685Y-112774756D01*
X123126277Y-112788592D01*
X123158929Y-112798481D01*
X123293978Y-112855667D01*
X123433624Y-112911521D01*
X123463905Y-112927622D01*
X123492575Y-112939762D01*
X123623345Y-113012398D01*
X123758792Y-113084417D01*
X123784689Y-113102016D01*
X123809324Y-113115700D01*
X123934048Y-113203520D01*
X124063386Y-113291418D01*
X124084969Y-113309786D01*
X124105570Y-113324292D01*
X124222401Y-113426750D01*
X124343843Y-113530105D01*
X124361277Y-113548541D01*
X124377981Y-113563190D01*
X124485217Y-113679604D01*
X124596880Y-113797685D01*
X124610421Y-113815524D01*
X124623466Y-113829686D01*
X124719476Y-113959199D01*
X124819540Y-114091028D01*
X124829537Y-114107666D01*
X124839235Y-114120748D01*
X124922361Y-114262152D01*
X125009216Y-114406702D01*
X125016115Y-114421633D01*
X125022855Y-114433098D01*
X125091615Y-114585031D01*
X125163690Y-114741015D01*
X125167985Y-114753777D01*
X125172249Y-114763199D01*
X125225362Y-114924270D01*
X125281155Y-115090055D01*
X125283406Y-115100295D01*
X125285712Y-115107287D01*
X125321913Y-115275433D01*
X125360237Y-115449740D01*
X125361048Y-115457207D01*
X125361972Y-115461498D01*
X125380281Y-115634255D01*
X125400010Y-115815862D01*
X125399995Y-115820257D01*
X125400153Y-115821751D01*
X125399511Y-116190119D01*
X125398677Y-116197731D01*
X125398642Y-116207870D01*
X125378542Y-116381591D01*
X125360072Y-116550237D01*
X125357859Y-116560345D01*
X125356313Y-116573705D01*
X125318298Y-116741031D01*
X125282578Y-116904170D01*
X125278362Y-116916806D01*
X125274722Y-116932829D01*
X125219835Y-117092234D01*
X125167911Y-117247869D01*
X125161148Y-117262675D01*
X125154824Y-117281041D01*
X125084322Y-117430865D01*
X125017365Y-117577449D01*
X125007551Y-117594011D01*
X124998019Y-117614267D01*
X124913390Y-117752911D01*
X124832662Y-117889144D01*
X124819361Y-117906957D01*
X124806144Y-117928609D01*
X124708848Y-118054951D01*
X124615867Y-118179467D01*
X124598735Y-118197936D01*
X124581442Y-118220391D01*
X124473215Y-118333248D01*
X124369465Y-118445093D01*
X124348208Y-118463604D01*
X124326542Y-118486197D01*
X124209055Y-118584781D01*
X124096223Y-118683037D01*
X124070700Y-118700875D01*
X124044427Y-118722921D01*
X123919429Y-118806600D01*
X123799238Y-118890602D01*
X123769362Y-118907061D01*
X123738395Y-118927791D01*
X123607771Y-118996080D01*
X123481884Y-119065430D01*
X123447686Y-119079770D01*
X123412028Y-119098412D01*
X123277591Y-119151097D01*
X123147752Y-119205543D01*
X123109373Y-119217021D01*
X123069142Y-119232787D01*
X122932684Y-119269862D01*
X122800621Y-119309357D01*
X122758324Y-119317234D01*
X122713750Y-119329345D01*
X122577017Y-119351001D01*
X122444417Y-119375697D01*
X122398565Y-119379265D01*
X122350008Y-119386956D01*
X122214723Y-119393572D01*
X122083187Y-119403809D01*
X122034244Y-119402399D01*
X121982172Y-119404946D01*
X121849959Y-119397091D01*
X121721013Y-119393377D01*
X121669547Y-119386373D01*
X121614544Y-119383105D01*
X121486899Y-119361516D01*
X121362004Y-119344518D01*
X121308692Y-119331374D01*
X121251425Y-119321688D01*
X121129711Y-119287247D01*
X121010211Y-119257784D01*
X120955814Y-119238039D01*
X120897063Y-119221414D01*
X120782531Y-119175140D01*
X120669631Y-119134159D01*
X120614977Y-119107443D01*
X120555604Y-119083455D01*
X120449361Y-119026488D01*
X120344108Y-118975039D01*
X120290089Y-118941087D01*
X120231041Y-118909426D01*
X120134039Y-118843007D01*
X120037350Y-118782237D01*
X119984913Y-118740899D01*
X119927172Y-118701363D01*
X119840166Y-118626790D01*
X119752810Y-118557924D01*
X119702941Y-118509174D01*
X119647550Y-118461698D01*
X119571146Y-118380336D01*
X119493717Y-118304644D01*
X119447418Y-118248578D01*
X119395448Y-118193236D01*
X119330074Y-118106482D01*
X119263009Y-118025270D01*
X119221295Y-117962127D01*
X119173814Y-117899118D01*
X119119712Y-117808361D01*
X119063290Y-117722955D01*
X119027159Y-117653102D01*
X118985241Y-117582784D01*
X118942498Y-117489425D01*
X118896830Y-117401134D01*
X118867249Y-117325067D01*
X118831935Y-117247934D01*
X118800465Y-117153330D01*
X118765512Y-117063450D01*
X118743408Y-116981812D01*
X118715689Y-116898486D01*
X118695246Y-116803935D01*
X118670818Y-116713713D01*
X118657049Y-116627264D01*
X118637863Y-116538527D01*
X118628062Y-116445275D01*
X118613826Y-116355897D01*
X118609168Y-116265510D01*
X118599368Y-116172269D01*
X118599685Y-116081492D01*
X118595179Y-115994060D01*
X118600315Y-115900728D01*
X118600653Y-115803995D01*
X118610442Y-115716722D01*
X118615089Y-115632287D01*
X118630587Y-115537125D01*
X118641704Y-115438014D01*
X118660215Y-115355200D01*
X118673331Y-115274665D01*
X118699639Y-115178828D01*
X118722041Y-115078607D01*
X118748426Y-115001101D01*
X118769243Y-114925268D01*
X118806673Y-114830004D01*
X118840724Y-114729979D01*
X118874068Y-114658473D01*
X118901740Y-114588043D01*
X118950449Y-114494672D01*
X118996364Y-114396208D01*
X119035697Y-114331262D01*
X119069324Y-114266802D01*
X119129322Y-114176668D01*
X119187141Y-114081198D01*
X119231449Y-114023246D01*
X119270096Y-113965187D01*
X119341234Y-113879652D01*
X119410823Y-113788634D01*
X119459072Y-113737968D01*
X119501773Y-113686625D01*
X119583715Y-113607079D01*
X119664793Y-113521939D01*
X119715978Y-113478684D01*
X119761755Y-113434246D01*
X119854000Y-113362047D01*
X119946081Y-113284232D01*
X119999170Y-113248423D01*
X120047069Y-113210933D01*
X120148980Y-113147375D01*
X120251396Y-113078295D01*
X120305406Y-113049819D01*
X120354511Y-113019194D01*
X120465277Y-112965529D01*
X120577166Y-112906536D01*
X120631166Y-112885156D01*
X120680576Y-112861217D01*
X120799200Y-112818627D01*
X120919580Y-112770965D01*
X120972707Y-112756331D01*
X121021589Y-112738781D01*
X121146946Y-112708338D01*
X121274633Y-112673167D01*
X121326088Y-112664833D01*
X121373677Y-112653276D01*
X121504478Y-112635940D01*
X121638172Y-112614286D01*
X121687271Y-112611713D01*
X121732857Y-112605671D01*
X121867679Y-112602258D01*
X122005943Y-112595012D01*
X122052063Y-112597591D01*
X122052063Y-112597591D01*
G37*
G36*
X172052063Y-112597591D02*
G01*
X172095065Y-112596502D01*
X172232429Y-112607675D01*
X172373645Y-112615570D01*
X172416283Y-112622629D01*
X172456207Y-112625876D01*
X172594525Y-112652136D01*
X172736975Y-112675719D01*
X172775728Y-112686539D01*
X172812166Y-112693457D01*
X172949747Y-112735126D01*
X173091685Y-112774756D01*
X173126277Y-112788592D01*
X173158929Y-112798481D01*
X173293978Y-112855667D01*
X173433624Y-112911521D01*
X173463905Y-112927622D01*
X173492575Y-112939762D01*
X173623345Y-113012398D01*
X173758792Y-113084417D01*
X173784689Y-113102016D01*
X173809324Y-113115700D01*
X173934048Y-113203520D01*
X174063386Y-113291418D01*
X174084969Y-113309786D01*
X174105570Y-113324292D01*
X174222401Y-113426750D01*
X174343843Y-113530105D01*
X174361277Y-113548541D01*
X174377981Y-113563190D01*
X174485217Y-113679604D01*
X174596880Y-113797685D01*
X174610421Y-113815524D01*
X174623466Y-113829686D01*
X174719476Y-113959199D01*
X174819540Y-114091028D01*
X174829537Y-114107666D01*
X174839235Y-114120748D01*
X174922361Y-114262152D01*
X175009216Y-114406702D01*
X175016115Y-114421633D01*
X175022855Y-114433098D01*
X175091615Y-114585031D01*
X175163690Y-114741015D01*
X175167985Y-114753777D01*
X175172249Y-114763199D01*
X175225362Y-114924270D01*
X175281155Y-115090055D01*
X175283406Y-115100295D01*
X175285712Y-115107287D01*
X175321913Y-115275433D01*
X175360237Y-115449740D01*
X175361048Y-115457207D01*
X175361972Y-115461498D01*
X175380281Y-115634255D01*
X175400010Y-115815862D01*
X175399995Y-115820257D01*
X175400153Y-115821751D01*
X175399511Y-116190119D01*
X175398677Y-116197731D01*
X175398642Y-116207870D01*
X175378542Y-116381591D01*
X175360072Y-116550237D01*
X175357859Y-116560345D01*
X175356313Y-116573705D01*
X175318298Y-116741031D01*
X175282578Y-116904170D01*
X175278362Y-116916806D01*
X175274722Y-116932829D01*
X175219835Y-117092234D01*
X175167911Y-117247869D01*
X175161148Y-117262675D01*
X175154824Y-117281041D01*
X175084322Y-117430865D01*
X175017365Y-117577449D01*
X175007551Y-117594011D01*
X174998019Y-117614267D01*
X174913390Y-117752911D01*
X174832662Y-117889144D01*
X174819361Y-117906957D01*
X174806144Y-117928609D01*
X174708848Y-118054951D01*
X174615867Y-118179467D01*
X174598735Y-118197936D01*
X174581442Y-118220391D01*
X174473215Y-118333248D01*
X174369465Y-118445093D01*
X174348208Y-118463604D01*
X174326542Y-118486197D01*
X174209055Y-118584781D01*
X174096223Y-118683037D01*
X174070700Y-118700875D01*
X174044427Y-118722921D01*
X173919429Y-118806600D01*
X173799238Y-118890602D01*
X173769362Y-118907061D01*
X173738395Y-118927791D01*
X173607771Y-118996080D01*
X173481884Y-119065430D01*
X173447686Y-119079770D01*
X173412028Y-119098412D01*
X173277591Y-119151097D01*
X173147752Y-119205543D01*
X173109373Y-119217021D01*
X173069142Y-119232787D01*
X172932684Y-119269862D01*
X172800621Y-119309357D01*
X172758324Y-119317234D01*
X172713750Y-119329345D01*
X172577017Y-119351001D01*
X172444417Y-119375697D01*
X172398565Y-119379265D01*
X172350008Y-119386956D01*
X172214723Y-119393572D01*
X172083187Y-119403809D01*
X172034244Y-119402399D01*
X171982172Y-119404946D01*
X171849959Y-119397091D01*
X171721013Y-119393377D01*
X171669547Y-119386373D01*
X171614544Y-119383105D01*
X171486899Y-119361516D01*
X171362004Y-119344518D01*
X171308692Y-119331374D01*
X171251425Y-119321688D01*
X171129711Y-119287247D01*
X171010211Y-119257784D01*
X170955814Y-119238039D01*
X170897063Y-119221414D01*
X170782531Y-119175140D01*
X170669631Y-119134159D01*
X170614977Y-119107443D01*
X170555604Y-119083455D01*
X170449361Y-119026488D01*
X170344108Y-118975039D01*
X170290089Y-118941087D01*
X170231041Y-118909426D01*
X170134039Y-118843007D01*
X170037350Y-118782237D01*
X169984913Y-118740899D01*
X169927172Y-118701363D01*
X169840166Y-118626790D01*
X169752810Y-118557924D01*
X169702941Y-118509174D01*
X169647550Y-118461698D01*
X169571146Y-118380336D01*
X169493717Y-118304644D01*
X169447418Y-118248578D01*
X169395448Y-118193236D01*
X169330074Y-118106482D01*
X169263009Y-118025270D01*
X169221295Y-117962127D01*
X169173814Y-117899118D01*
X169119712Y-117808361D01*
X169063290Y-117722955D01*
X169027159Y-117653102D01*
X168985241Y-117582784D01*
X168942498Y-117489425D01*
X168896830Y-117401134D01*
X168867249Y-117325067D01*
X168831935Y-117247934D01*
X168800465Y-117153330D01*
X168765512Y-117063450D01*
X168743408Y-116981812D01*
X168715689Y-116898486D01*
X168695246Y-116803935D01*
X168670818Y-116713713D01*
X168657049Y-116627264D01*
X168637863Y-116538527D01*
X168628062Y-116445275D01*
X168613826Y-116355897D01*
X168609168Y-116265510D01*
X168599368Y-116172269D01*
X168599685Y-116081492D01*
X168595179Y-115994060D01*
X168600315Y-115900728D01*
X168600653Y-115803995D01*
X168610442Y-115716722D01*
X168615089Y-115632287D01*
X168630587Y-115537125D01*
X168641704Y-115438014D01*
X168660215Y-115355200D01*
X168673331Y-115274665D01*
X168699639Y-115178828D01*
X168722041Y-115078607D01*
X168748426Y-115001101D01*
X168769243Y-114925268D01*
X168806673Y-114830004D01*
X168840724Y-114729979D01*
X168874068Y-114658473D01*
X168901740Y-114588043D01*
X168950449Y-114494672D01*
X168996364Y-114396208D01*
X169035697Y-114331262D01*
X169069324Y-114266802D01*
X169129322Y-114176668D01*
X169187141Y-114081198D01*
X169231449Y-114023246D01*
X169270096Y-113965187D01*
X169341234Y-113879652D01*
X169410823Y-113788634D01*
X169459072Y-113737968D01*
X169501773Y-113686625D01*
X169583715Y-113607079D01*
X169664793Y-113521939D01*
X169715978Y-113478684D01*
X169761755Y-113434246D01*
X169854000Y-113362047D01*
X169946081Y-113284232D01*
X169999170Y-113248423D01*
X170047069Y-113210933D01*
X170148980Y-113147375D01*
X170251396Y-113078295D01*
X170305406Y-113049819D01*
X170354511Y-113019194D01*
X170465277Y-112965529D01*
X170577166Y-112906536D01*
X170631166Y-112885156D01*
X170680576Y-112861217D01*
X170799200Y-112818627D01*
X170919580Y-112770965D01*
X170972707Y-112756331D01*
X171021589Y-112738781D01*
X171146946Y-112708338D01*
X171274633Y-112673167D01*
X171326088Y-112664833D01*
X171373677Y-112653276D01*
X171504478Y-112635940D01*
X171638172Y-112614286D01*
X171687271Y-112611713D01*
X171732857Y-112605671D01*
X171867679Y-112602258D01*
X172005943Y-112595012D01*
X172052063Y-112597591D01*
X172052063Y-112597591D01*
G37*
G36*
X146527575Y-110178624D02*
G01*
X146568760Y-110180674D01*
X146616878Y-110192448D01*
X146671701Y-110200935D01*
X146710442Y-110215343D01*
X146744845Y-110223761D01*
X146795154Y-110246847D01*
X146852593Y-110268209D01*
X146882697Y-110287020D01*
X146909603Y-110299367D01*
X146959363Y-110334926D01*
X147016264Y-110370482D01*
X147037751Y-110390944D01*
X147057089Y-110404763D01*
X147103212Y-110453281D01*
X147156027Y-110503576D01*
X147169630Y-110523148D01*
X147181989Y-110536149D01*
X147221230Y-110597391D01*
X147266173Y-110662056D01*
X147273262Y-110678596D01*
X147279790Y-110688784D01*
X147308878Y-110761694D01*
X147342203Y-110839446D01*
X147344646Y-110851346D01*
X147346963Y-110857154D01*
X147362808Y-110939822D01*
X147381011Y-111028501D01*
X147380989Y-111034685D01*
X147381055Y-111035027D01*
X147380404Y-111221602D01*
X147380336Y-111221946D01*
X147380314Y-111228128D01*
X147361492Y-111316675D01*
X147345070Y-111399235D01*
X147342713Y-111405026D01*
X147340187Y-111416908D01*
X147306328Y-111494408D01*
X147276724Y-111567134D01*
X147270123Y-111577279D01*
X147262921Y-111593764D01*
X147217533Y-111658105D01*
X147177860Y-111719079D01*
X147165410Y-111731994D01*
X147151671Y-111751470D01*
X147098511Y-111801391D01*
X147052050Y-111849587D01*
X147032617Y-111863270D01*
X147010983Y-111883586D01*
X146953817Y-111918755D01*
X146903823Y-111953956D01*
X146876838Y-111966112D01*
X146846602Y-111984713D01*
X146789015Y-112005673D01*
X146738547Y-112028407D01*
X146704083Y-112036586D01*
X146665244Y-112050722D01*
X146610370Y-112058825D01*
X146562169Y-112070264D01*
X146520971Y-112072027D01*
X146474317Y-112078916D01*
X146424735Y-112076144D01*
X146381053Y-112078013D01*
X146334521Y-112071100D01*
X146281621Y-112068143D01*
X146239246Y-112056947D01*
X146201746Y-112051376D01*
X146151871Y-112033861D01*
X146095027Y-112018842D01*
X146060988Y-112001945D01*
X146030710Y-111991312D01*
X145980040Y-111961762D01*
X145922157Y-111933029D01*
X145896801Y-111913219D01*
X145874112Y-111899987D01*
X145825576Y-111857572D01*
X145770073Y-111814208D01*
X145753003Y-111794150D01*
X145737616Y-111780704D01*
X145694420Y-111725315D01*
X145644988Y-111667233D01*
X145635110Y-111649265D01*
X145626132Y-111637753D01*
X145591559Y-111570046D01*
X145552011Y-111498109D01*
X145547678Y-111484111D01*
X145543695Y-111476311D01*
X145520952Y-111397775D01*
X145494940Y-111313743D01*
X145494081Y-111304981D01*
X145493272Y-111302188D01*
X145485298Y-111215405D01*
X145476107Y-111121667D01*
X145485950Y-111028015D01*
X145494532Y-110941273D01*
X145495360Y-110938485D01*
X145496281Y-110929727D01*
X145522888Y-110845850D01*
X145546169Y-110767506D01*
X145550204Y-110759738D01*
X145554637Y-110745764D01*
X145594702Y-110674077D01*
X145629735Y-110606635D01*
X145638791Y-110595189D01*
X145648793Y-110577292D01*
X145698626Y-110519561D01*
X145742210Y-110464472D01*
X145757692Y-110451132D01*
X145774901Y-110431195D01*
X145830698Y-110388225D01*
X145879535Y-110346144D01*
X145902318Y-110333070D01*
X145927810Y-110313438D01*
X145985893Y-110285109D01*
X146036768Y-110255914D01*
X146067119Y-110245493D01*
X146101275Y-110228834D01*
X146158221Y-110214213D01*
X146208219Y-110197046D01*
X146245763Y-110191736D01*
X146288209Y-110180838D01*
X146341118Y-110178250D01*
X146387709Y-110171661D01*
X146431387Y-110173835D01*
X146480976Y-110171410D01*
X146527575Y-110178624D01*
X146527575Y-110178624D01*
G37*
G36*
X168117575Y-106114624D02*
G01*
X168158760Y-106116674D01*
X168206878Y-106128448D01*
X168261701Y-106136935D01*
X168300442Y-106151343D01*
X168334845Y-106159761D01*
X168385154Y-106182847D01*
X168442593Y-106204209D01*
X168472697Y-106223020D01*
X168499603Y-106235367D01*
X168549363Y-106270926D01*
X168606264Y-106306482D01*
X168627751Y-106326944D01*
X168647089Y-106340763D01*
X168693212Y-106389281D01*
X168746027Y-106439576D01*
X168759630Y-106459148D01*
X168771989Y-106472149D01*
X168811230Y-106533391D01*
X168856173Y-106598056D01*
X168863262Y-106614596D01*
X168869790Y-106624784D01*
X168898878Y-106697694D01*
X168932203Y-106775446D01*
X168934646Y-106787346D01*
X168936963Y-106793154D01*
X168952808Y-106875822D01*
X168971011Y-106964501D01*
X168970989Y-106970685D01*
X168971055Y-106971027D01*
X168970404Y-107157602D01*
X168970336Y-107157946D01*
X168970314Y-107164128D01*
X168951492Y-107252675D01*
X168935070Y-107335235D01*
X168932713Y-107341026D01*
X168930187Y-107352908D01*
X168896328Y-107430408D01*
X168866724Y-107503134D01*
X168860123Y-107513279D01*
X168852921Y-107529764D01*
X168807533Y-107594105D01*
X168767860Y-107655079D01*
X168755410Y-107667994D01*
X168741671Y-107687470D01*
X168688511Y-107737391D01*
X168642050Y-107785587D01*
X168622617Y-107799270D01*
X168600983Y-107819586D01*
X168543817Y-107854755D01*
X168493823Y-107889956D01*
X168466838Y-107902112D01*
X168436602Y-107920713D01*
X168379015Y-107941673D01*
X168328547Y-107964407D01*
X168294083Y-107972586D01*
X168255244Y-107986722D01*
X168200370Y-107994825D01*
X168152169Y-108006264D01*
X168110971Y-108008027D01*
X168064317Y-108014916D01*
X168014735Y-108012144D01*
X167971053Y-108014013D01*
X167924521Y-108007100D01*
X167871621Y-108004143D01*
X167829246Y-107992947D01*
X167791746Y-107987376D01*
X167741871Y-107969861D01*
X167685027Y-107954842D01*
X167650988Y-107937945D01*
X167620710Y-107927312D01*
X167570040Y-107897762D01*
X167512157Y-107869029D01*
X167486801Y-107849219D01*
X167464112Y-107835987D01*
X167415576Y-107793572D01*
X167360073Y-107750208D01*
X167343003Y-107730150D01*
X167327616Y-107716704D01*
X167284420Y-107661315D01*
X167234988Y-107603233D01*
X167225110Y-107585265D01*
X167216132Y-107573753D01*
X167181559Y-107506046D01*
X167142011Y-107434109D01*
X167137678Y-107420111D01*
X167133695Y-107412311D01*
X167110952Y-107333775D01*
X167084940Y-107249743D01*
X167084081Y-107240981D01*
X167083272Y-107238188D01*
X167075298Y-107151405D01*
X167066107Y-107057667D01*
X167075950Y-106964015D01*
X167084532Y-106877273D01*
X167085360Y-106874485D01*
X167086281Y-106865727D01*
X167112888Y-106781850D01*
X167136169Y-106703506D01*
X167140204Y-106695738D01*
X167144637Y-106681764D01*
X167184702Y-106610077D01*
X167219735Y-106542635D01*
X167228791Y-106531189D01*
X167238793Y-106513292D01*
X167288626Y-106455561D01*
X167332210Y-106400472D01*
X167347692Y-106387132D01*
X167364901Y-106367195D01*
X167420698Y-106324225D01*
X167469535Y-106282144D01*
X167492318Y-106269070D01*
X167517810Y-106249438D01*
X167575893Y-106221109D01*
X167626768Y-106191914D01*
X167657119Y-106181493D01*
X167691275Y-106164834D01*
X167748221Y-106150213D01*
X167798219Y-106133046D01*
X167835763Y-106127736D01*
X167878209Y-106116838D01*
X167931118Y-106114250D01*
X167977709Y-106107661D01*
X168021387Y-106109835D01*
X168070976Y-106107410D01*
X168117575Y-106114624D01*
X168117575Y-106114624D01*
G37*
G36*
X154909575Y-106114624D02*
G01*
X154950760Y-106116674D01*
X154998878Y-106128448D01*
X155053701Y-106136935D01*
X155092442Y-106151343D01*
X155126845Y-106159761D01*
X155177154Y-106182847D01*
X155234593Y-106204209D01*
X155264697Y-106223020D01*
X155291603Y-106235367D01*
X155341363Y-106270926D01*
X155398264Y-106306482D01*
X155419751Y-106326944D01*
X155439089Y-106340763D01*
X155485212Y-106389281D01*
X155538027Y-106439576D01*
X155551630Y-106459148D01*
X155563989Y-106472149D01*
X155603230Y-106533391D01*
X155648173Y-106598056D01*
X155655262Y-106614596D01*
X155661790Y-106624784D01*
X155690878Y-106697694D01*
X155724203Y-106775446D01*
X155726646Y-106787346D01*
X155728963Y-106793154D01*
X155744808Y-106875822D01*
X155763011Y-106964501D01*
X155762989Y-106970685D01*
X155763055Y-106971027D01*
X155762404Y-107157602D01*
X155762336Y-107157946D01*
X155762314Y-107164128D01*
X155743492Y-107252675D01*
X155727070Y-107335235D01*
X155724713Y-107341026D01*
X155722187Y-107352908D01*
X155688328Y-107430408D01*
X155658724Y-107503134D01*
X155652123Y-107513279D01*
X155644921Y-107529764D01*
X155599533Y-107594105D01*
X155559860Y-107655079D01*
X155547410Y-107667994D01*
X155533671Y-107687470D01*
X155480511Y-107737391D01*
X155434050Y-107785587D01*
X155414617Y-107799270D01*
X155392983Y-107819586D01*
X155335817Y-107854755D01*
X155285823Y-107889956D01*
X155258838Y-107902112D01*
X155228602Y-107920713D01*
X155171015Y-107941673D01*
X155120547Y-107964407D01*
X155086083Y-107972586D01*
X155047244Y-107986722D01*
X154992370Y-107994825D01*
X154944169Y-108006264D01*
X154902971Y-108008027D01*
X154856317Y-108014916D01*
X154806735Y-108012144D01*
X154763053Y-108014013D01*
X154716521Y-108007100D01*
X154663621Y-108004143D01*
X154621246Y-107992947D01*
X154583746Y-107987376D01*
X154533871Y-107969861D01*
X154477027Y-107954842D01*
X154442988Y-107937945D01*
X154412710Y-107927312D01*
X154362040Y-107897762D01*
X154304157Y-107869029D01*
X154278801Y-107849219D01*
X154256112Y-107835987D01*
X154207576Y-107793572D01*
X154152073Y-107750208D01*
X154135003Y-107730150D01*
X154119616Y-107716704D01*
X154076420Y-107661315D01*
X154026988Y-107603233D01*
X154017110Y-107585265D01*
X154008132Y-107573753D01*
X153973559Y-107506046D01*
X153934011Y-107434109D01*
X153929678Y-107420111D01*
X153925695Y-107412311D01*
X153902952Y-107333775D01*
X153876940Y-107249743D01*
X153876081Y-107240981D01*
X153875272Y-107238188D01*
X153867298Y-107151405D01*
X153858107Y-107057667D01*
X153867950Y-106964015D01*
X153876532Y-106877273D01*
X153877360Y-106874485D01*
X153878281Y-106865727D01*
X153904888Y-106781850D01*
X153928169Y-106703506D01*
X153932204Y-106695738D01*
X153936637Y-106681764D01*
X153976702Y-106610077D01*
X154011735Y-106542635D01*
X154020791Y-106531189D01*
X154030793Y-106513292D01*
X154080626Y-106455561D01*
X154124210Y-106400472D01*
X154139692Y-106387132D01*
X154156901Y-106367195D01*
X154212698Y-106324225D01*
X154261535Y-106282144D01*
X154284318Y-106269070D01*
X154309810Y-106249438D01*
X154367893Y-106221109D01*
X154418768Y-106191914D01*
X154449119Y-106181493D01*
X154483275Y-106164834D01*
X154540221Y-106150213D01*
X154590219Y-106133046D01*
X154627763Y-106127736D01*
X154670209Y-106116838D01*
X154723118Y-106114250D01*
X154769709Y-106107661D01*
X154813387Y-106109835D01*
X154862976Y-106107410D01*
X154909575Y-106114624D01*
X154909575Y-106114624D01*
G37*
G36*
X157403954Y-103601289D02*
G01*
X157449632Y-103601607D01*
X157494380Y-103610793D01*
X157545332Y-103616148D01*
X157587992Y-103630009D01*
X157626370Y-103637887D01*
X157674476Y-103658109D01*
X157729259Y-103675909D01*
X157762567Y-103695140D01*
X157792692Y-103707803D01*
X157841370Y-103740636D01*
X157896741Y-103772605D01*
X157920555Y-103794047D01*
X157942273Y-103808696D01*
X157988297Y-103855042D01*
X158040459Y-103902009D01*
X158055512Y-103922728D01*
X158069402Y-103936715D01*
X158109260Y-103996706D01*
X158154132Y-104058467D01*
X158161928Y-104075977D01*
X158169249Y-104086996D01*
X158199358Y-104160047D01*
X158232791Y-104235139D01*
X158235435Y-104247577D01*
X158238001Y-104253803D01*
X158254920Y-104339248D01*
X158272999Y-104424304D01*
X158272999Y-104617696D01*
X158270057Y-104631535D01*
X158269971Y-104637725D01*
X158250892Y-104721702D01*
X158232791Y-104806861D01*
X158230246Y-104812578D01*
X158230194Y-104812805D01*
X158156809Y-104977630D01*
X158156677Y-104977818D01*
X158154132Y-104983533D01*
X158102962Y-105053963D01*
X158052811Y-105125056D01*
X158047939Y-105129695D01*
X158040459Y-105139991D01*
X157979319Y-105195041D01*
X157922150Y-105249483D01*
X157910989Y-105256566D01*
X157896741Y-105269395D01*
X157830617Y-105307572D01*
X157769815Y-105346158D01*
X157751438Y-105353286D01*
X157729259Y-105366091D01*
X157662510Y-105387779D01*
X157601606Y-105411402D01*
X157575802Y-105415952D01*
X157545332Y-105425852D01*
X157481758Y-105432534D01*
X157423926Y-105442731D01*
X157391251Y-105442047D01*
X157353000Y-105446067D01*
X157295712Y-105440046D01*
X157243537Y-105438953D01*
X157205274Y-105430540D01*
X157160668Y-105425852D01*
X157111941Y-105410020D01*
X157067328Y-105400211D01*
X157025473Y-105381925D01*
X156976741Y-105366091D01*
X156937890Y-105343660D01*
X156901995Y-105327978D01*
X156859146Y-105298197D01*
X156809259Y-105269395D01*
X156780680Y-105243663D01*
X156753841Y-105225009D01*
X156713046Y-105182765D01*
X156665541Y-105139991D01*
X156646708Y-105114070D01*
X156628510Y-105095225D01*
X156593129Y-105040324D01*
X156551868Y-104983533D01*
X156541450Y-104960133D01*
X156530773Y-104943566D01*
X156504263Y-104876609D01*
X156473209Y-104806861D01*
X156469224Y-104788111D01*
X156464356Y-104775817D01*
X156450100Y-104698139D01*
X156433001Y-104617696D01*
X156433001Y-104604975D01*
X156431786Y-104598355D01*
X156433001Y-104511341D01*
X156433001Y-104424304D01*
X156434302Y-104418184D01*
X156434305Y-104417953D01*
X156471817Y-104241471D01*
X156471908Y-104241258D01*
X156473209Y-104235139D01*
X156508609Y-104155628D01*
X156542894Y-104075636D01*
X156546696Y-104070083D01*
X156551868Y-104058467D01*
X156600191Y-103991956D01*
X156644824Y-103926771D01*
X156654274Y-103917517D01*
X156665541Y-103902009D01*
X156722273Y-103850927D01*
X156773729Y-103800538D01*
X156790224Y-103789744D01*
X156809259Y-103772605D01*
X156870062Y-103737501D01*
X156924704Y-103701744D01*
X156948986Y-103691933D01*
X156976741Y-103675909D01*
X157037548Y-103656152D01*
X157091989Y-103634156D01*
X157124092Y-103628032D01*
X157160668Y-103616148D01*
X157217957Y-103610127D01*
X157269214Y-103600349D01*
X157308386Y-103600622D01*
X157353000Y-103595933D01*
X157403954Y-103601289D01*
X157403954Y-103601289D01*
G37*
G36*
X125145954Y-103601289D02*
G01*
X125191632Y-103601607D01*
X125236380Y-103610793D01*
X125287332Y-103616148D01*
X125329992Y-103630009D01*
X125368370Y-103637887D01*
X125416476Y-103658109D01*
X125471259Y-103675909D01*
X125504567Y-103695140D01*
X125534692Y-103707803D01*
X125583370Y-103740636D01*
X125638741Y-103772605D01*
X125662555Y-103794047D01*
X125684273Y-103808696D01*
X125730297Y-103855042D01*
X125782459Y-103902009D01*
X125797512Y-103922728D01*
X125811402Y-103936715D01*
X125851260Y-103996706D01*
X125896132Y-104058467D01*
X125903928Y-104075977D01*
X125911249Y-104086996D01*
X125941358Y-104160047D01*
X125974791Y-104235139D01*
X125977435Y-104247577D01*
X125980001Y-104253803D01*
X125996920Y-104339248D01*
X126014999Y-104424304D01*
X126014999Y-104617696D01*
X126012057Y-104631535D01*
X126011971Y-104637725D01*
X125992892Y-104721702D01*
X125974791Y-104806861D01*
X125972246Y-104812578D01*
X125972194Y-104812805D01*
X125898809Y-104977630D01*
X125898677Y-104977818D01*
X125896132Y-104983533D01*
X125844962Y-105053963D01*
X125794811Y-105125056D01*
X125789939Y-105129695D01*
X125782459Y-105139991D01*
X125721319Y-105195041D01*
X125664150Y-105249483D01*
X125652989Y-105256566D01*
X125638741Y-105269395D01*
X125572617Y-105307572D01*
X125511815Y-105346158D01*
X125493438Y-105353286D01*
X125471259Y-105366091D01*
X125404510Y-105387779D01*
X125343606Y-105411402D01*
X125317802Y-105415952D01*
X125287332Y-105425852D01*
X125223758Y-105432534D01*
X125165926Y-105442731D01*
X125133251Y-105442047D01*
X125095000Y-105446067D01*
X125037712Y-105440046D01*
X124985537Y-105438953D01*
X124947274Y-105430540D01*
X124902668Y-105425852D01*
X124853941Y-105410020D01*
X124809328Y-105400211D01*
X124767473Y-105381925D01*
X124718741Y-105366091D01*
X124679890Y-105343660D01*
X124643995Y-105327978D01*
X124601146Y-105298197D01*
X124551259Y-105269395D01*
X124522680Y-105243663D01*
X124495841Y-105225009D01*
X124455046Y-105182765D01*
X124407541Y-105139991D01*
X124388708Y-105114070D01*
X124370510Y-105095225D01*
X124335129Y-105040324D01*
X124293868Y-104983533D01*
X124283450Y-104960133D01*
X124272773Y-104943566D01*
X124246263Y-104876609D01*
X124215209Y-104806861D01*
X124211224Y-104788111D01*
X124206356Y-104775817D01*
X124192100Y-104698139D01*
X124175001Y-104617696D01*
X124175001Y-104604975D01*
X124173786Y-104598355D01*
X124175001Y-104511341D01*
X124175001Y-104424304D01*
X124176302Y-104418184D01*
X124176305Y-104417953D01*
X124213817Y-104241471D01*
X124213908Y-104241258D01*
X124215209Y-104235139D01*
X124250609Y-104155628D01*
X124284894Y-104075636D01*
X124288696Y-104070083D01*
X124293868Y-104058467D01*
X124342191Y-103991956D01*
X124386824Y-103926771D01*
X124396274Y-103917517D01*
X124407541Y-103902009D01*
X124464273Y-103850927D01*
X124515729Y-103800538D01*
X124532224Y-103789744D01*
X124551259Y-103772605D01*
X124612062Y-103737501D01*
X124666704Y-103701744D01*
X124690986Y-103691933D01*
X124718741Y-103675909D01*
X124779548Y-103656152D01*
X124833989Y-103634156D01*
X124866092Y-103628032D01*
X124902668Y-103616148D01*
X124959957Y-103610127D01*
X125011214Y-103600349D01*
X125050386Y-103600622D01*
X125095000Y-103595933D01*
X125145954Y-103601289D01*
X125145954Y-103601289D01*
G37*
G36*
X165531954Y-103601289D02*
G01*
X165577632Y-103601607D01*
X165622380Y-103610793D01*
X165673332Y-103616148D01*
X165715992Y-103630009D01*
X165754370Y-103637887D01*
X165802476Y-103658109D01*
X165857259Y-103675909D01*
X165890567Y-103695140D01*
X165920692Y-103707803D01*
X165969370Y-103740636D01*
X166024741Y-103772605D01*
X166048555Y-103794047D01*
X166070273Y-103808696D01*
X166116297Y-103855042D01*
X166168459Y-103902009D01*
X166183512Y-103922728D01*
X166197402Y-103936715D01*
X166237260Y-103996706D01*
X166282132Y-104058467D01*
X166289928Y-104075977D01*
X166297249Y-104086996D01*
X166327358Y-104160047D01*
X166360791Y-104235139D01*
X166363435Y-104247577D01*
X166366001Y-104253803D01*
X166382920Y-104339248D01*
X166400999Y-104424304D01*
X166400999Y-104617696D01*
X166398057Y-104631535D01*
X166397971Y-104637725D01*
X166378892Y-104721702D01*
X166360791Y-104806861D01*
X166358246Y-104812578D01*
X166358194Y-104812805D01*
X166284809Y-104977630D01*
X166284677Y-104977818D01*
X166282132Y-104983533D01*
X166230962Y-105053963D01*
X166180811Y-105125056D01*
X166175939Y-105129695D01*
X166168459Y-105139991D01*
X166107319Y-105195041D01*
X166050150Y-105249483D01*
X166038989Y-105256566D01*
X166024741Y-105269395D01*
X165958617Y-105307572D01*
X165897815Y-105346158D01*
X165879438Y-105353286D01*
X165857259Y-105366091D01*
X165790510Y-105387779D01*
X165729606Y-105411402D01*
X165703802Y-105415952D01*
X165673332Y-105425852D01*
X165609758Y-105432534D01*
X165551926Y-105442731D01*
X165519251Y-105442047D01*
X165481000Y-105446067D01*
X165423712Y-105440046D01*
X165371537Y-105438953D01*
X165333274Y-105430540D01*
X165288668Y-105425852D01*
X165239941Y-105410020D01*
X165195328Y-105400211D01*
X165153473Y-105381925D01*
X165104741Y-105366091D01*
X165065890Y-105343660D01*
X165029995Y-105327978D01*
X164987146Y-105298197D01*
X164937259Y-105269395D01*
X164908680Y-105243663D01*
X164881841Y-105225009D01*
X164841046Y-105182765D01*
X164793541Y-105139991D01*
X164774708Y-105114070D01*
X164756510Y-105095225D01*
X164721129Y-105040324D01*
X164679868Y-104983533D01*
X164669450Y-104960133D01*
X164658773Y-104943566D01*
X164632263Y-104876609D01*
X164601209Y-104806861D01*
X164597224Y-104788111D01*
X164592356Y-104775817D01*
X164578100Y-104698139D01*
X164561001Y-104617696D01*
X164561001Y-104604975D01*
X164559786Y-104598355D01*
X164561001Y-104511341D01*
X164561001Y-104424304D01*
X164562302Y-104418184D01*
X164562305Y-104417953D01*
X164599817Y-104241471D01*
X164599908Y-104241258D01*
X164601209Y-104235139D01*
X164636609Y-104155628D01*
X164670894Y-104075636D01*
X164674696Y-104070083D01*
X164679868Y-104058467D01*
X164728191Y-103991956D01*
X164772824Y-103926771D01*
X164782274Y-103917517D01*
X164793541Y-103902009D01*
X164850273Y-103850927D01*
X164901729Y-103800538D01*
X164918224Y-103789744D01*
X164937259Y-103772605D01*
X164998062Y-103737501D01*
X165052704Y-103701744D01*
X165076986Y-103691933D01*
X165104741Y-103675909D01*
X165165548Y-103656152D01*
X165219989Y-103634156D01*
X165252092Y-103628032D01*
X165288668Y-103616148D01*
X165345957Y-103610127D01*
X165397214Y-103600349D01*
X165436386Y-103600622D01*
X165481000Y-103595933D01*
X165531954Y-103601289D01*
X165531954Y-103601289D01*
G37*
G36*
X133752280Y-100477082D02*
G01*
X133757000Y-100477082D01*
X133793854Y-100484413D01*
X133826461Y-100490162D01*
X133828407Y-100491285D01*
X133835036Y-100492604D01*
X133862655Y-100511058D01*
X133887539Y-100525425D01*
X133891856Y-100530570D01*
X133901192Y-100536808D01*
X133917229Y-100560809D01*
X133929232Y-100575114D01*
X133930869Y-100581222D01*
X133945396Y-100602964D01*
X133960918Y-100681000D01*
X133960918Y-100693367D01*
X133962014Y-100697457D01*
X133962014Y-103270064D01*
X133960918Y-103276280D01*
X133960918Y-103281000D01*
X133953587Y-103317854D01*
X133947838Y-103350461D01*
X133946715Y-103352407D01*
X133945396Y-103359036D01*
X133926938Y-103386660D01*
X133912573Y-103411541D01*
X133907429Y-103415857D01*
X133901192Y-103425192D01*
X133877202Y-103441221D01*
X133862889Y-103453232D01*
X133856776Y-103454870D01*
X133835036Y-103469396D01*
X133757000Y-103484918D01*
X133744633Y-103484918D01*
X133740543Y-103486014D01*
X130667936Y-103486014D01*
X130661720Y-103484918D01*
X130657000Y-103484918D01*
X130620146Y-103477587D01*
X130587539Y-103471838D01*
X130585593Y-103470715D01*
X130578964Y-103469396D01*
X130551340Y-103450938D01*
X130526459Y-103436573D01*
X130522143Y-103431429D01*
X130512808Y-103425192D01*
X130496779Y-103401202D01*
X130484768Y-103386889D01*
X130483130Y-103380776D01*
X130468604Y-103359036D01*
X130453082Y-103281000D01*
X130453082Y-103268633D01*
X130451986Y-103264543D01*
X130451986Y-100691936D01*
X130453082Y-100685720D01*
X130453082Y-100681000D01*
X130460413Y-100644146D01*
X130466162Y-100611539D01*
X130467285Y-100609593D01*
X130468604Y-100602964D01*
X130487058Y-100575345D01*
X130501425Y-100550461D01*
X130506570Y-100546144D01*
X130512808Y-100536808D01*
X130536809Y-100520771D01*
X130551114Y-100508768D01*
X130557222Y-100507131D01*
X130578964Y-100492604D01*
X130657000Y-100477082D01*
X130669367Y-100477082D01*
X130673457Y-100475986D01*
X133746064Y-100475986D01*
X133752280Y-100477082D01*
X133752280Y-100477082D01*
G37*
G36*
X168071954Y-101061289D02*
G01*
X168117632Y-101061607D01*
X168162380Y-101070793D01*
X168213332Y-101076148D01*
X168255992Y-101090009D01*
X168294370Y-101097887D01*
X168342476Y-101118109D01*
X168397259Y-101135909D01*
X168430567Y-101155140D01*
X168460692Y-101167803D01*
X168509370Y-101200636D01*
X168564741Y-101232605D01*
X168588555Y-101254047D01*
X168610273Y-101268696D01*
X168656297Y-101315042D01*
X168708459Y-101362009D01*
X168723512Y-101382728D01*
X168737402Y-101396715D01*
X168777260Y-101456706D01*
X168822132Y-101518467D01*
X168829928Y-101535977D01*
X168837249Y-101546996D01*
X168867358Y-101620047D01*
X168900791Y-101695139D01*
X168903435Y-101707577D01*
X168906001Y-101713803D01*
X168922920Y-101799248D01*
X168940999Y-101884304D01*
X168940999Y-102077696D01*
X168938057Y-102091535D01*
X168937971Y-102097725D01*
X168918892Y-102181702D01*
X168900791Y-102266861D01*
X168898246Y-102272578D01*
X168898194Y-102272805D01*
X168824809Y-102437630D01*
X168824677Y-102437818D01*
X168822132Y-102443533D01*
X168770962Y-102513963D01*
X168720811Y-102585056D01*
X168715939Y-102589695D01*
X168708459Y-102599991D01*
X168647319Y-102655041D01*
X168590150Y-102709483D01*
X168578989Y-102716566D01*
X168564741Y-102729395D01*
X168498617Y-102767572D01*
X168437815Y-102806158D01*
X168419438Y-102813286D01*
X168397259Y-102826091D01*
X168330510Y-102847779D01*
X168269606Y-102871402D01*
X168243802Y-102875952D01*
X168213332Y-102885852D01*
X168149758Y-102892534D01*
X168091926Y-102902731D01*
X168059251Y-102902047D01*
X168021000Y-102906067D01*
X167963712Y-102900046D01*
X167911537Y-102898953D01*
X167873274Y-102890540D01*
X167828668Y-102885852D01*
X167779941Y-102870020D01*
X167735328Y-102860211D01*
X167693473Y-102841925D01*
X167644741Y-102826091D01*
X167605890Y-102803660D01*
X167569995Y-102787978D01*
X167527146Y-102758197D01*
X167477259Y-102729395D01*
X167448680Y-102703663D01*
X167421841Y-102685009D01*
X167381046Y-102642765D01*
X167333541Y-102599991D01*
X167314708Y-102574070D01*
X167296510Y-102555225D01*
X167261129Y-102500324D01*
X167219868Y-102443533D01*
X167209450Y-102420133D01*
X167198773Y-102403566D01*
X167172263Y-102336609D01*
X167141209Y-102266861D01*
X167137224Y-102248111D01*
X167132356Y-102235817D01*
X167118100Y-102158139D01*
X167101001Y-102077696D01*
X167101001Y-102064975D01*
X167099786Y-102058355D01*
X167101001Y-101971341D01*
X167101001Y-101884304D01*
X167102302Y-101878184D01*
X167102305Y-101877953D01*
X167139817Y-101701471D01*
X167139908Y-101701258D01*
X167141209Y-101695139D01*
X167176609Y-101615628D01*
X167210894Y-101535636D01*
X167214696Y-101530083D01*
X167219868Y-101518467D01*
X167268191Y-101451956D01*
X167312824Y-101386771D01*
X167322274Y-101377517D01*
X167333541Y-101362009D01*
X167390273Y-101310927D01*
X167441729Y-101260538D01*
X167458224Y-101249744D01*
X167477259Y-101232605D01*
X167538062Y-101197501D01*
X167592704Y-101161744D01*
X167616986Y-101151933D01*
X167644741Y-101135909D01*
X167705548Y-101116152D01*
X167759989Y-101094156D01*
X167792092Y-101088032D01*
X167828668Y-101076148D01*
X167885957Y-101070127D01*
X167937214Y-101060349D01*
X167976386Y-101060622D01*
X168021000Y-101055933D01*
X168071954Y-101061289D01*
X168071954Y-101061289D01*
G37*
G36*
X122605954Y-101061289D02*
G01*
X122651632Y-101061607D01*
X122696380Y-101070793D01*
X122747332Y-101076148D01*
X122789992Y-101090009D01*
X122828370Y-101097887D01*
X122876476Y-101118109D01*
X122931259Y-101135909D01*
X122964567Y-101155140D01*
X122994692Y-101167803D01*
X123043370Y-101200636D01*
X123098741Y-101232605D01*
X123122555Y-101254047D01*
X123144273Y-101268696D01*
X123190297Y-101315042D01*
X123242459Y-101362009D01*
X123257512Y-101382728D01*
X123271402Y-101396715D01*
X123311260Y-101456706D01*
X123356132Y-101518467D01*
X123363928Y-101535977D01*
X123371249Y-101546996D01*
X123401358Y-101620047D01*
X123434791Y-101695139D01*
X123437435Y-101707577D01*
X123440001Y-101713803D01*
X123456920Y-101799248D01*
X123474999Y-101884304D01*
X123474999Y-102077696D01*
X123472057Y-102091535D01*
X123471971Y-102097725D01*
X123452892Y-102181702D01*
X123434791Y-102266861D01*
X123432246Y-102272578D01*
X123432194Y-102272805D01*
X123358809Y-102437630D01*
X123358677Y-102437818D01*
X123356132Y-102443533D01*
X123304962Y-102513963D01*
X123254811Y-102585056D01*
X123249939Y-102589695D01*
X123242459Y-102599991D01*
X123181319Y-102655041D01*
X123124150Y-102709483D01*
X123112989Y-102716566D01*
X123098741Y-102729395D01*
X123032617Y-102767572D01*
X122971815Y-102806158D01*
X122953438Y-102813286D01*
X122931259Y-102826091D01*
X122864510Y-102847779D01*
X122803606Y-102871402D01*
X122777802Y-102875952D01*
X122747332Y-102885852D01*
X122683758Y-102892534D01*
X122625926Y-102902731D01*
X122593251Y-102902047D01*
X122555000Y-102906067D01*
X122497712Y-102900046D01*
X122445537Y-102898953D01*
X122407274Y-102890540D01*
X122362668Y-102885852D01*
X122313941Y-102870020D01*
X122269328Y-102860211D01*
X122227473Y-102841925D01*
X122178741Y-102826091D01*
X122139890Y-102803660D01*
X122103995Y-102787978D01*
X122061146Y-102758197D01*
X122011259Y-102729395D01*
X121982680Y-102703663D01*
X121955841Y-102685009D01*
X121915046Y-102642765D01*
X121867541Y-102599991D01*
X121848708Y-102574070D01*
X121830510Y-102555225D01*
X121795129Y-102500324D01*
X121753868Y-102443533D01*
X121743450Y-102420133D01*
X121732773Y-102403566D01*
X121706263Y-102336609D01*
X121675209Y-102266861D01*
X121671224Y-102248111D01*
X121666356Y-102235817D01*
X121652100Y-102158139D01*
X121635001Y-102077696D01*
X121635001Y-102064975D01*
X121633786Y-102058355D01*
X121635001Y-101971341D01*
X121635001Y-101884304D01*
X121636302Y-101878184D01*
X121636305Y-101877953D01*
X121673817Y-101701471D01*
X121673908Y-101701258D01*
X121675209Y-101695139D01*
X121710609Y-101615628D01*
X121744894Y-101535636D01*
X121748696Y-101530083D01*
X121753868Y-101518467D01*
X121802191Y-101451956D01*
X121846824Y-101386771D01*
X121856274Y-101377517D01*
X121867541Y-101362009D01*
X121924273Y-101310927D01*
X121975729Y-101260538D01*
X121992224Y-101249744D01*
X122011259Y-101232605D01*
X122072062Y-101197501D01*
X122126704Y-101161744D01*
X122150986Y-101151933D01*
X122178741Y-101135909D01*
X122239548Y-101116152D01*
X122293989Y-101094156D01*
X122326092Y-101088032D01*
X122362668Y-101076148D01*
X122419957Y-101070127D01*
X122471214Y-101060349D01*
X122510386Y-101060622D01*
X122555000Y-101055933D01*
X122605954Y-101061289D01*
X122605954Y-101061289D01*
G37*
G36*
X154863954Y-101061289D02*
G01*
X154909632Y-101061607D01*
X154954380Y-101070793D01*
X155005332Y-101076148D01*
X155047992Y-101090009D01*
X155086370Y-101097887D01*
X155134476Y-101118109D01*
X155189259Y-101135909D01*
X155222567Y-101155140D01*
X155252692Y-101167803D01*
X155301370Y-101200636D01*
X155356741Y-101232605D01*
X155380555Y-101254047D01*
X155402273Y-101268696D01*
X155448297Y-101315042D01*
X155500459Y-101362009D01*
X155515512Y-101382728D01*
X155529402Y-101396715D01*
X155569260Y-101456706D01*
X155614132Y-101518467D01*
X155621928Y-101535977D01*
X155629249Y-101546996D01*
X155659358Y-101620047D01*
X155692791Y-101695139D01*
X155695435Y-101707577D01*
X155698001Y-101713803D01*
X155714920Y-101799248D01*
X155732999Y-101884304D01*
X155732999Y-102077696D01*
X155730057Y-102091535D01*
X155729971Y-102097725D01*
X155710892Y-102181702D01*
X155692791Y-102266861D01*
X155690246Y-102272578D01*
X155690194Y-102272805D01*
X155616809Y-102437630D01*
X155616677Y-102437818D01*
X155614132Y-102443533D01*
X155562962Y-102513963D01*
X155512811Y-102585056D01*
X155507939Y-102589695D01*
X155500459Y-102599991D01*
X155439319Y-102655041D01*
X155382150Y-102709483D01*
X155370989Y-102716566D01*
X155356741Y-102729395D01*
X155290617Y-102767572D01*
X155229815Y-102806158D01*
X155211438Y-102813286D01*
X155189259Y-102826091D01*
X155122510Y-102847779D01*
X155061606Y-102871402D01*
X155035802Y-102875952D01*
X155005332Y-102885852D01*
X154941758Y-102892534D01*
X154883926Y-102902731D01*
X154851251Y-102902047D01*
X154813000Y-102906067D01*
X154755712Y-102900046D01*
X154703537Y-102898953D01*
X154665274Y-102890540D01*
X154620668Y-102885852D01*
X154571941Y-102870020D01*
X154527328Y-102860211D01*
X154485473Y-102841925D01*
X154436741Y-102826091D01*
X154397890Y-102803660D01*
X154361995Y-102787978D01*
X154319146Y-102758197D01*
X154269259Y-102729395D01*
X154240680Y-102703663D01*
X154213841Y-102685009D01*
X154173046Y-102642765D01*
X154125541Y-102599991D01*
X154106708Y-102574070D01*
X154088510Y-102555225D01*
X154053129Y-102500324D01*
X154011868Y-102443533D01*
X154001450Y-102420133D01*
X153990773Y-102403566D01*
X153964263Y-102336609D01*
X153933209Y-102266861D01*
X153929224Y-102248111D01*
X153924356Y-102235817D01*
X153910100Y-102158139D01*
X153893001Y-102077696D01*
X153893001Y-102064975D01*
X153891786Y-102058355D01*
X153893001Y-101971341D01*
X153893001Y-101884304D01*
X153894302Y-101878184D01*
X153894305Y-101877953D01*
X153931817Y-101701471D01*
X153931908Y-101701258D01*
X153933209Y-101695139D01*
X153968609Y-101615628D01*
X154002894Y-101535636D01*
X154006696Y-101530083D01*
X154011868Y-101518467D01*
X154060191Y-101451956D01*
X154104824Y-101386771D01*
X154114274Y-101377517D01*
X154125541Y-101362009D01*
X154182273Y-101310927D01*
X154233729Y-101260538D01*
X154250224Y-101249744D01*
X154269259Y-101232605D01*
X154330062Y-101197501D01*
X154384704Y-101161744D01*
X154408986Y-101151933D01*
X154436741Y-101135909D01*
X154497548Y-101116152D01*
X154551989Y-101094156D01*
X154584092Y-101088032D01*
X154620668Y-101076148D01*
X154677957Y-101070127D01*
X154729214Y-101060349D01*
X154768386Y-101060622D01*
X154813000Y-101055933D01*
X154863954Y-101061289D01*
X154863954Y-101061289D01*
G37*
G36*
X125145954Y-98521289D02*
G01*
X125191632Y-98521607D01*
X125236380Y-98530793D01*
X125287332Y-98536148D01*
X125329992Y-98550009D01*
X125368370Y-98557887D01*
X125416476Y-98578109D01*
X125471259Y-98595909D01*
X125504567Y-98615140D01*
X125534692Y-98627803D01*
X125583370Y-98660636D01*
X125638741Y-98692605D01*
X125662555Y-98714047D01*
X125684273Y-98728696D01*
X125730297Y-98775042D01*
X125782459Y-98822009D01*
X125797512Y-98842728D01*
X125811402Y-98856715D01*
X125851260Y-98916706D01*
X125896132Y-98978467D01*
X125903928Y-98995977D01*
X125911249Y-99006996D01*
X125941358Y-99080047D01*
X125974791Y-99155139D01*
X125977435Y-99167577D01*
X125980001Y-99173803D01*
X125996920Y-99259248D01*
X126014999Y-99344304D01*
X126014999Y-99537696D01*
X126012057Y-99551535D01*
X126011971Y-99557725D01*
X125992892Y-99641702D01*
X125974791Y-99726861D01*
X125972246Y-99732578D01*
X125972194Y-99732805D01*
X125898809Y-99897630D01*
X125898677Y-99897818D01*
X125896132Y-99903533D01*
X125844962Y-99973963D01*
X125794811Y-100045056D01*
X125789939Y-100049695D01*
X125782459Y-100059991D01*
X125721319Y-100115041D01*
X125664150Y-100169483D01*
X125652989Y-100176566D01*
X125638741Y-100189395D01*
X125572617Y-100227572D01*
X125511815Y-100266158D01*
X125493438Y-100273286D01*
X125471259Y-100286091D01*
X125404510Y-100307779D01*
X125343606Y-100331402D01*
X125317802Y-100335952D01*
X125287332Y-100345852D01*
X125223758Y-100352534D01*
X125165926Y-100362731D01*
X125133251Y-100362047D01*
X125095000Y-100366067D01*
X125037712Y-100360046D01*
X124985537Y-100358953D01*
X124947274Y-100350540D01*
X124902668Y-100345852D01*
X124853941Y-100330020D01*
X124809328Y-100320211D01*
X124767473Y-100301925D01*
X124718741Y-100286091D01*
X124679890Y-100263660D01*
X124643995Y-100247978D01*
X124601146Y-100218197D01*
X124551259Y-100189395D01*
X124522680Y-100163663D01*
X124495841Y-100145009D01*
X124455046Y-100102765D01*
X124407541Y-100059991D01*
X124388708Y-100034070D01*
X124370510Y-100015225D01*
X124335129Y-99960324D01*
X124293868Y-99903533D01*
X124283450Y-99880133D01*
X124272773Y-99863566D01*
X124246263Y-99796609D01*
X124215209Y-99726861D01*
X124211224Y-99708111D01*
X124206356Y-99695817D01*
X124192100Y-99618139D01*
X124175001Y-99537696D01*
X124175001Y-99524975D01*
X124173786Y-99518355D01*
X124175001Y-99431341D01*
X124175001Y-99344304D01*
X124176302Y-99338184D01*
X124176305Y-99337953D01*
X124213817Y-99161471D01*
X124213908Y-99161258D01*
X124215209Y-99155139D01*
X124250609Y-99075628D01*
X124284894Y-98995636D01*
X124288696Y-98990083D01*
X124293868Y-98978467D01*
X124342191Y-98911956D01*
X124386824Y-98846771D01*
X124396274Y-98837517D01*
X124407541Y-98822009D01*
X124464273Y-98770927D01*
X124515729Y-98720538D01*
X124532224Y-98709744D01*
X124551259Y-98692605D01*
X124612062Y-98657501D01*
X124666704Y-98621744D01*
X124690986Y-98611933D01*
X124718741Y-98595909D01*
X124779548Y-98576152D01*
X124833989Y-98554156D01*
X124866092Y-98548032D01*
X124902668Y-98536148D01*
X124959957Y-98530127D01*
X125011214Y-98520349D01*
X125050386Y-98520622D01*
X125095000Y-98515933D01*
X125145954Y-98521289D01*
X125145954Y-98521289D01*
G37*
G36*
X165531954Y-98521289D02*
G01*
X165577632Y-98521607D01*
X165622380Y-98530793D01*
X165673332Y-98536148D01*
X165715992Y-98550009D01*
X165754370Y-98557887D01*
X165802476Y-98578109D01*
X165857259Y-98595909D01*
X165890567Y-98615140D01*
X165920692Y-98627803D01*
X165969370Y-98660636D01*
X166024741Y-98692605D01*
X166048555Y-98714047D01*
X166070273Y-98728696D01*
X166116297Y-98775042D01*
X166168459Y-98822009D01*
X166183512Y-98842728D01*
X166197402Y-98856715D01*
X166237260Y-98916706D01*
X166282132Y-98978467D01*
X166289928Y-98995977D01*
X166297249Y-99006996D01*
X166327358Y-99080047D01*
X166360791Y-99155139D01*
X166363435Y-99167577D01*
X166366001Y-99173803D01*
X166382920Y-99259248D01*
X166400999Y-99344304D01*
X166400999Y-99537696D01*
X166398057Y-99551535D01*
X166397971Y-99557725D01*
X166378892Y-99641702D01*
X166360791Y-99726861D01*
X166358246Y-99732578D01*
X166358194Y-99732805D01*
X166284809Y-99897630D01*
X166284677Y-99897818D01*
X166282132Y-99903533D01*
X166230962Y-99973963D01*
X166180811Y-100045056D01*
X166175939Y-100049695D01*
X166168459Y-100059991D01*
X166107319Y-100115041D01*
X166050150Y-100169483D01*
X166038989Y-100176566D01*
X166024741Y-100189395D01*
X165958617Y-100227572D01*
X165897815Y-100266158D01*
X165879438Y-100273286D01*
X165857259Y-100286091D01*
X165790510Y-100307779D01*
X165729606Y-100331402D01*
X165703802Y-100335952D01*
X165673332Y-100345852D01*
X165609758Y-100352534D01*
X165551926Y-100362731D01*
X165519251Y-100362047D01*
X165481000Y-100366067D01*
X165423712Y-100360046D01*
X165371537Y-100358953D01*
X165333274Y-100350540D01*
X165288668Y-100345852D01*
X165239941Y-100330020D01*
X165195328Y-100320211D01*
X165153473Y-100301925D01*
X165104741Y-100286091D01*
X165065890Y-100263660D01*
X165029995Y-100247978D01*
X164987146Y-100218197D01*
X164937259Y-100189395D01*
X164908680Y-100163663D01*
X164881841Y-100145009D01*
X164841046Y-100102765D01*
X164793541Y-100059991D01*
X164774708Y-100034070D01*
X164756510Y-100015225D01*
X164721129Y-99960324D01*
X164679868Y-99903533D01*
X164669450Y-99880133D01*
X164658773Y-99863566D01*
X164632263Y-99796609D01*
X164601209Y-99726861D01*
X164597224Y-99708111D01*
X164592356Y-99695817D01*
X164578100Y-99618139D01*
X164561001Y-99537696D01*
X164561001Y-99524975D01*
X164559786Y-99518355D01*
X164561001Y-99431341D01*
X164561001Y-99344304D01*
X164562302Y-99338184D01*
X164562305Y-99337953D01*
X164599817Y-99161471D01*
X164599908Y-99161258D01*
X164601209Y-99155139D01*
X164636609Y-99075628D01*
X164670894Y-98995636D01*
X164674696Y-98990083D01*
X164679868Y-98978467D01*
X164728191Y-98911956D01*
X164772824Y-98846771D01*
X164782274Y-98837517D01*
X164793541Y-98822009D01*
X164850273Y-98770927D01*
X164901729Y-98720538D01*
X164918224Y-98709744D01*
X164937259Y-98692605D01*
X164998062Y-98657501D01*
X165052704Y-98621744D01*
X165076986Y-98611933D01*
X165104741Y-98595909D01*
X165165548Y-98576152D01*
X165219989Y-98554156D01*
X165252092Y-98548032D01*
X165288668Y-98536148D01*
X165345957Y-98530127D01*
X165397214Y-98520349D01*
X165436386Y-98520622D01*
X165481000Y-98515933D01*
X165531954Y-98521289D01*
X165531954Y-98521289D01*
G37*
G36*
X157403954Y-98521289D02*
G01*
X157449632Y-98521607D01*
X157494380Y-98530793D01*
X157545332Y-98536148D01*
X157587992Y-98550009D01*
X157626370Y-98557887D01*
X157674476Y-98578109D01*
X157729259Y-98595909D01*
X157762567Y-98615140D01*
X157792692Y-98627803D01*
X157841370Y-98660636D01*
X157896741Y-98692605D01*
X157920555Y-98714047D01*
X157942273Y-98728696D01*
X157988297Y-98775042D01*
X158040459Y-98822009D01*
X158055512Y-98842728D01*
X158069402Y-98856715D01*
X158109260Y-98916706D01*
X158154132Y-98978467D01*
X158161928Y-98995977D01*
X158169249Y-99006996D01*
X158199358Y-99080047D01*
X158232791Y-99155139D01*
X158235435Y-99167577D01*
X158238001Y-99173803D01*
X158254920Y-99259248D01*
X158272999Y-99344304D01*
X158272999Y-99537696D01*
X158270057Y-99551535D01*
X158269971Y-99557725D01*
X158250892Y-99641702D01*
X158232791Y-99726861D01*
X158230246Y-99732578D01*
X158230194Y-99732805D01*
X158156809Y-99897630D01*
X158156677Y-99897818D01*
X158154132Y-99903533D01*
X158102962Y-99973963D01*
X158052811Y-100045056D01*
X158047939Y-100049695D01*
X158040459Y-100059991D01*
X157979319Y-100115041D01*
X157922150Y-100169483D01*
X157910989Y-100176566D01*
X157896741Y-100189395D01*
X157830617Y-100227572D01*
X157769815Y-100266158D01*
X157751438Y-100273286D01*
X157729259Y-100286091D01*
X157662510Y-100307779D01*
X157601606Y-100331402D01*
X157575802Y-100335952D01*
X157545332Y-100345852D01*
X157481758Y-100352534D01*
X157423926Y-100362731D01*
X157391251Y-100362047D01*
X157353000Y-100366067D01*
X157295712Y-100360046D01*
X157243537Y-100358953D01*
X157205274Y-100350540D01*
X157160668Y-100345852D01*
X157111941Y-100330020D01*
X157067328Y-100320211D01*
X157025473Y-100301925D01*
X156976741Y-100286091D01*
X156937890Y-100263660D01*
X156901995Y-100247978D01*
X156859146Y-100218197D01*
X156809259Y-100189395D01*
X156780680Y-100163663D01*
X156753841Y-100145009D01*
X156713046Y-100102765D01*
X156665541Y-100059991D01*
X156646708Y-100034070D01*
X156628510Y-100015225D01*
X156593129Y-99960324D01*
X156551868Y-99903533D01*
X156541450Y-99880133D01*
X156530773Y-99863566D01*
X156504263Y-99796609D01*
X156473209Y-99726861D01*
X156469224Y-99708111D01*
X156464356Y-99695817D01*
X156450100Y-99618139D01*
X156433001Y-99537696D01*
X156433001Y-99524975D01*
X156431786Y-99518355D01*
X156433001Y-99431341D01*
X156433001Y-99344304D01*
X156434302Y-99338184D01*
X156434305Y-99337953D01*
X156471817Y-99161471D01*
X156471908Y-99161258D01*
X156473209Y-99155139D01*
X156508609Y-99075628D01*
X156542894Y-98995636D01*
X156546696Y-98990083D01*
X156551868Y-98978467D01*
X156600191Y-98911956D01*
X156644824Y-98846771D01*
X156654274Y-98837517D01*
X156665541Y-98822009D01*
X156722273Y-98770927D01*
X156773729Y-98720538D01*
X156790224Y-98709744D01*
X156809259Y-98692605D01*
X156870062Y-98657501D01*
X156924704Y-98621744D01*
X156948986Y-98611933D01*
X156976741Y-98595909D01*
X157037548Y-98576152D01*
X157091989Y-98554156D01*
X157124092Y-98548032D01*
X157160668Y-98536148D01*
X157217957Y-98530127D01*
X157269214Y-98520349D01*
X157308386Y-98520622D01*
X157353000Y-98515933D01*
X157403954Y-98521289D01*
X157403954Y-98521289D01*
G37*
G36*
X157449575Y-95954624D02*
G01*
X157490760Y-95956674D01*
X157538878Y-95968448D01*
X157593701Y-95976935D01*
X157632442Y-95991343D01*
X157666845Y-95999761D01*
X157717154Y-96022847D01*
X157774593Y-96044209D01*
X157804697Y-96063020D01*
X157831603Y-96075367D01*
X157881363Y-96110926D01*
X157938264Y-96146482D01*
X157959751Y-96166944D01*
X157979089Y-96180763D01*
X158025212Y-96229281D01*
X158078027Y-96279576D01*
X158091630Y-96299148D01*
X158103989Y-96312149D01*
X158143230Y-96373391D01*
X158188173Y-96438056D01*
X158195262Y-96454596D01*
X158201790Y-96464784D01*
X158230878Y-96537694D01*
X158264203Y-96615446D01*
X158266646Y-96627346D01*
X158268963Y-96633154D01*
X158284808Y-96715822D01*
X158303011Y-96804501D01*
X158302989Y-96810685D01*
X158303055Y-96811027D01*
X158302404Y-96997602D01*
X158302336Y-96997946D01*
X158302314Y-97004128D01*
X158283492Y-97092675D01*
X158267070Y-97175235D01*
X158264713Y-97181026D01*
X158262187Y-97192908D01*
X158228328Y-97270408D01*
X158198724Y-97343134D01*
X158192123Y-97353279D01*
X158184921Y-97369764D01*
X158139533Y-97434105D01*
X158099860Y-97495079D01*
X158087410Y-97507994D01*
X158073671Y-97527470D01*
X158020511Y-97577391D01*
X157974050Y-97625587D01*
X157954617Y-97639270D01*
X157932983Y-97659586D01*
X157875817Y-97694755D01*
X157825823Y-97729956D01*
X157798838Y-97742112D01*
X157768602Y-97760713D01*
X157711015Y-97781673D01*
X157660547Y-97804407D01*
X157626083Y-97812586D01*
X157587244Y-97826722D01*
X157532370Y-97834825D01*
X157484169Y-97846264D01*
X157442971Y-97848027D01*
X157396317Y-97854916D01*
X157346735Y-97852144D01*
X157303053Y-97854013D01*
X157256521Y-97847100D01*
X157203621Y-97844143D01*
X157161246Y-97832947D01*
X157123746Y-97827376D01*
X157073871Y-97809861D01*
X157017027Y-97794842D01*
X156982988Y-97777945D01*
X156952710Y-97767312D01*
X156902040Y-97737762D01*
X156844157Y-97709029D01*
X156818801Y-97689219D01*
X156796112Y-97675987D01*
X156747576Y-97633572D01*
X156692073Y-97590208D01*
X156675003Y-97570150D01*
X156659616Y-97556704D01*
X156616420Y-97501315D01*
X156566988Y-97443233D01*
X156557110Y-97425265D01*
X156548132Y-97413753D01*
X156513559Y-97346046D01*
X156474011Y-97274109D01*
X156469678Y-97260111D01*
X156465695Y-97252311D01*
X156442952Y-97173775D01*
X156416940Y-97089743D01*
X156416081Y-97080981D01*
X156415272Y-97078188D01*
X156407298Y-96991405D01*
X156398107Y-96897667D01*
X156407950Y-96804015D01*
X156416532Y-96717273D01*
X156417360Y-96714485D01*
X156418281Y-96705727D01*
X156444888Y-96621850D01*
X156468169Y-96543506D01*
X156472204Y-96535738D01*
X156476637Y-96521764D01*
X156516702Y-96450077D01*
X156551735Y-96382635D01*
X156560791Y-96371189D01*
X156570793Y-96353292D01*
X156620626Y-96295561D01*
X156664210Y-96240472D01*
X156679692Y-96227132D01*
X156696901Y-96207195D01*
X156752698Y-96164225D01*
X156801535Y-96122144D01*
X156824318Y-96109070D01*
X156849810Y-96089438D01*
X156907893Y-96061109D01*
X156958768Y-96031914D01*
X156989119Y-96021493D01*
X157023275Y-96004834D01*
X157080221Y-95990213D01*
X157130219Y-95973046D01*
X157167763Y-95967736D01*
X157210209Y-95956838D01*
X157263118Y-95954250D01*
X157309709Y-95947661D01*
X157353387Y-95949835D01*
X157402976Y-95947410D01*
X157449575Y-95954624D01*
X157449575Y-95954624D01*
G37*
G36*
X165577575Y-95954624D02*
G01*
X165618760Y-95956674D01*
X165666878Y-95968448D01*
X165721701Y-95976935D01*
X165760442Y-95991343D01*
X165794845Y-95999761D01*
X165845154Y-96022847D01*
X165902593Y-96044209D01*
X165932697Y-96063020D01*
X165959603Y-96075367D01*
X166009363Y-96110926D01*
X166066264Y-96146482D01*
X166087751Y-96166944D01*
X166107089Y-96180763D01*
X166153212Y-96229281D01*
X166206027Y-96279576D01*
X166219630Y-96299148D01*
X166231989Y-96312149D01*
X166271230Y-96373391D01*
X166316173Y-96438056D01*
X166323262Y-96454596D01*
X166329790Y-96464784D01*
X166358878Y-96537694D01*
X166392203Y-96615446D01*
X166394646Y-96627346D01*
X166396963Y-96633154D01*
X166412808Y-96715822D01*
X166431011Y-96804501D01*
X166430989Y-96810685D01*
X166431055Y-96811027D01*
X166430404Y-96997602D01*
X166430336Y-96997946D01*
X166430314Y-97004128D01*
X166411492Y-97092675D01*
X166395070Y-97175235D01*
X166392713Y-97181026D01*
X166390187Y-97192908D01*
X166356328Y-97270408D01*
X166326724Y-97343134D01*
X166320123Y-97353279D01*
X166312921Y-97369764D01*
X166267533Y-97434105D01*
X166227860Y-97495079D01*
X166215410Y-97507994D01*
X166201671Y-97527470D01*
X166148511Y-97577391D01*
X166102050Y-97625587D01*
X166082617Y-97639270D01*
X166060983Y-97659586D01*
X166003817Y-97694755D01*
X165953823Y-97729956D01*
X165926838Y-97742112D01*
X165896602Y-97760713D01*
X165839015Y-97781673D01*
X165788547Y-97804407D01*
X165754083Y-97812586D01*
X165715244Y-97826722D01*
X165660370Y-97834825D01*
X165612169Y-97846264D01*
X165570971Y-97848027D01*
X165524317Y-97854916D01*
X165474735Y-97852144D01*
X165431053Y-97854013D01*
X165384521Y-97847100D01*
X165331621Y-97844143D01*
X165289246Y-97832947D01*
X165251746Y-97827376D01*
X165201871Y-97809861D01*
X165145027Y-97794842D01*
X165110988Y-97777945D01*
X165080710Y-97767312D01*
X165030040Y-97737762D01*
X164972157Y-97709029D01*
X164946801Y-97689219D01*
X164924112Y-97675987D01*
X164875576Y-97633572D01*
X164820073Y-97590208D01*
X164803003Y-97570150D01*
X164787616Y-97556704D01*
X164744420Y-97501315D01*
X164694988Y-97443233D01*
X164685110Y-97425265D01*
X164676132Y-97413753D01*
X164641559Y-97346046D01*
X164602011Y-97274109D01*
X164597678Y-97260111D01*
X164593695Y-97252311D01*
X164570952Y-97173775D01*
X164544940Y-97089743D01*
X164544081Y-97080981D01*
X164543272Y-97078188D01*
X164535298Y-96991405D01*
X164526107Y-96897667D01*
X164535950Y-96804015D01*
X164544532Y-96717273D01*
X164545360Y-96714485D01*
X164546281Y-96705727D01*
X164572888Y-96621850D01*
X164596169Y-96543506D01*
X164600204Y-96535738D01*
X164604637Y-96521764D01*
X164644702Y-96450077D01*
X164679735Y-96382635D01*
X164688791Y-96371189D01*
X164698793Y-96353292D01*
X164748626Y-96295561D01*
X164792210Y-96240472D01*
X164807692Y-96227132D01*
X164824901Y-96207195D01*
X164880698Y-96164225D01*
X164929535Y-96122144D01*
X164952318Y-96109070D01*
X164977810Y-96089438D01*
X165035893Y-96061109D01*
X165086768Y-96031914D01*
X165117119Y-96021493D01*
X165151275Y-96004834D01*
X165208221Y-95990213D01*
X165258219Y-95973046D01*
X165295763Y-95967736D01*
X165338209Y-95956838D01*
X165391118Y-95954250D01*
X165437709Y-95947661D01*
X165481387Y-95949835D01*
X165530976Y-95947410D01*
X165577575Y-95954624D01*
X165577575Y-95954624D01*
G37*
G36*
X128493575Y-84016624D02*
G01*
X128534760Y-84018674D01*
X128582878Y-84030448D01*
X128637701Y-84038935D01*
X128676442Y-84053343D01*
X128710845Y-84061761D01*
X128761154Y-84084847D01*
X128818593Y-84106209D01*
X128848697Y-84125020D01*
X128875603Y-84137367D01*
X128925363Y-84172926D01*
X128982264Y-84208482D01*
X129003751Y-84228944D01*
X129023089Y-84242763D01*
X129069212Y-84291281D01*
X129122027Y-84341576D01*
X129135630Y-84361148D01*
X129147989Y-84374149D01*
X129187230Y-84435391D01*
X129232173Y-84500056D01*
X129239262Y-84516596D01*
X129245790Y-84526784D01*
X129274878Y-84599694D01*
X129308203Y-84677446D01*
X129310646Y-84689346D01*
X129312963Y-84695154D01*
X129328808Y-84777822D01*
X129347011Y-84866501D01*
X129346989Y-84872685D01*
X129347055Y-84873027D01*
X129346404Y-85059602D01*
X129346336Y-85059946D01*
X129346314Y-85066128D01*
X129327492Y-85154675D01*
X129311070Y-85237235D01*
X129308713Y-85243026D01*
X129306187Y-85254908D01*
X129272328Y-85332408D01*
X129242724Y-85405134D01*
X129236123Y-85415279D01*
X129228921Y-85431764D01*
X129183533Y-85496105D01*
X129143860Y-85557079D01*
X129131410Y-85569994D01*
X129117671Y-85589470D01*
X129064511Y-85639391D01*
X129018050Y-85687587D01*
X128998617Y-85701270D01*
X128976983Y-85721586D01*
X128919817Y-85756755D01*
X128869823Y-85791956D01*
X128842838Y-85804112D01*
X128812602Y-85822713D01*
X128755015Y-85843673D01*
X128704547Y-85866407D01*
X128670083Y-85874586D01*
X128631244Y-85888722D01*
X128576370Y-85896825D01*
X128528169Y-85908264D01*
X128486971Y-85910027D01*
X128440317Y-85916916D01*
X128390735Y-85914144D01*
X128347053Y-85916013D01*
X128300521Y-85909100D01*
X128247621Y-85906143D01*
X128205246Y-85894947D01*
X128167746Y-85889376D01*
X128117871Y-85871861D01*
X128061027Y-85856842D01*
X128026988Y-85839945D01*
X127996710Y-85829312D01*
X127946040Y-85799762D01*
X127888157Y-85771029D01*
X127862801Y-85751219D01*
X127840112Y-85737987D01*
X127791576Y-85695572D01*
X127736073Y-85652208D01*
X127719003Y-85632150D01*
X127703616Y-85618704D01*
X127660420Y-85563315D01*
X127610988Y-85505233D01*
X127601110Y-85487265D01*
X127592132Y-85475753D01*
X127557559Y-85408046D01*
X127518011Y-85336109D01*
X127513678Y-85322111D01*
X127509695Y-85314311D01*
X127486952Y-85235775D01*
X127460940Y-85151743D01*
X127460081Y-85142981D01*
X127459272Y-85140188D01*
X127451298Y-85053405D01*
X127442107Y-84959667D01*
X127451950Y-84866015D01*
X127460532Y-84779273D01*
X127461360Y-84776485D01*
X127462281Y-84767727D01*
X127488888Y-84683850D01*
X127512169Y-84605506D01*
X127516204Y-84597738D01*
X127520637Y-84583764D01*
X127560702Y-84512077D01*
X127595735Y-84444635D01*
X127604791Y-84433189D01*
X127614793Y-84415292D01*
X127664626Y-84357561D01*
X127708210Y-84302472D01*
X127723692Y-84289132D01*
X127740901Y-84269195D01*
X127796698Y-84226225D01*
X127845535Y-84184144D01*
X127868318Y-84171070D01*
X127893810Y-84151438D01*
X127951893Y-84123109D01*
X128002768Y-84093914D01*
X128033119Y-84083493D01*
X128067275Y-84066834D01*
X128124221Y-84052213D01*
X128174219Y-84035046D01*
X128211763Y-84029736D01*
X128254209Y-84018838D01*
X128307118Y-84016250D01*
X128353709Y-84009661D01*
X128397387Y-84011835D01*
X128446976Y-84009410D01*
X128493575Y-84016624D01*
X128493575Y-84016624D01*
G37*
G36*
X161604644Y-83097523D02*
G01*
X161604624Y-83099069D01*
X161738928Y-83100827D01*
X161746569Y-83102024D01*
X161747821Y-83102040D01*
X161804941Y-83110985D01*
X161806136Y-83111351D01*
X161813777Y-83112548D01*
X161933676Y-83149320D01*
X161940670Y-83152611D01*
X161941869Y-83152979D01*
X161994183Y-83177597D01*
X161995229Y-83178285D01*
X162002226Y-83181578D01*
X162106985Y-83250522D01*
X162112780Y-83255649D01*
X162113821Y-83256334D01*
X162157124Y-83294644D01*
X162157935Y-83295598D01*
X162163725Y-83300721D01*
X162244923Y-83396297D01*
X162249043Y-83402839D01*
X162249854Y-83403794D01*
X162280663Y-83452719D01*
X162281173Y-83453863D01*
X162285292Y-83460403D01*
X162336402Y-83574928D01*
X162338521Y-83582365D01*
X162339031Y-83583509D01*
X162354870Y-83639113D01*
X162355038Y-83640349D01*
X162357159Y-83647794D01*
X162374070Y-83772054D01*
X162374016Y-83779793D01*
X162374184Y-83781028D01*
X162373781Y-83838845D01*
X162373594Y-83840089D01*
X162373540Y-83847812D01*
X162373403Y-83848725D01*
X162372014Y-83867310D01*
X162372014Y-84294064D01*
X162370918Y-84300280D01*
X162370918Y-84305000D01*
X162363590Y-84341842D01*
X162357839Y-84374458D01*
X162356715Y-84376405D01*
X162355396Y-84383036D01*
X162347770Y-84394450D01*
X162335717Y-84485996D01*
X162340869Y-84505222D01*
X162355396Y-84526964D01*
X162370918Y-84605000D01*
X162370918Y-84617367D01*
X162372014Y-84621457D01*
X162372014Y-85048483D01*
X162373156Y-85065339D01*
X162374070Y-85072053D01*
X162374016Y-85079793D01*
X162374184Y-85081028D01*
X162373781Y-85138845D01*
X162373594Y-85140089D01*
X162373540Y-85147812D01*
X162354893Y-85271836D01*
X162352674Y-85279233D01*
X162352487Y-85280476D01*
X162335873Y-85335853D01*
X162335346Y-85336991D01*
X162333126Y-85344391D01*
X162280421Y-85458194D01*
X162276215Y-85464671D01*
X162275685Y-85465815D01*
X162244195Y-85514305D01*
X162243367Y-85515252D01*
X162239158Y-85521734D01*
X162156634Y-85616166D01*
X162150777Y-85621204D01*
X162149950Y-85622150D01*
X162106117Y-85659852D01*
X162105059Y-85660527D01*
X162099201Y-85665566D01*
X161993486Y-85733044D01*
X161986446Y-85736237D01*
X161985391Y-85736911D01*
X161932738Y-85760795D01*
X161931540Y-85761144D01*
X161924495Y-85764340D01*
X161804462Y-85799327D01*
X161797107Y-85800328D01*
X161795237Y-85800873D01*
X161735505Y-85809003D01*
X161733548Y-85808977D01*
X161726202Y-85809977D01*
X161671489Y-85809261D01*
X161665463Y-85810014D01*
X161238525Y-85810014D01*
X161238525Y-85813084D01*
X161235457Y-85812631D01*
X161235490Y-85810099D01*
X161229838Y-85810025D01*
X161228202Y-85810014D01*
X161172813Y-85810014D01*
X161163726Y-85809159D01*
X161089360Y-85808186D01*
X161082039Y-85806994D01*
X161080088Y-85806968D01*
X161020591Y-85797278D01*
X161018729Y-85796682D01*
X161011417Y-85795491D01*
X160892332Y-85757372D01*
X160885383Y-85753998D01*
X160884187Y-85753615D01*
X160832177Y-85728360D01*
X160831140Y-85727659D01*
X160824185Y-85724282D01*
X160720277Y-85654063D01*
X160714552Y-85648872D01*
X160713509Y-85648167D01*
X160670678Y-85609330D01*
X160669875Y-85608361D01*
X160664149Y-85603169D01*
X160584129Y-85506612D01*
X160580091Y-85500023D01*
X160579288Y-85499054D01*
X160549078Y-85449757D01*
X160548580Y-85448603D01*
X160544542Y-85442014D01*
X160494835Y-85326872D01*
X160492808Y-85319412D01*
X160492313Y-85318265D01*
X160477155Y-85262472D01*
X160477002Y-85261234D01*
X160474974Y-85253770D01*
X160459581Y-85129303D01*
X160459729Y-85121573D01*
X160459576Y-85120332D01*
X160460686Y-85062525D01*
X160460887Y-85061292D01*
X160461141Y-85048053D01*
X160461986Y-85037608D01*
X160461986Y-84615936D01*
X160463082Y-84609720D01*
X160463082Y-84605000D01*
X160470413Y-84568146D01*
X160476162Y-84535539D01*
X160477285Y-84533593D01*
X160478604Y-84526964D01*
X160486230Y-84515551D01*
X160498282Y-84424004D01*
X160493130Y-84404775D01*
X160478604Y-84383036D01*
X160463082Y-84305000D01*
X160463082Y-84292633D01*
X160461986Y-84288543D01*
X160461986Y-83856451D01*
X160461041Y-83841109D01*
X160459581Y-83829303D01*
X160459729Y-83821572D01*
X160459576Y-83820332D01*
X160460686Y-83762525D01*
X160460887Y-83761293D01*
X160461035Y-83753562D01*
X160481195Y-83629774D01*
X160483508Y-83622394D01*
X160483708Y-83621164D01*
X160500997Y-83565992D01*
X160501537Y-83564862D01*
X160503849Y-83557485D01*
X160557940Y-83444336D01*
X160562229Y-83437905D01*
X160562769Y-83436775D01*
X160594849Y-83388674D01*
X160595681Y-83387745D01*
X160599970Y-83381314D01*
X160683649Y-83287890D01*
X160689568Y-83282923D01*
X160690405Y-83281989D01*
X160734694Y-83244826D01*
X160735762Y-83244163D01*
X160741682Y-83239195D01*
X160848209Y-83173016D01*
X160855286Y-83169909D01*
X160856352Y-83169247D01*
X160909294Y-83146007D01*
X160910499Y-83145672D01*
X160917576Y-83142565D01*
X161038403Y-83108944D01*
X161046062Y-83107949D01*
X161047274Y-83107612D01*
X161104610Y-83100165D01*
X161105868Y-83100181D01*
X161113532Y-83099186D01*
X161173823Y-83099975D01*
X161175459Y-83099986D01*
X161598583Y-83099986D01*
X161598583Y-83096609D01*
X161604644Y-83097523D01*
X161604644Y-83097523D01*
G37*
G36*
X172052063Y-75597591D02*
G01*
X172095065Y-75596502D01*
X172232429Y-75607675D01*
X172373645Y-75615570D01*
X172416283Y-75622629D01*
X172456207Y-75625876D01*
X172594525Y-75652136D01*
X172736975Y-75675719D01*
X172775728Y-75686539D01*
X172812166Y-75693457D01*
X172949747Y-75735126D01*
X173091685Y-75774756D01*
X173126277Y-75788592D01*
X173158929Y-75798481D01*
X173293978Y-75855667D01*
X173433624Y-75911521D01*
X173463905Y-75927622D01*
X173492575Y-75939762D01*
X173623345Y-76012398D01*
X173758792Y-76084417D01*
X173784689Y-76102016D01*
X173809324Y-76115700D01*
X173934048Y-76203520D01*
X174063386Y-76291418D01*
X174084969Y-76309786D01*
X174105570Y-76324292D01*
X174222401Y-76426750D01*
X174343843Y-76530105D01*
X174361277Y-76548541D01*
X174377981Y-76563190D01*
X174485217Y-76679604D01*
X174596880Y-76797685D01*
X174610421Y-76815524D01*
X174623466Y-76829686D01*
X174719476Y-76959199D01*
X174819540Y-77091028D01*
X174829537Y-77107666D01*
X174839235Y-77120748D01*
X174922361Y-77262152D01*
X175009216Y-77406702D01*
X175016115Y-77421633D01*
X175022855Y-77433098D01*
X175091615Y-77585031D01*
X175163690Y-77741015D01*
X175167985Y-77753777D01*
X175172249Y-77763199D01*
X175225362Y-77924270D01*
X175281155Y-78090055D01*
X175283406Y-78100295D01*
X175285712Y-78107287D01*
X175321913Y-78275433D01*
X175360237Y-78449740D01*
X175361048Y-78457207D01*
X175361972Y-78461498D01*
X175380281Y-78634255D01*
X175400010Y-78815862D01*
X175399995Y-78820257D01*
X175400153Y-78821751D01*
X175399511Y-79190119D01*
X175398677Y-79197731D01*
X175398642Y-79207870D01*
X175378542Y-79381591D01*
X175360072Y-79550237D01*
X175357859Y-79560345D01*
X175356313Y-79573705D01*
X175318298Y-79741031D01*
X175282578Y-79904170D01*
X175278362Y-79916806D01*
X175274722Y-79932829D01*
X175219835Y-80092234D01*
X175167911Y-80247869D01*
X175161148Y-80262675D01*
X175154824Y-80281041D01*
X175084322Y-80430865D01*
X175017365Y-80577449D01*
X175007551Y-80594011D01*
X174998019Y-80614267D01*
X174913390Y-80752911D01*
X174832662Y-80889144D01*
X174819361Y-80906957D01*
X174806144Y-80928609D01*
X174708848Y-81054951D01*
X174615867Y-81179467D01*
X174598735Y-81197936D01*
X174581442Y-81220391D01*
X174473215Y-81333248D01*
X174369465Y-81445093D01*
X174348208Y-81463604D01*
X174326542Y-81486197D01*
X174209055Y-81584781D01*
X174096223Y-81683037D01*
X174070700Y-81700875D01*
X174044427Y-81722921D01*
X173919429Y-81806600D01*
X173799238Y-81890602D01*
X173769362Y-81907061D01*
X173738395Y-81927791D01*
X173607771Y-81996080D01*
X173481884Y-82065430D01*
X173447686Y-82079770D01*
X173412028Y-82098412D01*
X173277591Y-82151097D01*
X173147752Y-82205543D01*
X173109373Y-82217021D01*
X173069142Y-82232787D01*
X172932684Y-82269862D01*
X172800621Y-82309357D01*
X172758324Y-82317234D01*
X172713750Y-82329345D01*
X172577017Y-82351001D01*
X172444417Y-82375697D01*
X172398565Y-82379265D01*
X172350008Y-82386956D01*
X172214723Y-82393572D01*
X172083187Y-82403809D01*
X172034244Y-82402399D01*
X171982172Y-82404946D01*
X171849959Y-82397091D01*
X171721013Y-82393377D01*
X171669547Y-82386373D01*
X171614544Y-82383105D01*
X171486899Y-82361516D01*
X171362004Y-82344518D01*
X171308692Y-82331374D01*
X171251425Y-82321688D01*
X171129711Y-82287247D01*
X171010211Y-82257784D01*
X170955814Y-82238039D01*
X170897063Y-82221414D01*
X170782531Y-82175140D01*
X170669631Y-82134159D01*
X170614977Y-82107443D01*
X170555604Y-82083455D01*
X170449361Y-82026488D01*
X170344108Y-81975039D01*
X170290089Y-81941087D01*
X170231041Y-81909426D01*
X170134039Y-81843007D01*
X170037350Y-81782237D01*
X169984913Y-81740899D01*
X169927172Y-81701363D01*
X169840166Y-81626790D01*
X169752810Y-81557924D01*
X169702941Y-81509174D01*
X169647550Y-81461698D01*
X169571146Y-81380336D01*
X169493717Y-81304644D01*
X169447418Y-81248578D01*
X169395448Y-81193236D01*
X169330074Y-81106482D01*
X169263009Y-81025270D01*
X169221295Y-80962127D01*
X169173814Y-80899118D01*
X169119712Y-80808361D01*
X169063290Y-80722955D01*
X169027159Y-80653102D01*
X168985241Y-80582784D01*
X168942498Y-80489425D01*
X168896830Y-80401134D01*
X168867249Y-80325067D01*
X168831935Y-80247934D01*
X168800465Y-80153330D01*
X168765512Y-80063450D01*
X168743408Y-79981812D01*
X168715689Y-79898486D01*
X168695246Y-79803935D01*
X168670818Y-79713713D01*
X168657049Y-79627264D01*
X168637863Y-79538527D01*
X168628062Y-79445275D01*
X168613826Y-79355897D01*
X168609168Y-79265510D01*
X168599368Y-79172269D01*
X168599685Y-79081492D01*
X168595179Y-78994060D01*
X168600315Y-78900728D01*
X168600653Y-78803995D01*
X168610442Y-78716722D01*
X168615089Y-78632287D01*
X168630587Y-78537125D01*
X168641704Y-78438014D01*
X168660215Y-78355200D01*
X168673331Y-78274665D01*
X168699639Y-78178828D01*
X168722041Y-78078607D01*
X168748426Y-78001101D01*
X168769243Y-77925268D01*
X168806673Y-77830004D01*
X168840724Y-77729979D01*
X168874068Y-77658473D01*
X168901740Y-77588043D01*
X168950449Y-77494672D01*
X168996364Y-77396208D01*
X169035697Y-77331262D01*
X169069324Y-77266802D01*
X169129322Y-77176668D01*
X169187141Y-77081198D01*
X169231449Y-77023246D01*
X169270096Y-76965187D01*
X169341234Y-76879652D01*
X169410823Y-76788634D01*
X169459072Y-76737968D01*
X169501773Y-76686625D01*
X169583715Y-76607079D01*
X169664793Y-76521939D01*
X169715978Y-76478684D01*
X169761755Y-76434246D01*
X169854000Y-76362047D01*
X169946081Y-76284232D01*
X169999170Y-76248423D01*
X170047069Y-76210933D01*
X170148980Y-76147375D01*
X170251396Y-76078295D01*
X170305406Y-76049819D01*
X170354511Y-76019194D01*
X170465277Y-75965529D01*
X170577166Y-75906536D01*
X170631166Y-75885156D01*
X170680576Y-75861217D01*
X170799200Y-75818627D01*
X170919580Y-75770965D01*
X170972707Y-75756331D01*
X171021589Y-75738781D01*
X171146946Y-75708338D01*
X171274633Y-75673167D01*
X171326088Y-75664833D01*
X171373677Y-75653276D01*
X171504478Y-75635940D01*
X171638172Y-75614286D01*
X171687271Y-75611713D01*
X171732857Y-75605671D01*
X171867679Y-75602258D01*
X172005943Y-75595012D01*
X172052063Y-75597591D01*
X172052063Y-75597591D01*
G37*
G36*
X122052063Y-75597591D02*
G01*
X122095065Y-75596502D01*
X122232429Y-75607675D01*
X122373645Y-75615570D01*
X122416283Y-75622629D01*
X122456207Y-75625876D01*
X122594525Y-75652136D01*
X122736975Y-75675719D01*
X122775728Y-75686539D01*
X122812166Y-75693457D01*
X122949747Y-75735126D01*
X123091685Y-75774756D01*
X123126277Y-75788592D01*
X123158929Y-75798481D01*
X123293978Y-75855667D01*
X123433624Y-75911521D01*
X123463905Y-75927622D01*
X123492575Y-75939762D01*
X123623345Y-76012398D01*
X123758792Y-76084417D01*
X123784689Y-76102016D01*
X123809324Y-76115700D01*
X123934048Y-76203520D01*
X124063386Y-76291418D01*
X124084969Y-76309786D01*
X124105570Y-76324292D01*
X124222401Y-76426750D01*
X124343843Y-76530105D01*
X124361277Y-76548541D01*
X124377981Y-76563190D01*
X124485217Y-76679604D01*
X124596880Y-76797685D01*
X124610421Y-76815524D01*
X124623466Y-76829686D01*
X124719476Y-76959199D01*
X124819540Y-77091028D01*
X124829537Y-77107666D01*
X124839235Y-77120748D01*
X124922361Y-77262152D01*
X125009216Y-77406702D01*
X125016115Y-77421633D01*
X125022855Y-77433098D01*
X125091615Y-77585031D01*
X125163690Y-77741015D01*
X125167985Y-77753777D01*
X125172249Y-77763199D01*
X125225362Y-77924270D01*
X125281155Y-78090055D01*
X125283406Y-78100295D01*
X125285712Y-78107287D01*
X125321913Y-78275433D01*
X125360237Y-78449740D01*
X125361048Y-78457207D01*
X125361972Y-78461498D01*
X125380281Y-78634255D01*
X125400010Y-78815862D01*
X125399995Y-78820257D01*
X125400153Y-78821751D01*
X125399511Y-79190119D01*
X125398677Y-79197731D01*
X125398642Y-79207870D01*
X125378542Y-79381591D01*
X125360072Y-79550237D01*
X125357859Y-79560345D01*
X125356313Y-79573705D01*
X125318298Y-79741031D01*
X125282578Y-79904170D01*
X125278362Y-79916806D01*
X125274722Y-79932829D01*
X125219835Y-80092234D01*
X125167911Y-80247869D01*
X125161148Y-80262675D01*
X125154824Y-80281041D01*
X125084322Y-80430865D01*
X125017365Y-80577449D01*
X125007551Y-80594011D01*
X124998019Y-80614267D01*
X124913390Y-80752911D01*
X124832662Y-80889144D01*
X124819361Y-80906957D01*
X124806144Y-80928609D01*
X124708848Y-81054951D01*
X124615867Y-81179467D01*
X124598735Y-81197936D01*
X124581442Y-81220391D01*
X124473215Y-81333248D01*
X124369465Y-81445093D01*
X124348208Y-81463604D01*
X124326542Y-81486197D01*
X124209055Y-81584781D01*
X124096223Y-81683037D01*
X124070700Y-81700875D01*
X124044427Y-81722921D01*
X123919429Y-81806600D01*
X123799238Y-81890602D01*
X123769362Y-81907061D01*
X123738395Y-81927791D01*
X123607771Y-81996080D01*
X123481884Y-82065430D01*
X123447686Y-82079770D01*
X123412028Y-82098412D01*
X123277591Y-82151097D01*
X123147752Y-82205543D01*
X123109373Y-82217021D01*
X123069142Y-82232787D01*
X122932684Y-82269862D01*
X122800621Y-82309357D01*
X122758324Y-82317234D01*
X122713750Y-82329345D01*
X122577017Y-82351001D01*
X122444417Y-82375697D01*
X122398565Y-82379265D01*
X122350008Y-82386956D01*
X122214723Y-82393572D01*
X122083187Y-82403809D01*
X122034244Y-82402399D01*
X121982172Y-82404946D01*
X121849959Y-82397091D01*
X121721013Y-82393377D01*
X121669547Y-82386373D01*
X121614544Y-82383105D01*
X121486899Y-82361516D01*
X121362004Y-82344518D01*
X121308692Y-82331374D01*
X121251425Y-82321688D01*
X121129711Y-82287247D01*
X121010211Y-82257784D01*
X120955814Y-82238039D01*
X120897063Y-82221414D01*
X120782531Y-82175140D01*
X120669631Y-82134159D01*
X120614977Y-82107443D01*
X120555604Y-82083455D01*
X120449361Y-82026488D01*
X120344108Y-81975039D01*
X120290089Y-81941087D01*
X120231041Y-81909426D01*
X120134039Y-81843007D01*
X120037350Y-81782237D01*
X119984913Y-81740899D01*
X119927172Y-81701363D01*
X119840166Y-81626790D01*
X119752810Y-81557924D01*
X119702941Y-81509174D01*
X119647550Y-81461698D01*
X119571146Y-81380336D01*
X119493717Y-81304644D01*
X119447418Y-81248578D01*
X119395448Y-81193236D01*
X119330074Y-81106482D01*
X119263009Y-81025270D01*
X119221295Y-80962127D01*
X119173814Y-80899118D01*
X119119712Y-80808361D01*
X119063290Y-80722955D01*
X119027159Y-80653102D01*
X118985241Y-80582784D01*
X118942498Y-80489425D01*
X118896830Y-80401134D01*
X118867249Y-80325067D01*
X118831935Y-80247934D01*
X118800465Y-80153330D01*
X118765512Y-80063450D01*
X118743408Y-79981812D01*
X118715689Y-79898486D01*
X118695246Y-79803935D01*
X118670818Y-79713713D01*
X118657049Y-79627264D01*
X118637863Y-79538527D01*
X118628062Y-79445275D01*
X118613826Y-79355897D01*
X118609168Y-79265510D01*
X118599368Y-79172269D01*
X118599685Y-79081492D01*
X118595179Y-78994060D01*
X118600315Y-78900728D01*
X118600653Y-78803995D01*
X118610442Y-78716722D01*
X118615089Y-78632287D01*
X118630587Y-78537125D01*
X118641704Y-78438014D01*
X118660215Y-78355200D01*
X118673331Y-78274665D01*
X118699639Y-78178828D01*
X118722041Y-78078607D01*
X118748426Y-78001101D01*
X118769243Y-77925268D01*
X118806673Y-77830004D01*
X118840724Y-77729979D01*
X118874068Y-77658473D01*
X118901740Y-77588043D01*
X118950449Y-77494672D01*
X118996364Y-77396208D01*
X119035697Y-77331262D01*
X119069324Y-77266802D01*
X119129322Y-77176668D01*
X119187141Y-77081198D01*
X119231449Y-77023246D01*
X119270096Y-76965187D01*
X119341234Y-76879652D01*
X119410823Y-76788634D01*
X119459072Y-76737968D01*
X119501773Y-76686625D01*
X119583715Y-76607079D01*
X119664793Y-76521939D01*
X119715978Y-76478684D01*
X119761755Y-76434246D01*
X119854000Y-76362047D01*
X119946081Y-76284232D01*
X119999170Y-76248423D01*
X120047069Y-76210933D01*
X120148980Y-76147375D01*
X120251396Y-76078295D01*
X120305406Y-76049819D01*
X120354511Y-76019194D01*
X120465277Y-75965529D01*
X120577166Y-75906536D01*
X120631166Y-75885156D01*
X120680576Y-75861217D01*
X120799200Y-75818627D01*
X120919580Y-75770965D01*
X120972707Y-75756331D01*
X121021589Y-75738781D01*
X121146946Y-75708338D01*
X121274633Y-75673167D01*
X121326088Y-75664833D01*
X121373677Y-75653276D01*
X121504478Y-75635940D01*
X121638172Y-75614286D01*
X121687271Y-75611713D01*
X121732857Y-75605671D01*
X121867679Y-75602258D01*
X122005943Y-75595012D01*
X122052063Y-75597591D01*
X122052063Y-75597591D01*
G37*
G36*
X129242280Y-80099082D02*
G01*
X129247000Y-80099082D01*
X129283854Y-80106413D01*
X129316461Y-80112162D01*
X129318407Y-80113285D01*
X129325036Y-80114604D01*
X129352655Y-80133058D01*
X129377539Y-80147425D01*
X129381856Y-80152570D01*
X129391192Y-80158808D01*
X129407229Y-80182809D01*
X129419232Y-80197114D01*
X129420869Y-80203222D01*
X129435396Y-80224964D01*
X129450918Y-80303000D01*
X129450918Y-80315367D01*
X129452014Y-80319457D01*
X129452014Y-81992064D01*
X129450918Y-81998280D01*
X129450918Y-82003000D01*
X129443587Y-82039854D01*
X129437838Y-82072461D01*
X129436715Y-82074407D01*
X129435396Y-82081036D01*
X129416938Y-82108660D01*
X129402573Y-82133541D01*
X129397429Y-82137857D01*
X129391192Y-82147192D01*
X129367202Y-82163221D01*
X129352889Y-82175232D01*
X129346776Y-82176870D01*
X129325036Y-82191396D01*
X129247000Y-82206918D01*
X129234633Y-82206918D01*
X129230543Y-82208014D01*
X127557936Y-82208014D01*
X127551720Y-82206918D01*
X127547000Y-82206918D01*
X127510146Y-82199587D01*
X127477539Y-82193838D01*
X127475593Y-82192715D01*
X127468964Y-82191396D01*
X127441340Y-82172938D01*
X127416459Y-82158573D01*
X127412143Y-82153429D01*
X127402808Y-82147192D01*
X127386779Y-82123202D01*
X127374768Y-82108889D01*
X127373130Y-82102776D01*
X127358604Y-82081036D01*
X127343082Y-82003000D01*
X127343082Y-81990633D01*
X127341986Y-81986543D01*
X127341986Y-80313936D01*
X127343082Y-80307720D01*
X127343082Y-80303000D01*
X127350413Y-80266146D01*
X127356162Y-80233539D01*
X127357285Y-80231593D01*
X127358604Y-80224964D01*
X127377058Y-80197345D01*
X127391425Y-80172461D01*
X127396570Y-80168144D01*
X127402808Y-80158808D01*
X127426809Y-80142771D01*
X127441114Y-80130768D01*
X127447222Y-80129131D01*
X127468964Y-80114604D01*
X127547000Y-80099082D01*
X127559367Y-80099082D01*
X127563457Y-80097986D01*
X129236064Y-80097986D01*
X129242280Y-80099082D01*
X129242280Y-80099082D01*
G37*
G36*
X151086280Y-80099082D02*
G01*
X151091000Y-80099082D01*
X151127854Y-80106413D01*
X151160461Y-80112162D01*
X151162407Y-80113285D01*
X151169036Y-80114604D01*
X151196655Y-80133058D01*
X151221539Y-80147425D01*
X151225856Y-80152570D01*
X151235192Y-80158808D01*
X151251229Y-80182809D01*
X151263232Y-80197114D01*
X151264869Y-80203222D01*
X151279396Y-80224964D01*
X151294918Y-80303000D01*
X151294918Y-80315367D01*
X151296014Y-80319457D01*
X151296014Y-81992064D01*
X151294918Y-81998280D01*
X151294918Y-82003000D01*
X151287587Y-82039854D01*
X151281838Y-82072461D01*
X151280715Y-82074407D01*
X151279396Y-82081036D01*
X151260938Y-82108660D01*
X151246573Y-82133541D01*
X151241429Y-82137857D01*
X151235192Y-82147192D01*
X151211202Y-82163221D01*
X151196889Y-82175232D01*
X151190776Y-82176870D01*
X151169036Y-82191396D01*
X151091000Y-82206918D01*
X151078633Y-82206918D01*
X151074543Y-82208014D01*
X149401936Y-82208014D01*
X149395720Y-82206918D01*
X149391000Y-82206918D01*
X149354146Y-82199587D01*
X149321539Y-82193838D01*
X149319593Y-82192715D01*
X149312964Y-82191396D01*
X149285340Y-82172938D01*
X149260459Y-82158573D01*
X149256143Y-82153429D01*
X149246808Y-82147192D01*
X149230779Y-82123202D01*
X149218768Y-82108889D01*
X149217130Y-82102776D01*
X149202604Y-82081036D01*
X149187082Y-82003000D01*
X149187082Y-81990633D01*
X149185986Y-81986543D01*
X149185986Y-80313936D01*
X149187082Y-80307720D01*
X149187082Y-80303000D01*
X149194413Y-80266146D01*
X149200162Y-80233539D01*
X149201285Y-80231593D01*
X149202604Y-80224964D01*
X149221058Y-80197345D01*
X149235425Y-80172461D01*
X149240570Y-80168144D01*
X149246808Y-80158808D01*
X149270809Y-80142771D01*
X149285114Y-80130768D01*
X149291222Y-80129131D01*
X149312964Y-80114604D01*
X149391000Y-80099082D01*
X149403367Y-80099082D01*
X149407457Y-80097986D01*
X151080064Y-80097986D01*
X151086280Y-80099082D01*
X151086280Y-80099082D01*
G37*
G36*
X166072280Y-80099082D02*
G01*
X166077000Y-80099082D01*
X166113854Y-80106413D01*
X166146461Y-80112162D01*
X166148407Y-80113285D01*
X166155036Y-80114604D01*
X166182655Y-80133058D01*
X166207539Y-80147425D01*
X166211856Y-80152570D01*
X166221192Y-80158808D01*
X166237229Y-80182809D01*
X166249232Y-80197114D01*
X166250869Y-80203222D01*
X166265396Y-80224964D01*
X166280918Y-80303000D01*
X166280918Y-80315367D01*
X166282014Y-80319457D01*
X166282014Y-81992064D01*
X166280918Y-81998280D01*
X166280918Y-82003000D01*
X166273587Y-82039854D01*
X166267838Y-82072461D01*
X166266715Y-82074407D01*
X166265396Y-82081036D01*
X166246938Y-82108660D01*
X166232573Y-82133541D01*
X166227429Y-82137857D01*
X166221192Y-82147192D01*
X166197202Y-82163221D01*
X166182889Y-82175232D01*
X166176776Y-82176870D01*
X166155036Y-82191396D01*
X166077000Y-82206918D01*
X166064633Y-82206918D01*
X166060543Y-82208014D01*
X164387936Y-82208014D01*
X164381720Y-82206918D01*
X164377000Y-82206918D01*
X164340146Y-82199587D01*
X164307539Y-82193838D01*
X164305593Y-82192715D01*
X164298964Y-82191396D01*
X164271340Y-82172938D01*
X164246459Y-82158573D01*
X164242143Y-82153429D01*
X164232808Y-82147192D01*
X164216779Y-82123202D01*
X164204768Y-82108889D01*
X164203130Y-82102776D01*
X164188604Y-82081036D01*
X164173082Y-82003000D01*
X164173082Y-81990633D01*
X164171986Y-81986543D01*
X164171986Y-80313936D01*
X164173082Y-80307720D01*
X164173082Y-80303000D01*
X164180413Y-80266146D01*
X164186162Y-80233539D01*
X164187285Y-80231593D01*
X164188604Y-80224964D01*
X164207058Y-80197345D01*
X164221425Y-80172461D01*
X164226570Y-80168144D01*
X164232808Y-80158808D01*
X164256809Y-80142771D01*
X164271114Y-80130768D01*
X164277222Y-80129131D01*
X164298964Y-80114604D01*
X164377000Y-80099082D01*
X164389367Y-80099082D01*
X164393457Y-80097986D01*
X166066064Y-80097986D01*
X166072280Y-80099082D01*
X166072280Y-80099082D01*
G37*
G36*
X142840363Y-80120976D02*
G01*
X142929595Y-80149282D01*
X143024543Y-80178764D01*
X143027595Y-80180370D01*
X143036640Y-80183239D01*
X143116609Y-80227202D01*
X143195326Y-80268617D01*
X143203122Y-80274763D01*
X143217085Y-80282439D01*
X143282717Y-80337511D01*
X143346874Y-80388088D01*
X143357686Y-80400417D01*
X143374826Y-80414799D01*
X143424718Y-80476852D01*
X143474114Y-80533178D01*
X143485808Y-80552833D01*
X143503853Y-80575277D01*
X143537849Y-80640305D01*
X143572783Y-80699023D01*
X143582941Y-80726558D01*
X143599253Y-80757760D01*
X143618196Y-80822123D01*
X143639574Y-80880071D01*
X143645638Y-80915362D01*
X143657392Y-80955298D01*
X143662899Y-81015816D01*
X143672256Y-81070268D01*
X143671702Y-81112549D01*
X143676054Y-81160366D01*
X143670368Y-81214461D01*
X143669730Y-81263226D01*
X143660216Y-81311059D01*
X143654530Y-81365153D01*
X143640333Y-81411016D01*
X143632082Y-81452497D01*
X143611604Y-81503825D01*
X143593639Y-81561860D01*
X143573842Y-81598473D01*
X143560572Y-81631735D01*
X143527615Y-81683969D01*
X143495701Y-81742993D01*
X143473255Y-81770126D01*
X143457597Y-81794942D01*
X143411222Y-81845110D01*
X143364445Y-81901654D01*
X143342131Y-81919853D01*
X143326603Y-81936651D01*
X143266561Y-81981486D01*
X143204872Y-82031799D01*
X143185120Y-82042301D01*
X143171978Y-82052115D01*
X143098703Y-82088250D01*
X143023060Y-82128470D01*
X143007804Y-82133076D01*
X142998902Y-82137466D01*
X142913304Y-82161607D01*
X142825933Y-82187986D01*
X142816489Y-82188912D01*
X142813170Y-82189848D01*
X142714116Y-82198950D01*
X142672809Y-82203000D01*
X142572667Y-82203000D01*
X142401637Y-82185024D01*
X142312405Y-82156718D01*
X142217457Y-82127236D01*
X142214405Y-82125630D01*
X142205360Y-82122761D01*
X142125391Y-82078798D01*
X142046674Y-82037383D01*
X142038878Y-82031237D01*
X142024915Y-82023561D01*
X141959283Y-81968489D01*
X141895126Y-81917912D01*
X141884314Y-81905583D01*
X141867174Y-81891201D01*
X141817282Y-81829148D01*
X141767886Y-81772822D01*
X141756192Y-81753167D01*
X141738147Y-81730723D01*
X141704151Y-81665695D01*
X141669217Y-81606977D01*
X141659059Y-81579442D01*
X141642747Y-81548240D01*
X141623804Y-81483877D01*
X141602426Y-81425929D01*
X141596362Y-81390638D01*
X141584608Y-81350702D01*
X141579101Y-81290184D01*
X141569744Y-81235732D01*
X141570298Y-81193451D01*
X141565946Y-81145634D01*
X141571632Y-81091539D01*
X141572270Y-81042774D01*
X141581784Y-80994941D01*
X141587470Y-80940847D01*
X141601667Y-80894984D01*
X141609918Y-80853503D01*
X141630396Y-80802175D01*
X141648361Y-80744140D01*
X141668158Y-80707527D01*
X141681428Y-80674265D01*
X141714385Y-80622031D01*
X141746299Y-80563007D01*
X141768745Y-80535874D01*
X141784403Y-80511058D01*
X141830778Y-80460890D01*
X141877555Y-80404346D01*
X141899869Y-80386147D01*
X141915397Y-80369349D01*
X141975439Y-80324514D01*
X142037128Y-80274201D01*
X142056880Y-80263699D01*
X142070022Y-80253885D01*
X142143297Y-80217750D01*
X142218940Y-80177530D01*
X142234196Y-80172924D01*
X142243098Y-80168534D01*
X142328696Y-80144393D01*
X142416067Y-80118014D01*
X142425511Y-80117088D01*
X142428830Y-80116152D01*
X142527884Y-80107050D01*
X142569191Y-80103000D01*
X142669333Y-80103000D01*
X142840363Y-80120976D01*
X142840363Y-80120976D01*
G37*
G36*
X145380363Y-80120976D02*
G01*
X145469595Y-80149282D01*
X145564543Y-80178764D01*
X145567595Y-80180370D01*
X145576640Y-80183239D01*
X145656609Y-80227202D01*
X145735326Y-80268617D01*
X145743122Y-80274763D01*
X145757085Y-80282439D01*
X145822717Y-80337511D01*
X145886874Y-80388088D01*
X145897686Y-80400417D01*
X145914826Y-80414799D01*
X145964718Y-80476852D01*
X146014114Y-80533178D01*
X146025808Y-80552833D01*
X146043853Y-80575277D01*
X146077849Y-80640305D01*
X146112783Y-80699023D01*
X146122941Y-80726558D01*
X146139253Y-80757760D01*
X146158196Y-80822123D01*
X146179574Y-80880071D01*
X146185638Y-80915362D01*
X146197392Y-80955298D01*
X146202899Y-81015816D01*
X146212256Y-81070268D01*
X146211702Y-81112549D01*
X146216054Y-81160366D01*
X146210368Y-81214461D01*
X146209730Y-81263226D01*
X146200216Y-81311059D01*
X146194530Y-81365153D01*
X146180333Y-81411016D01*
X146172082Y-81452497D01*
X146151604Y-81503825D01*
X146133639Y-81561860D01*
X146113842Y-81598473D01*
X146100572Y-81631735D01*
X146067615Y-81683969D01*
X146035701Y-81742993D01*
X146013255Y-81770126D01*
X145997597Y-81794942D01*
X145951222Y-81845110D01*
X145904445Y-81901654D01*
X145882131Y-81919853D01*
X145866603Y-81936651D01*
X145806561Y-81981486D01*
X145744872Y-82031799D01*
X145725120Y-82042301D01*
X145711978Y-82052115D01*
X145638703Y-82088250D01*
X145563060Y-82128470D01*
X145547804Y-82133076D01*
X145538902Y-82137466D01*
X145453304Y-82161607D01*
X145365933Y-82187986D01*
X145356489Y-82188912D01*
X145353170Y-82189848D01*
X145254116Y-82198950D01*
X145212809Y-82203000D01*
X145112667Y-82203000D01*
X144941637Y-82185024D01*
X144852405Y-82156718D01*
X144757457Y-82127236D01*
X144754405Y-82125630D01*
X144745360Y-82122761D01*
X144665391Y-82078798D01*
X144586674Y-82037383D01*
X144578878Y-82031237D01*
X144564915Y-82023561D01*
X144499283Y-81968489D01*
X144435126Y-81917912D01*
X144424314Y-81905583D01*
X144407174Y-81891201D01*
X144357282Y-81829148D01*
X144307886Y-81772822D01*
X144296192Y-81753167D01*
X144278147Y-81730723D01*
X144244151Y-81665695D01*
X144209217Y-81606977D01*
X144199059Y-81579442D01*
X144182747Y-81548240D01*
X144163804Y-81483877D01*
X144142426Y-81425929D01*
X144136362Y-81390638D01*
X144124608Y-81350702D01*
X144119101Y-81290184D01*
X144109744Y-81235732D01*
X144110298Y-81193451D01*
X144105946Y-81145634D01*
X144111632Y-81091539D01*
X144112270Y-81042774D01*
X144121784Y-80994941D01*
X144127470Y-80940847D01*
X144141667Y-80894984D01*
X144149918Y-80853503D01*
X144170396Y-80802175D01*
X144188361Y-80744140D01*
X144208158Y-80707527D01*
X144221428Y-80674265D01*
X144254385Y-80622031D01*
X144286299Y-80563007D01*
X144308745Y-80535874D01*
X144324403Y-80511058D01*
X144370778Y-80460890D01*
X144417555Y-80404346D01*
X144439869Y-80386147D01*
X144455397Y-80369349D01*
X144515439Y-80324514D01*
X144577128Y-80274201D01*
X144596880Y-80263699D01*
X144610022Y-80253885D01*
X144683297Y-80217750D01*
X144758940Y-80177530D01*
X144774196Y-80172924D01*
X144783098Y-80168534D01*
X144868696Y-80144393D01*
X144956067Y-80118014D01*
X144965511Y-80117088D01*
X144968830Y-80116152D01*
X145067884Y-80107050D01*
X145109191Y-80103000D01*
X145209333Y-80103000D01*
X145380363Y-80120976D01*
X145380363Y-80120976D01*
G37*
G36*
X147920363Y-80120976D02*
G01*
X148009595Y-80149282D01*
X148104543Y-80178764D01*
X148107595Y-80180370D01*
X148116640Y-80183239D01*
X148196609Y-80227202D01*
X148275326Y-80268617D01*
X148283122Y-80274763D01*
X148297085Y-80282439D01*
X148362717Y-80337511D01*
X148426874Y-80388088D01*
X148437686Y-80400417D01*
X148454826Y-80414799D01*
X148504718Y-80476852D01*
X148554114Y-80533178D01*
X148565808Y-80552833D01*
X148583853Y-80575277D01*
X148617849Y-80640305D01*
X148652783Y-80699023D01*
X148662941Y-80726558D01*
X148679253Y-80757760D01*
X148698196Y-80822123D01*
X148719574Y-80880071D01*
X148725638Y-80915362D01*
X148737392Y-80955298D01*
X148742899Y-81015816D01*
X148752256Y-81070268D01*
X148751702Y-81112549D01*
X148756054Y-81160366D01*
X148750368Y-81214461D01*
X148749730Y-81263226D01*
X148740216Y-81311059D01*
X148734530Y-81365153D01*
X148720333Y-81411016D01*
X148712082Y-81452497D01*
X148691604Y-81503825D01*
X148673639Y-81561860D01*
X148653842Y-81598473D01*
X148640572Y-81631735D01*
X148607615Y-81683969D01*
X148575701Y-81742993D01*
X148553255Y-81770126D01*
X148537597Y-81794942D01*
X148491222Y-81845110D01*
X148444445Y-81901654D01*
X148422131Y-81919853D01*
X148406603Y-81936651D01*
X148346561Y-81981486D01*
X148284872Y-82031799D01*
X148265120Y-82042301D01*
X148251978Y-82052115D01*
X148178703Y-82088250D01*
X148103060Y-82128470D01*
X148087804Y-82133076D01*
X148078902Y-82137466D01*
X147993304Y-82161607D01*
X147905933Y-82187986D01*
X147896489Y-82188912D01*
X147893170Y-82189848D01*
X147794116Y-82198950D01*
X147752809Y-82203000D01*
X147652667Y-82203000D01*
X147481637Y-82185024D01*
X147392405Y-82156718D01*
X147297457Y-82127236D01*
X147294405Y-82125630D01*
X147285360Y-82122761D01*
X147205391Y-82078798D01*
X147126674Y-82037383D01*
X147118878Y-82031237D01*
X147104915Y-82023561D01*
X147039283Y-81968489D01*
X146975126Y-81917912D01*
X146964314Y-81905583D01*
X146947174Y-81891201D01*
X146897282Y-81829148D01*
X146847886Y-81772822D01*
X146836192Y-81753167D01*
X146818147Y-81730723D01*
X146784151Y-81665695D01*
X146749217Y-81606977D01*
X146739059Y-81579442D01*
X146722747Y-81548240D01*
X146703804Y-81483877D01*
X146682426Y-81425929D01*
X146676362Y-81390638D01*
X146664608Y-81350702D01*
X146659101Y-81290184D01*
X146649744Y-81235732D01*
X146650298Y-81193451D01*
X146645946Y-81145634D01*
X146651632Y-81091539D01*
X146652270Y-81042774D01*
X146661784Y-80994941D01*
X146667470Y-80940847D01*
X146681667Y-80894984D01*
X146689918Y-80853503D01*
X146710396Y-80802175D01*
X146728361Y-80744140D01*
X146748158Y-80707527D01*
X146761428Y-80674265D01*
X146794385Y-80622031D01*
X146826299Y-80563007D01*
X146848745Y-80535874D01*
X146864403Y-80511058D01*
X146910778Y-80460890D01*
X146957555Y-80404346D01*
X146979869Y-80386147D01*
X146995397Y-80369349D01*
X147055439Y-80324514D01*
X147117128Y-80274201D01*
X147136880Y-80263699D01*
X147150022Y-80253885D01*
X147223297Y-80217750D01*
X147298940Y-80177530D01*
X147314196Y-80172924D01*
X147323098Y-80168534D01*
X147408696Y-80144393D01*
X147496067Y-80118014D01*
X147505511Y-80117088D01*
X147508830Y-80116152D01*
X147607884Y-80107050D01*
X147649191Y-80103000D01*
X147749333Y-80103000D01*
X147920363Y-80120976D01*
X147920363Y-80120976D01*
G37*
G36*
X136236363Y-80120976D02*
G01*
X136325595Y-80149282D01*
X136420543Y-80178764D01*
X136423595Y-80180370D01*
X136432640Y-80183239D01*
X136512609Y-80227202D01*
X136591326Y-80268617D01*
X136599122Y-80274763D01*
X136613085Y-80282439D01*
X136678717Y-80337511D01*
X136742874Y-80388088D01*
X136753686Y-80400417D01*
X136770826Y-80414799D01*
X136820718Y-80476852D01*
X136870114Y-80533178D01*
X136881808Y-80552833D01*
X136899853Y-80575277D01*
X136933849Y-80640305D01*
X136968783Y-80699023D01*
X136978941Y-80726558D01*
X136995253Y-80757760D01*
X137014196Y-80822123D01*
X137035574Y-80880071D01*
X137041638Y-80915362D01*
X137053392Y-80955298D01*
X137058899Y-81015816D01*
X137068256Y-81070268D01*
X137067702Y-81112549D01*
X137072054Y-81160366D01*
X137066368Y-81214461D01*
X137065730Y-81263226D01*
X137056216Y-81311059D01*
X137050530Y-81365153D01*
X137036333Y-81411016D01*
X137028082Y-81452497D01*
X137007604Y-81503825D01*
X136989639Y-81561860D01*
X136969842Y-81598473D01*
X136956572Y-81631735D01*
X136923615Y-81683969D01*
X136891701Y-81742993D01*
X136869255Y-81770126D01*
X136853597Y-81794942D01*
X136807222Y-81845110D01*
X136760445Y-81901654D01*
X136738131Y-81919853D01*
X136722603Y-81936651D01*
X136662561Y-81981486D01*
X136600872Y-82031799D01*
X136581120Y-82042301D01*
X136567978Y-82052115D01*
X136494703Y-82088250D01*
X136419060Y-82128470D01*
X136403804Y-82133076D01*
X136394902Y-82137466D01*
X136309304Y-82161607D01*
X136221933Y-82187986D01*
X136212489Y-82188912D01*
X136209170Y-82189848D01*
X136110116Y-82198950D01*
X136068809Y-82203000D01*
X135968667Y-82203000D01*
X135797637Y-82185024D01*
X135708405Y-82156718D01*
X135613457Y-82127236D01*
X135610405Y-82125630D01*
X135601360Y-82122761D01*
X135521391Y-82078798D01*
X135442674Y-82037383D01*
X135434878Y-82031237D01*
X135420915Y-82023561D01*
X135355283Y-81968489D01*
X135291126Y-81917912D01*
X135280314Y-81905583D01*
X135263174Y-81891201D01*
X135213282Y-81829148D01*
X135163886Y-81772822D01*
X135152192Y-81753167D01*
X135134147Y-81730723D01*
X135100151Y-81665695D01*
X135065217Y-81606977D01*
X135055059Y-81579442D01*
X135038747Y-81548240D01*
X135019804Y-81483877D01*
X134998426Y-81425929D01*
X134992362Y-81390638D01*
X134980608Y-81350702D01*
X134975101Y-81290184D01*
X134965744Y-81235732D01*
X134966298Y-81193451D01*
X134961946Y-81145634D01*
X134967632Y-81091539D01*
X134968270Y-81042774D01*
X134977784Y-80994941D01*
X134983470Y-80940847D01*
X134997667Y-80894984D01*
X135005918Y-80853503D01*
X135026396Y-80802175D01*
X135044361Y-80744140D01*
X135064158Y-80707527D01*
X135077428Y-80674265D01*
X135110385Y-80622031D01*
X135142299Y-80563007D01*
X135164745Y-80535874D01*
X135180403Y-80511058D01*
X135226778Y-80460890D01*
X135273555Y-80404346D01*
X135295869Y-80386147D01*
X135311397Y-80369349D01*
X135371439Y-80324514D01*
X135433128Y-80274201D01*
X135452880Y-80263699D01*
X135466022Y-80253885D01*
X135539297Y-80217750D01*
X135614940Y-80177530D01*
X135630196Y-80172924D01*
X135639098Y-80168534D01*
X135724696Y-80144393D01*
X135812067Y-80118014D01*
X135821511Y-80117088D01*
X135824830Y-80116152D01*
X135923884Y-80107050D01*
X135965191Y-80103000D01*
X136065333Y-80103000D01*
X136236363Y-80120976D01*
X136236363Y-80120976D01*
G37*
G36*
X133696363Y-80120976D02*
G01*
X133785595Y-80149282D01*
X133880543Y-80178764D01*
X133883595Y-80180370D01*
X133892640Y-80183239D01*
X133972609Y-80227202D01*
X134051326Y-80268617D01*
X134059122Y-80274763D01*
X134073085Y-80282439D01*
X134138717Y-80337511D01*
X134202874Y-80388088D01*
X134213686Y-80400417D01*
X134230826Y-80414799D01*
X134280718Y-80476852D01*
X134330114Y-80533178D01*
X134341808Y-80552833D01*
X134359853Y-80575277D01*
X134393849Y-80640305D01*
X134428783Y-80699023D01*
X134438941Y-80726558D01*
X134455253Y-80757760D01*
X134474196Y-80822123D01*
X134495574Y-80880071D01*
X134501638Y-80915362D01*
X134513392Y-80955298D01*
X134518899Y-81015816D01*
X134528256Y-81070268D01*
X134527702Y-81112549D01*
X134532054Y-81160366D01*
X134526368Y-81214461D01*
X134525730Y-81263226D01*
X134516216Y-81311059D01*
X134510530Y-81365153D01*
X134496333Y-81411016D01*
X134488082Y-81452497D01*
X134467604Y-81503825D01*
X134449639Y-81561860D01*
X134429842Y-81598473D01*
X134416572Y-81631735D01*
X134383615Y-81683969D01*
X134351701Y-81742993D01*
X134329255Y-81770126D01*
X134313597Y-81794942D01*
X134267222Y-81845110D01*
X134220445Y-81901654D01*
X134198131Y-81919853D01*
X134182603Y-81936651D01*
X134122561Y-81981486D01*
X134060872Y-82031799D01*
X134041120Y-82042301D01*
X134027978Y-82052115D01*
X133954703Y-82088250D01*
X133879060Y-82128470D01*
X133863804Y-82133076D01*
X133854902Y-82137466D01*
X133769304Y-82161607D01*
X133681933Y-82187986D01*
X133672489Y-82188912D01*
X133669170Y-82189848D01*
X133570116Y-82198950D01*
X133528809Y-82203000D01*
X133428667Y-82203000D01*
X133257637Y-82185024D01*
X133168405Y-82156718D01*
X133073457Y-82127236D01*
X133070405Y-82125630D01*
X133061360Y-82122761D01*
X132981391Y-82078798D01*
X132902674Y-82037383D01*
X132894878Y-82031237D01*
X132880915Y-82023561D01*
X132815283Y-81968489D01*
X132751126Y-81917912D01*
X132740314Y-81905583D01*
X132723174Y-81891201D01*
X132673282Y-81829148D01*
X132623886Y-81772822D01*
X132612192Y-81753167D01*
X132594147Y-81730723D01*
X132560151Y-81665695D01*
X132525217Y-81606977D01*
X132515059Y-81579442D01*
X132498747Y-81548240D01*
X132479804Y-81483877D01*
X132458426Y-81425929D01*
X132452362Y-81390638D01*
X132440608Y-81350702D01*
X132435101Y-81290184D01*
X132425744Y-81235732D01*
X132426298Y-81193451D01*
X132421946Y-81145634D01*
X132427632Y-81091539D01*
X132428270Y-81042774D01*
X132437784Y-80994941D01*
X132443470Y-80940847D01*
X132457667Y-80894984D01*
X132465918Y-80853503D01*
X132486396Y-80802175D01*
X132504361Y-80744140D01*
X132524158Y-80707527D01*
X132537428Y-80674265D01*
X132570385Y-80622031D01*
X132602299Y-80563007D01*
X132624745Y-80535874D01*
X132640403Y-80511058D01*
X132686778Y-80460890D01*
X132733555Y-80404346D01*
X132755869Y-80386147D01*
X132771397Y-80369349D01*
X132831439Y-80324514D01*
X132893128Y-80274201D01*
X132912880Y-80263699D01*
X132926022Y-80253885D01*
X132999297Y-80217750D01*
X133074940Y-80177530D01*
X133090196Y-80172924D01*
X133099098Y-80168534D01*
X133184696Y-80144393D01*
X133272067Y-80118014D01*
X133281511Y-80117088D01*
X133284830Y-80116152D01*
X133383884Y-80107050D01*
X133425191Y-80103000D01*
X133525333Y-80103000D01*
X133696363Y-80120976D01*
X133696363Y-80120976D01*
G37*
G36*
X157826363Y-80120976D02*
G01*
X157915595Y-80149282D01*
X158010543Y-80178764D01*
X158013595Y-80180370D01*
X158022640Y-80183239D01*
X158102609Y-80227202D01*
X158181326Y-80268617D01*
X158189122Y-80274763D01*
X158203085Y-80282439D01*
X158268717Y-80337511D01*
X158332874Y-80388088D01*
X158343686Y-80400417D01*
X158360826Y-80414799D01*
X158410718Y-80476852D01*
X158460114Y-80533178D01*
X158471808Y-80552833D01*
X158489853Y-80575277D01*
X158523849Y-80640305D01*
X158558783Y-80699023D01*
X158568941Y-80726558D01*
X158585253Y-80757760D01*
X158604196Y-80822123D01*
X158625574Y-80880071D01*
X158631638Y-80915362D01*
X158643392Y-80955298D01*
X158648899Y-81015816D01*
X158658256Y-81070268D01*
X158657702Y-81112549D01*
X158662054Y-81160366D01*
X158656368Y-81214461D01*
X158655730Y-81263226D01*
X158646216Y-81311059D01*
X158640530Y-81365153D01*
X158626333Y-81411016D01*
X158618082Y-81452497D01*
X158597604Y-81503825D01*
X158579639Y-81561860D01*
X158559842Y-81598473D01*
X158546572Y-81631735D01*
X158513615Y-81683969D01*
X158481701Y-81742993D01*
X158459255Y-81770126D01*
X158443597Y-81794942D01*
X158397222Y-81845110D01*
X158350445Y-81901654D01*
X158328131Y-81919853D01*
X158312603Y-81936651D01*
X158252561Y-81981486D01*
X158190872Y-82031799D01*
X158171120Y-82042301D01*
X158157978Y-82052115D01*
X158084703Y-82088250D01*
X158009060Y-82128470D01*
X157993804Y-82133076D01*
X157984902Y-82137466D01*
X157899304Y-82161607D01*
X157811933Y-82187986D01*
X157802489Y-82188912D01*
X157799170Y-82189848D01*
X157700116Y-82198950D01*
X157658809Y-82203000D01*
X157558667Y-82203000D01*
X157387637Y-82185024D01*
X157298405Y-82156718D01*
X157203457Y-82127236D01*
X157200405Y-82125630D01*
X157191360Y-82122761D01*
X157111391Y-82078798D01*
X157032674Y-82037383D01*
X157024878Y-82031237D01*
X157010915Y-82023561D01*
X156945283Y-81968489D01*
X156881126Y-81917912D01*
X156870314Y-81905583D01*
X156853174Y-81891201D01*
X156803282Y-81829148D01*
X156753886Y-81772822D01*
X156742192Y-81753167D01*
X156724147Y-81730723D01*
X156690151Y-81665695D01*
X156655217Y-81606977D01*
X156645059Y-81579442D01*
X156628747Y-81548240D01*
X156609804Y-81483877D01*
X156588426Y-81425929D01*
X156582362Y-81390638D01*
X156570608Y-81350702D01*
X156565101Y-81290184D01*
X156555744Y-81235732D01*
X156556298Y-81193451D01*
X156551946Y-81145634D01*
X156557632Y-81091539D01*
X156558270Y-81042774D01*
X156567784Y-80994941D01*
X156573470Y-80940847D01*
X156587667Y-80894984D01*
X156595918Y-80853503D01*
X156616396Y-80802175D01*
X156634361Y-80744140D01*
X156654158Y-80707527D01*
X156667428Y-80674265D01*
X156700385Y-80622031D01*
X156732299Y-80563007D01*
X156754745Y-80535874D01*
X156770403Y-80511058D01*
X156816778Y-80460890D01*
X156863555Y-80404346D01*
X156885869Y-80386147D01*
X156901397Y-80369349D01*
X156961439Y-80324514D01*
X157023128Y-80274201D01*
X157042880Y-80263699D01*
X157056022Y-80253885D01*
X157129297Y-80217750D01*
X157204940Y-80177530D01*
X157220196Y-80172924D01*
X157229098Y-80168534D01*
X157314696Y-80144393D01*
X157402067Y-80118014D01*
X157411511Y-80117088D01*
X157414830Y-80116152D01*
X157513884Y-80107050D01*
X157555191Y-80103000D01*
X157655333Y-80103000D01*
X157826363Y-80120976D01*
X157826363Y-80120976D01*
G37*
G36*
X160366363Y-80120976D02*
G01*
X160455595Y-80149282D01*
X160550543Y-80178764D01*
X160553595Y-80180370D01*
X160562640Y-80183239D01*
X160642609Y-80227202D01*
X160721326Y-80268617D01*
X160729122Y-80274763D01*
X160743085Y-80282439D01*
X160808717Y-80337511D01*
X160872874Y-80388088D01*
X160883686Y-80400417D01*
X160900826Y-80414799D01*
X160950718Y-80476852D01*
X161000114Y-80533178D01*
X161011808Y-80552833D01*
X161029853Y-80575277D01*
X161063849Y-80640305D01*
X161098783Y-80699023D01*
X161108941Y-80726558D01*
X161125253Y-80757760D01*
X161144196Y-80822123D01*
X161165574Y-80880071D01*
X161171638Y-80915362D01*
X161183392Y-80955298D01*
X161188899Y-81015816D01*
X161198256Y-81070268D01*
X161197702Y-81112549D01*
X161202054Y-81160366D01*
X161196368Y-81214461D01*
X161195730Y-81263226D01*
X161186216Y-81311059D01*
X161180530Y-81365153D01*
X161166333Y-81411016D01*
X161158082Y-81452497D01*
X161137604Y-81503825D01*
X161119639Y-81561860D01*
X161099842Y-81598473D01*
X161086572Y-81631735D01*
X161053615Y-81683969D01*
X161021701Y-81742993D01*
X160999255Y-81770126D01*
X160983597Y-81794942D01*
X160937222Y-81845110D01*
X160890445Y-81901654D01*
X160868131Y-81919853D01*
X160852603Y-81936651D01*
X160792561Y-81981486D01*
X160730872Y-82031799D01*
X160711120Y-82042301D01*
X160697978Y-82052115D01*
X160624703Y-82088250D01*
X160549060Y-82128470D01*
X160533804Y-82133076D01*
X160524902Y-82137466D01*
X160439304Y-82161607D01*
X160351933Y-82187986D01*
X160342489Y-82188912D01*
X160339170Y-82189848D01*
X160240116Y-82198950D01*
X160198809Y-82203000D01*
X160098667Y-82203000D01*
X159927637Y-82185024D01*
X159838405Y-82156718D01*
X159743457Y-82127236D01*
X159740405Y-82125630D01*
X159731360Y-82122761D01*
X159651391Y-82078798D01*
X159572674Y-82037383D01*
X159564878Y-82031237D01*
X159550915Y-82023561D01*
X159485283Y-81968489D01*
X159421126Y-81917912D01*
X159410314Y-81905583D01*
X159393174Y-81891201D01*
X159343282Y-81829148D01*
X159293886Y-81772822D01*
X159282192Y-81753167D01*
X159264147Y-81730723D01*
X159230151Y-81665695D01*
X159195217Y-81606977D01*
X159185059Y-81579442D01*
X159168747Y-81548240D01*
X159149804Y-81483877D01*
X159128426Y-81425929D01*
X159122362Y-81390638D01*
X159110608Y-81350702D01*
X159105101Y-81290184D01*
X159095744Y-81235732D01*
X159096298Y-81193451D01*
X159091946Y-81145634D01*
X159097632Y-81091539D01*
X159098270Y-81042774D01*
X159107784Y-80994941D01*
X159113470Y-80940847D01*
X159127667Y-80894984D01*
X159135918Y-80853503D01*
X159156396Y-80802175D01*
X159174361Y-80744140D01*
X159194158Y-80707527D01*
X159207428Y-80674265D01*
X159240385Y-80622031D01*
X159272299Y-80563007D01*
X159294745Y-80535874D01*
X159310403Y-80511058D01*
X159356778Y-80460890D01*
X159403555Y-80404346D01*
X159425869Y-80386147D01*
X159441397Y-80369349D01*
X159501439Y-80324514D01*
X159563128Y-80274201D01*
X159582880Y-80263699D01*
X159596022Y-80253885D01*
X159669297Y-80217750D01*
X159744940Y-80177530D01*
X159760196Y-80172924D01*
X159769098Y-80168534D01*
X159854696Y-80144393D01*
X159942067Y-80118014D01*
X159951511Y-80117088D01*
X159954830Y-80116152D01*
X160053884Y-80107050D01*
X160095191Y-80103000D01*
X160195333Y-80103000D01*
X160366363Y-80120976D01*
X160366363Y-80120976D01*
G37*
G36*
X162906363Y-80120976D02*
G01*
X162995595Y-80149282D01*
X163090543Y-80178764D01*
X163093595Y-80180370D01*
X163102640Y-80183239D01*
X163182609Y-80227202D01*
X163261326Y-80268617D01*
X163269122Y-80274763D01*
X163283085Y-80282439D01*
X163348717Y-80337511D01*
X163412874Y-80388088D01*
X163423686Y-80400417D01*
X163440826Y-80414799D01*
X163490718Y-80476852D01*
X163540114Y-80533178D01*
X163551808Y-80552833D01*
X163569853Y-80575277D01*
X163603849Y-80640305D01*
X163638783Y-80699023D01*
X163648941Y-80726558D01*
X163665253Y-80757760D01*
X163684196Y-80822123D01*
X163705574Y-80880071D01*
X163711638Y-80915362D01*
X163723392Y-80955298D01*
X163728899Y-81015816D01*
X163738256Y-81070268D01*
X163737702Y-81112549D01*
X163742054Y-81160366D01*
X163736368Y-81214461D01*
X163735730Y-81263226D01*
X163726216Y-81311059D01*
X163720530Y-81365153D01*
X163706333Y-81411016D01*
X163698082Y-81452497D01*
X163677604Y-81503825D01*
X163659639Y-81561860D01*
X163639842Y-81598473D01*
X163626572Y-81631735D01*
X163593615Y-81683969D01*
X163561701Y-81742993D01*
X163539255Y-81770126D01*
X163523597Y-81794942D01*
X163477222Y-81845110D01*
X163430445Y-81901654D01*
X163408131Y-81919853D01*
X163392603Y-81936651D01*
X163332561Y-81981486D01*
X163270872Y-82031799D01*
X163251120Y-82042301D01*
X163237978Y-82052115D01*
X163164703Y-82088250D01*
X163089060Y-82128470D01*
X163073804Y-82133076D01*
X163064902Y-82137466D01*
X162979304Y-82161607D01*
X162891933Y-82187986D01*
X162882489Y-82188912D01*
X162879170Y-82189848D01*
X162780116Y-82198950D01*
X162738809Y-82203000D01*
X162638667Y-82203000D01*
X162467637Y-82185024D01*
X162378405Y-82156718D01*
X162283457Y-82127236D01*
X162280405Y-82125630D01*
X162271360Y-82122761D01*
X162191391Y-82078798D01*
X162112674Y-82037383D01*
X162104878Y-82031237D01*
X162090915Y-82023561D01*
X162025283Y-81968489D01*
X161961126Y-81917912D01*
X161950314Y-81905583D01*
X161933174Y-81891201D01*
X161883282Y-81829148D01*
X161833886Y-81772822D01*
X161822192Y-81753167D01*
X161804147Y-81730723D01*
X161770151Y-81665695D01*
X161735217Y-81606977D01*
X161725059Y-81579442D01*
X161708747Y-81548240D01*
X161689804Y-81483877D01*
X161668426Y-81425929D01*
X161662362Y-81390638D01*
X161650608Y-81350702D01*
X161645101Y-81290184D01*
X161635744Y-81235732D01*
X161636298Y-81193451D01*
X161631946Y-81145634D01*
X161637632Y-81091539D01*
X161638270Y-81042774D01*
X161647784Y-80994941D01*
X161653470Y-80940847D01*
X161667667Y-80894984D01*
X161675918Y-80853503D01*
X161696396Y-80802175D01*
X161714361Y-80744140D01*
X161734158Y-80707527D01*
X161747428Y-80674265D01*
X161780385Y-80622031D01*
X161812299Y-80563007D01*
X161834745Y-80535874D01*
X161850403Y-80511058D01*
X161896778Y-80460890D01*
X161943555Y-80404346D01*
X161965869Y-80386147D01*
X161981397Y-80369349D01*
X162041439Y-80324514D01*
X162103128Y-80274201D01*
X162122880Y-80263699D01*
X162136022Y-80253885D01*
X162209297Y-80217750D01*
X162284940Y-80177530D01*
X162300196Y-80172924D01*
X162309098Y-80168534D01*
X162394696Y-80144393D01*
X162482067Y-80118014D01*
X162491511Y-80117088D01*
X162494830Y-80116152D01*
X162593884Y-80107050D01*
X162635191Y-80103000D01*
X162735333Y-80103000D01*
X162906363Y-80120976D01*
X162906363Y-80120976D01*
G37*
G36*
X131156363Y-80120976D02*
G01*
X131245595Y-80149282D01*
X131340543Y-80178764D01*
X131343595Y-80180370D01*
X131352640Y-80183239D01*
X131432609Y-80227202D01*
X131511326Y-80268617D01*
X131519122Y-80274763D01*
X131533085Y-80282439D01*
X131598717Y-80337511D01*
X131662874Y-80388088D01*
X131673686Y-80400417D01*
X131690826Y-80414799D01*
X131740718Y-80476852D01*
X131790114Y-80533178D01*
X131801808Y-80552833D01*
X131819853Y-80575277D01*
X131853849Y-80640305D01*
X131888783Y-80699023D01*
X131898941Y-80726558D01*
X131915253Y-80757760D01*
X131934196Y-80822123D01*
X131955574Y-80880071D01*
X131961638Y-80915362D01*
X131973392Y-80955298D01*
X131978899Y-81015816D01*
X131988256Y-81070268D01*
X131987702Y-81112549D01*
X131992054Y-81160366D01*
X131986368Y-81214461D01*
X131985730Y-81263226D01*
X131976216Y-81311059D01*
X131970530Y-81365153D01*
X131956333Y-81411016D01*
X131948082Y-81452497D01*
X131927604Y-81503825D01*
X131909639Y-81561860D01*
X131889842Y-81598473D01*
X131876572Y-81631735D01*
X131843615Y-81683969D01*
X131811701Y-81742993D01*
X131789255Y-81770126D01*
X131773597Y-81794942D01*
X131727222Y-81845110D01*
X131680445Y-81901654D01*
X131658131Y-81919853D01*
X131642603Y-81936651D01*
X131582561Y-81981486D01*
X131520872Y-82031799D01*
X131501120Y-82042301D01*
X131487978Y-82052115D01*
X131414703Y-82088250D01*
X131339060Y-82128470D01*
X131323804Y-82133076D01*
X131314902Y-82137466D01*
X131229304Y-82161607D01*
X131141933Y-82187986D01*
X131132489Y-82188912D01*
X131129170Y-82189848D01*
X131030116Y-82198950D01*
X130988809Y-82203000D01*
X130888667Y-82203000D01*
X130717637Y-82185024D01*
X130628405Y-82156718D01*
X130533457Y-82127236D01*
X130530405Y-82125630D01*
X130521360Y-82122761D01*
X130441391Y-82078798D01*
X130362674Y-82037383D01*
X130354878Y-82031237D01*
X130340915Y-82023561D01*
X130275283Y-81968489D01*
X130211126Y-81917912D01*
X130200314Y-81905583D01*
X130183174Y-81891201D01*
X130133282Y-81829148D01*
X130083886Y-81772822D01*
X130072192Y-81753167D01*
X130054147Y-81730723D01*
X130020151Y-81665695D01*
X129985217Y-81606977D01*
X129975059Y-81579442D01*
X129958747Y-81548240D01*
X129939804Y-81483877D01*
X129918426Y-81425929D01*
X129912362Y-81390638D01*
X129900608Y-81350702D01*
X129895101Y-81290184D01*
X129885744Y-81235732D01*
X129886298Y-81193451D01*
X129881946Y-81145634D01*
X129887632Y-81091539D01*
X129888270Y-81042774D01*
X129897784Y-80994941D01*
X129903470Y-80940847D01*
X129917667Y-80894984D01*
X129925918Y-80853503D01*
X129946396Y-80802175D01*
X129964361Y-80744140D01*
X129984158Y-80707527D01*
X129997428Y-80674265D01*
X130030385Y-80622031D01*
X130062299Y-80563007D01*
X130084745Y-80535874D01*
X130100403Y-80511058D01*
X130146778Y-80460890D01*
X130193555Y-80404346D01*
X130215869Y-80386147D01*
X130231397Y-80369349D01*
X130291439Y-80324514D01*
X130353128Y-80274201D01*
X130372880Y-80263699D01*
X130386022Y-80253885D01*
X130459297Y-80217750D01*
X130534940Y-80177530D01*
X130550196Y-80172924D01*
X130559098Y-80168534D01*
X130644696Y-80144393D01*
X130732067Y-80118014D01*
X130741511Y-80117088D01*
X130744830Y-80116152D01*
X130843884Y-80107050D01*
X130885191Y-80103000D01*
X130985333Y-80103000D01*
X131156363Y-80120976D01*
X131156363Y-80120976D01*
G37*
M02*
